<svg id="Capa_1" data-name="Capa 1" xmlns="http://www.w3.org/2000/svg" viewBox="0 0 154.78 176.6"><defs><style>.cls-1{opacity:0.5;}.cls-2{fill:#959595;}</style></defs><title>fondoonna</title><g class="cls-1"><path d="M514.45,551.61a181.12,181.12,0,0,0-76.53,132.57,161.55,161.55,0,0,0,153.07,0,181.09,181.09,0,0,0-76.54-132.57Z" transform="translate(-437.07 -551.61)"/><path class="cls-2" d="M514.55,552.43c-.56-.42-.42-.18-.51-.23C515,552.86,514.54,552.39,514.55,552.43Z" transform="translate(-437.07 -551.61)"/><polygon class="cls-2" points="86.83 7.62 86.65 7.52 88.03 8.53 86.83 7.62"/><path class="cls-2" d="M532.09,566.28a18,18,0,0,0-1.87-1.78c-.84-.7-1.77-1.46-2.48-2.11l-.22-.24-.75-.46C528.56,563.2,530.93,565.12,532.09,566.28Z" transform="translate(-437.07 -551.61)"/><path class="cls-2" d="M536,570.51c-.2-.29.94.82-.95-.94l.17.18Z" transform="translate(-437.07 -551.61)"/><path class="cls-2" d="M535.24,569.75c-.83-.79.49.55,0,0Z" transform="translate(-437.07 -551.61)"/><path class="cls-2" d="M539,573.4l-1.09-1c.19.25,1.11,1.21.75.88C539.76,574.33,539.56,574.08,539,573.4Z" transform="translate(-437.07 -551.61)"/><path class="cls-2" d="M540.09,574.33l-.56-.54A3.18,3.18,0,0,0,540.09,574.33Z" transform="translate(-437.07 -551.61)"/><path class="cls-2" d="M538.33,572.65l1.2,1.14a1.49,1.49,0,0,0-.55-.52C539.11,573.32,538.85,573.13,538.33,572.65Z" transform="translate(-437.07 -551.61)"/><path class="cls-2" d="M537.7,572c-.57-.62-1.34-1.39-.21-.39C535.41,569.61,535.63,570,537.7,572Z" transform="translate(-437.07 -551.61)"/><path class="cls-2" d="M532.63,566.52l-.8-.8-.76-.61C531.45,565.42,532.64,566.61,532.63,566.52Z" transform="translate(-437.07 -551.61)"/><path class="cls-2" d="M545.32,580.26c.1,0-.26-.44-.3-.55l-.78-.79A14.09,14.09,0,0,1,545.32,580.26Z" transform="translate(-437.07 -551.61)"/><path class="cls-2" d="M545,579.71c.39.38.76.79,1.14,1.19C545.21,579.77,545,579.61,545,579.71Z" transform="translate(-437.07 -551.61)"/><polygon class="cls-2" points="103.35 22.77 101.35 20.92 103.72 23.15 103.35 22.77"/><path class="cls-2" d="M549.43,585.06c-.21-.23-.44-.45-.67-.67.41.39.78.8,1.17,1.21Z" transform="translate(-437.07 -551.61)"/><path class="cls-2" d="M552.07,588.31c-.49-.49.5.82,0,.28l1.93,2.27C553.44,590.13,552.84,589.34,552.07,588.31Z" transform="translate(-437.07 -551.61)"/><path class="cls-2" d="M555,592l-.94-1.13C554.32,591.25,554.63,591.62,555,592Z" transform="translate(-437.07 -551.61)"/><path class="cls-2" d="M548,583.05a6.7,6.7,0,0,0,.77,1.06l-.35-.56Z" transform="translate(-437.07 -551.61)"/><path class="cls-2" d="M548.4,583.53v0l.92,1.07Z" transform="translate(-437.07 -551.61)"/><path class="cls-2" d="M547.88,582.93l.11.12A.41.41,0,0,0,547.88,582.93Z" transform="translate(-437.07 -551.61)"/><path class="cls-2" d="M543.33,577.61c.7.67,2.12,2.13.86.62C543.66,577.76,544.39,578.63,543.33,577.61Z" transform="translate(-437.07 -551.61)"/><path class="cls-2" d="M547.46,582.23l-1.13-1.35s.17.31-.16,0Z" transform="translate(-437.07 -551.61)"/><polygon class="cls-2" points="110.98 31.25 110.39 30.62 110.81 31.12 110.98 31.25"/><path class="cls-2" d="M553.23,589.52c.5.57,1,1.24,1.56,2-.59-.82-1.18-1.68-1.81-2.44C552.87,589,552.55,588.68,553.23,589.52Z" transform="translate(-437.07 -551.61)"/><path class="cls-2" d="M550.91,586.59l.11.12C551,586.63,550.91,586.56,550.91,586.59Z" transform="translate(-437.07 -551.61)"/><path class="cls-2" d="M560.17,599l-.07-.13,0,0Z" transform="translate(-437.07 -551.61)"/><path class="cls-2" d="M552.89,588.93a15.92,15.92,0,0,0-1-1.26c.35.44.73.9,1.14,1.4C553,589.11,553.05,589.11,552.89,588.93Z" transform="translate(-437.07 -551.61)"/><path class="cls-2" d="M556.54,594c-.23-.33-.48-.69-.74-1.08A9.13,9.13,0,0,0,556.54,594Z" transform="translate(-437.07 -551.61)"/><path class="cls-2" d="M551.16,586.93l-.08-.08C551.22,587.05,551.21,587,551.16,586.93Z" transform="translate(-437.07 -551.61)"/><path class="cls-2" d="M551.16,586.93c.25.29.46.52.68.74l-.82-1Z" transform="translate(-437.07 -551.61)"/><path class="cls-2" d="M562.3,601a5.73,5.73,0,0,1-.82-1.05c-.43-.59-1-1.35-1.41-2.09-1-1.36-.66-.26,0,1.06.07,0,.1,0,1.14,1.39-.3-.53-2.09-3.25-1.19-2.09a16,16,0,0,1,1.63,2.54c-.41-.87,1.72,2.38,1.6,1.86l-1.14-1.68S562.58,601.46,562.3,601Z" transform="translate(-437.07 -551.61)"/><path class="cls-2" d="M558.23,596.16l-.42-.58c.45.68.75,1.18,1.3,2.11a6.92,6.92,0,0,0,1,1.18l-2-2.91Z" transform="translate(-437.07 -551.61)"/><path class="cls-2" d="M555.91,593c.43.39,1.49,1.74,1,.83-1.27-1.68-1-1.13-1.75-2.11,2,2.7-.63-.74.79,1.25l-1.12-1.44,1,1.43,0-.07h0c-.07-.12-.1-.17,0,0l0,.06s.07.05.12.09c.57.8.07.14-.12-.09l0,0h0c.68.9,1.41,1.77,2,2.71C557.42,595,556.88,594.25,555.91,593Z" transform="translate(-437.07 -551.61)"/><path class="cls-2" d="M545.59,579.41c.06.08,0,.08,0,.1C545.8,579.66,545.87,579.71,545.59,579.41Z" transform="translate(-437.07 -551.61)"/><path class="cls-2" d="M546.46,580.5c-.17-.17-.33-.31-.86-.91s0,0,0-.08c-.35-.34-1.2-1.2-.21,0l.17.17a25.3,25.3,0,0,1,1.75,2.3A10.44,10.44,0,0,0,546.46,580.5Z" transform="translate(-437.07 -551.61)"/><path class="cls-2" d="M551.4,586.71l1.82,2.17-.83-1.18v.09C551.4,586.52,551.56,586.84,551.4,586.71Z" transform="translate(-437.07 -551.61)"/><polygon class="cls-2" points="123.24 47.71 122.94 47.46 124 48.72 123.24 47.71"/><polygon class="cls-2" points="125.27 50.77 125.11 50.71 125.68 51.49 125.27 50.77"/><path class="cls-2" d="M474.28,699l-.82-.18Z" transform="translate(-437.07 -551.61)"/><path class="cls-2" d="M480.16,700.36l.16,0C480,700.31,479.92,700.3,480.16,700.36Z" transform="translate(-437.07 -551.61)"/><path class="cls-2" d="M588.24,684.92a12.41,12.41,0,0,0-2.21,1l.38-.07C587.15,685.43,587.74,685.15,588.24,684.92Z" transform="translate(-437.07 -551.61)"/><path class="cls-2" d="M529.42,702.77h.35l.81-.18Z" transform="translate(-437.07 -551.61)"/><path class="cls-2" d="M528.61,703.3c-.54,0-1.07.06-1.61.06A15,15,0,0,0,528.61,703.3Z" transform="translate(-437.07 -551.61)"/><path class="cls-2" d="M443.25,687.7l-.93-.33C443.69,688.05,443.12,687.69,443.25,687.7Z" transform="translate(-437.07 -551.61)"/><path class="cls-2" d="M579.3,635.85c.34,1,.62,1.77.86,2.46A15.75,15.75,0,0,0,579.3,635.85Z" transform="translate(-437.07 -551.61)"/><path class="cls-2" d="M476.85,698.43c-.49-.11-.71-.14-.7-.11C476.66,698.43,477,698.48,476.85,698.43Z" transform="translate(-437.07 -551.61)"/><path class="cls-2" d="M581.15,641.15l-.16-.53c-.27-.71-.53-1.43-.83-2.31A24.1,24.1,0,0,0,581.15,641.15Z" transform="translate(-437.07 -551.61)"/><path class="cls-2" d="M480.8,581.31l.19-.2S480.92,581.17,480.8,581.31Z" transform="translate(-437.07 -551.61)"/><path class="cls-2" d="M506.65,558.05l-1.11.89Z" transform="translate(-437.07 -551.61)"/><path class="cls-2" d="M569.77,615.13c-.37-.68-.07-.1,0,0Z" transform="translate(-437.07 -551.61)"/><path class="cls-2" d="M568.34,611.59c.1.14.17.24.21.24A.88.88,0,0,1,568.34,611.59Z" transform="translate(-437.07 -551.61)"/><path class="cls-2" d="M584.16,648.34l0,.07C584.14,648.18,584.14,648.22,584.16,648.34Z" transform="translate(-437.07 -551.61)"/><path class="cls-2" d="M569.26,614.07l.44.9C569.63,614.82,569.5,614.55,569.26,614.07Z" transform="translate(-437.07 -551.61)"/><path class="cls-2" d="M569.29,614.23l-.31-.6C568.92,613.55,569,613.63,569.29,614.23Z" transform="translate(-437.07 -551.61)"/><path class="cls-2" d="M570.28,616.09,569.7,615c.06.14.09.19.07.16Z" transform="translate(-437.07 -551.61)"/><path class="cls-2" d="M448.45,636.32l.07-.15C448.75,635.41,448.64,635.74,448.45,636.32Z" transform="translate(-437.07 -551.61)"/><path class="cls-2" d="M570.08,694.09l.08,0-.11,0Z" transform="translate(-437.07 -551.61)"/><path class="cls-2" d="M567.46,695.11a16.91,16.91,0,0,1,2.59-1l-1,0Z" transform="translate(-437.07 -551.61)"/><path class="cls-2" d="M460.41,694.78l1.83.75c-2.3-.64-3.92-1.28-2.21-.52.36-.18,7.31,2.42,7.69,2.13l1.23.43-.78-.21c2.4.84,1.87.32,5,1.2,1.1.31,1.86.55,1.1.4l2.48.54c.71.19.52.2-.19,0,1.25.31,2.52.54,3.78.82h0c.55.07,1.79.25,2.39.35,1,.24-.49-.07-.25,0,.7.13,1.41.21,2.12.32s-.93,0-2.37-.29c1.89.74,1.76.24,6,1.21l-2-.31a41.14,41.14,0,0,0,5.08,1.06c-.54-.12-4.49-1-2.18-.7.65.12,1.5.25,2.75.36a12.63,12.63,0,0,0,2.73.47l-.12.15a22.11,22.11,0,0,0,2.51.07,9.41,9.41,0,0,1,2.63.51c2.94.33-2-.4,1.47-.08,2.45.21,4.18.28,7.12.33,1.72.09-.31.09.31.15l1.53-.1c.37,0,.25,0,.19.07a18.84,18.84,0,0,1,2.13-.16,20,20,0,0,1,2.59.07,32.12,32.12,0,0,0,4.05-.06c.62,0-.29.1-.1.16a55.86,55.86,0,0,0,5.73-.53l2.4,0c-1.77,0,.48-.24,2.42-.59l-1.52,0,3.11-.41c.38,0,.07.08-.43.2l.57-.1c1.12-.06.55.09-.24.27h-1.14c-.76.18-1.47.36-1.3.44s.59-.1,1-.15c-.2.05-.33.08-.23.09a6.57,6.57,0,0,0,.94-.16l.73.11.16-.09c1.37-.12,2.75-.17,4.11-.35l4.35-.92c1.56-.34,3.32-.77,5.61-1.21-1.11.33-.2.25-.24.41-1.28.05-3.54.76-5.95,1.07,1.26-.16,1,0,.68,0,1.42-.27,2.82-.6,4.23-.9-.07.15.92-.06,2-.21-.89-.06,3.11-.85,4.81-1.3.13.06-.26.23-2.37.67,2.36-.32,2.93-.91,5.22-1.34a5.56,5.56,0,0,0-1,.28,17.94,17.94,0,0,1,3.42-.81l-.51.13c1.7-.39,4.23-1.18,6.41-1.82a33.68,33.68,0,0,0,4.17-1.56s-.36.39-.54.49c1.89-.86,3.75-1.81,5.6-2.73-.45.36,1.68,0-1,1.13a31.39,31.39,0,0,0,3.37-1.28c-.54.18-1.41.26-.7,0,2-.59,1.42-.4,3.9-1.26-.8.29,0-.33,1.19-.84-.17.12.22.22-.22.43,1-.5,2-1,2.94-1.58-.74.38,0,.27.68,0a9.31,9.31,0,0,1,1.28-.6c.8-.37,1.73-.81,2.12-1l-1.3.55c3.42-1.58,3.18-2,6.49-3.66-.19.13-.39.34-.34.41s.12,0,.31,0l.36-.14.25-.11.36-.18.53-.37-.15-.72-.17-.66c-.11-.46-.23-1-.37-1.53-.26-1.14-.54-2.48-.76-3.88V677l-.42-2.48c.43,1.52,1.45,5.84,1.84,8.24a17.76,17.76,0,0,0-.17-2.5c0-.75.25,1.13.31,1.75q-.22-2.44-.51-4.89c-.14.24-.67-3.7-.8-3.49q.48,2.63.88,5.26c-.14.23-.82-3-1.33-6.43-.07-.89.39.6.44.52-.11-.44-.62-3.24-.65-3.56l.34,1.44c-.27-1.92-.73-3.08-1-5.39a20.62,20.62,0,0,0-.38-2.51c.08,1.32-.47,1.69-.77.87,0-.28-.67-4.1-.83-5.06-.15-1.32.81,1.85.68.73a6.9,6.9,0,0,1-.37-1c-.16-.83.22.31-.23-1.47-.23-.26-.87-3.62-.34-.81-.44-1.74-.47-1.84-1-3.88.07.68-.84-1.72-1.41-3.42.07.09,0-.31,0-.51-.49-1.76-.93-3.1-1.32-4.42s-.81-2.6-1.38-4.21c-.07-.31-.56-1.89-.26-1.25-.19-.46-.4-.86-.78-1.85-.59-2,.86,2.2.47.68-.14-.09-1.1-2.51-1.69-3.89a41.27,41.27,0,0,0,1.79,4.65c-.19.07-1.31-2.31-2.71-5.58-1.13-2.6-.34-1.19-.55-1.63a35.17,35.17,0,0,0-2-4.37c-.51-.89-.88-1.72-1.78-3.73-.64-1.64.2-.19.12-.58,1.07,2.05,1.4,3.26,2.06,4.68l-.73-1.79c.34.66,1,2.05,1.31,2.83-.47-1.39-3.63-8.24-5.56-11.88-.38-.62-1-1.72-.78-1.16L571,616c.47,1.11-1.27-2.1-.55-.62-.88-1.5-1.87-3.18-3.08-5.32l-.1-.47a14.42,14.42,0,0,0,1.11,2c-.57-.85-1.71-3.35-2.45-4.22l.78,1.54-1.58-2.42c-.57-.86-1.19-1.75-1.74-2.68.4.92.28.41,1,1.81-.28-.62.5.53,1.13,1.66s1.24,2.14.8,1.15c.61,1.47,1.3,2.41,2.18,4.29,0-.08-.26-.69.57.93,0,.06.16.23.23.33l0,.11,0-.09c0,.07,0,.07,0,0a7.87,7.87,0,0,1-.37-.86c.52.74,1.88,3.31,2.39,4.15s-.27-.38,0,.17l.77,1.26c0,.17,1.09,2.66-.08.4l1,2.06c.52,1.25,1.33,2.92,1.82,4s1.23,2.45.76,1.62c.51,1.09,1,2.17,1.5,3.27l0,0c.67,1.65,1.44,3.31,2.11,5.07a56.22,56.22,0,0,1,1.94,5.54c.43,1.12.87,2.27,1.43,4.19l0,.4c.53,1.44,1.24,4.43,1.53,5,.24,1.65,1.88,7.19,2.42,9.83l.14.08c.41,1.81.79,3.54,1.29,5.8l.09-.16c.48,1.93.84,5,1.31,8.14a12.27,12.27,0,0,1-.24-1.55c.33,3.73,1.27,7.85,1.39,11.21l0,.27-.16.09-.21.11-.62.3.18-.11-.31.16-1.07.5.9-.41-2.31,1.24-.42.07-.2.11c-.87.39-.66.39-.16.25l-1.13.63c-.78.15-2.27,1.17-3.33,1.41-.27.18-1.38.7-2.47,1.22a18.37,18.37,0,0,0-2.37,1.21s-.31.09.17-.12c-1,.39-2,.81-2.9,1.2l-.49,0-2.14,1c-1.38.43-2,.55-.66,0-3.19,1.31-2.6,1-5.33,2.13l.11-.14c-1,.33-2.56,1-3.19,1.08l-2.8.75c-1.25.33-2.75.8-4.38,1.19-3.26.87-7,1.68-10,2.18,1.2.08-2.78.37-3,.64-.35,0-1.19.1-.24-.13-.75.15-1.41.28-2,.38l-1.66.21a27.94,27.94,0,0,0-3,.51c-.36,0,.63-.19.32-.19a9.06,9.06,0,0,1-1.28.2c-.32,0,.44-.12.91-.22-3.1.44-3.4.61-3.61.85a17.82,17.82,0,0,0-3.51.41c-.56,0-1.49,0,.45-.2-1.09.13-6.69.34-6.8.52-.34,0-1.53,0-1.82.07l-5.1.1h.67a19,19,0,0,1-4,0l.06,0c-2.24-.11-2.72-.11-3.2-.1a25.22,25.22,0,0,1-3.14-.22l.23.13a8.52,8.52,0,0,1-2.43-.12l-2-.21c-.69-.09-1.39-.17-2-.21l.92.16c-1.41-.05-3.86-.74-5.25-.93-.3-.06.48,0,.91.05-3.62-.61-.49.11-3.21-.23-.49-.16.67-.12-1.15-.4-.44-.11-1.78-.18-3.3-.41s-3.24-.48-4.46-.78c.53.16,1.06.32-.2.15-1.91-.4-5.11-1.32-6.86-1.57a1.63,1.63,0,0,1-.33-.13c-1.46-.31-4.72-1.1-5.6-1.28-1.23-.72-8.94-2.52-8.77-2.93-1.44-.52-2.89-1-4.32-1.54h.13c-2.72-1.08-3.73-1.36-4.71-1.69-.61-.28-.14-.13-.08-.12l-4-1.77-3.61-1.48-.28-.27c-.36-.15-1.29-.6-2.49-1.25l-3.93-2.1c0-.37.06-.73.1-1.09l.1-1.39a2.09,2.09,0,0,1,0,.46c.3-4.73,1.79-11.17,1.68-12.94.13-1,.29-2.06.46-3.09-.81,4-.08-.63-.47,1,.28-1.57.92-4,.57-2.09l-.08.3c.06.74,1.1-4.9,1.24-4.76a181,181,0,0,1,6.62-22.14l-.46.75c.28-.82.6-1.63.91-2.43.28-.62.46-.81-.21.92a16.79,16.79,0,0,0,1-3c1.37-3.35-.31,1.4.09.37l.53-1.42-.14.31a29,29,0,0,1,1.21-3.34,7.8,7.8,0,0,1,.6-1.14,4.94,4.94,0,0,0,.34-.78l1.35-3-.67,1.13c.53-1.35,1.26-2.8.5-1.49.54-1,1.9-3.71,3.2-6.35s2.68-5.12,3-5.7c.88-1.83,1.92-3.55,3.17-5.69-.33.51-.66.75.44-1.09-.15.82,2.22-3.24,3.35-4.57-.47.61.31-.7,1.09-1.87s1.5-2.26.72-1.32c1-1.46.17,0,1-1.09.58-.89,1.2-1.82,1.87-2.77l2.18-2.86c1.47-2,3.15-4,4.78-6,0-.1-.59.55.07-.37.62-.69,1.29-1.33,1.95-2a12.45,12.45,0,0,1,1.78-2.22c-.2.18-.5.44-.06-.1.85-1,1.75-1.9,2.63-2.85s1.77-1.92,2.67-2.86c1.84-1.87,3.65-3.79,5.57-5.6a120.36,120.36,0,0,1,11.95-10.33c-1.14.83-.42.23.41-.46-.55.43-.05-.1-.2-.05l3.55-2.58c.53-.62,3.74-2.83,4-3.21l-1.11.83c1.38-1.24-2.32,1.22-2.24.87-1.53,1.4-4.53,3.09-6.95,5.5-.62.44.44-.47.09-.25a37.29,37.29,0,0,1-2.87,2.54l.15-.16c-4.07,3.57-5.84,5.09-10.23,9.32l.4-.24c-.93.92-1.15,1.09-1.6,1.51-.92,1.2,2.58-2.62,1.77-1.5-.69.54-2.32,2.18-3.87,3.79a43.53,43.53,0,0,1-3.49,3.57c-1.35,1.5.48-.36-.85,1.16l-.4.35-.26.45a7.14,7.14,0,0,1-1.46,1.43c.22-.24.58-.7.8-1-.59.62-1.37,1.54-2.06,2.36s-1.22,1.57-1.42,1.79l1.25-1.48a162.78,162.78,0,0,0-10.43,14.08l.27-.3c-2.23,3.38-1.84,2.67-4.22,6.43l.08-.14c-.43.78-1.06,1.79-1.66,2.85.51-1-1.18,1.76-.5.45a43.88,43.88,0,0,0-2.29,4.54c-.15.17-.28.36-.41.54a29.12,29.12,0,0,1-1.4,3c.78-1.64-.79,1.19.07-.66-2.4,4-3,6.26-4.17,8.06-.69,2,1.89-3.58,1.42-2.47.51-.87-.6,1.67-1.26,3s-1.35,2.16-2.85,5.6l.28-.72c-.6,1.27-1,2.58-1.72,4.13a17.78,17.78,0,0,0-.74,2.41c.39-1.08.79-2.15,1.23-3.21-.72,1.81-1.12,3.61-2.36,6.57a17.32,17.32,0,0,1,.54-1.78c-.4.85-.61,1.7-1,2.6-.13-.34,1.41-3.93,2-5.94-.44.92-1.28,3.75-1.1,2.69-.31,1.5-1.31,3.46-1.95,5.93l-.06-.2c-.12.39-.33,1.19-.56,1.9l.27-1.32c-.5,2-1.35,3.73-1.83,5.65,1.21-4,.4-.85,1-2.49A32.7,32.7,0,0,1,444,649a24.35,24.35,0,0,0-1.38,4.33c.18-.75.81-2.78.55-1.6s-.71,2.42-.94,3c-.89,3.68.25-.54-.07,1a24.09,24.09,0,0,0-.72,3.44h-.12c-1,4.19,0,1.16-.89,4.94,0-.55.1-1.1.16-1.64-.13.66-.25,1.32-.36,2l-.05-.44c-.32,2.18-.5,2.84-.89,5,.17-.48.16.32-.15,2.2-.26,1.27,0-.74-.39,1.93a9.37,9.37,0,0,1,.32-2.43c0-.13,0-.61,0-.74-.33,1.37-.56,3.48-.72,4.45.06-.37.14-.82.19-1-.15,1.29-.25,2.6-.37,3.9-.13.61-.1.12-.07-.37-.1.79-.1,1.34-.22,2.5-.06-.31-.18-.25,0-1.89l-.32,3.72c-.06.25-.3,1.9-.29,1.41l-.07.66-.11,1.24,1.13.58.69.34,1.46.7c1,.47,2,1,3,1.47.14,0,.4.15.94.39,1.16.57,2.24,1.13,3.4,1.65s2.39,1.09,3.83,1.61l1.53.83c2.24.87-2.09-1.08,1.64.34,2.65,1,.92.52,1.83.93,1.34.44,3.71,1.07,6.11,2.06C461.79,695.3,461.17,695,460.41,694.78ZM489,702a13.12,13.12,0,0,1-2.11-.34A9.36,9.36,0,0,1,489,702Zm44.73.56a13.61,13.61,0,0,1-1.82.17C532.48,702.65,533.08,702.59,533.76,702.55Zm40-79.85,0,0C574.25,623.91,574.07,623.5,573.71,622.7Zm-1.1-2.4c-.13-.23-.14-.21-.1-.1s.36.69.65,1.3A6.57,6.57,0,0,0,572.61,620.3Zm-120.32,8.58-.22.46C452.48,628.25,452.38,628.57,452.29,628.88Z" transform="translate(-437.07 -551.61)"/><path class="cls-2" d="M528.72,703.24a.61.61,0,0,1-.25,0C528.25,703.24,528.24,703.26,528.72,703.24Z" transform="translate(-437.07 -551.61)"/><path class="cls-2" d="M443.42,687.76l-.08,0-.09,0Z" transform="translate(-437.07 -551.61)"/><path class="cls-2" d="M587.33,658.42a8.62,8.62,0,0,1,.19,1S587.52,659.23,587.33,658.42Z" transform="translate(-437.07 -551.61)"/><path class="cls-2" d="M565.77,608.14l.88,1.44c-.42-.7-.54-1-.73-1.34C565.91,608.29,566,608.59,565.77,608.14Z" transform="translate(-437.07 -551.61)"/><path class="cls-2" d="M558.42,595.43l-.45-.62v.08C558.57,595.76,559,596.34,558.42,595.43Z" transform="translate(-437.07 -551.61)"/><path class="cls-2" d="M565.33,606.58a9.51,9.51,0,0,0-1.21-2l.11.17C563.91,604.5,564.65,605.52,565.33,606.58Z" transform="translate(-437.07 -551.61)"/><path class="cls-2" d="M564,604.31c-.2-.31-.4-.62-.59-.93C563.25,603.3,563.6,603.77,564,604.31Z" transform="translate(-437.07 -551.61)"/><path class="cls-2" d="M571,617.35c-.23-.5-.27-.25-.39-.55C570.24,616.31,572.53,620,571,617.35Z" transform="translate(-437.07 -551.61)"/><path class="cls-2" d="M565.12,605.59l.12.42.42.52C565.49,606.21,565.31,605.89,565.12,605.59Z" transform="translate(-437.07 -551.61)"/><path class="cls-2" d="M569.7,613.75c-.29-.56-.56-1.13-.86-1.69a2,2,0,0,1-.29-.42C569.14,612.65,569.68,613.81,569.7,613.75Z" transform="translate(-437.07 -551.61)"/><path class="cls-2" d="M568.55,611.64c-.3-.52-.6-1-.79-1.3Z" transform="translate(-437.07 -551.61)"/><polygon class="cls-2" points="129.41 56.19 129.66 56.69 130.33 57.85 129.41 56.19"/><path class="cls-2" d="M578.37,632.16c.28.63.55,1.26.8,1.91.11.18-.06-.36-.36-1.07C578.59,632.55,578.29,631.85,578.37,632.16Z" transform="translate(-437.07 -551.61)"/><path class="cls-2" d="M576.24,626.27a6.65,6.65,0,0,1,.28.87h.17Z" transform="translate(-437.07 -551.61)"/><path class="cls-2" d="M578.64,631.81c.12.17,1.25,2.74.25.31C578.77,631.94,577.94,630,578.64,631.81Z" transform="translate(-437.07 -551.61)"/><polygon class="cls-2" points="150.56 110.03 150.44 109.52 150.21 109.64 150.56 110.03"/><path class="cls-2" d="M587.15,686.92c2.22-1,.46-.38,2.46-1.35.49-.32-1.64.79-1.14.47C587.18,686.76,586.46,687.08,587.15,686.92Z" transform="translate(-437.07 -551.61)"/><path class="cls-2" d="M588.47,686c.21-.11.43-.25.66-.38Z" transform="translate(-437.07 -551.61)"/><path class="cls-2" d="M511.31,554.65c.42-.3.85-.6,1.29-.89l-.87.53Z" transform="translate(-437.07 -551.61)"/><path class="cls-2" d="M513.63,552.72l.4-.08.68-.67A12.67,12.67,0,0,1,513.63,552.72Z" transform="translate(-437.07 -551.61)"/><path class="cls-2" d="M493.33,702.93l.13,0a10.09,10.09,0,0,0-1.34-.24Z" transform="translate(-437.07 -551.61)"/><polygon class="cls-2" points="35.24 147.01 35.6 147.11 34.97 146.8 35.24 147.01"/><path class="cls-2" d="M455.13,693.15l2.19.83C455.81,693.43,455,692.91,455.13,693.15Z" transform="translate(-437.07 -551.61)"/></g><g class="cls-1"><path d="M514.45,728.21A181.09,181.09,0,0,0,591,595.64a161.55,161.55,0,0,0-153.07,0,181.12,181.12,0,0,0,76.53,132.57Z" transform="translate(-437.07 -551.61)"/><path class="cls-2" d="M514.36,727.39c.56.41.42.18.51.23C513.91,727,514.36,727.43,514.36,727.39Z" transform="translate(-437.07 -551.61)"/><polygon class="cls-2" points="67.94 168.98 68.13 169.07 66.75 168.07 67.94 168.98"/><path class="cls-2" d="M496.82,713.53a16,16,0,0,0,1.87,1.79c.84.7,1.77,1.46,2.48,2.11l.22.24.75.46C500.35,716.62,498,714.7,496.82,713.53Z" transform="translate(-437.07 -551.61)"/><path class="cls-2" d="M492.88,709.31c.21.29-.93-.82,1,.94l-.17-.18Z" transform="translate(-437.07 -551.61)"/><path class="cls-2" d="M493.67,710.07c.82.79-.49-.56,0,0Z" transform="translate(-437.07 -551.61)"/><path class="cls-2" d="M489.91,706.41l1.09,1c-.19-.25-1.12-1.21-.75-.88C489.15,705.49,489.35,705.74,489.91,706.41Z" transform="translate(-437.07 -551.61)"/><path class="cls-2" d="M488.82,705.49l.56.54A3.18,3.18,0,0,0,488.82,705.49Z" transform="translate(-437.07 -551.61)"/><path class="cls-2" d="M490.57,707.16,489.38,706a1.41,1.41,0,0,0,.55.52C489.79,706.49,490.06,706.69,490.57,707.16Z" transform="translate(-437.07 -551.61)"/><path class="cls-2" d="M491.21,707.85c.57.62,1.34,1.38.21.38C493.5,710.21,493.28,709.83,491.21,707.85Z" transform="translate(-437.07 -551.61)"/><path class="cls-2" d="M496.28,713.3l.8.79.76.62C497.46,714.4,496.27,713.21,496.28,713.3Z" transform="translate(-437.07 -551.61)"/><path class="cls-2" d="M483.59,699.56c-.1,0,.26.44.3.55l.78.79A15.52,15.52,0,0,1,483.59,699.56Z" transform="translate(-437.07 -551.61)"/><path class="cls-2" d="M483.89,700.11c-.4-.38-.77-.79-1.14-1.2C483.7,700.05,483.93,700.2,483.89,700.11Z" transform="translate(-437.07 -551.61)"/><polygon class="cls-2" points="51.43 153.83 53.43 155.68 51.06 153.45 51.43 153.83"/><path class="cls-2" d="M479.48,694.76c.21.23.44.44.67.66-.41-.38-.79-.79-1.17-1.2Z" transform="translate(-437.07 -551.61)"/><path class="cls-2" d="M476.84,691.51c.49.49-.5-.82,0-.28L474.9,689C475.47,689.69,476.07,690.48,476.84,691.51Z" transform="translate(-437.07 -551.61)"/><path class="cls-2" d="M474,687.83l.95,1.13C474.59,688.57,474.28,688.2,474,687.83Z" transform="translate(-437.07 -551.61)"/><path class="cls-2" d="M480.92,696.76a7.62,7.62,0,0,0-.77-1l.35.56Z" transform="translate(-437.07 -551.61)"/><path class="cls-2" d="M480.51,696.29v0l-.92-1.07Z" transform="translate(-437.07 -551.61)"/><path class="cls-2" d="M481,696.89l-.11-.13A.35.35,0,0,0,481,696.89Z" transform="translate(-437.07 -551.61)"/><path class="cls-2" d="M485.58,702.21c-.7-.68-2.12-2.13-.86-.62C485.25,702.05,484.52,701.19,485.58,702.21Z" transform="translate(-437.07 -551.61)"/><path class="cls-2" d="M481.45,697.59l1.13,1.35c0-.05-.17-.31.16,0Z" transform="translate(-437.07 -551.61)"/><polygon class="cls-2" points="43.8 145.35 44.39 145.98 43.97 145.48 43.8 145.35"/><path class="cls-2" d="M475.68,690.3c-.5-.57-1-1.24-1.56-2,.59.81,1.18,1.68,1.81,2.44C476,690.84,476.36,691.14,475.68,690.3Z" transform="translate(-437.07 -551.61)"/><path class="cls-2" d="M478,693.23l-.11-.13C478,693.19,478,693.26,478,693.23Z" transform="translate(-437.07 -551.61)"/><path class="cls-2" d="M468.74,680.8l.07.13,0,0Z" transform="translate(-437.07 -551.61)"/><path class="cls-2" d="M476,690.89a14,14,0,0,0,1.05,1.26l-1.14-1.4C475.88,690.71,475.86,690.71,476,690.89Z" transform="translate(-437.07 -551.61)"/><path class="cls-2" d="M472.37,685.8c.23.32.48.69.74,1.08A9.13,9.13,0,0,0,472.37,685.8Z" transform="translate(-437.07 -551.61)"/><path class="cls-2" d="M477.75,692.89l.08.08C477.69,692.76,477.7,692.8,477.75,692.89Z" transform="translate(-437.07 -551.61)"/><path class="cls-2" d="M477.75,692.89c-.25-.3-.47-.52-.68-.74l.82,1Z" transform="translate(-437.07 -551.61)"/><path class="cls-2" d="M466.61,678.85a5.73,5.73,0,0,1,.82,1c.43.59,1,1.35,1.4,2.09,1,1.35.67.25,0-1.06-.07,0-.1,0-1.14-1.39.3.53,2.09,3.24,1.18,2.09a16.45,16.45,0,0,1-1.62-2.54c.41.87-1.72-2.38-1.6-1.86l1.14,1.67C466.76,679,466.33,678.36,466.61,678.85Z" transform="translate(-437.07 -551.61)"/><path class="cls-2" d="M470.68,683.66l.42.58c-.45-.68-.75-1.18-1.3-2.11a6.92,6.92,0,0,0-1-1.18l2,2.9Z" transform="translate(-437.07 -551.61)"/><path class="cls-2" d="M473,686.83c-.42-.38-1.48-1.73-.95-.82,1.27,1.68,1,1.13,1.75,2.11-2.05-2.7.63.74-.79-1.26.41.53.77,1,1.12,1.45l-1-1.43,0,.07h0c.07.12.1.16,0,0l0-.06a.64.64,0,0,1-.13-.1c-.56-.79-.07-.14.13.1l0,0h0c-.68-.91-1.41-1.78-2-2.71C471.48,684.85,472,685.57,473,686.83Z" transform="translate(-437.07 -551.61)"/><path class="cls-2" d="M483.32,700.41c-.06-.08-.06-.09-.06-.1S483,700.1,483.32,700.41Z" transform="translate(-437.07 -551.61)"/><path class="cls-2" d="M482.44,699.31c.18.18.34.32.87.92s0,0-.05.08c.35.34,1.21,1.2.22.05l-.17-.17a23.13,23.13,0,0,1-1.75-2.31A9.89,9.89,0,0,0,482.44,699.31Z" transform="translate(-437.07 -551.61)"/><path class="cls-2" d="M477.5,693.11l-1.81-2.17.83,1.18V692C477.51,693.29,477.35,693,477.5,693.11Z" transform="translate(-437.07 -551.61)"/><polygon class="cls-2" points="31.54 128.89 31.84 129.14 30.78 127.88 31.54 128.89"/><polygon class="cls-2" points="29.51 125.83 29.67 125.89 29.1 125.11 29.51 125.83"/><path class="cls-2" d="M554.63,580.86l.82.18Z" transform="translate(-437.07 -551.61)"/><path class="cls-2" d="M548.74,579.46l-.15,0C548.87,579.51,549,579.52,548.74,579.46Z" transform="translate(-437.07 -551.61)"/><path class="cls-2" d="M440.67,594.9a12,12,0,0,0,2.21-1l-.38.07C441.75,594.39,441.17,594.67,440.67,594.9Z" transform="translate(-437.07 -551.61)"/><path class="cls-2" d="M499.49,577.05h-.36l-.8.19Z" transform="translate(-437.07 -551.61)"/><path class="cls-2" d="M500.3,576.52c.54,0,1.07-.06,1.61-.07C501.55,576.45,501,576.46,500.3,576.52Z" transform="translate(-437.07 -551.61)"/><path class="cls-2" d="M585.66,592.12l.92.33C585.22,591.77,585.79,592.13,585.66,592.12Z" transform="translate(-437.07 -551.61)"/><path class="cls-2" d="M449.61,644l-.86-2.46A15.75,15.75,0,0,0,449.61,644Z" transform="translate(-437.07 -551.61)"/><path class="cls-2" d="M552.05,581.39c.5.11.72.14.71.11C552.25,581.39,552,581.34,552.05,581.39Z" transform="translate(-437.07 -551.61)"/><path class="cls-2" d="M447.76,638.67l.16.52c.27.72.53,1.44.83,2.32A24.1,24.1,0,0,0,447.76,638.67Z" transform="translate(-437.07 -551.61)"/><path class="cls-2" d="M548.11,698.51l-.19.2S548,698.65,548.11,698.51Z" transform="translate(-437.07 -551.61)"/><path class="cls-2" d="M522.25,721.77l1.12-.89Z" transform="translate(-437.07 -551.61)"/><path class="cls-2" d="M459.14,664.69c.37.68.07.1,0,0Z" transform="translate(-437.07 -551.61)"/><path class="cls-2" d="M460.57,668.23c-.1-.14-.17-.24-.21-.25A1.17,1.17,0,0,1,460.57,668.23Z" transform="translate(-437.07 -551.61)"/><path class="cls-2" d="M444.75,631.48l0-.07C444.77,631.64,444.77,631.6,444.75,631.48Z" transform="translate(-437.07 -551.61)"/><path class="cls-2" d="M459.65,665.75l-.44-.9Z" transform="translate(-437.07 -551.61)"/><path class="cls-2" d="M459.62,665.58l.31.61C460,666.27,460,666.19,459.62,665.58Z" transform="translate(-437.07 -551.61)"/><path class="cls-2" d="M458.63,663.73l.58,1.12c-.07-.14-.09-.2-.07-.16Z" transform="translate(-437.07 -551.61)"/><path class="cls-2" d="M580.46,643.5l-.07.15C580.16,644.41,580.27,644.08,580.46,643.5Z" transform="translate(-437.07 -551.61)"/><path class="cls-2" d="M458.83,585.73l-.08,0,.11,0Z" transform="translate(-437.07 -551.61)"/><path class="cls-2" d="M461.45,584.71a16.91,16.91,0,0,1-2.59,1l1,0Z" transform="translate(-437.07 -551.61)"/><path class="cls-2" d="M568.5,585l-1.83-.76c2.3.65,3.92,1.29,2.21.53-.36.18-7.31-2.42-7.69-2.13l-1.23-.43.78.21c-2.4-.85-1.87-.33-5-1.21-1.09-.3-1.85-.54-1.09-.39l-2.48-.54c-.71-.19-.52-.2.19,0-1.25-.32-2.52-.54-3.78-.82h0c-.55-.07-1.79-.25-2.39-.35-1-.25.49.07.25,0-.7-.14-1.41-.21-2.12-.32s.93,0,2.37.29c-1.9-.74-1.76-.24-6-1.22l2,.32a38.76,38.76,0,0,0-5.07-1.06c.54.12,4.49,1,2.18.7-.65-.12-1.5-.25-2.75-.36a11.94,11.94,0,0,0-2.73-.47l.12-.15a19.93,19.93,0,0,0-2.51-.07,9.84,9.84,0,0,1-2.63-.51c-2.94-.33,2,.4-1.47.07-2.45-.21-4.18-.27-7.12-.32-1.72-.09.31-.09-.31-.15l-1.53.09c-.37,0-.25,0-.19-.06-1.29,0-.11.15-2.13.16A18.83,18.83,0,0,1,514,576a34.11,34.11,0,0,0-4.05.07c-.62,0,.29-.11.1-.16a53.17,53.17,0,0,0-5.73.53l-2.4,0c1.77,0-.48.25-2.42.6l1.52,0-3.11.4c-.38,0-.08-.07.43-.19l-.57.1c-1.12,0-.55-.1.24-.27l1.13,0c.77-.17,1.48-.35,1.31-.43s-.59.1-1,.15c.2,0,.33-.08.23-.09a7.58,7.58,0,0,0-.94.15l-.73-.1-.16.09c-1.37.12-2.75.17-4.11.35l-4.36.92c-1.55.34-3.31.77-5.6,1.21,1.11-.33.2-.25.24-.41,1.28,0,3.54-.76,5.95-1.07-1.26.16-1,0-.68,0-1.42.26-2.82.6-4.23.89.07-.14-.92.07-2,.22.88.06-3.11.85-4.81,1.3-.13-.06.26-.24,2.37-.67-2.36.32-2.93.91-5.22,1.34a5.56,5.56,0,0,0,1-.28,18.91,18.91,0,0,1-3.42.81l.51-.13c-1.7.38-4.23,1.17-6.41,1.82a36.45,36.45,0,0,0-4.17,1.55,2.09,2.09,0,0,1,.54-.49c-1.89.87-3.75,1.82-5.6,2.74.45-.36-1.68,0,1-1.14a34.5,34.5,0,0,0-3.37,1.29c.54-.18,1.41-.26.7,0-2.05.59-1.42.4-3.9,1.26.8-.3,0,.33-1.2.84.18-.12-.21-.22.23-.43-1,.5-2,1-2.94,1.58.74-.38,0-.28-.68,0a12.53,12.53,0,0,1-1.29.6c-.79.37-1.72.81-2.11,1l1.3-.55c-3.42,1.58-3.18,2-6.49,3.66.19-.13.39-.34.34-.41s-.12,0-.31,0a3.14,3.14,0,0,0-.36.14l-.25.11-.36.18-.53.37.15.72.17.66.36,1.53c.27,1.14.55,2.48.77,3.88v.63l.43,2.49c-.44-1.52-1.46-5.84-1.84-8.24a17.76,17.76,0,0,0,.17,2.5c0,.75-.25-1.13-.31-1.75q.22,2.45.51,4.89c.14-.24.66,3.7.8,3.49q-.48-2.62-.88-5.26c.14-.24.82,3,1.33,6.43.07.89-.39-.61-.44-.53.11.44.62,3.25.65,3.57l-.34-1.44c.27,1.92.73,3.08,1,5.39a21,21,0,0,0,.38,2.51c-.08-1.32.47-1.69.77-.87,0,.28.67,4.1.82,5.06.16,1.31-.8-1.85-.67-.73a8.28,8.28,0,0,1,.37,1c.16.82-.22-.31.23,1.47.23.26.87,3.62.34.8.44,1.75.47,1.85,1,3.89-.08-.68.84,1.72,1.41,3.42-.07-.09,0,.31,0,.51.49,1.76.92,3.1,1.32,4.42s.81,2.6,1.38,4.21c.06.31.56,1.89.26,1.25.19.46.39.86.78,1.84.59,2-.86-2.19-.47-.67.14.09,1.1,2.5,1.69,3.88a43.35,43.35,0,0,0-1.79-4.64c.19-.07,1.3,2.3,2.7,5.58,1.13,2.6.35,1.19.56,1.63a35.17,35.17,0,0,0,2,4.37c.5.89.88,1.71,1.78,3.73.64,1.64-.21.19-.12.58-1.08-2-1.41-3.26-2.06-4.68l.73,1.78a31.11,31.11,0,0,1-1.31-2.83c.47,1.4,3.63,8.25,5.56,11.88.38.63,1,1.72.78,1.17l-.63-1.14c-.46-1.11,1.28,2.09.56.61.87,1.51,1.87,3.19,3.08,5.32l.1.48a17.75,17.75,0,0,0-1.11-2c.57.85,1.71,3.36,2.45,4.23l-.78-1.54c.48.73,1,1.56,1.57,2.42s1.2,1.75,1.75,2.68c-.4-.92-.28-.42-1-1.81.28.62-.5-.54-1.13-1.66s-1.24-2.14-.8-1.15c-.62-1.48-1.31-2.41-2.18-4.29,0,.08.25.69-.57-.93-.06-.07-.16-.23-.23-.33l-.05-.11,0,.09c-.05-.07-.05-.07,0,0a7.87,7.87,0,0,1,.37.86c-.53-.74-1.88-3.31-2.39-4.15s.27.37,0-.17l-.77-1.26c0-.17-1.09-2.67.08-.4l-1-2.07c-.52-1.24-1.33-2.91-1.82-3.95s-1.23-2.44-.76-1.61c-.51-1.09-1-2.17-1.5-3.27l0-.05c-.67-1.64-1.44-3.3-2.11-5.07a54.46,54.46,0,0,1-1.94-5.54c-.43-1.11-.87-2.27-1.44-4.18l0-.4c-.53-1.45-1.24-4.44-1.53-5-.24-1.65-1.88-7.19-2.42-9.84l-.15-.07-1.28-5.8L441,614c-.48-1.93-.84-5-1.31-8.15a12.82,12.82,0,0,1,.24,1.56c-.34-3.73-1.27-7.85-1.39-11.21l0-.27.16-.09.21-.11.62-.3-.18.1.31-.16,1.07-.49-.91.41,2.32-1.24.42-.08.2-.1c.87-.39.66-.4.16-.25L444,593c.78-.15,2.27-1.17,3.32-1.41.28-.18,1.39-.7,2.48-1.22a18.37,18.37,0,0,0,2.37-1.21s.31-.09-.17.12c1-.4,2-.81,2.9-1.21l.49,0,2.14-1c1.37-.43,2-.55.66,0,3.19-1.32,2.6-1,5.33-2.13l-.11.14c1-.33,2.56-1,3.19-1.09l2.8-.74c1.25-.34,2.75-.81,4.38-1.19,3.25-.87,7-1.68,10-2.19-1.2-.07,2.78-.36,3-.63.35,0,1.19-.1.24.13.75-.15,1.41-.28,2-.38l1.66-.21c1-.14,1.94-.27,3-.51.36,0-.63.19-.32.19a9.06,9.06,0,0,1,1.28-.2c.32,0-.44.12-.91.21,3.1-.43,3.4-.6,3.61-.84a18.61,18.61,0,0,0,3.51-.41c.56,0,1.49,0-.46.2,1.1-.13,6.7-.34,6.81-.52.34,0,1.53,0,1.82-.07l5.1-.1h-.67a19,19,0,0,1,4,0l-.06,0c2.24.11,2.72.1,3.19.1a25.22,25.22,0,0,1,3.15.22l-.23-.13a8.68,8.68,0,0,1,2.42.11l2,.22c.69.09,1.39.17,2,.21l-.92-.17c1.41.06,3.86.75,5.25.93.3.06-.48,0-.91,0,3.62.61.49-.11,3.21.23.49.15-.67.12,1.15.4.44.11,1.78.18,3.3.41s3.24.48,4.46.78c-.53-.16-1.06-.32.2-.15,1.91.39,5.11,1.32,6.86,1.57.24.08.32.11.33.13,1.46.31,4.72,1.1,5.6,1.28,1.23.72,8.94,2.52,8.77,2.93,1.43.52,2.89,1,4.32,1.54h-.13c2.72,1.09,3.73,1.37,4.71,1.7.61.28.14.12.08.12l4,1.77,3.61,1.48.28.27c.36.14,1.29.6,2.49,1.25l3.93,2.1-.1,1.09c0,.47-.07.94-.1,1.39a2.09,2.09,0,0,1,0-.46c-.3,4.73-1.79,11.16-1.68,12.94-.14,1-.29,2.06-.46,3.09.81-4,.08.62.47-1-.28,1.56-.92,4-.57,2.08l.08-.29c-.06-.75-1.1,4.9-1.24,4.75a180.63,180.63,0,0,1-6.62,22.15l.46-.75c-.28.82-.6,1.62-.91,2.43-.28.62-.46.81.2-.92a17.64,17.64,0,0,0-1,3c-1.37,3.36.31-1.39-.1-.36l-.52,1.42.14-.31a29,29,0,0,1-1.21,3.34,9.3,9.3,0,0,1-.6,1.14,5,5,0,0,0-.34.77l-1.35,3,.67-1.13c-.53,1.35-1.26,2.8-.5,1.49-.54,1-1.9,3.7-3.2,6.35s-2.68,5.12-3,5.7c-.88,1.83-1.93,3.55-3.17,5.69.33-.52.66-.75-.44,1.09.15-.83-2.22,3.24-3.35,4.57.47-.61-.31.69-1.09,1.87s-1.51,2.26-.72,1.32c-1,1.46-.17,0-1,1.09-.58.89-1.2,1.82-1.87,2.77l-2.18,2.86c-1.47,2-3.15,4-4.78,6,0,.09.59-.55-.07.37-.62.68-1.29,1.33-1.95,2a13.22,13.22,0,0,1-1.78,2.22c.2-.18.5-.44.06.09-.85,1-1.75,1.91-2.63,2.86s-1.77,1.91-2.68,2.86c-1.83,1.87-3.64,3.78-5.56,5.6a120.36,120.36,0,0,1-12,10.33c1.14-.84.42-.23-.41.46.55-.43,0,.09.2,0L520,723.51c-.53.61-3.74,2.83-4,3.21l1.11-.84c-1.38,1.25,2.32-1.21,2.24-.86,1.53-1.41,4.53-3.09,6.95-5.5.62-.44-.44.47-.1.25a37.78,37.78,0,0,1,2.88-2.54l-.15.16c4.07-3.57,5.84-5.09,10.23-9.32l-.4.24c.92-.93,1.14-1.1,1.59-1.51.93-1.2-2.57,2.62-1.76,1.5.69-.54,2.32-2.18,3.87-3.79a43.53,43.53,0,0,1,3.49-3.57c1.35-1.5-.48.36.84-1.16l.41-.35.26-.45a6.81,6.81,0,0,1,1.46-1.43c-.22.23-.58.7-.8,1,.59-.62,1.37-1.54,2.06-2.36s1.22-1.57,1.42-1.79l-1.25,1.48a162.78,162.78,0,0,0,10.43-14.08l-.28.3c2.24-3.38,1.85-2.67,4.23-6.43l-.08.14c.43-.78,1.06-1.79,1.66-2.85-.51,1,1.18-1.76.5-.45a43.88,43.88,0,0,0,2.29-4.54c.15-.18.28-.36.41-.54a25.77,25.77,0,0,1,1.4-3c-.78,1.65.79-1.19-.07.67,2.39-4,3-6.26,4.16-8.06.7-2-1.88,3.58-1.41,2.47-.51.87.6-1.67,1.26-3s1.35-2.16,2.85-5.6c-.14.34-.15.37-.28.71.59-1.27,1-2.57,1.72-4.12a17.78,17.78,0,0,0,.74-2.41c-.39,1.08-.79,2.15-1.23,3.21.72-1.81,1.12-3.62,2.36-6.58,0,.26-.33,1.16-.54,1.79.4-.86.61-1.7,1-2.6.12.34-1.41,3.93-2,5.94.44-.92,1.28-3.75,1.1-2.69.31-1.5,1.31-3.46,2-5.93l.06.2c.12-.39.33-1.2.55-1.9l-.26,1.32c.5-2,1.34-3.73,1.83-5.65-1.21,3.95-.4.85-1,2.49a32,32,0,0,1,1.27-3.89,24.59,24.59,0,0,0,1.38-4.34c-.18.76-.81,2.79-.56,1.61s.72-2.42.95-3c.89-3.68-.25.54.06-1a22.27,22.27,0,0,0,.73-3.43h.12c1-4.19,0-1.16.89-4.94,0,.55-.1,1.1-.16,1.64.13-.66.24-1.32.36-2l.05.44c.32-2.18.49-2.84.89-5-.17.47-.16-.32.15-2.2.26-1.27,0,.74.39-1.94a9.38,9.38,0,0,1-.32,2.44c0,.13,0,.61,0,.74.33-1.37.56-3.48.72-4.45-.07.37-.14.82-.19,1,.15-1.3.25-2.6.37-3.9.13-.61.1-.12.07.37.09-.79.1-1.35.22-2.51.06.31.18.25,0,1.9l.31-3.72c.07-.25.31-1.9.3-1.41l.07-.66c0-.4.07-.81.11-1.25l-1.13-.57-.69-.34-1.46-.7c-1-.47-2-1-3-1.47-.14-.05-.4-.15-.94-.39-1.16-.57-2.24-1.13-3.41-1.65a40.77,40.77,0,0,0-3.82-1.61l-1.54-.83c-2.23-.87,2.1,1.08-1.63-.34-2.65-1-.93-.52-1.83-.93-1.34-.45-3.71-1.07-6.11-2.07C567.12,584.52,567.74,584.79,568.5,585Zm-28.62-7.21a13.18,13.18,0,0,1,2.11.33A8.73,8.73,0,0,1,539.88,577.83Zm-44.73-.57a13.9,13.9,0,0,1,1.82-.16C496.43,577.17,495.83,577.23,495.15,577.26ZM455.2,657.12l0,0C454.66,655.91,454.84,656.32,455.2,657.12Zm1.1,2.4c.13.23.14.2.1.1s-.36-.69-.65-1.3A6.91,6.91,0,0,0,456.3,659.52Zm120.32-8.58.22-.46C576.43,651.57,576.53,651.25,576.62,650.94Z" transform="translate(-437.07 -551.61)"/><path class="cls-2" d="M500.19,576.58a.47.47,0,0,1,.25,0C500.66,576.58,500.67,576.55,500.19,576.58Z" transform="translate(-437.07 -551.61)"/><path class="cls-2" d="M585.49,592.06l.08,0,.09,0Z" transform="translate(-437.07 -551.61)"/><path class="cls-2" d="M441.57,621.4c-.11-.54-.16-.84-.18-1C441.35,620.34,441.39,620.59,441.57,621.4Z" transform="translate(-437.07 -551.61)"/><path class="cls-2" d="M463.13,671.68l-.87-1.44c.41.7.54,1,.73,1.33C463,671.53,462.87,671.23,463.13,671.68Z" transform="translate(-437.07 -551.61)"/><path class="cls-2" d="M470.49,684.39l.45.62v-.09C470.34,684.06,469.89,683.48,470.49,684.39Z" transform="translate(-437.07 -551.61)"/><path class="cls-2" d="M463.58,673.24a9.55,9.55,0,0,0,1.21,2l-.11-.18C465,675.32,464.26,674.3,463.58,673.24Z" transform="translate(-437.07 -551.61)"/><path class="cls-2" d="M464.94,675.51l.59.92C465.66,676.52,465.31,676.05,464.94,675.51Z" transform="translate(-437.07 -551.61)"/><path class="cls-2" d="M457.87,662.46c.24.51.28.26.4.55C458.67,663.51,456.38,659.78,457.87,662.46Z" transform="translate(-437.07 -551.61)"/><path class="cls-2" d="M463.79,674.23l-.12-.42-.42-.52C463.42,673.61,463.6,673.92,463.79,674.23Z" transform="translate(-437.07 -551.61)"/><path class="cls-2" d="M459.21,666.07c.28.56.56,1.13.86,1.69,0,0,.13.16.29.42C459.77,667.17,459.23,666,459.21,666.07Z" transform="translate(-437.07 -551.61)"/><path class="cls-2" d="M460.36,668.18c.3.52.6,1,.78,1.3Z" transform="translate(-437.07 -551.61)"/><polygon class="cls-2" points="25.37 120.41 25.11 119.92 24.45 118.75 25.37 120.41"/><path class="cls-2" d="M450.54,647.66c-.28-.63-.55-1.26-.8-1.91-.11-.18.06.36.36,1.07C450.31,647.27,450.62,648,450.54,647.66Z" transform="translate(-437.07 -551.61)"/><path class="cls-2" d="M452.67,653.55a7.17,7.17,0,0,1-.28-.87h-.17Z" transform="translate(-437.07 -551.61)"/><path class="cls-2" d="M450.27,648c-.12-.17-1.25-2.74-.25-.31C450.14,647.88,451,649.78,450.27,648Z" transform="translate(-437.07 -551.61)"/><polygon class="cls-2" points="4.22 66.57 4.34 67.08 4.57 66.96 4.22 66.57"/><path class="cls-2" d="M441.76,592.89c-2.22,1.06-.46.39-2.46,1.35-.49.32,1.64-.78,1.14-.46C441.73,593.06,442.45,592.74,441.76,592.89Z" transform="translate(-437.07 -551.61)"/><path class="cls-2" d="M440.44,593.78c-.21.11-.43.24-.66.38Z" transform="translate(-437.07 -551.61)"/><path class="cls-2" d="M517.6,725.16c-.43.31-.85.61-1.29.89l.87-.53Z" transform="translate(-437.07 -551.61)"/><path class="cls-2" d="M515.28,727.09l-.4.09-.68.67C514.49,727.64,515,727.22,515.28,727.09Z" transform="translate(-437.07 -551.61)"/><path class="cls-2" d="M535.58,576.89l-.13,0a12.19,12.19,0,0,0,1.34.24Z" transform="translate(-437.07 -551.61)"/><polygon class="cls-2" points="119.54 29.59 119.18 29.49 119.81 29.8 119.54 29.59"/><path class="cls-2" d="M573.78,586.66l-2.19-.82C573.1,586.39,573.9,586.91,573.78,586.66Z" transform="translate(-437.07 -551.61)"/></g></svg>