<svg id="Capa_1" data-name="Capa 1" xmlns="http://www.w3.org/2000/svg" viewBox="0 0 58.96 66.05"><defs><style>.cls-1{opacity:0.1;}.cls-2{fill:#959595;}</style></defs><title>fondonna</title><g class="cls-1"><path d="M514.45,606.88a67.75,67.75,0,0,0-28.62,49.59,60.43,60.43,0,0,0,57.25,0,67.72,67.72,0,0,0-28.63-49.59Z" transform="translate(-484.98 -606.88)"/><path class="cls-2" d="M514.27,607.5c-.21-.16-.19,0-.23,0C514.4,607.71,514.28,607.47,514.27,607.5Z" transform="translate(-484.98 -606.88)"/><polygon class="cls-2" points="32.86 3.03 32.78 3.02 33.34 3.34 32.86 3.03"/><path class="cls-2" d="M520.89,612.55c-.15-.4-1.1-1-1.61-1.47l-.06-.11-.34-.11A23.52,23.52,0,0,1,520.89,612.55Z" transform="translate(-484.98 -606.88)"/><path class="cls-2" d="M522.19,614.29c-.05-.14.38.28-.34-.36l0,.08Z" transform="translate(-484.98 -606.88)"/><path class="cls-2" d="M521.9,614c-.31-.29.16.23,0,0Z" transform="translate(-484.98 -606.88)"/><path class="cls-2" d="M523.32,615.35l-.44-.35c.06.11.4.47.25.36C523.55,615.74,523.5,615.63,523.32,615.35Z" transform="translate(-484.98 -606.88)"/><path class="cls-2" d="M523.78,615.64l-.22-.19S523.63,615.55,523.78,615.64Z" transform="translate(-484.98 -606.88)"/><path class="cls-2" d="M523.09,615.05l.47.4c0-.08,0-.13-.21-.19C523.42,615.26,523.3,615.21,523.09,615.05Z" transform="translate(-484.98 -606.88)"/><path class="cls-2" d="M522.87,614.78c-.2-.24-.47-.54,0-.2C522.06,613.86,522.09,614.06,522.87,614.78Z" transform="translate(-484.98 -606.88)"/><path class="cls-2" d="M521.17,612.55l-.27-.32-.31-.2C520.74,612.13,521.15,612.61,521.17,612.55Z" transform="translate(-484.98 -606.88)"/><path class="cls-2" d="M525.62,617.94s0-.21,0-.27l-.31-.28C525.39,617.57,525.65,617.88,525.62,617.94Z" transform="translate(-484.98 -606.88)"/><path class="cls-2" d="M525.58,617.67l.46.42C525.68,617.66,525.59,617.62,525.58,617.67Z" transform="translate(-484.98 -606.88)"/><polygon class="cls-2" points="39.01 8.69 38.21 8.06 39.15 8.82 39.01 8.69"/><path class="cls-2" d="M527.15,619.72l-.3-.21c.18.12.34.26.5.39Z" transform="translate(-484.98 -606.88)"/><path class="cls-2" d="M528.13,620.92c-.22-.15.13.35-.08.17.28.32.55.56.78.79A8.33,8.33,0,0,1,528.13,620.92Z" transform="translate(-484.98 -606.88)"/><path class="cls-2" d="M529.23,622.27c-.12-.13-.25-.25-.4-.39A3.68,3.68,0,0,0,529.23,622.27Z" transform="translate(-484.98 -606.88)"/><path class="cls-2" d="M526.71,618.89a1,1,0,0,0,.23.44l-.08-.25Z" transform="translate(-484.98 -606.88)"/><path class="cls-2" d="M526.86,619.07h0l.34.4Z" transform="translate(-484.98 -606.88)"/><path class="cls-2" d="M526.67,618.85l0,0A.08.08,0,0,0,526.67,618.85Z" transform="translate(-484.98 -606.88)"/><path class="cls-2" d="M525,616.81c.29.23.85.74.42.14C525.22,616.81,525.47,617.15,525,616.81Z" transform="translate(-484.98 -606.88)"/><path class="cls-2" d="M526.57,618.53l-.41-.51s0,.14-.1,0Z" transform="translate(-484.98 -606.88)"/><polygon class="cls-2" points="41.83 11.87 41.59 11.65 41.75 11.84 41.83 11.87"/><path class="cls-2" d="M528.63,621.31a5.74,5.74,0,0,1,.61.72c-.21-.31-.42-.64-.65-.92C528.53,621.09,528.38,621,528.63,621.31Z" transform="translate(-484.98 -606.88)"/><path class="cls-2" d="M527.79,620.21l0,0S527.8,620.19,527.79,620.21Z" transform="translate(-484.98 -606.88)"/><polygon class="cls-2" points="46.27 17.94 46.25 17.89 46.23 17.88 46.27 17.94"/><path class="cls-2" d="M528.56,621.05a1.86,1.86,0,0,0-.41-.45l.44.51S528.62,621.12,528.56,621.05Z" transform="translate(-484.98 -606.88)"/><path class="cls-2" d="M529.84,623l-.24-.43A1.49,1.49,0,0,0,529.84,623Z" transform="translate(-484.98 -606.88)"/><path class="cls-2" d="M527.87,620.35l0,0C527.88,620.4,527.88,620.39,527.87,620.35Z" transform="translate(-484.98 -606.88)"/><path class="cls-2" d="M527.87,620.35c.1.1.19.17.28.25a3.6,3.6,0,0,0-.32-.34A.36.36,0,0,1,527.87,620.35Z" transform="translate(-484.98 -606.88)"/><path class="cls-2" d="M532.4,625.31a2.84,2.84,0,0,1-.88-1.14c-.42-.48-.45.05-.29.6,0,0,.08,0,.5.47-.09-.22-.72-1.26-.33-.86a2.62,2.62,0,0,1,.56,1c-.09-.37.73.83.79.57l-.46-.6S532.49,625.51,532.4,625.31Z" transform="translate(-484.98 -606.88)"/><path class="cls-2" d="M530.54,623.75l-.16-.21a7.14,7.14,0,0,1,.41.83c.29.34.37.39.42.4l-.74-1.09Z" transform="translate(-484.98 -606.88)"/><path class="cls-2" d="M529.67,622.57c.21.1.63.59.49.21-.47-.63-.4-.39-.72-.73.78,1-.26-.26.23.51l-.43-.53.36.55,0,0h0s0-.07,0,0v0l.07,0c.2.31,0,.07-.07,0h0c.27.33.55.65.8,1A10.53,10.53,0,0,0,529.67,622.57Z" transform="translate(-484.98 -606.88)"/><path class="cls-2" d="M526.08,617.3s0,0,0,0S526.18,617.41,526.08,617.3Z" transform="translate(-484.98 -606.88)"/><path class="cls-2" d="M526.38,617.73a1.77,1.77,0,0,1-.35-.32c-.15-.21,0,0,.06-.07-.14-.11-.49-.41-.14,0l.07.06a4.22,4.22,0,0,1,.57.93A2.17,2.17,0,0,0,526.38,617.73Z" transform="translate(-484.98 -606.88)"/><path class="cls-2" d="M528.12,620.13l.71.79-.27-.47,0,0C528.18,620,528.2,620.17,528.12,620.13Z" transform="translate(-484.98 -606.88)"/><polygon class="cls-2" points="46.29 18.07 46.12 18.02 46.6 18.43 46.29 18.07"/><polygon class="cls-2" points="47.05 19.2 46.94 19.21 47.18 19.49 47.05 19.2"/><path class="cls-2" d="M499.34,662.35l-.32-.05A1.81,1.81,0,0,0,499.34,662.35Z" transform="translate(-484.98 -606.88)"/><path class="cls-2" d="M501.55,662.88l.06,0C501.51,662.85,501.46,662.86,501.55,662.88Z" transform="translate(-484.98 -606.88)"/><path class="cls-2" d="M541.87,656.4c-.44.12-1,.21-.85.29l.17,0A4.86,4.86,0,0,1,541.87,656.4Z" transform="translate(-484.98 -606.88)"/><path class="cls-2" d="M520.05,663.43l.14,0,.29-.13Z" transform="translate(-484.98 -606.88)"/><path class="cls-2" d="M519.77,663.91c-.2,0-.4,0-.6,0A3.37,3.37,0,0,0,519.77,663.91Z" transform="translate(-484.98 -606.88)"/><path class="cls-2" d="M487.63,658.18l-.38-.06C487.76,658.38,487.56,658.21,487.63,658.18Z" transform="translate(-484.98 -606.88)"/><path class="cls-2" d="M538.36,638.52c.1.38.19.67.28.93C538.54,639,538.49,638.61,538.36,638.52Z" transform="translate(-484.98 -606.88)"/><path class="cls-2" d="M500.47,661.46q-.27,0-.27,0C500.39,661.48,500.51,661.49,500.47,661.46Z" transform="translate(-484.98 -606.88)"/><path class="cls-2" d="M539,640.51l0-.2c-.11-.27-.22-.53-.33-.86A3.44,3.44,0,0,0,539,640.51Z" transform="translate(-484.98 -606.88)"/><path class="cls-2" d="M501.58,617.74l.07-.07S501.62,617.69,501.58,617.74Z" transform="translate(-484.98 -606.88)"/><path class="cls-2" d="M511.72,609.53l-.41.33A3.33,3.33,0,0,0,511.72,609.53Z" transform="translate(-484.98 -606.88)"/><path class="cls-2" d="M534.77,630.84c-.15-.25,0,0,0,0Z" transform="translate(-484.98 -606.88)"/><path class="cls-2" d="M534.47,629.39c0,.05.08.09.11.08A.26.26,0,0,1,534.47,629.39Z" transform="translate(-484.98 -606.88)"/><path class="cls-2" d="M540.54,643.06v0Z" transform="translate(-484.98 -606.88)"/><path class="cls-2" d="M534.61,630.43l.14.35Z" transform="translate(-484.98 -606.88)"/><path class="cls-2" d="M534.59,630.51l-.11-.23S534.45,630.29,534.59,630.51Z" transform="translate(-484.98 -606.88)"/><path class="cls-2" d="M535,631.2q-.12-.23-.21-.42c0,.05,0,.07,0,.06Z" transform="translate(-484.98 -606.88)"/><path class="cls-2" d="M489.57,638.49l0,0C489.67,638.15,489.63,638.27,489.57,638.49Z" transform="translate(-484.98 -606.88)"/><path class="cls-2" d="M535.37,660.47l0,0h0Z" transform="translate(-484.98 -606.88)"/><path class="cls-2" d="M534.4,660.9a2.4,2.4,0,0,1,1-.44l-.44-.17Z" transform="translate(-484.98 -606.88)"/><path class="cls-2" d="M494.11,660.8l.67.34c-.9-.15-1.5-.42-.88,0,.2-.27,2.76.89,3,.58l.45.2-.3-.07c.88.42.75,0,1.92.34.41.13.69.25.4.21l.94.16c.27.07.19.11-.08,0,.47.11.95.19,1.43.29h0c.22,0,.69,0,.93,0s-.19,0-.11.06c.27,0,.54.05.81.07s-.37.12-.91,0c.67.48.67,0,2.23.53l-.75-.1a8,8,0,0,0,1.88.55c-.19-.08-1.66-.55-.78-.5a4.1,4.1,0,0,0,1,.12c0,.12.45.15,1,.23l-.06.15a3.11,3.11,0,0,0,1-.1,1.51,1.51,0,0,1,1,.35c1.11.14-.74-.28.57-.17a14.58,14.58,0,0,0,2.68.06c.65.07-.12.09.12.14l.57-.11c.14,0,.1,0,.07.06.49,0,0-.16.81-.18.2-.16,1.55.26,2.49,0,.23.05-.11.1,0,.17a14.17,14.17,0,0,0,2.15-.37l.91,0c-.67-.08.16-.25.88-.46l-.57-.07,1.16-.21c.14,0,0,.08-.16.17l.21-.06c.43,0,.22.13-.07.25l-.43-.06c-.28.13-.54.26-.48.35a3.22,3.22,0,0,1,.39-.08c-.08,0-.12.06-.09.07s.16,0,.35-.09l.29.15.05-.08c.52,0,1,0,1.56-.06,1.07-.33,2-.72,3.68-1.12-.4.21-.05.23,0,.38a17.77,17.77,0,0,0-2.23.42c.47,0,.38,0,.26.08.53-.13,1.05-.28,1.58-.42,0,.13.35,0,.78,0-.36-.18,1.15-.42,1.78-.64.06.07-.08.19-.87.34.91,0,1.06-.52,1.94-.58-.19.05-.3.06-.36.12.42-.18,1.53-.4,1.29-.27l-.19.05c.64-.13,1.59-.43,2.4-.69a5.07,5.07,0,0,0,1.53-.7.83.83,0,0,1-.14.36c.66-.46,1.31-1,2-1.44-.13.24.76.37-.22.84a5.72,5.72,0,0,0,1.26-.48c-.21,0-.59-.06-.32-.18a9.32,9.32,0,0,0,1.52-.31c-.31.09-.09-.31.38-.5-.06.07.15.25,0,.35l1-.76c-.26.17,0,.24.34.2-.14,0,1-.45,1.27-.62l-.51.17c1.3-.57,1.08-1,2.34-1.59-.09.11-.33.58.63.11l.14-.16a13.14,13.14,0,0,0-.52-1.22,7.06,7.06,0,0,1-.49-1.43l0-.24-.22-.92a19.07,19.07,0,0,1,1.23,3.08,3.41,3.41,0,0,0,0-1c0-.29.17.41.19.65l-.16-1.85c-.15.1-.35-1.38-.49-1.28.16.65.31,1.3.44,2-.16.1-.6-1.09-.77-2.38,0-.34.33.2.38.17a7.69,7.69,0,0,1-.29-1.34l.19.54a15.79,15.79,0,0,1-.43-2c0-.3,0-.93-.07-1-.09.52-.66.73-.86.44,0-.1-.14-1.57-.14-1.92,0-.52.52.64.55.2a1.45,1.45,0,0,1-.21-.37c0-.31.17.1,0-.57-.19-.07-.32-1.36-.22-.28-.2-.64-.14-.7-.35-1.46,0,.27-.54-.58-.78-1.21,0,0,.06-.13.07-.21-.38-1.32-.53-2-1-3.25,0-.12-.16-.73,0-.5a5.27,5.27,0,0,1-.35-.67c-.13-.77.34.81.3.21a8.46,8.46,0,0,1-.75-1.42,5.74,5.74,0,0,0,.69,1.74c-.2.07-.75-.77-1.32-2-.46-1,0-.48-.15-.64-.74-1.84-1-1.4-1.55-3-.16-.65.23-.14.25-.31a14.65,14.65,0,0,1,.73,1.77l-.24-.69a5.41,5.41,0,0,1,.52,1c-.11-.55-1.35-3.09-2-4.48-.17-.22-.43-.62-.37-.39l.24.42c.11.44-.56-.74-.32-.17a17.39,17.39,0,0,1-1.22-1.95l.05-.22a2.24,2.24,0,0,0,.39.76c-.25-.3-.53-1.32-.91-1.58l.23.61a18.75,18.75,0,0,1-1.34-1.84c.07.39.11.15.27.73-.06-.55,1,1.78.84,1,.12.61.44.93.67,1.68,0-.05-.05-.29.25.32l.11.11,0,0,0,0s0,0,0,0a1.13,1.13,0,0,1-.09-.34c.25.24.76,1.2,1,1.5s-.13-.13-.08.09l.34.45c-.07.09.3,1-.17.22l.37.77a9.55,9.55,0,0,0,.65,1.47c.14.38.53.88.31.6.2.39.4.79.59,1.2l0,0a21.51,21.51,0,0,1,1.5,3.95,10.45,10.45,0,0,1,.55,1.55l0,.17c.22.53.4,1.66.57,1.87a28,28,0,0,0,.84,3.67H541c.14.68.32,1.32.52,2.15l.1-.07a24.87,24.87,0,0,1,.45,3,1.59,1.59,0,0,1-.09-.58,9.8,9.8,0,0,0,.27,2.14c.07.35.14.7.19,1a4.45,4.45,0,0,1,0,.5.55.55,0,0,1,0,.25.26.26,0,0,1,0,.11.72.72,0,0,1-.22.1l0,0,0,0-.39.14.36-.12-.85.48-.19,0-.08,0c-.33.12-.22.18,0,.18l-.39.28c-.35-.06-.83.47-1.28.44-.18.2-1.63.81-1.73,1.07,0,0-.13,0,0-.07a7.62,7.62,0,0,0-1.08.46l-.21-.08-.75.51c-.54.1-.77.12-.31-.17-1.15.6-.95.43-1.93.94l0-.11a6.57,6.57,0,0,1-1.18.44c-.88.09-4.17,1.18-6.42,1.41.49.21-1,.06-1.09.3-.14-.05-.46,0-.11-.16a24.07,24.07,0,0,0-2.46.46c-.14,0,.22-.13.1-.15a1.36,1.36,0,0,1-.47.08c-.12,0,.16-.08.33-.13-1.15.16-1.25.36-1.31.58a2.53,2.53,0,0,0-1.31.18c-.21-.05-.56-.08.17-.17a13.2,13.2,0,0,0-2.54.23,3,3,0,0,0-.68,0c-.92,0-1,0-1.9,0l.25,0c-.35.21-.75,0-1.48.06l0,0c-1.66-.19-.72.08-2.36-.18l.09.12c-.17.24-1.45-.21-2.41-.23l.34.1a11.24,11.24,0,0,1-1.93-.58c-.11,0,.18,0,.34,0-1.33-.32-.19.14-1.21,0-.17-.11.27-.18-.4-.29A16.69,16.69,0,0,1,503,662c.19.1.38.2-.09.16a14.66,14.66,0,0,0-2.55-.6c-.09,0-.12-.07-.12-.08-.55-.09-1.77-.36-2.12-.36-.38-.52-3.37-.82-3.23-1.2-.54-.19-1.08-.36-1.61-.56l.05,0a6.81,6.81,0,0,0-1.79-.54c-.22-.12,0-.08,0-.09a14.06,14.06,0,0,0-2.88-1.14l-.07-.17a5.94,5.94,0,0,1-.92-.48l-1.26-.72c0-.09,0-.17,0-.26v-.46a.39.39,0,0,1,0,.18c0-1.78.88-4.13.56-4.83,0-.39.06-.78.1-1.17-.32,1.48-.15-.25-.34.34.08-.59.42-1.48.31-.76l-.05.11c.17.3.46-1.82.62-1.74a64.34,64.34,0,0,1,2.54-8.23l-.28.24.34-.9c.13-.23.26-.27,0,.37a2.6,2.6,0,0,0,.3-1.14c.55-1.24,0,.57.16.18l.19-.53-.07.11a4.65,4.65,0,0,1,.37-1.28c.23-.47.21-.2.29-.39,0,0,0-.06.13-.29l.51-1.1-.33.38c.16-.52.48-1,.1-.6a17.6,17.6,0,0,0,1.27-2.32c.52-1,1-1.91,1.14-2.12a15.69,15.69,0,0,1,1.14-2.15c-.14.18-.35.22.07-.46.12.42.91-1.16,1.45-1.58-.46.39,1.23-1.9.54-1.28.4-.53.13,0,.48-.33a41.9,41.9,0,0,1,3.3-4.32c0-.06-.27.16-.06-.21s.56-.44.84-.65,0-.44.61-.87c-.09,0-.23.12-.07-.08,2.67-2.74,5.31-5.82,8.6-8-.46.27-.2,0,.11-.22-.21.15-.06-.09-.14-.1l1.38-.88c.14-.31,1.39-1.06,1.44-1.28l-.4.33c.45-.57-1,.24-1.08,0-.49.63-1.82,1-2.61,2.06-.25.14.13-.21,0-.16a4.43,4.43,0,0,1-1.05,1l.05-.07c-1.52,1.35-2.22,1.87-3.9,3.43l.2,0a6.91,6.91,0,0,1-.64.53c-.26.53,1-1,.76-.47a8,8,0,0,0-1.51,1.36,6,6,0,0,1-1.38,1.28c-.51.56.24-.08-.26.49l-.18.1-.06.21c-.33.37-.57.5-.63.47.09-.09.21-.27.3-.37a13.4,13.4,0,0,0-1.31,1.56l.49-.54a49.72,49.72,0,0,0-3.86,5.34l.13-.1c-.78,1.31-.72,1-1.59,2.42l0-.06a10,10,0,0,1-.58,1.09c.15-.4-.51.62-.29.11a6.53,6.53,0,0,0-.71,1.79l-.2.18a4,4,0,0,1-.44,1.16c.25-.64-.37.41-.11-.32-1,1.45-1,2.41-1.62,3-.11.84.79-1.3.65-.87.23-.3-.12.68-.38,1.16a11.54,11.54,0,0,0-1.25,2c.05-.13,0-.15.09-.27-.26.46-.31,1-.66,1.54,0,.39-.31.78-.16.95.13-.41.27-.81.43-1.22a14,14,0,0,1-.79,2.51,3.82,3.82,0,0,1,.13-.7c-.18.31-.2.65-.37,1-.17-.17.5-1.49.64-2.28-.21.33-.4,1.44-.46,1,.05.62-.51,1.29-.63,2.26l-.09-.1a7.26,7.26,0,0,1-.16.73v-.53c-.12.78-.58,1.39-.72,2.12.45-1.49.24-.29.52-.89-.41,1.87-.64,1-1.15,3.05.06-.29.35-1,.28-.58a10.72,10.72,0,0,1-.43,1.12c-.32,1.39.16-.18.09.42-.25.44-.11.7-.21,1.31l-.11,0c-.42,1.56.14.47-.24,1.87l0-.63-.11.75-.11-.18a9.61,9.61,0,0,1-.31,1.87c.12-.17.2.14.08.85-.14.47-.07-.29-.21.71a1.49,1.49,0,0,1,.09-.92s0-.23-.07-.28a11,11,0,0,0-.28,1.67,3.91,3.91,0,0,1,.09-.39l0,1.48c-.07.22-.08,0-.1-.15,0,.3,0,.51,0,.95-.08-.13-.19-.11-.16-.73l0,1.41a2.09,2.09,0,0,0-.12.36c-.05.2-.1.44-.1.27,0,.28-.07.6-.09.93l.93.45.34.15.28.12a7.92,7.92,0,0,1,1.14.54,1.23,1.23,0,0,1,.37.12,13.73,13.73,0,0,0,2.72,1.23l.53.41c.85.31-.73-.53.68,0,1,.34.32.29.65.47a8.4,8.4,0,0,1,2.33.7C494.63,661,494.4,660.89,494.11,660.8Zm10.78,2.67a2.21,2.21,0,0,1-.8-.11C504.36,663.27,504.53,663.37,504.89,663.47Zm16.8,0a2,2,0,0,1-.68,0A3.61,3.61,0,0,1,521.69,663.5Zm14.6-29.87v0C536.46,634.09,536.41,633.93,536.29,633.63Zm-.38-.91c-.06-.08-.07-.07-.07,0a1.74,1.74,0,0,1,.26.47A1,1,0,0,0,535.91,632.72Zm-44.43,3.18-.1.17C491.51,635.65,491.5,635.78,491.48,635.9Z" transform="translate(-484.98 -606.88)"/><path class="cls-2" d="M519.81,663.86a.21.21,0,0,1-.1-.06C519.63,663.83,519.63,663.85,519.81,663.86Z" transform="translate(-484.98 -606.88)"/><path class="cls-2" d="M487.7,658.19h0Z" transform="translate(-484.98 -606.88)"/><path class="cls-2" d="M542,646.76a1.68,1.68,0,0,1,0,.4S542.08,647.07,542,646.76Z" transform="translate(-484.98 -606.88)"/><path class="cls-2" d="M533.25,628.26l.34.53a3.36,3.36,0,0,1-.24-.51S533.35,628.43,533.25,628.26Z" transform="translate(-484.98 -606.88)"/><path class="cls-2" d="M530.9,623.27c-.06-.07-.11-.16-.17-.23l0,.06C530.92,623.42,531.12,623.62,530.9,623.27Z" transform="translate(-484.98 -606.88)"/><path class="cls-2" d="M533.3,627.55c.07-.1-.17-.41-.42-.78l0,.07C532.72,626.81,533,627.17,533.3,627.55Z" transform="translate(-484.98 -606.88)"/><path class="cls-2" d="M532.82,626.69a3.26,3.26,0,0,1-.22-.34C532.52,626.33,532.68,626.49,532.82,626.69Z" transform="translate(-484.98 -606.88)"/><path class="cls-2" d="M535.28,631.64c-.07-.19-.17,0-.19-.17C534.87,631.32,535.88,632.62,535.28,631.64Z" transform="translate(-484.98 -606.88)"/><path class="cls-2" d="M533.4,627.07l0,.2.21.16C533.53,627.31,533.47,627.19,533.4,627.07Z" transform="translate(-484.98 -606.88)"/><path class="cls-2" d="M535.07,630.15l-.31-.64s-.06,0-.13-.14A6.39,6.39,0,0,0,535.07,630.15Z" transform="translate(-484.98 -606.88)"/><path class="cls-2" d="M534.63,629.37a3.19,3.19,0,0,0-.3-.48C534.39,629,534.53,629.22,534.63,629.37Z" transform="translate(-484.98 -606.88)"/><polygon class="cls-2" points="48.95 21 49.04 21.2 49.28 21.64 48.95 21"/><path class="cls-2" d="M538.29,637c.11.23.22.46.32.7.07.06,0-.15-.1-.41S538.28,636.91,538.29,637Z" transform="translate(-484.98 -606.88)"/><path class="cls-2" d="M537.69,634.75a1.06,1.06,0,0,1,0,.35l.16,0Z" transform="translate(-484.98 -606.88)"/><path class="cls-2" d="M538.61,636.82c.07,0,.54,1,.16.09C538.7,636.85,538.37,636.14,538.61,636.82Z" transform="translate(-484.98 -606.88)"/><polygon class="cls-2" points="56.88 41.14 56.84 40.95 56.6 41.03 56.88 41.14"/><path class="cls-2" d="M541.83,657.87c.86-.36.13-.23.91-.55.16-.16-.64.26-.46.11C541.81,657.74,541.53,657.84,541.83,657.87Z" transform="translate(-484.98 -606.88)"/><path class="cls-2" d="M542.28,657.43l.23-.17Z" transform="translate(-484.98 -606.88)"/><polygon class="cls-2" points="28.53 1.45 29.03 1.14 28.68 1.3 28.53 1.45"/><path class="cls-2" d="M514.3,607.52l.21.05.2-.33A1.87,1.87,0,0,1,514.3,607.52Z" transform="translate(-484.98 -606.88)"/><path class="cls-2" d="M506.48,664l0,0a1.45,1.45,0,0,0-.5-.12Z" transform="translate(-484.98 -606.88)"/><polygon class="cls-2" points="13.59 55.44 13.72 55.48 13.51 55.27 13.59 55.44"/><path class="cls-2" d="M492.05,660.37l.83.3C492.31,660.48,492.05,660.17,492.05,660.37Z" transform="translate(-484.98 -606.88)"/></g><g class="cls-1"><path d="M514.45,672.93a67.73,67.73,0,0,0,28.63-49.58,60.43,60.43,0,0,0-57.25,0,67.75,67.75,0,0,0,28.62,49.58Z" transform="translate(-484.98 -606.88)"/><path class="cls-2" d="M514.64,672.32c.2.16.19,0,.23,0C514.51,672.11,514.63,672.35,514.64,672.32Z" transform="translate(-484.98 -606.88)"/><polygon class="cls-2" points="26.09 63.02 26.18 63.03 25.62 62.71 26.09 63.02"/><path class="cls-2" d="M508,667.27c.16.4,1.11,1,1.61,1.47l.07.11.34.1A23.6,23.6,0,0,1,508,667.27Z" transform="translate(-484.98 -606.88)"/><path class="cls-2" d="M506.72,665.52c0,.14-.38-.27.34.37l-.05-.08Z" transform="translate(-484.98 -606.88)"/><path class="cls-2" d="M507,665.81c.31.29-.16-.23,0,0Z" transform="translate(-484.98 -606.88)"/><path class="cls-2" d="M505.59,664.47l.44.35c-.06-.11-.4-.47-.25-.36C505.36,664.08,505.41,664.19,505.59,664.47Z" transform="translate(-484.98 -606.88)"/><path class="cls-2" d="M505.13,664.18l.22.19S505.28,664.26,505.13,664.18Z" transform="translate(-484.98 -606.88)"/><path class="cls-2" d="M505.82,664.77l-.47-.4c0,.08,0,.12.21.19C505.49,664.56,505.61,664.61,505.82,664.77Z" transform="translate(-484.98 -606.88)"/><path class="cls-2" d="M506,665c.2.24.47.54,0,.19C506.85,666,506.82,665.76,506,665Z" transform="translate(-484.98 -606.88)"/><path class="cls-2" d="M507.74,667.27l.27.32.31.2C508.17,667.69,507.76,667.21,507.74,667.27Z" transform="translate(-484.98 -606.88)"/><path class="cls-2" d="M503.29,661.88c-.06,0,0,.21,0,.27l.31.27C503.52,662.25,503.26,661.94,503.29,661.88Z" transform="translate(-484.98 -606.88)"/><path class="cls-2" d="M503.33,662.15l-.46-.42C503.22,662.16,503.32,662.2,503.33,662.15Z" transform="translate(-484.98 -606.88)"/><polygon class="cls-2" points="19.94 57.37 20.75 57.99 19.8 57.23 19.94 57.37"/><path class="cls-2" d="M501.76,660.1l.29.21-.49-.39Z" transform="translate(-484.98 -606.88)"/><path class="cls-2" d="M500.78,658.9c.21.15-.13-.35.08-.17-.28-.32-.55-.56-.79-.79A7.26,7.26,0,0,1,500.78,658.9Z" transform="translate(-484.98 -606.88)"/><path class="cls-2" d="M499.68,657.55l.39.39A3.59,3.59,0,0,0,499.68,657.55Z" transform="translate(-484.98 -606.88)"/><path class="cls-2" d="M502.2,660.93a.91.91,0,0,0-.23-.44l.08.25Z" transform="translate(-484.98 -606.88)"/><path class="cls-2" d="M502.05,660.75h0l-.34-.4Z" transform="translate(-484.98 -606.88)"/><path class="cls-2" d="M502.24,661l0,0A.08.08,0,0,0,502.24,661Z" transform="translate(-484.98 -606.88)"/><path class="cls-2" d="M503.88,663c-.29-.23-.85-.75-.42-.14C503.69,663,503.44,662.66,503.88,663Z" transform="translate(-484.98 -606.88)"/><path class="cls-2" d="M502.34,661.29l.41.51s0-.15.1,0Z" transform="translate(-484.98 -606.88)"/><polygon class="cls-2" points="17.13 54.18 17.36 54.4 17.21 54.21 17.13 54.18"/><path class="cls-2" d="M500.27,658.51c-.2-.2-.39-.45-.61-.72.21.31.43.63.66.92C500.38,658.73,500.53,658.82,500.27,658.51Z" transform="translate(-484.98 -606.88)"/><path class="cls-2" d="M501.12,659.61l0-.05S501.11,659.62,501.12,659.61Z" transform="translate(-484.98 -606.88)"/><polygon class="cls-2" points="12.69 48.11 12.7 48.17 12.73 48.17 12.69 48.11"/><path class="cls-2" d="M500.34,658.77a2.09,2.09,0,0,0,.42.45l-.44-.51S500.28,658.7,500.34,658.77Z" transform="translate(-484.98 -606.88)"/><path class="cls-2" d="M499.07,656.81l.24.43A1.49,1.49,0,0,0,499.07,656.81Z" transform="translate(-484.98 -606.88)"/><path class="cls-2" d="M501,659.47l0,0C501,659.41,501,659.43,501,659.47Z" transform="translate(-484.98 -606.88)"/><path class="cls-2" d="M501,659.47a3,3,0,0,0-.28-.25,3.6,3.6,0,0,0,.32.34A.36.36,0,0,1,501,659.47Z" transform="translate(-484.98 -606.88)"/><path class="cls-2" d="M496.51,654.5a3.09,3.09,0,0,1,.88,1.15c.42.48.45,0,.29-.6-.05,0-.08,0-.5-.47.09.22.72,1.26.33.85a2.53,2.53,0,0,1-.56-1c.09.37-.74-.83-.79-.57l.46.6S496.42,654.31,496.51,654.5Z" transform="translate(-484.98 -606.88)"/><path class="cls-2" d="M498.37,656.07l.16.21a7.14,7.14,0,0,1-.41-.83c-.29-.34-.37-.39-.42-.4l.74,1.09Z" transform="translate(-484.98 -606.88)"/><path class="cls-2" d="M499.24,657.25c-.21-.11-.63-.59-.49-.21.47.62.4.39.72.73-.78-1,.26.26-.24-.51a5.91,5.91,0,0,1,.43.53l-.35-.55,0,0h0c0,.05,0,.07,0,0v0a.11.11,0,0,1-.07,0c-.2-.3,0-.06.07,0h0c-.27-.32-.55-.64-.8-1A10.53,10.53,0,0,0,499.24,657.25Z" transform="translate(-484.98 -606.88)"/><path class="cls-2" d="M502.83,662.52s0,0,0,0S502.72,662.41,502.83,662.52Z" transform="translate(-484.98 -606.88)"/><path class="cls-2" d="M502.53,662.09a1.33,1.33,0,0,1,.34.32c.16.21,0,0-.05.07.14.11.48.41.14,0l-.07-.06a4.15,4.15,0,0,1-.57-.94A2.21,2.21,0,0,0,502.53,662.09Z" transform="translate(-484.98 -606.88)"/><path class="cls-2" d="M500.79,659.68l-.71-.79.27.48,0,0C500.73,659.8,500.71,659.65,500.79,659.68Z" transform="translate(-484.98 -606.88)"/><polygon class="cls-2" points="12.66 47.98 12.84 48.03 12.36 47.62 12.66 47.98"/><polygon class="cls-2" points="11.9 46.85 12.02 46.84 11.77 46.56 11.9 46.85"/><path class="cls-2" d="M529.57,617.46l.32,0Z" transform="translate(-484.98 -606.88)"/><path class="cls-2" d="M527.36,616.93l-.07,0C527.4,617,527.45,617,527.36,616.93Z" transform="translate(-484.98 -606.88)"/><path class="cls-2" d="M487,623.42c.44-.12.95-.22.85-.29l-.17,0A4.09,4.09,0,0,1,487,623.42Z" transform="translate(-484.98 -606.88)"/><path class="cls-2" d="M508.86,616.38l-.14,0-.29.14Z" transform="translate(-484.98 -606.88)"/><path class="cls-2" d="M509.14,615.9l.6,0Z" transform="translate(-484.98 -606.88)"/><path class="cls-2" d="M541.28,621.64l.38.06C541.14,621.44,541.35,621.61,541.28,621.64Z" transform="translate(-484.98 -606.88)"/><path class="cls-2" d="M490.55,641.3c-.1-.38-.19-.68-.28-.93C490.37,640.83,490.42,641.21,490.55,641.3Z" transform="translate(-484.98 -606.88)"/><path class="cls-2" d="M528.44,618.36q.27,0,.27,0C528.51,618.33,528.4,618.33,528.44,618.36Z" transform="translate(-484.98 -606.88)"/><path class="cls-2" d="M489.9,639.31l0,.2c.11.26.22.53.33.86A3.36,3.36,0,0,0,489.9,639.31Z" transform="translate(-484.98 -606.88)"/><path class="cls-2" d="M527.33,662.08l-.07.07S527.29,662.13,527.33,662.08Z" transform="translate(-484.98 -606.88)"/><path class="cls-2" d="M517.19,670.29l.41-.33A3.33,3.33,0,0,0,517.19,670.29Z" transform="translate(-484.98 -606.88)"/><path class="cls-2" d="M494.14,649c.14.25,0,0,0,0Z" transform="translate(-484.98 -606.88)"/><path class="cls-2" d="M494.44,650.42s-.08-.08-.11-.07A.23.23,0,0,1,494.44,650.42Z" transform="translate(-484.98 -606.88)"/><path class="cls-2" d="M488.37,636.76v0Z" transform="translate(-484.98 -606.88)"/><path class="cls-2" d="M494.3,649.38l-.14-.34Z" transform="translate(-484.98 -606.88)"/><path class="cls-2" d="M494.32,649.31l.11.23S494.46,649.53,494.32,649.31Z" transform="translate(-484.98 -606.88)"/><path class="cls-2" d="M494,648.62l.21.42,0-.06Z" transform="translate(-484.98 -606.88)"/><path class="cls-2" d="M539.34,641.32l0,.06C539.24,641.67,539.28,641.55,539.34,641.32Z" transform="translate(-484.98 -606.88)"/><path class="cls-2" d="M493.54,619.35l0,0,0,0Z" transform="translate(-484.98 -606.88)"/><path class="cls-2" d="M494.51,618.92a2.24,2.24,0,0,1-1,.43l.44.18Z" transform="translate(-484.98 -606.88)"/><path class="cls-2" d="M534.8,619l-.67-.34c.9.15,1.5.42.88.05-.2.27-2.76-.89-3-.58l-.45-.2c.13,0,.16,0,.29.07-.87-.42-.74,0-1.91-.34-.41-.13-.69-.25-.4-.22l-.94-.15c-.27-.07-.19-.11.08,0-.47-.11-1-.19-1.43-.29h0c-.21,0-.69,0-.92,0s.19,0,.11-.05c-.27,0-.54,0-.81-.07s.37-.12.91,0c-.67-.49-.67,0-2.23-.53l.75.09a8.62,8.62,0,0,0-1.89-.55c.2.09,1.67.56.79.51a4.1,4.1,0,0,0-1-.12c0-.12-.45-.16-1-.23l.06-.15a3.56,3.56,0,0,0-1,.09,1.47,1.47,0,0,1-1-.34c-1.11-.14.74.27-.57.17a14.6,14.6,0,0,0-2.68-.06c-.65-.07.11-.1-.12-.15l-.57.12c-.14,0-.1,0-.07-.06-.49,0,0,.15-.81.18-.2.16-1.55-.27-2.49,0-.23,0,.11-.1,0-.16a14.17,14.17,0,0,0-2.15.37l-.91-.05c.67.09-.16.26-.88.46l.57.08-1.16.2c-.14,0,0-.07.16-.16l-.21.06c-.43,0-.22-.13.07-.25l.43.05c.28-.12.54-.26.47-.34l-.38.08c.08,0,.12-.06.09-.08a1.38,1.38,0,0,0-.35.1l-.29-.15-.06.08c-.51,0-1,0-1.55.06-1.07.33-2,.72-3.68,1.12.4-.21,0-.23,0-.38a16.7,16.7,0,0,0,2.23-.43c-.47.05-.38,0-.26-.08-.53.13-1.05.29-1.58.43,0-.13-.35,0-.78,0,.36.18-1.15.42-1.78.64-.06-.08.08-.19.87-.34-.91,0-1.06.52-1.94.58.19,0,.3-.06.36-.12-.42.18-1.53.4-1.29.27l.19,0c-.64.13-1.59.43-2.4.69a5.07,5.07,0,0,0-1.53.7.83.83,0,0,1,.14-.36c-.66.46-1.31,1-1.95,1.44.13-.24-.76-.37.22-.84a5.72,5.72,0,0,0-1.26.48c.21-.05.59.06.32.18a8.36,8.36,0,0,0-1.52.31c.3-.09.09.31-.38.49.06-.07-.15-.24,0-.34l-1,.76c.26-.17,0-.24-.34-.2.14,0-1,.44-1.27.62l.5-.17c-1.3.57-1.07,1-2.33,1.59.09-.11.33-.58-.63-.11l-.14.16c.14.39.34.84.52,1.22a7.18,7.18,0,0,1,.49,1.42l-.05.25.21.92a19.14,19.14,0,0,1-1.22-3.08,3.41,3.41,0,0,0,0,1c-.05.29-.17-.42-.2-.65l.17,1.85c.15-.11.35,1.37.48,1.28-.15-.65-.3-1.3-.43-2,.16-.1.6,1.09.77,2.38,0,.33-.33-.2-.38-.17a6.88,6.88,0,0,1,.28,1.33l-.18-.53a17.26,17.26,0,0,1,.43,2c0,.3,0,.93.07,1,.09-.52.66-.73.86-.44,0,.1.14,1.57.14,1.92,0,.52-.52-.64-.56-.2.05,0,.17.26.22.37,0,.31-.17-.1,0,.56.19.08.32,1.37.22.29.2.64.14.7.35,1.46,0-.27.54.58.78,1.21-.05,0-.06.13-.07.21.38,1.31.53,2,1,3.25,0,.12.16.72,0,.5a4.14,4.14,0,0,1,.35.67c.13.77-.34-.82-.3-.21a8.24,8.24,0,0,1,.75,1.41,5.8,5.8,0,0,0-.69-1.73c.2-.07.74.77,1.32,2,.45,1,.05.48.15.63.73,1.85,1,1.41,1.55,3,.16.64-.23.14-.26.31a14.37,14.37,0,0,1-.72-1.77l.24.69a5.71,5.71,0,0,1-.52-1.05c.11.55,1.35,3.09,2,4.48.17.22.43.62.37.39l-.24-.42c-.11-.44.56.74.32.17a16.52,16.52,0,0,1,1.22,2l-.05.22a2.24,2.24,0,0,0-.39-.76c.25.29.53,1.32.91,1.58l-.23-.61a17.62,17.62,0,0,1,1.34,1.84c-.07-.39-.11-.15-.27-.73.06.55-1.05-1.78-.84-1-.12-.62-.44-.93-.67-1.68,0,0,0,.29-.25-.32l-.11-.11,0,0,0,0s0,0,0,0a1.25,1.25,0,0,1,.09.35,17.6,17.6,0,0,1-1-1.5c-.17-.37.13.12.07-.1l-.33-.44c.07-.09-.3-1,.17-.22l-.37-.77a10.13,10.13,0,0,0-.65-1.48c-.14-.37-.53-.87-.31-.59-.2-.4-.41-.79-.59-1.2l0,0a21.51,21.51,0,0,1-1.5-4,10.45,10.45,0,0,1-.55-1.55l.05-.17c-.22-.53-.4-1.66-.57-1.87a28,28,0,0,0-.84-3.67h-.13c-.14-.67-.32-1.31-.53-2.14l-.1.07a27.67,27.67,0,0,1-.44-3,1.84,1.84,0,0,1,.09.58,9.8,9.8,0,0,0-.27-2.14c-.07-.36-.14-.71-.19-1.05a4.4,4.4,0,0,1,0-.51.57.57,0,0,1,0-.25.42.42,0,0,1,0-.1.89.89,0,0,1,.23-.1l0,0,0,0,.39-.14-.36.12.85-.48.19,0,.07,0c.34-.12.23-.18,0-.17a4.37,4.37,0,0,0,.4-.28c.35,0,.83-.47,1.28-.44.18-.2,1.63-.81,1.73-1.07,0,0,.13,0-.05.07a7.62,7.62,0,0,0,1.08-.46l.21.08.75-.51c.54-.11.77-.12.31.17,1.15-.6,1-.43,1.93-.94l0,.11a5.89,5.89,0,0,1,1.18-.44c.88-.1,4.17-1.18,6.42-1.41-.49-.21,1-.06,1.09-.3.14,0,.46,0,.11.15a19.6,19.6,0,0,0,2.46-.46c.14.05-.23.14-.11.16a1.24,1.24,0,0,1,.48-.08c.12,0-.16.08-.33.13,1.15-.17,1.25-.36,1.31-.58a2.53,2.53,0,0,0,1.31-.18c.21,0,.56.08-.17.17a13.2,13.2,0,0,0,2.54-.23,3.79,3.79,0,0,0,.68,0c.91,0,1,0,1.9,0l-.25,0c.35-.21.75-.05,1.48-.06l0,0c1.67.19.73-.08,2.37.18l-.09-.12c.17-.24,1.45.21,2.41.23l-.34-.1c.53,0,1.42.49,1.93.58.11,0-.18,0-.34,0,1.33.32.19-.14,1.2,0,.18.11-.26.18.41.3a16.69,16.69,0,0,1,2.9.37c-.19-.1-.38-.2.09-.17a13.85,13.85,0,0,0,2.55.61c.09,0,.12.07.12.08.55.09,1.77.36,2.12.36.38.51,3.37.82,3.23,1.2.53.19,1.08.36,1.61.56l-.06,0a7,7,0,0,0,1.79.54c.23.12,0,.08,0,.09a14.65,14.65,0,0,0,2.88,1.14l.07.17a5.94,5.94,0,0,1,.92.48l1.26.72a2.29,2.29,0,0,0,0,.25v.47a.39.39,0,0,1,0-.18c0,1.78-.88,4.12-.56,4.83,0,.39-.06.78-.1,1.17.32-1.48.15.25.34-.34-.08.59-.42,1.48-.31.76l0-.11c-.17-.31-.46,1.82-.62,1.74a64.34,64.34,0,0,1-2.54,8.23l.28-.24c-.11.3-.23.6-.35.9s-.25.27,0-.37a2.6,2.6,0,0,0-.3,1.14c-.55,1.24,0-.57-.16-.18l-.19.53.07-.11a4.65,4.65,0,0,1-.37,1.28c-.24.47-.21.2-.29.39,0,0,0,.06-.13.29l-.51,1.1.33-.38c-.16.52-.48,1-.1.59a18.17,18.17,0,0,0-1.28,2.33c-.51,1-1,1.91-1.14,2.12a14.53,14.53,0,0,1-1.13,2.15c.14-.18.35-.22-.07.46-.12-.42-.91,1.16-1.45,1.57.46-.38-1.23,1.91-.54,1.29-.4.53-.13,0-.48.33a41.9,41.9,0,0,1-3.3,4.32s.27-.16.06.21-.56.44-.84.65,0,.44-.61.87c.09-.05.23-.13.07.08-2.67,2.74-5.31,5.81-8.6,8,.46-.27.2,0-.11.22.21-.15.06.09.14.1l-1.39.88c-.13.31-1.39,1.06-1.44,1.28l.41-.33c-.45.56,1-.24,1.08,0,.49-.63,1.82-1,2.61-2.06.25-.14-.13.21,0,.16a4.54,4.54,0,0,1,1-1l0,.07c1.52-1.35,2.22-1.87,3.9-3.44l-.2,0a4.78,4.78,0,0,1,.64-.53c.26-.53-1,1-.76.47a8.68,8.68,0,0,0,1.51-1.36A6,6,0,0,1,526.5,663c.51-.57-.24.08.26-.49l.18-.11.06-.2c.33-.37.56-.5.62-.47s-.21.27-.29.37a14.3,14.3,0,0,0,1.31-1.56l-.49.54a50.74,50.74,0,0,0,3.86-5.34l-.13.09c.78-1.3.72-1,1.59-2.41l0,.06a10,10,0,0,1,.58-1.09c-.16.39.51-.63.29-.11a6.56,6.56,0,0,0,.71-1.8l.2-.17a4,4,0,0,1,.44-1.16c-.25.64.37-.41.11.32,1-1.45,1-2.41,1.62-3,.11-.84-.79,1.3-.65.87-.23.3.12-.68.38-1.16a12,12,0,0,0,1.25-2c0,.13,0,.14-.09.27.26-.46.31-1,.66-1.54,0-.4.31-.79.16-1-.13.41-.27.81-.43,1.21a14.19,14.19,0,0,1,.79-2.5,4.85,4.85,0,0,1-.13.69c.18-.3.2-.64.37-1,.17.17-.5,1.49-.64,2.28.21-.33.4-1.45.46-1,0-.62.51-1.29.63-2.26l.09.09c0-.14.08-.46.16-.72v.52c.11-.77.58-1.38.72-2.11-.45,1.48-.24.29-.52.89.41-1.88.64-1,1.15-3-.06.29-.35,1-.28.58a7.81,7.81,0,0,1,.43-1.12c.32-1.39-.16.18-.09-.43.25-.43.1-.69.2-1.3l.12,0c.42-1.56-.14-.47.24-1.88l0,.64.11-.75.11.18a9.61,9.61,0,0,1,.31-1.87c-.12.17-.2-.14-.08-.85.14-.47.07.29.2-.72a1.4,1.4,0,0,1-.08.92c0,.06,0,.24.07.29a11.16,11.16,0,0,0,.28-1.67,3.91,3.91,0,0,1-.09.39l0-1.48c.07-.23.08,0,.09.15,0-.3,0-.51,0-1,.08.12.19.11.16.73l0-1.41a2.09,2.09,0,0,0,.12-.36c0-.21.1-.44.1-.27,0-.29.07-.6.09-.94l-.93-.44-.34-.15-.28-.12a9.15,9.15,0,0,1-1.14-.54,2.24,2.24,0,0,1-.37-.12,13.73,13.73,0,0,0-2.72-1.23l-.53-.41c-.85-.31.73.53-.68,0-1-.33-.32-.28-.65-.46a8.76,8.76,0,0,1-2.33-.7C534.28,618.82,534.51,618.93,534.8,619ZM524,616.35a2.13,2.13,0,0,1,.79.11C524.55,616.55,524.38,616.45,524,616.35Zm-16.8,0a1.93,1.93,0,0,1,.68-.05A3.56,3.56,0,0,1,507.22,616.32Zm-14.6,29.87v0C492.44,645.73,492.5,645.89,492.62,646.19Zm.38.91c.06.08.07.06.07,0a1.86,1.86,0,0,1-.26-.48A1.06,1.06,0,0,0,493,647.1Zm44.43-3.18.1-.17C537.39,644.17,537.41,644,537.43,643.92Z" transform="translate(-484.98 -606.88)"/><path class="cls-2" d="M509.1,616c.06,0,.08,0,.09.06S509.28,616,509.1,616Z" transform="translate(-484.98 -606.88)"/><path class="cls-2" d="M541.21,621.62l0,0h0Z" transform="translate(-484.98 -606.88)"/><path class="cls-2" d="M486.9,633.06a3,3,0,0,1,0-.4S486.83,632.75,486.9,633.06Z" transform="translate(-484.98 -606.88)"/><path class="cls-2" d="M495.66,651.56l-.35-.53a2.8,2.8,0,0,1,.25.51S495.56,651.39,495.66,651.56Z" transform="translate(-484.98 -606.88)"/><path class="cls-2" d="M498,656.55c.07.07.12.16.18.23l0-.06C498,656.4,497.79,656.2,498,656.55Z" transform="translate(-484.98 -606.88)"/><path class="cls-2" d="M495.6,652.27c-.06.09.18.41.43.77l0-.06C496.18,653,495.88,652.65,495.6,652.27Z" transform="translate(-484.98 -606.88)"/><path class="cls-2" d="M496.09,653.13c.08.11.15.23.22.34S496.23,653.33,496.09,653.13Z" transform="translate(-484.98 -606.88)"/><path class="cls-2" d="M493.63,648.17c.07.2.17.06.19.18C494,648.5,493,647.2,493.63,648.17Z" transform="translate(-484.98 -606.88)"/><path class="cls-2" d="M495.5,652.75l0-.2-.21-.16Z" transform="translate(-484.98 -606.88)"/><path class="cls-2" d="M493.84,649.67l.3.64s.07.05.14.14A5.58,5.58,0,0,0,493.84,649.67Z" transform="translate(-484.98 -606.88)"/><path class="cls-2" d="M494.28,650.45a3.81,3.81,0,0,0,.3.48Z" transform="translate(-484.98 -606.88)"/><polygon class="cls-2" points="10 45.05 9.92 44.85 9.68 44.42 10 45.05"/><path class="cls-2" d="M490.62,642.78c-.11-.23-.22-.47-.32-.7-.07-.06,0,.15.1.41S490.62,642.91,490.62,642.78Z" transform="translate(-484.98 -606.88)"/><path class="cls-2" d="M491.22,645.07a1.06,1.06,0,0,1-.05-.35l-.16,0Z" transform="translate(-484.98 -606.88)"/><path class="cls-2" d="M490.3,643c-.07,0-.55-1-.16-.09C490.21,643,490.54,643.67,490.3,643Z" transform="translate(-484.98 -606.88)"/><polygon class="cls-2" points="2.07 24.91 2.12 25.1 2.36 25.02 2.07 24.91"/><path class="cls-2" d="M487.08,622c-.86.36-.13.23-.91.55-.16.15.64-.26.46-.11C487.1,622.08,487.38,622,487.08,622Z" transform="translate(-484.98 -606.88)"/><path class="cls-2" d="M486.63,622.39l-.23.16Z" transform="translate(-484.98 -606.88)"/><polygon class="cls-2" points="30.43 64.6 29.93 64.91 30.28 64.75 30.43 64.6"/><path class="cls-2" d="M514.61,672.3l-.21,0-.2.33A1.5,1.5,0,0,1,514.61,672.3Z" transform="translate(-484.98 -606.88)"/><path class="cls-2" d="M522.43,615.8l0,0a1.45,1.45,0,0,0,.5.12Z" transform="translate(-484.98 -606.88)"/><polygon class="cls-2" points="45.37 10.61 45.23 10.57 45.45 10.78 45.37 10.61"/><path class="cls-2" d="M536.86,619.45l-.83-.3C536.6,619.34,536.86,619.64,536.86,619.45Z" transform="translate(-484.98 -606.88)"/></g></svg>