<svg id="Capa_1" data-name="Capa 1" xmlns="http://www.w3.org/2000/svg" xmlns:xlink="http://www.w3.org/1999/xlink" viewBox="0 0 600 600.18"><defs><style>.cls-1{fill:#002b40;}.cls-2{fill:#c7d2dd;stroke:#606060;}.cls-2,.cls-9{stroke-linejoin:round;}.cls-11,.cls-14,.cls-3,.cls-4{stroke:#77563f;}.cls-11,.cls-13,.cls-14,.cls-3,.cls-4,.cls-6,.cls-7,.cls-8{stroke-miterlimit:10;}.cls-3{fill:url(#Degradado_sin_nombre_49);}.cls-4{fill:url(#Degradado_sin_nombre_37);}.cls-5{fill:#77563f;}.cls-6{fill:#1c1c1c;}.cls-13,.cls-6,.cls-9{stroke:#000;}.cls-7{fill:#8a4a44;}.cls-7,.cls-8{stroke:#443124;}.cls-13,.cls-7,.cls-8{stroke-width:0.25px;}.cls-8{fill:#944839;}.cls-9{fill:#fff;}.cls-14,.cls-9{stroke-width:0.5px;}.cls-10{fill:#1e1712;}.cls-11,.cls-13,.cls-14{fill:none;}.cls-11,.cls-14{stroke-linecap:round;}.cls-12{fill:#4f3b2d;}.cls-15{fill:#4c2123;}.cls-16{fill:#beaaa6;}</style><linearGradient id="Degradado_sin_nombre_49" x1="887.31" y1="922.27" x2="1136.13" y2="922.27" gradientUnits="userSpaceOnUse"><stop offset="0" stop-color="#ddbba4"/><stop offset="0.05" stop-color="#d3b098"/><stop offset="0.18" stop-color="#be987e"/><stop offset="0.32" stop-color="#ae8669"/><stop offset="0.48" stop-color="#a2795b"/><stop offset="0.68" stop-color="#9b7153"/><stop offset="1" stop-color="#996f50"/></linearGradient><linearGradient id="Degradado_sin_nombre_37" x1="854.13" y1="735.04" x2="1134.81" y2="735.04" gradientUnits="userSpaceOnUse"><stop offset="0" stop-color="#ddbba4"/><stop offset="0.09" stop-color="#d2af97"/><stop offset="0.33" stop-color="#b99378"/><stop offset="0.57" stop-color="#a77f62"/><stop offset="0.8" stop-color="#9d7355"/><stop offset="1" stop-color="#996f50"/></linearGradient></defs><title>García</title><rect class="cls-1" width="600" height="600" rx="39.36"/><path class="cls-2" d="M1361.09,1006.76s-40-40.33-56.3-51.77-25.3-18.09-43.27-20.61-26.32-6.75-26.32-6.75-35-5.38-54.48-2.06c0,0-8.93.35-15-3.89,0,0-16.71-.8-25.87-1.14,0,0-13.27-11.11-30.21-3.67v3.21s18.31-8.13,22.77,5.26a69.72,69.72,0,0,1,3.67,24.5s-2.75,36.24-34.23,56.92H890s-7.67-10.11.91-16.52c0,0,4.81-2.75,8.47-1.83l4-4.69s-13.51-3.13-29.65,23h487.35Z" transform="translate(-807.61 -407.08)"/><path class="cls-3" d="M1109.64,920.08s23.59,9.27,26.33,23.17c0,0,.26,5.19.11,6.59s-4.24,38.3-34.23,56.92H890s-2.26-3.24-2.69-5.57c0,0,8.22-6.92,12.07-12.78l4-4.69s21.17-23.07,25.29-47.45-15.56-98.49-15.56-98.49,13,35.71,50.36,50.71c0,0,39.37,32.85,95.17,21,0,0,28.15-4,45.15-31.07a196.21,196.21,0,0,0,5.84,38.45Z" transform="translate(-807.61 -407.08)"/><path class="cls-4" d="M914.16,837.93c2.93,9.42,9.79,18.61,16.12,25.93,6.47,7.49,14.32,13,22.55,18.45q8.1,5.33,16.58,10c5.59,3.09,11.11,6.58,16.9,9.21a122.19,122.19,0,0,0,27.21,8.74,113.1,113.1,0,0,0,46.17-.62s27.3-4.07,45.15-31.08,27-58.14,27-58.14,3.89-16.49,2.74-47,.23-37.54-4-66.49-2.64-41.21-2.64-41.21-1.27-12.06-1.4-21.16-8.67-27.25-23.43-53.69-59.32-33-59.32-33-91.16-4.46-126.45,41.55c0,0-14.65,20-17.39,75.89s-2.75,68.78-2.75,68.78-2.29-20.71-21.29-28.73-21.63,16.83-21.63,16.83-2.86,25.64,14.88,56.54,37.65,20.15,37.65,20.15S907.64,817,914.16,837.93Z" transform="translate(-807.61 -407.08)"/><path class="cls-5" d="M942.07,676.17a57.93,57.93,0,0,1,13.5-7.52,50.11,50.11,0,0,1,15.1-3.5,36.9,36.9,0,0,1,7.79.35,31.31,31.31,0,0,1,7.54,2,36,36,0,0,1,12.73,8.68,44.23,44.23,0,0,0-6.15-4.61c-1.06-.72-2.21-1.27-3.33-1.88-.58-.28-1.17-.52-1.75-.78a16,16,0,0,0-1.78-.69,34.91,34.91,0,0,0-7.38-1.81,36.54,36.54,0,0,0-7.61-.25,51.33,51.33,0,0,0-14.89,3.22,70.7,70.7,0,0,0-13.77,6.8Z" transform="translate(-807.61 -407.08)"/><path class="cls-5" d="M1065.66,678.57a50.77,50.77,0,0,1,11.9-6A44.5,44.5,0,0,1,1090.7,670a33.66,33.66,0,0,1,6.72.52,25.92,25.92,0,0,1,6.44,2,29.14,29.14,0,0,1,10.58,8,36.62,36.62,0,0,0-5.09-4.23c-.88-.66-1.87-1.17-2.8-1.74a32.29,32.29,0,0,0-3-1.37,31.09,31.09,0,0,0-12.83-2.19,46.52,46.52,0,0,0-12.93,2.31,67.09,67.09,0,0,0-12.14,5.29Z" transform="translate(-807.61 -407.08)"/><path class="cls-6" d="M1126.92,665.53s6.3-17.4-2.86-42.12-18.09-46.7-18.09-46.7,28.39-56.31-21.28-82.18c0,0-17.86-22.89-42.81-10.3,0,0-33.42-4.12-66.39,6.86,0,0-51.27,3.9-76.68,44.87s-19.69,22.43-32.51,63.64,5.36,114.51,5.36,114.51,20.68,5.47,24.52,29.82c0,0,1.7-54.27,2.74-68.79,0,0,2.29-51.33,17.4-75.88,0,0,26.95-43.27,126.45-41.55,0,0,42.14,5.32,59.31,33,0,0,24.73,42.49,23.44,53.7A175.73,175.73,0,0,0,1126.92,665.53Z" transform="translate(-807.61 -407.08)"/><path class="cls-7" d="M995.38,811.46s54.85,39.83,98.81-1.72c0,0-3.09-35.54-40.87-25.06C1053.32,784.68,1006.45,780.21,995.38,811.46Z" transform="translate(-807.61 -407.08)"/><path class="cls-8" d="M995.38,811.46s49-14.94,98.81-1.72C1094.19,809.74,1058.12,851.12,995.38,811.46Z" transform="translate(-807.61 -407.08)"/><path class="cls-9" d="M1003,682.81s-34.56,14.88-58.94,5C944,687.85,969.31,657.17,1003,682.81Z" transform="translate(-807.61 -407.08)"/><path class="cls-10" d="M964.74,691.2s-9.09-5.27-5.06-15c0,0,11.71-6.31,25.26-2.5,0,0,4.95,9.55-2.76,15.37C982.18,689.11,971.4,691.39,964.74,691.2Z" transform="translate(-807.61 -407.08)"/><path class="cls-9" d="M1063.71,686s14.51,11.07,46.27,4.8c0,0,4.55-10.38-21.46-13S1063.71,686,1063.71,686Z" transform="translate(-807.61 -407.08)"/><path class="cls-10" d="M1073.19,678.18c-.18.66-1.7,6.78,1.69,10.36,2.42,2.55,6.73,3.17,9.39,3.56a11.52,11.52,0,0,0,1.33.15c.81,0,5.77.31,8.74-3a9.81,9.81,0,0,0,1.21-10.28c-1-.19-2.43-.44-4.11-.66-1.37-.18-2.4-.27-3.56-.38-2.18-.21-3.28-.31-4.63-.36-2.5-.08-4.42,0-5.52.1-.79,0-1.37.1-1.93.16C1074.73,677.9,1073.84,678.06,1073.19,678.18Z" transform="translate(-807.61 -407.08)"/><path class="cls-11" d="M1076.67,755.49c15.63-7.9-23.6-82.9-23.6-82.9s-4.72-8.27,0-12.73" transform="translate(-807.61 -407.08)"/><path class="cls-12" d="M1057.27,751.2s6.14-18.89,15.52-10.13c0,0,5.77,9.1-1.78,11.5S1063.63,755,1057.27,751.2Z" transform="translate(-807.61 -407.08)"/><path class="cls-12" d="M1022.31,746.46c.91,1.86,4.1,2.6,5.77,3.31a17.88,17.88,0,0,0,6.22,1.53,12.46,12.46,0,0,0,10.48-4.81s-1.24-13.15-18.24-6.28a7,7,0,0,0-3.14,2.4c-.68.95-1.54,2-1.29,3.26A2.28,2.28,0,0,0,1022.31,746.46Z" transform="translate(-807.61 -407.08)"/><path d="M1014.18,655.4s-39.49-16-79.83-5.15c0,0-6.18,3.26-9.1,7.89,0,0-7.9-7.72,12.7-20.08s43.95-5.84,43.95-5.84S1021.56,634.28,1014.18,655.4Z" transform="translate(-807.61 -407.08)"/><path d="M1057.27,657.11s15.8-28,45.5-19.57c0,0,20.6,5.32,19.57,23.87,0,0-23.69-20.61-51.5-4.47C1070.84,656.94,1057.1,662.09,1057.27,657.11Z" transform="translate(-807.61 -407.08)"/><path class="cls-11" d="M1008,734.9s-5,24.25,17.63,22.19" transform="translate(-807.61 -407.08)"/><path class="cls-11" d="M894.86,775.66s-14.94-11.59-6.1-24.46" transform="translate(-807.61 -407.08)"/><path class="cls-13" d="M1127.61,1006.76s38.8-41,12.24-86.22" transform="translate(-807.61 -407.08)"/><circle cx="164.97" cy="274.82" r="4.35"/><circle cx="276.95" cy="277.77" r="4.35"/><path class="cls-14" d="M881.12,739.52s-21.63-33.65-25.23-8.75,15.45,45.84,15.45,45.84" transform="translate(-807.61 -407.08)"/><path class="cls-14" d="M869.05,761.33s-1.37-7.33,9.5-14.08" transform="translate(-807.61 -407.08)"/><path class="cls-15" d="M1111.83,920.18a60.14,60.14,0,0,1,22.57,17c-.55-3.3-1.16-6.08-1.69-8.21-.84-3.43-1.39-4.94-2.54-6.46a12,12,0,0,0-3-2.78,17.52,17.52,0,0,0-3.61-1.09A19.79,19.79,0,0,0,1111.83,920.18Z" transform="translate(-807.61 -407.08)"/><path class="cls-16" d="M898,989a9.64,9.64,0,0,0-9.07,4.43,9.11,9.11,0,0,0-1,6.12,69.66,69.66,0,0,0,5.57-5.28A68,68,0,0,0,898,989Z" transform="translate(-807.61 -407.08)"/><path class="cls-5" d="M945.48,879.69S1064.57,979.58,1103,881c0,0-15.08,23.77-44.19,29.57,0,0-44.82,14-94.29-19.34C964.48,891.2,956.46,885.91,945.48,879.69Z" transform="translate(-807.61 -407.08)"/></svg>