<svg id="Capa_1" data-name="Capa 1" xmlns="http://www.w3.org/2000/svg" xmlns:xlink="http://www.w3.org/1999/xlink" viewBox="0 0 600 601.04"><defs><style>.cls-1{fill:#002b40;}.cls-17,.cls-18,.cls-2,.cls-20,.cls-22,.cls-23,.cls-24,.cls-25,.cls-33{fill:none;}.cls-13,.cls-2,.cls-20,.cls-27,.cls-4,.cls-7,.cls-9{stroke:#000;}.cls-10,.cls-11,.cls-13,.cls-17,.cls-18,.cls-2,.cls-20,.cls-21,.cls-22,.cls-23,.cls-24,.cls-25,.cls-27,.cls-33,.cls-34,.cls-36,.cls-4,.cls-6,.cls-7,.cls-8,.cls-9{stroke-miterlimit:10;}.cls-10,.cls-11,.cls-13,.cls-2,.cls-20,.cls-21,.cls-22,.cls-23,.cls-24,.cls-25,.cls-27,.cls-33,.cls-34,.cls-36,.cls-4,.cls-6,.cls-7,.cls-8,.cls-9{stroke-width:0.25px;}.cls-3{fill:#123e21;}.cls-4,.cls-8{fill:#be8347;}.cls-5{fill:#361a12;}.cls-6{fill:#d6b346;}.cls-10,.cls-11,.cls-21,.cls-22,.cls-36,.cls-6{stroke:#a16c2d;}.cls-7{fill:url(#Degradado_sin_nombre_3);}.cls-8{stroke:#0a0a0a;}.cls-9{fill:#bfa791;}.cls-10{fill:#9aa2c6;}.cls-11{fill:#171120;}.cls-12{fill:#a05b2e;}.cls-14{fill:#121011;}.cls-15{fill:#090a0a;}.cls-16{fill:#abb681;}.cls-17{stroke:#191816;stroke-width:5px;}.cls-18{stroke:#1c1b1a;stroke-width:4px;}.cls-19{fill:#b3a580;}.cls-20{opacity:0.32;}.cls-21{fill:#fff;}.cls-23{stroke:#0e0c0c;}.cls-24{stroke:#0c0c0c;}.cls-25{stroke:#4c2c16;}.cls-26{fill:#8a551f;}.cls-27{fill:#947860;}.cls-28{fill:#0e0b0a;}.cls-29{fill:#542913;}.cls-30{fill:#1f1811;}.cls-31{fill:#161616;}.cls-32{fill:#cd8e50;}.cls-33{stroke:#8a551f;}.cls-34{fill:#c85f34;stroke:#1d1e1c;}.cls-35{fill:#111010;opacity:0.68;}.cls-36{fill:#8889bb;}</style><linearGradient id="Degradado_sin_nombre_3" x1="460.23" y1="1900.84" x2="603.26" y2="1900.84" gradientTransform="translate(301.63 -1502.6) rotate(7.44)" gradientUnits="userSpaceOnUse"><stop offset="0" stop-color="#e8a778"/><stop offset="0.09" stop-color="#dc9a6a"/><stop offset="0.36" stop-color="#be7b46"/><stop offset="0.5" stop-color="#b36f38"/><stop offset="0.55" stop-color="#b8733c"/><stop offset="0.83" stop-color="#d48951"/><stop offset="1" stop-color="#de9159"/></linearGradient></defs><title>Jose</title><rect class="cls-1" width="600" height="600" rx="39.36"/><path class="cls-2" d="M571.23,487.08" transform="translate(-316.65 -126.34)"/><path class="cls-2" d="M577.86,486.21" transform="translate(-316.65 -126.34)"/><path class="cls-2" d="M584.49,485.66" transform="translate(-316.65 -126.34)"/><path class="cls-3" d="M527.61,575.68s1.13,30.65,15.58,43.9c0,0-26.37,30.08-55.74,32.55C487.45,652.13,503.39,629.8,527.61,575.68Z" transform="translate(-316.65 -126.34)"/><path class="cls-4" d="M527.29,536.68s.13,23.67.32,39c0,0-1.65,28,17.34,44.81,0,0,4.13,9.06,50.31-46.37,0,0,31.22-33.46,45.14-41.11,0,0-7.66-15.08,9-67.32C649.41,465.69,583.59,599,527.29,536.68Z" transform="translate(-316.65 -126.34)"/><path class="cls-5" d="M543.67,549.5s.1,23.24,11.78,26.5c0,0,20.48-1.32,35.32-17.1,0,0,16.68-16.11,22.14-39h0s-45.67,40-69.24,29.6" transform="translate(-316.65 -126.34)"/><polygon class="cls-6" points="370.19 450.34 344.48 468.77 543.81 547.72 543.28 542.59 541.37 536.07 370.19 450.34"/><path class="cls-7" d="M662.07,396.2s-6.09,18.69-5.52,27.46c0,0-1.11,30-11.95,54.26,0,0-17.5,34.19-37.92,45.84,0,0-20.1,21.65-30.37,23.41,0,0-21.38,13.51-41.9-.49,0,0-16.69-21.46-22.24-40.28,0,0-6.12-27.59-.72-54.42,0,0,2.44-32.49,5.53-45,0,0,2.19-22.49,14-43.61,0,0,3.76,5.46,8.39,4.68,0,0,11.69-4.49,19.18-6.45,0,0,5.91,5.54,24.54-.08,0,0,27.95,1.11,38.39-7.31,0,0,16.45-9.29,21.49,7.15,0,0,.25,2.69,5.36,12.13,0,0,4.65-8.54,4.95-4.44C655,392.21,659.92,390.07,662.07,396.2Z" transform="translate(-316.65 -126.34)"/><path class="cls-8" d="M656,431.26s11.74-18.76,30.2-20.6c0,0,10.43,8.3-3.85,32.92,0,0-4.44,10.5-7.5,12.65,0,0-7.55,6.66-8,8.84,0,0-10.41,3.63-16.56-5C650.29,460.1,651.81,439,656,431.26Z" transform="translate(-316.65 -126.34)"/><path class="cls-9" d="M544.15,618.92s-7.11,9-27.53,23.54c0,0,8.79,5.85,9.19,9.39,0,0,24.78-18.79,33.86-21.39,0,0-12.55-.93-17.9-2-.94-.18,7.26-7.2,8.23-8.13Z" transform="translate(-316.65 -126.34)"/><path class="cls-9" d="M525.9,669.26c-.68-3.81-2.49-3.57-6.31-3.61s-5.25,3.2-6.91,7.18c-3,7.07,2.7,7.22,6.71,6.48S526.7,673.77,525.9,669.26Z" transform="translate(-316.65 -126.34)"/><path class="cls-9" d="M510.31,670.45s-4.84,13.55-8.9,17.1c0,0-6,1.65-5.22-3.82,0,0-.27-7,10.29-14.18C506.48,669.55,509.77,668.41,510.31,670.45Z" transform="translate(-316.65 -126.34)"/><path class="cls-10" d="M878.38,725.58l-236-.05s-10.28-48.72-12.66-69.3a369.62,369.62,0,0,0-6.19-36.91s18.32-17.26,29.12-26c0,0,7.22,2.84,13.94,6.35,0,0,149,64.66,237.36,89.9C903.93,689.57,867.4,698.12,878.38,725.58Z" transform="translate(-316.65 -126.34)"/><path class="cls-11" d="M488.25,652.68S509,647,516.62,642.46,623.18,607.8,623.18,607.8l.41,13.71s13.45,7.66,15.19,19.77c0,0-5.33,13.49-3.64,18.1,0,0,11.26,20.81,10.17,30.1,0,0,17,28.68,9.71,37.77l-229.67-2.68S482.73,643.86,488.25,652.68Z" transform="translate(-316.65 -126.34)"/><path class="cls-12" d="M661.93,435.91s1.31,5.1-1,9.29a44.76,44.76,0,0,1-6.5,7.67S653,455.51,656,455c0,0,11.68-4.95,13.57-3.36,0,0,4.62,3.57,4.38-6.83,0,0,2.55-14.88-6-15.11C667.92,429.7,661.49,429.19,661.93,435.91Z" transform="translate(-316.65 -126.34)"/><ellipse class="cls-13" cx="574.17" cy="520.24" rx="0.53" ry="0.4" transform="translate(-466.58 669.6) rotate(-63.02)"/><path class="cls-14" d="M519.5,403.19s8.23-27.42,13-37.78c0,0,6.28,4.55,7.74,3.58,0,0,8.52-3.45,9.73-5.15,0,0,6.4.72,10.24-1.73,0,0,6.59,5.31,10.62,2.7,0,0,9.82-1,11.64-3.15,0,0,5.7,2.1,13.21-.78,0,0,10.43.36,13.53-2,0,0-1,3.74.19,3,0,0,3.76,1.61,7.85-2.41,0,0,6.39-2,9.89-6.76,0,0-6.7,4.34,6.6-1.24,0,0-6.61,3.55-5,4.2,0,0,1.05,3.76,5.31,1.31,0,0,5.07.14,6.41,1.2,0,0,1.45,4.52,3.83,6.22,0,0,2,9.42,5.27,11.53,0,0,3.82,1.29,3.17-11.43,0,0,2.64,20.25,3.59,24.22,0,0,2.42,1.49,4.42.26,0,0-3,6.22-2.54,6.85s-.46-.63-.46-.63,2.34-1,2.45,2.32c0,0-6.12,23.69-5.64,28.07,0,0,.88,3.35,1.39,5.65,0,0,7.87-10.12,14-14.64,0,0,2.11-3.73,4.48-3.91,0,0,10.86-29.89,10.76-43.85,0,0,11.62-36.56-19.82-70.69,0,0-18.53-12.31-52.21-12.08,0,0-17.74.21-22.73,1.82,0,0-6.79,5.76-8.86,6.36,0,0-11,.5-11.2,1.54,0,0,1.83,5.44-.79,6.87,0,0-14,4-15.67,7.32,0,0-10.07,12.39-13.68,20.68,0,0-9.83,17-17.61,26.68,0,0-6.94,7.43-11,43.87l-1,28.33s2.37,2.74,3.24,1.29C513.94,430.85,512.08,419.78,519.5,403.19Z" transform="translate(-316.65 -126.34)"/><path class="cls-12" d="M670.37,428.43s7.57-.69,8,1.11c0,0,1.58,9.55.32,14,0,0,7.82-9.53,8.89-22.1,0,0,.25-11-9.91-1.13A33.16,33.16,0,0,0,670.37,428.43Z" transform="translate(-316.65 -126.34)"/><path class="cls-15" d="M534.3,497.56s1.75-5.58,5.72-7.4c0,0-3.78-6.13-9.62-5.11,0,0-1.26,2-.83,3C530.43,490.12,531.23,494.09,534.3,497.56Z" transform="translate(-316.65 -126.34)"/><path class="cls-16" d="M492,651c3.33-6.17,12.18-22,17-32.08,0,0,5.32-13.24,6.18-16.64,0,0-13.62,30.1-26.72,47.59-2.15,2.87-1.87,3.38-1.47,3.37l1.94-.06C490.18,652.62,491.31,652.3,492,651Z" transform="translate(-316.65 -126.34)"/><path class="cls-9" d="M511.65,644.77s8.23,6,8.84,9.86c0,0-6.21,9.28-11.84,11.33,0,0-15.56-4.77-17.5-12.38A83,83,0,0,0,511.65,644.77Z" transform="translate(-316.65 -126.34)"/><path class="cls-17" d="M523.66,655.52s26.65-21.57,45.25-25.58c0,0,36-12.38,78.64-40.36,0,0,31.19-18.24,40.13-20.63" transform="translate(-316.65 -126.34)"/><path class="cls-18" d="M536.24,661.14s40.26-21.1,57-28.73c0,0,21-5.69,43.63-22.63,0,0,34.7-21.48,40.79-23.6,0,0,16.57-10.75,24.26-11.28" transform="translate(-316.65 -126.34)"/><path class="cls-9" d="M525.71,655.16,536.19,660l56.31-29.13-19-1S557.66,634.73,525.71,655.16Z" transform="translate(-316.65 -126.34)"/><path class="cls-19" d="M596.76,624.48s45.11-28.73,68.16-42.35c0,0,17.09-8.49,25.73-10.85,0,0,5-3.06,7,2.9,0,0-30.34,12.51-56.68,31,0,0-20.82,15.08-41.22,23Z" transform="translate(-316.65 -126.34)"/><path class="cls-20" d="M552,487.89" transform="translate(-316.65 -126.34)"/><path class="cls-20" d="M549.66,499.31" transform="translate(-316.65 -126.34)"/><path class="cls-2" d="M561.67,488.94" transform="translate(-316.65 -126.34)"/><path class="cls-2" d="M559.58,499.34" transform="translate(-316.65 -126.34)"/><path class="cls-2" d="M569.53,498.21" transform="translate(-316.65 -126.34)"/><polygon class="cls-21" points="380.99 452.17 386.79 448.68 540.74 526.99 543.88 536.44 380.99 452.17"/><path class="cls-22" d="M578.94,486.66" transform="translate(-316.65 -126.34)"/><path class="cls-23" d="M586.28,485.83" transform="translate(-316.65 -126.34)"/><path class="cls-3" d="M639.44,526S652,521.32,655,525.1c0,0,4.52,5.06,2.23,8.47,0,0-8.22,3.19-3.72,6.21,0,0,11.27,3.42,14.42,6.58a69.16,69.16,0,0,0-16.32,21.7s-8,21.17-25.85,37.22c0,0-6.49,1.8-21.8,14.13L597.11,618l-2.58,12.84L552,629.07l-9.59-1s39.62-40.17,61.35-62.74c0,0,19.94-25.45,34.64-33.37C638.42,531.94,641.65,528.73,639.44,526Z" transform="translate(-316.65 -126.34)"/><path class="cls-16" d="M659.34,541.67a84.42,84.42,0,0,0-6.05,8.22s-18.71,24.17-23.65,36.2c0,0-2.73,5.6-5.66,12.18,0,0,1.37,3.35,5,.06,0,0,15.42-28.58,18.54-32.51,0,0,7.15-10.58,13.19-22.08,0,0,.24-.94-1.41-2.07" transform="translate(-316.65 -126.34)"/><path class="cls-6" d="M680.17,568.84c-6.92,3.21-19.67,9.46-26.68,15-1.2,1-15.63,9.33-15.46,7.88.62-5.45,14.65-24.23,14.83-28.47a2,2,0,0,1,.24-.87c1.41-2.68,9.23-16.83,16.48-16.39a1.67,1.67,0,0,1,.54.15c1.58.8,9.82,5.47,7.56,14.87a1.74,1.74,0,0,0,.16,1.32,12.88,12.88,0,0,0,3.07,3.35C681.91,566.44,681.48,568.23,680.17,568.84Z" transform="translate(-316.65 -126.34)"/><path class="cls-23" d="M584.82,485.85" transform="translate(-316.65 -126.34)"/><path class="cls-24" d="M584.39,486.77" transform="translate(-316.65 -126.34)"/><path class="cls-25" d="M622.43,465s-2.63,25.92-16.92,42.85" transform="translate(-316.65 -126.34)"/><path class="cls-26" d="M592.83,421.38s9.13,3,13.63,2.63c0,0,7.43.25,9.82-.47,0,0-.16,2.73-2.19,3.17a85,85,0,0,1-12.15-1.23A21.48,21.48,0,0,1,592.83,421.38Z" transform="translate(-316.65 -126.34)"/><path class="cls-2" d="M565.68,467.85s10.44,3.89,14.12-3.82c0,0,6.2-8.74.64-20.51,0,0-5.43-8.14-3-22.95" transform="translate(-316.65 -126.34)"/><path class="cls-27" d="M529.36,423.25a45.17,45.17,0,0,1,7.95-6,22.34,22.34,0,0,1,8.12-2.8,53.42,53.42,0,0,1,5.28,1,20.63,20.63,0,0,1,5.81,2.14,1.47,1.47,0,0,1-.2,2.33,21.15,21.15,0,0,1-11,4.78s-6.07,2.17-15.74.63C528.71,425.16,528.56,424,529.36,423.25Z" transform="translate(-316.65 -126.34)"/><path class="cls-28" d="M551.36,415.58s.48,6.65-5.62,7.51-8.84-.52-9.34-5.32A17.71,17.71,0,0,1,551.36,415.58Z" transform="translate(-316.65 -126.34)"/><ellipse class="cls-29" cx="629.51" cy="468.58" rx="5.06" ry="2.3" transform="translate(-295.93 837.43) rotate(-75.79)"/><path d="M561.14,401.59s-1.19-10-6.18-11.32c0,0-18.1.1-24.16,8.47,0,0-9.26,12.71-10.2,17.39,0,0,9.13-7.71,11.68-7.37C532.28,408.76,548.78,399.26,561.14,401.59Z" transform="translate(-316.65 -126.34)"/><path d="M584.63,399.08s-.7-8.94,2.86-14.25c0,0,14.6-6.38,30.36-2,0,0,13,3.72,18,16.88,0,0-11.83-4.61-17.52-5.27C618.29,394.41,597.27,390,584.63,399.08Z" transform="translate(-316.65 -126.34)"/><path class="cls-30" d="M547.51,416.44s2.7,1.66.66,3.79c0,0-1.21,1.17-4.1,1.18,0,0-2.51-.19-2.41-2,0,0,.71-2.29,2.37-2.71C544,416.75,546.19,415.8,547.51,416.44Z" transform="translate(-316.65 -126.34)"/><path class="cls-2" d="M548.58,464.08s6.51-4.54,11.89.67c.78-2.11,10.37-8.08,16.45-3.35" transform="translate(-316.65 -126.34)"/><path class="cls-2" d="M559.54,470.57S546,474.73,547,464.83c0,0-1.66-7.26,5.79-15.9,0,0,9.74-14.51,13.68-27.86" transform="translate(-316.65 -126.34)"/><path class="cls-25" d="M532.83,474.74a17.31,17.31,0,0,1,9.34-6.35" transform="translate(-316.65 -126.34)"/><path class="cls-25" d="M585.9,460.24a13.45,13.45,0,0,1,10,1.87,30.4,30.4,0,0,1,8.19,21.28" transform="translate(-316.65 -126.34)"/><path class="cls-26" d="M555,426.07s-11,3.49-14.91,4.27c0,0-6.85,1.18-11.4-.14a1.56,1.56,0,0,0,1.21,2.21s7.49,1.19,12-.71C541.89,431.7,550.66,429.16,555,426.07Z" transform="translate(-316.65 -126.34)"/><path class="cls-31" d="M592.52,482.33s2.39,4,2.55,6.61c0,0,6.83-6.68,7-9.7A13.23,13.23,0,0,0,592.52,482.33Z" transform="translate(-316.65 -126.34)"/><path class="cls-32" d="M513.21,434.29s-2.53-7.54-6.13-4.14c0,0-5.18,7.4,2.86,14.81a14.15,14.15,0,0,0,2,2.52" transform="translate(-316.65 -126.34)"/><path class="cls-33" d="M526.58,420s5.76-5.4,10.21-7.75,9.08-2.85,14.34-2.42c0,0,4.53,1.22,6.66,3.88" transform="translate(-316.65 -126.34)"/><path class="cls-33" d="M588.91,409.53c5-4.27,7-5.65,15.65-6.8,0,0,12-.33,16.54,2.38,0,0,6.66,3.15,9.44,7.43" transform="translate(-316.65 -126.34)"/><path class="cls-25" d="M622.61,465.38s1.72,19-16.4,42.62" transform="translate(-316.65 -126.34)"/><path class="cls-25" d="M623.07,465s-4.85,28.72-17.14,42.85" transform="translate(-316.65 -126.34)"/><path class="cls-34" d="M598,482.77c-42.26,22.79-66,6.08-66,6.08,0,1.22-.87,2.7-.2,4.54,2.23,6.16,10.2,11.48,10.2,11.48,7.11,1.85,16.48,4.19,28.17-.73,0,0,19.92-5.19,27.05-18.64A7.14,7.14,0,0,0,598,482.77Z" transform="translate(-316.65 -126.34)"/><path class="cls-34" d="M598,482.77c.06-.9-.18-1.52-.87-1.34-3.06.83-7.78.79-15.59,2.63h-.09a139.29,139.29,0,0,1-28.43,1.42.94.94,0,0,0-.29,0c-1.47.21-12.46,2.11-18,1.37-1-.14-2.71.87-2.73,2C532,488.85,555.77,505.56,598,482.77Z" transform="translate(-316.65 -126.34)"/><path class="cls-35" d="M524.22,475.93a14.47,14.47,0,0,0-3.94,5.6c-.34,1-2.13,1.27-2.42.42-.38-1.09-1.31-4-1.8-5.1-.39-.86,1.36-2.57,2.19-2.16,1,.51,3.18.11,5.06-.19C524,474.38,524.85,475.44,524.22,475.93Z" transform="translate(-316.65 -126.34)"/><path class="cls-27" d="M610.12,417.17s8.22-.43,12-2.51c0,0-4.6-7.8-12.47-7.07,0,0-13.44,3-16.42,8.06A56.69,56.69,0,0,0,610.12,417.17Z" transform="translate(-316.65 -126.34)"/><path class="cls-28" d="M605.26,408.82s-6.13,4.4.12,7.26c0,0,5.91,1.49,9.6-1.39,0,0,4.29-3.74.19-6.21h0s-3.76-2-9.91.34" transform="translate(-316.65 -126.34)"/><path class="cls-30" d="M612.53,409.46s2.69,1.65.66,3.79a6.09,6.09,0,0,1-4.1,1.17s-2.51-.18-2.42-1.94c0,0,.72-2.3,2.37-2.71C609,409.77,611.2,408.82,612.53,409.46Z" transform="translate(-316.65 -126.34)"/><path class="cls-36" d="M544.62,600.11s-61.14,25.55-85.44,45.49c-33.1,13-69,17.34-104.59,40.52-2.75,1.79-5.37,5.92-6.35,10l-10.09,23.2c-.86,3.58,5.15,3.79,7.31,3.49l132.92-18s14.9-26.85,22.85-30.64c0,0,12.13-24.28,15.87-24.81" transform="translate(-316.65 -126.34)"/></svg>