<svg id="Capa_1" data-name="Capa 1" xmlns="http://www.w3.org/2000/svg" viewBox="0 0 277.72 648.45"><defs><style>.cls-1{fill:#750000;}.cls-2{fill:#fff;}</style></defs><title>logo</title><path d="M246.21,44.89a2.41,2.41,0,0,1,.81.93c.28.48.68,1.24,1.19,2.2l.11.21c.34.66.68,1.31,1,1.93s.61,1.14.78,1.45c.44.76,1,1.83,1.66,3.24s1.33,2.76,1.91,4.1,1,2.38,1.22,3c.41,1.31.71,2.55,1,3.66a8.81,8.81,0,0,1,.3,1.93s0,.13,0,.27a1.49,1.49,0,0,0,.21.38c.13.21.27.28.37.21a3.37,3.37,0,0,0,.44-.9c.17-.31.31-.62.48-.9a2.33,2.33,0,0,1,.37-.58,1.28,1.28,0,0,0,.24-.35.5.5,0,0,0,.1-.27,3.58,3.58,0,0,1,.44-1c.31-.55.65-1.21,1.06-1.9s.78-1.27,1.09-1.79.54-.83.64-.86a.62.62,0,0,0,.14-.14.26.26,0,0,0,.07-.21,3.69,3.69,0,0,1,.54-1c.37-.59.78-1.28,1.26-2s.92-1.38,1.32-1.93a4.25,4.25,0,0,1,.79-1,1.77,1.77,0,0,0,.23-.24.56.56,0,0,0,.11-.31,1.43,1.43,0,0,1,.37-.73,4.66,4.66,0,0,1,.68-.72c.27-.17.44-.24.54-.14s-.06.59-.68,1.21a5.74,5.74,0,0,0-.64.76c-.21.2-.27.34-.27.38a4.37,4.37,0,0,1-.41.82c-.31.45-.61,1-1,1.52s-.68,1-1,1.45a3.07,3.07,0,0,1-.51.65c-.07,0-.11,0-.14.11a.29.29,0,0,0-.07.24,2.06,2.06,0,0,1-.2.55,9.53,9.53,0,0,1-.51.9c-.21.31-.38.62-.51.86a2,2,0,0,0-.21.41,3.21,3.21,0,0,1-.3.59c-.21.38-.44.79-.75,1.31s-.54.93-.75,1.31a2.74,2.74,0,0,0-.3.72,1.25,1.25,0,0,1-.11.35,3.14,3.14,0,0,1-.27.51,8,8,0,0,0-.41.73l-.4.86a2.56,2.56,0,0,0-.28.86c0,.07.14,0,.41-.17a.86.86,0,0,0,.44-.83.59.59,0,0,1,0-.41.83.83,0,0,1,.3-.38,5.19,5.19,0,0,0,.58-.76c.24-.38.51-.83.78-1.31s.48-.93.68-1.28a2.06,2.06,0,0,1,.41-.55c.07,0,.17-.2.34-.48s.31-.62.51-1a10.55,10.55,0,0,1,.65-1.24,9.3,9.3,0,0,1,.68-1c.17-.24.44-.62.78-1.13s.65-1.11.95-1.66a17.48,17.48,0,0,1,1.06-1.76,11.08,11.08,0,0,1,.95-1.31c1.09-1.17,1.19-1,.24.38-.21.28-.41.59-.62.93s-.37.66-.51.93a5.8,5.8,0,0,1-.47.93c-.17.35-.34.66-.51.94-1.5,2.48-2.18,3.89-2,4.17.07,0,.17,0,.31-.14a4.11,4.11,0,0,0,.41-.52,4.16,4.16,0,0,1,.4-.58c.11-.14.21-.25.28-.25s.17-.13.34-.41a8,8,0,0,0,.64-1c.72-1.17,1.4-2.31,2.08-3.34a23.15,23.15,0,0,1,1.39-2c.1-.13.27-.31.48-.55s.4-.48.57-.72c1.36-1.76,2-2.41,2-2a.58.58,0,0,1-.1.35.75.75,0,0,1-.24.21.44.44,0,0,0-.27.24.52.52,0,0,0-.1.31,2,2,0,0,1-.17.58c-.14.28-.27.56-.44.83s-.38.62-.58,1-.41.62-.55.86a4.51,4.51,0,0,0-.37.69,4,4,0,0,0-.2.58,6.61,6.61,0,0,1-.65,1.59,18.06,18.06,0,0,1-1.26,2.24c-.2.31-.4.69-.68,1.14s-.47.89-.68,1.27-.47.93-.85,1.66-.71,1.41-1.05,2.1a63.68,63.68,0,0,0-3.5,8.38,23.08,23.08,0,0,0-1.46,6.24,9.88,9.88,0,0,1,0,1.27.89.89,0,0,1-.24.59,2.23,2.23,0,0,1-.68.41,5.09,5.09,0,0,1-1.9.38,4.72,4.72,0,0,1-1.87-.21,2,2,0,0,1-.48-.27,1,1,0,0,1-.3-.28,1.28,1.28,0,0,0-.31-.27,2.51,2.51,0,0,0-.54-.28.94.94,0,0,1-.45-.27,1,1,0,0,1-.13-.62,12.63,12.63,0,0,1,.07-1.45,13.31,13.31,0,0,1,.27-1.93c.13-.69.27-1.28.41-1.76.47-1.45.57-1.62.37-.41-.07.65,0,1,.14,1s.27-.32.44-1a3.47,3.47,0,0,0-.07-1.28,7.52,7.52,0,0,0-.44-1.55,1.75,1.75,0,0,0-.48-.86.32.32,0,0,1-.13-.21.89.89,0,0,1-.07-.34,2.21,2.21,0,0,0-.24-.76,10.4,10.4,0,0,0-.54-1.24c-.21-.42-.38-.8-.51-1.07a2.6,2.6,0,0,1-.17-.45s0-.21-.21-.59-.4-.82-.68-1.34-.51-1-.74-1.48a8,8,0,0,0-.55-1,.75.75,0,0,1-.13-.25c0-.1-.07-.13-.07-.2-.07-.24-.14-.55-.27-.9a7.67,7.67,0,0,0-.38-1c-.14-.31-.24-.49-.3-.49s-.11-.06-.18-.2a1.8,1.8,0,0,1-.16-.48,5.7,5.7,0,0,0-.34-.8,4.89,4.89,0,0,0-.51-.89,8.3,8.3,0,0,1-.45-.76,1.68,1.68,0,0,1-.2-.52,1.77,1.77,0,0,0-.27-.62,10.43,10.43,0,0,0-.65-1c-.27-.42-.47-.73-.64-1a1.41,1.41,0,0,1-.28-.48,4.16,4.16,0,0,0-.57-1.1c-.41-.66-.85-1.35-1.36-2.11s-1-1.41-1.43-2-.68-.86-.75-.86a.49.49,0,0,1-.51-.45,1.79,1.79,0,0,1,.07-.93,1,1,0,0,1,.61-.62,1.15,1.15,0,0,1,.51-.07,2.94,2.94,0,0,1,.54.07,1.08,1.08,0,0,0,.48,0,.74.74,0,0,0,.41-.18,3.1,3.1,0,0,1,.71-.2,11.55,11.55,0,0,1,1.26-.14h.61A1.45,1.45,0,0,1,246.21,44.89ZM248.62,58a2.58,2.58,0,0,0,.24.72,13.16,13.16,0,0,0,.58,1.28c.2.45.37.86.51,1.24a1.21,1.21,0,0,1,.13.66,1.59,1.59,0,0,0,.14.75,14.93,14.93,0,0,0,.58,1.49c.27.55.51,1.13.78,1.72s.44,1.07.61,1.45.27.72.44,1.17.34.79.48,1.1.27.62.37.93a6.06,6.06,0,0,1,.27.76c.07.14.14.31.21.42s.13.17.2.17.1,0,.14.1a.56.56,0,0,1,.07.24v.38c0,.18,0,.35,0,.49s0,.38.07.38.13-.07.24-.28a1.39,1.39,0,0,0,0-1.17,4.58,4.58,0,0,1-.17-.59,1.24,1.24,0,0,1,0-.38,5.67,5.67,0,0,0-.44-1.65c-.34-1-.75-2.07-1.26-3.24a32.71,32.71,0,0,0-1.36-3c-.2-.45-.41-.9-.54-1.28a1.63,1.63,0,0,1-.14-.79.75.75,0,0,0-.07-.45,1.32,1.32,0,0,0-.3-.45,2,2,0,0,1-.44-.58,5.62,5.62,0,0,1-.48-.9c-.31-.65-.58-1-.75-1.07S248.62,57.75,248.62,58Zm24.21-13c-.48.48-.92,1-1.36,1.52s-.78,1-1,1.27-.44.59-.65.86a4.09,4.09,0,0,1-.47.55,3.35,3.35,0,0,0-.34.52c-.14.21-.28.42-.41.66a2.23,2.23,0,0,1-.38.55.64.64,0,0,1-.37.24c-.1,0-.14,0-.14-.17a4.22,4.22,0,0,1,.75-1.14c.48-.66,1.09-1.38,1.77-2.21l2-2.31A13.66,13.66,0,0,1,273.64,44l.17-.11C273.85,43.92,273.51,44.3,272.83,45.06Zm-2.14,4.2a2.14,2.14,0,0,1-.28.45,2.1,2.1,0,0,1-.44.45.91.91,0,0,1-.37.24c-.17,0-.11-.24.23-.69.18-.17.34-.34.48-.45s.27-.2.34-.2S270.75,49.13,270.69,49.26Zm2.51-3.55a.34.34,0,0,1,0,.25,1,1,0,0,1-.24.27.41.41,0,0,1-.27.14.09.09,0,0,1-.1-.1.8.8,0,0,1,.17-.28,1.13,1.13,0,0,1,.37-.28S273.2,45.68,273.2,45.71Zm.58,2.9a.55.55,0,0,1-.14.41.57.57,0,0,1-.24.21.18.18,0,0,1-.23-.1.25.25,0,0,1,0-.24,1.31,1.31,0,0,1,.23-.31c.14-.14.24-.21.31-.21S273.78,48.47,273.78,48.61Zm3.36-6.38a1.28,1.28,0,0,1-.2.38,2.13,2.13,0,0,1-.34.45,5.07,5.07,0,0,1-.34.38c-.31.21-.24.07.17-.48.17-.24.34-.45.48-.62s.2-.28.23-.28S277.18,42.13,277.14,42.23Z" transform="translate(-1.93 -0.42)"/><path d="M250.86,113.73a10.22,10.22,0,0,0,1.06.28,5.86,5.86,0,0,0,.88.13,2.57,2.57,0,0,1,1.67.93l.95,1,10.17,0q5.81,0,8.15.11a6.29,6.29,0,0,1,2.45.27c.24.14.31.24.27.31a1.43,1.43,0,0,1-.61.07,3.28,3.28,0,0,1-.61,0,2.06,2.06,0,0,0-.44,0,3,3,0,0,0-.82-.07c-.44,0-1,0-1.56,0l-1.6-.1a3.31,3.31,0,0,1-.88-.18c-.27-.17-.31-.14-.17.07s-.24.35-1.36.28a7.72,7.72,0,0,0-1.36,0,5.69,5.69,0,0,0-1.06.14,1.36,1.36,0,0,1-1.25-.14.72.72,0,0,0-.28-.14.09.09,0,0,0-.1.1c0,.07-.24.14-.71.24a13,13,0,0,1-1.5.28,11.68,11.68,0,0,1-1.39.1l-.75-.07c-.44,0-.92,0-1.5-.06s-.95,0-1.25,0-.34,0-.21.07a1.44,1.44,0,0,1,.44.17,1.26,1.26,0,0,1,.28.24c.3.35,4.28.59,12,.73a2.59,2.59,0,0,1,.81.07s0,.17-.3.34-.41.42-.11.42.24.1-.13.34a1.92,1.92,0,0,1-.85.24,7.9,7.9,0,0,1-1.33.1c-1.12,0-1.66.07-1.66.35a.58.58,0,0,1-.07.21s-.07,0-.14,0a.86.86,0,0,0-.47,0,4.83,4.83,0,0,0-.92.13c-.68.14-1.36.28-2,.35s-1.53.17-2.65.24c-2.76.21-4.25.45-4.49.69a1.42,1.42,0,0,0-.1.45v.79c0,.31,0,.79,0,1.48v2.07a14.77,14.77,0,0,0,0,1.93c0,.38.13.55.27.55s.24.11,0,.31-.38.49-.21.59a3.25,3.25,0,0,0,1.4.14c.95,0,1.32-.11,1.12-.24s-.24-.28.14-.25.47-.1.17-.24c-.82-.48.37-.58,3.53-.27l3.33.31v.72a4,4,0,0,0,.07.59c.07.17.1.31.21.38a2.88,2.88,0,0,1,.3.86,8.64,8.64,0,0,1,.17,1.41,3.8,3.8,0,0,1-.07,1.17c-.2,1.11-1,1.31-2.41.66a8.92,8.92,0,0,0-1.29-.41,7.15,7.15,0,0,0-1.33-.25c-1.26-.1-2.41-.17-3.5-.17a5.63,5.63,0,0,0-1.87.17,3.92,3.92,0,0,0-.14,1.18c0,.72-.06,1.55-.06,2.48s0,1.76,0,2.51a12.13,12.13,0,0,0,.06,1.45c0,.14.31.21.79.24s1.39,0,2.68-.1l2.52-.1,1.36-.07q6.22.1,6.22.41a.16.16,0,0,1-.07.14.24.24,0,0,1-.2.07.22.22,0,0,0-.17.07.29.29,0,0,0-.1.2c0,.07.06.11.2.14a2.75,2.75,0,0,0,.48,0,1.57,1.57,0,0,1,.61,0,1.71,1.71,0,0,1,.51.14c.37.2.4.31.06.31-.1,0,0,.07.18.13s.57.14,1,.25l1.59.34-1.73.1c-.51,0-1.09,0-1.77.07s-1.26,0-1.8,0c-1.5,0-3,.1-4.39.2s-2.61.21-3.6.35-1.43.27-1.43.41a6,6,0,0,0,1.84.11c1.22,0,2.75,0,4.55,0,4.36-.1,6.43-.07,6.22.14a.28.28,0,0,0,0,.27.52.52,0,0,0,.27.28c.44.21.34.31-.27.28a1.1,1.1,0,0,1-.51-.11.24.24,0,0,1-.21-.2c0-.25-.06-.25-.23,0s-.48.31-.95.17a1.85,1.85,0,0,0-.62,0,.68.68,0,0,0-.4.1,3.41,3.41,0,0,1-1.16.48,8.14,8.14,0,0,1-1.53.25,1.13,1.13,0,0,0-.54.1q-.21.1-.21.21c0,.2-.75.34-2.11.44-.61,0-1.22.11-1.76.14l-1.23.14c-.2,0-.51.1-.88.14s-.75.1-1.09.17c-2,.28-3.33.76-3.91,1.41s-.75,1.11-.24,1.18c.21.06.27.31.17.72l-.13.65-.34-.72a4.11,4.11,0,0,1-.21-.72,2.79,2.79,0,0,1-.1-.69,1.39,1.39,0,0,0-.07-.48c0-.07-.13-.14-.34-.11a4.63,4.63,0,0,0-.85.07,8,8,0,0,0-1.15.28,4.67,4.67,0,0,0-1,.34,3.33,3.33,0,0,1-4.05-.65,6.79,6.79,0,0,1-1.36-2.21,3.21,3.21,0,0,1-.34-2c.27-.72,2.69-1.55,7.24-2.48a1.12,1.12,0,0,0,.44-.21.46.46,0,0,0,.18-.31.34.34,0,0,1,.06-.24c0-.07.1-.07.17,0s.14,0,.17,0a.42.42,0,0,0,0-.31.75.75,0,0,0-.07-.34c0-.07-.1-.11-.14-.07s-.1-.21-.13-.59,0-1,0-1.58,0-1.21,0-1.63-.06-.65-.13-.65-.11-.14-.14-.41a8.45,8.45,0,0,1,0-.93,4,4,0,0,1,.1-1c.07-.24.14-.38.2-.38.21,0,.27,0,.21-.1a1,1,0,0,0-.38-.17,4.13,4.13,0,0,0-.75-.18,17.08,17.08,0,0,0-4,0c-1.19.1-2.14.17-2.79.2a7.75,7.75,0,0,1-1.39,0,1,1,0,0,1-.65-.24c-.24-.14-.34-.24-.3-.31a.92.92,0,0,1,.47-.07c.34,0,.61-.07.78-.1a1.24,1.24,0,0,0,.45-.07,1,1,0,0,0,.27-.17,1.06,1.06,0,0,1,.37-.07,1.47,1.47,0,0,1,.41.07c.31.14.41.07.27-.14s.1-.31.68-.34a6.85,6.85,0,0,0,.78-.07,2.58,2.58,0,0,0,.65-.18c.44-.2.34-.24-.27-.13-2.65.38-3.91.44-3.74.17a2.12,2.12,0,0,1,.27-.21.86.86,0,0,1,.37-.1,1.39,1.39,0,0,0,.41,0,.57.57,0,0,0,.27-.13s.11-.11.14-.11a2.08,2.08,0,0,1,.34-.1l.65-.14c.27,0,.68-.07,1.15-.14.75-.1,1.33-.2,1.73-.27a5.22,5.22,0,0,0,.89-.17,2.89,2.89,0,0,0,.65-.21c.47-.21.71-.48.71-.83a.7.7,0,0,1,.1-.38.38.38,0,0,1,.31-.14.31.31,0,0,0,.3-.2.5.5,0,0,0,.07-.38.33.33,0,0,0-.24-.28c-.27,0-.51-1.34-.68-3.89a4.16,4.16,0,0,0-.47-2.31,3,3,0,0,0-2.08-.42,4.62,4.62,0,0,1-2.41-.41,4.21,4.21,0,0,1-1.46-1.79,4.89,4.89,0,0,1-.44-1.24,5.57,5.57,0,0,1-.07-1.38c0-.42.07-.76.1-1a3.57,3.57,0,0,1,.14-.51s.2,0,.51,0a8.8,8.8,0,0,1,1.12.17,7,7,0,0,0,3.29,0c.68-.2.72-.62.18-1.24-.38-.41-.45-.76-.18-1a1.89,1.89,0,0,1,1.36-.38A4.18,4.18,0,0,1,250.86,113.73Zm-3,18.48c-.2.1-.13.13.17.17a.66.66,0,0,0,.31,0c.07,0,.07-.06,0-.1s-.13-.07-.2-.07A.85.85,0,0,0,247.87,132.21Zm4.8,2.65a.67.67,0,0,0,0,.38c0,.17,0,.52,0,1.07s0,1.17,0,1.86c0,2.59.2,3.52.58,2.72a.86.86,0,0,0,.1-.41.49.49,0,0,0,0-.31,3.82,3.82,0,0,1-.14-1c0-.55,0-1.21,0-2,0-1.9-.11-2.73-.31-2.59A.28.28,0,0,0,252.67,134.86Zm1.49,6.52s-.07.07-.13.13a1,1,0,0,0-.14.35c0,.1,0,.21,0,.24s0,.14,0,.17a.14.14,0,0,1-.13.07.63.63,0,0,1-.27-.14,1.16,1.16,0,0,1-.28-.34c-.2-.41-.3-.35-.27.24a1,1,0,0,0,.1.52.51.51,0,0,0,.48.1.64.64,0,0,0,.48-.17,1.35,1.35,0,0,0,.2-.66,1.22,1.22,0,0,0,0-.51S254.2,141.34,254.16,141.38Zm7.92,1.31,1,.17c.23.07.47.1.64.17l.34.07s0,0,0-.07,0-.1,0-.17-.1-.14-.31-.17a2,2,0,0,0-.68,0Zm2.86-21.76c.14.11,0,.14-.34.14s-.48,0-.31-.14a1.21,1.21,0,0,1,.31-.06A1.09,1.09,0,0,1,264.94,120.93Zm6.63-1.34c.1,0,.1.1.07.17a1.71,1.71,0,0,1-.24.21,1.16,1.16,0,0,1-.31.07.71.71,0,0,1-.27-.07.35.35,0,0,1-.13-.21.2.2,0,0,1,.16-.17.74.74,0,0,1,.41-.07C271.4,119.52,271.5,119.52,271.57,119.59Zm3.81,24.72c.23,0,.34.1.34.17s-.17.24-.51.24a5.29,5.29,0,0,1-1.33-.24c-.58-.17-.37-.24.58-.24A3.54,3.54,0,0,1,275.38,144.31Z" transform="translate(-1.93 -0.42)"/><path d="M246,181.78a5.14,5.14,0,0,1,1.19.48,2.51,2.51,0,0,1,.65.76,1.65,1.65,0,0,0,.41.52c.1.1.17.13.2.07s.27-.11.31,0a1.31,1.31,0,0,1,0,.48,10.61,10.61,0,0,0-.07,2h2.62c1.74,0,3.78,0,6.19.11s4.79.17,7.17.27,4.29.24,5.82.35a7.31,7.31,0,0,1,2.21.27,7.3,7.3,0,0,1-1.53,0c-.92,0-2-.07-3.3-.14-2.35-.14-4.29-.21-5.75-.24s-2.14.07-2.07.17a5.11,5.11,0,0,0,1.29.17c.78,0,1.7.11,2.69.14s1.83,0,2.55,0a17.11,17.11,0,0,1,1.76.1c.65.07,1.23.14,1.74.24s.75.17.71.28a1.55,1.55,0,0,1-.61.07h-1.36c-.54,0-1,0-1.43,0a2.79,2.79,0,0,0-.71.07.33.33,0,0,1-.24,0,.61.61,0,0,1-.34-.17c-.24-.24-.34-.24-.34,0s-.37.24-1.09.14c-.34,0-.88-.07-1.6-.07s-1.49,0-2.27,0-1.4,0-1.77,0a2,2,0,0,0-.65.11c-.07.06,0,.13.14.24a1.27,1.27,0,0,0,.51.24,1.73,1.73,0,0,0,.58.07,1.32,1.32,0,0,1,.4,0c.11,0,.18.07.18.13s-.14.11-.45.14h-1.12c-1.15-.07-1.53-.17-1.15-.34a.68.68,0,0,0,.23-.21.22.22,0,0,0,0-.24c-.07-.1-.27-.17-.61-.21a10.26,10.26,0,0,0-1.06-.07,7.19,7.19,0,0,0-1,.14c-.51.11-.34.17.51.24a2.13,2.13,0,0,1,1.09.28c.14.14,0,.24-.48.34-.68.18-.37.38.89.59.71.1,1,.07.95-.07s-.07-.14,0-.17.1-.07.2-.07a.36.36,0,0,1,.24.07.14.14,0,0,1,0,.17c-.24.31.58.35,2.48.14a6.47,6.47,0,0,1,1.36-.07.94.94,0,0,1,.65.24c.3.31.41.31.27,0-.1-.18-.07-.25.07-.28a4.13,4.13,0,0,1,1,.17,8.52,8.52,0,0,0,2,.18,2,2,0,0,0,1.29-.42c.1-.07.17-.14.24-.14s.1,0,.1.07a.27.27,0,0,0,.24.24,1,1,0,0,0,.44,0,.46.46,0,0,0,.38-.17c0-.07.2-.11.44-.14s.58,0,.95,0,.61.11.85.14.31.14.27.17,0,.11.07.14a.86.86,0,0,0,.34.07.87.87,0,0,0,.31,0,.14.14,0,0,0,0-.18c-.07-.14.14-.14.65,0,.2.1.4.14.54.2l.27.07s0,0,0,.07,0,.11-.07.17a.53.53,0,0,1-.24.14.72.72,0,0,1-.37.07c-.24,0-.41,0-.45.17s.07.25.31.38,0,.11-.34.14H272a1.77,1.77,0,0,0-.31,0c-.37,0-1.15.06-2.44.1s-2.59.07-3.91.07-2.25,0-2.76-.07a1.42,1.42,0,0,0-.37,0,.13.13,0,0,0-.14.11c0,.06-.07.1-.17.17a1.1,1.1,0,0,1-.37.07c-.24,0-.34.07-.34.1s.2.17.54.35l.78.38c.31.17.62.34.92.48,2.35,1.24,2.82,2.62,1.36,4.17-.24.27-.54.62-.92,1s-.71.83-1.05,1.21-.61.69-.88,1a2,2,0,0,1-.48.45,4.85,4.85,0,0,0-.65.52,15.69,15.69,0,0,0-1.22,1.1c-.47.42-.88.76-1.26,1.07a2,2,0,0,1-.64.42.26.26,0,0,0-.17.06c-.07,0-.07.07-.07.14s.07.11.2.14a1.69,1.69,0,0,0,.55,0c.27,0,.74,0,1.42,0a19.74,19.74,0,0,1,2,.1,2.78,2.78,0,0,1,1.36.31,2.39,2.39,0,0,1,.41.9c.13.51.3,1.06.44,1.62a5.73,5.73,0,0,1,.2,1.2,5.46,5.46,0,0,0,.17,1c.11.41.24.93.41,1.45h-.07a.77.77,0,0,0,.14.27s0,.11.07.14a10.91,10.91,0,0,0,1,2.21c.58.86,1.05,1.62,1.43,2.27.57.93,1.05,1.69,1.49,2.28a6.37,6.37,0,0,0,1.5,1.44,9.61,9.61,0,0,1,.88.66l.65.65a11.34,11.34,0,0,0,.92.8,3.21,3.21,0,0,0,.61.38c.07.06.1.1.1.13s.1.24.34.45a6.08,6.08,0,0,0,.75.59,1.49,1.49,0,0,0,.58.27c.06,0,.13.07.23.18a1.75,1.75,0,0,1,.31.41l-1.8.07a5.57,5.57,0,0,1-.82-.14,6.14,6.14,0,0,1-.78-.14c-.34-.07-.75-.13-1.22-.24a.59.59,0,0,0-.24-.17,2.22,2.22,0,0,1-.31-.35c-.07-.13-.1-.2,0-.27s0-.17-.14-.07a1.74,1.74,0,0,1-.95-.35,6.33,6.33,0,0,1-1.36-1,2.41,2.41,0,0,0-.41-.27.34.34,0,0,0-.3,0,.25.25,0,0,0-.14.24.34.34,0,0,0,0,.24.21.21,0,0,0,.24,0,.5.5,0,0,1,.27.14,4.51,4.51,0,0,1,.45.44,2.44,2.44,0,0,1,.4.59c-.17-.1-.37-.17-.54-.28s-.1-.07-.17-.1a14.82,14.82,0,0,1-1.33-1.14,16.77,16.77,0,0,1-1.53-1.51c-1.63-1.8-2.38-3-2.24-3.55a.72.72,0,0,0,0-.25.75.75,0,0,0-.1-.2c-.07,0-.13,0-.17,0a1,1,0,0,0-.1.24c0,.31-.07.35-.14.07a4.24,4.24,0,0,0-.3-.62,11,11,0,0,0-.58-1,5,5,0,0,1-.54-1.14,1,1,0,0,1-.07-.69c.1-.24.13-.37.1-.41s-.17,0-.37.21-.34.2-.24,0,.07-.27-.1-.27-.21-.07,0-.21a.28.28,0,0,0,.14-.34,5.51,5.51,0,0,0-.58-.73s0-.07,0-.07l0,0-.92,0v.14c-.13-.27-.3-.65-.54-1.07a18.12,18.12,0,0,1-.89-2c-.3-.73-.5-1.35-.68-1.9a2,2,0,0,1-.13-1.07c.13-.24,0-.24-.54,0-.17.07-.31.14-.51.21s-.41.1-.58.14a1,1,0,0,1-.38.07.31.31,0,0,0-.17.1.49.49,0,0,0-.27.21,2.48,2.48,0,0,1-.44.24,2.81,2.81,0,0,1-.54.17,1.15,1.15,0,0,0-.55.21,1.58,1.58,0,0,0-.24.72c-.06.35-.1.86-.17,1.59-.17,3-.37,5.13-.54,6.48a9,9,0,0,1-.78,2.82,1.8,1.8,0,0,0-.14.49,3,3,0,0,0-.07.51,2.73,2.73,0,0,1-.27,1.21.77.77,0,0,1-.64.52.34.34,0,0,0-.34.2,2.74,2.74,0,0,0-.21.9,8.11,8.11,0,0,1-.13.9,3.72,3.72,0,0,1-.14.62c-.07.2-.14.31-.17.31s-.17-.07-.31-.24a1.65,1.65,0,0,1-.3-.93A8.42,8.42,0,0,1,248,220c.13-1.41.27-3.44.4-6.1,0-.65,0-1.17.07-1.62a3.79,3.79,0,0,1,.1-.76,3.6,3.6,0,0,0,.07-.75c0-.45.07-1,.1-1.59.07-2.38-.13-3.27-.64-2.62a1.87,1.87,0,0,0-.24.93,25.29,25.29,0,0,1-.37,3.45c0,.38-.11,1-.17,1.76s-.07,1.65-.11,2.55a19.32,19.32,0,0,1-.23,3c-.07.38-.14-.14-.17-1.48s0-3.24.06-5.31.11-4,.17-5.58a20.65,20.65,0,0,1,.21-2.8,10.45,10.45,0,0,0,0-1.34c0-.79,0-1.73,0-2.79s0-2-.1-2.87-.07-1.41-.11-1.62-.06-.37-.13-.69-.1-.61-.17-.93a4.63,4.63,0,0,0-.21-.86.29.29,0,0,0-.34-.14,2.62,2.62,0,0,1-.71.14c-.34.07-.75.11-1.19.18l-1.56.17-1-.86a7,7,0,0,1-2.34-3.49c-.07-.2-.14-.44-.21-.65a.9.9,0,0,0-.2-.41.74.74,0,0,1,.1-.73,1,1,0,0,1,.44-.27,5,5,0,0,1,1-.07c.48,0,1.19,0,2.14,0s1.67.07,2.28.07a9.47,9.47,0,0,0,1,0,.89.89,0,0,0-.24-.31c-.17-.17-.41-.38-.68-.66s-.58-.51-.88-.75-.55-.52-.78-.73-.45-.38-.55-.48c-.44-.52-.37-.9.21-1.17a3.34,3.34,0,0,1,1.32-.35h.17A6.71,6.71,0,0,1,246,181.78Zm1.23,37.68a3,3,0,0,1,.06.58,2.05,2.05,0,0,1-.1.83c-.07.1-.1,0-.13-.41,0-.14,0-.28,0-.42a3.19,3.19,0,0,1-.07-.41.53.53,0,0,1,0-.31.11.11,0,0,1,.11-.1C247.07,219.22,247.14,219.32,247.18,219.46Zm1.53-19.38a2.8,2.8,0,0,0-.28,1c-.1.58-.17,1.24-.23,2s-.11,1.35-.11,1.83.14.69.34.69.34-.28.45-.76a14.13,14.13,0,0,0,.1-1.79c0-.69,0-1.35-.07-1.93a2.69,2.69,0,0,0-.17-1l0,0Zm-.21-1.93a.58.58,0,0,0-.07.35,1.07,1.07,0,0,0,.07.34c0,.11.1.14.17.14s.1,0,.17-.14a.66.66,0,0,0,0-.31.54.54,0,0,0-.07-.34c0-.11-.1-.14-.17-.14S248.54,198.08,248.5,198.15Zm1.06,18.45c0,.13-.07.24-.14.27a.27.27,0,0,1-.27,0c-.24-.14-.27,0-.14.38a2.37,2.37,0,0,1,.14.65c0,.31.07.59.07.86a4.34,4.34,0,0,0,.06.73c0,.2.07.31.11.31a.19.19,0,0,0,.13-.07.44.44,0,0,0,.07-.21c0-.38,0-.79,0-1.24v-1.14c0-.31,0-.52,0-.58v0S249.56,216.6,249.56,216.6Zm-.48-.93a1.36,1.36,0,0,0,0,.41c0,.1,0,.1.07,0a.88.88,0,0,0,0-.34,1.23,1.23,0,0,0,0-.38.3.3,0,0,1,0-.1h0S249.08,215.42,249.08,215.67Zm.31-5.28a.92.92,0,0,0-.17.45.75.75,0,0,0,0,.38c0,.07.07.1.14,0s.1-.1.13-.24.07-.28.11-.42v-.34h0S249.45,210.25,249.39,210.39Zm-.17,1.72a.35.35,0,0,0,0,.28c0,.07,0,.07.07,0a.33.33,0,0,0,.07-.18.63.63,0,0,0,0-.27c0-.07-.07-.11-.1-.11S249.22,212,249.22,212.11Zm.34-4.68a.35.35,0,0,0-.17.17.5.5,0,0,0-.07.17c0,.17,0,.24.1.24s.14-.14.2-.34.07-.24,0-.28S249.59,207.43,249.56,207.43Zm-.14,1.86s0,.1,0,.24a.69.69,0,0,0,0,.28c0,.06,0,.06.1,0s0-.1,0-.17a.66.66,0,0,0,0-.28.26.26,0,0,0-.07-.1Zm8.43-17.89c-.58,0-1.22,0-1.94.07s-1.39.1-1.93.13l-1.84.18.07.93a14.12,14.12,0,0,1,.1,2.06c0,.94.07,2,.07,3s0,2,0,2.86,0,1.31,0,1.45a1.09,1.09,0,0,0,0,.62.41.41,0,0,0,.38.27,3,3,0,0,0,.71-.58c.41-.38.92-.86,1.46-1.45,2-2.1,2.93-3.31,2.69-3.59,0-.06,0-.1,0-.13a.32.32,0,0,1,.2-.07.28.28,0,0,0,.24,0,.6.6,0,0,0,.1-.31,3.35,3.35,0,0,0,.07-.76,3,3,0,0,1,.21-.48,6.62,6.62,0,0,1,.47-.65c1-1.11,1.39-2.07,1.19-2.86l-.17-.73Zm-5.06-4.83c-.17.07-.14.1.13.14h.27c.07,0,.07-.07,0-.11a.29.29,0,0,0-.17-.06A.83.83,0,0,0,252.79,186.57Zm2.58-.1c-.2.07-.14.13.14.17h.27c.07,0,.07-.07,0-.1a.32.32,0,0,0-.2-.07C255.54,186.43,255.44,186.47,255.37,186.47Zm.95.07c-.1,0-.17.06-.13.13s.13.07.3.11l.51,0c.2,0,.38,0,.51,0s.21-.07.24-.14-.1,0-.27-.07-.34,0-.58-.07h-.17A1.12,1.12,0,0,0,256.32,186.54ZM259,208.19a.83.83,0,0,0,.07.24,1.21,1.21,0,0,0,.2.24,1.08,1.08,0,0,0,.14.24c0,.07.06.17.1.27a3.92,3.92,0,0,0,.34.8,1.25,1.25,0,0,0,.3.38c.07.07.17.1.21.07a.21.21,0,0,0,.17-.11.22.22,0,0,0,0-.14v-.06s0,0,0,0v0s0,0-.07,0,0-.07,0-.1,0-.07-.06-.1a.94.94,0,0,0-.11-.18c0-.07-.06-.1-.06-.14s0-.06,0-.06v-.07s0,0,0,0a.13.13,0,0,0,0-.1s0-.1-.07-.17a2,2,0,0,1-.17-.28s0,0,0-.07a0,0,0,0,1,0,0v0s0-.07-.07-.1a1.94,1.94,0,0,1-.1-.24,1.87,1.87,0,0,0-.54-.24C259,208.08,259,208.12,259,208.19Zm2,2.58c.17.45.31.79.41,1a3.29,3.29,0,0,0,.34.73,1,1,0,0,0-.34-.1c-.07,0-.07,0-.07.1a2.44,2.44,0,0,1,.1.24c.07.1.11.21.17.28s.28.38.51.72.45.79.72,1.21.44.72.58,1a3.14,3.14,0,0,0,.47.68,1.75,1.75,0,0,0,.48.45c.1.11.17.14.17.07a.49.49,0,0,0-.17-.27,3.93,3.93,0,0,1-.55-.8.91.91,0,0,0-.1-.2c0-.07,0-.11-.07-.14s0-.35-.2-.76a1.41,1.41,0,0,0-.31-.55c-.1-.17-.2-.24-.27-.24h0s0,0,0-.07a.8.8,0,0,1-.13-.21c.07,0,.1,0,.17-.07s.17-.2,0-.34a.28.28,0,0,0-.17-.07h0a1.22,1.22,0,0,0-.17.07,3.53,3.53,0,0,1-.27-.52,2.18,2.18,0,0,1-.07-.38,2.14,2.14,0,0,0-.14-.58c0-.18-.1-.28-.17-.31s-.06-.07-.06-.11,0-.1,0-.17,0-.21-.1-.21a.22.22,0,0,1-.17-.07s0-.06,0-.1a1.36,1.36,0,0,0,0-.76h-.61A2.24,2.24,0,0,1,261,210.77Zm2.08,1.41a1.64,1.64,0,0,0-.07.49c0,.44,0,.65.24.55s.23,0,.17.1a.2.2,0,0,0,0,.21.62.62,0,0,0,.17.27.89.89,0,0,1,.23.28.32.32,0,0,1,.07.24,16.3,16.3,0,0,0,1.74,2.79,1.84,1.84,0,0,1,.23.49,2,2,0,0,1,.07.44c0,.35,0,.38.21.14a.24.24,0,0,1,.2-.14,1.06,1.06,0,0,1,.24.38,4.6,4.6,0,0,0,.41.66c.2.24.37.48.54.65s.31.31.41.31,0-.13-.21-.44a9.66,9.66,0,0,0-.61-1c-.24-.42-.51-.8-.78-1.18a8.84,8.84,0,0,0-.61-.86,5.82,5.82,0,0,1-.85-1.2c-.21-.42-.27-.69-.21-.83s0-.11-.06-.17-.14-.11-.28-.14a1,1,0,0,1-.27-.18.14.14,0,0,1,0-.2.22.22,0,0,0,.07-.17.17.17,0,0,0-.14-.07c-.07,0-.1,0-.17-.07a.29.29,0,0,1-.07-.17.93.93,0,0,0-.07-.52,2.78,2.78,0,0,0-.23-.59c-.07-.17-.14-.27-.21-.27S263.12,212.05,263.09,212.18Zm1.39,5.07a.08.08,0,0,0-.07.07s0,.07.07.1a.93.93,0,0,0,.14.14.3.3,0,0,0,.17,0,.2.2,0,0,0,.06-.14.19.19,0,0,0-.06-.17.17.17,0,0,0-.14-.07C264.58,217.22,264.51,217.22,264.48,217.25Zm.75,1.21s.07.1.2.24a3.09,3.09,0,0,0,.44.55c.38.48.55.83.48,1.07s0,.34.17.34c.75,0,.68-.44-.17-1.38-.58-.61-.92-.93-1.05-.93S265.26,218.39,265.23,218.46Zm7.58,4.38a1.88,1.88,0,0,1,.27.17.78.78,0,0,1,.17.21c.07.06.1.13.17.13a.34.34,0,0,0,.17,0,.21.21,0,0,0,0-.28,1,1,0,0,0-.34-.24.89.89,0,0,0-.44-.1C272.5,222.66,272.5,222.73,272.81,222.84Z" transform="translate(-1.93 -0.42)"/><path d="M254.69,254a1.35,1.35,0,0,0,.37.14,4.81,4.81,0,0,0,.68.13,6.42,6.42,0,0,1,3.37,1.24,3.7,3.7,0,0,1,.71,2.83v1l2.28-.11c1.39-.07,2.69-.13,3.88-.24a16.51,16.51,0,0,0,2.07-.31c.07,0,.1,0,.14,0s.06.07.06.14.21.21.62,0a3.21,3.21,0,0,1,1.87,0,6.5,6.5,0,0,0,1,.1,1.44,1.44,0,0,0,.51-.07c.06-.07.13-.07.17,0a1.44,1.44,0,0,1,.1.27c0,.35-.21.52-.78.52-.24,0-.55,0-.92.07l-1.12.1h-.89c-.27,0-.41-.07-.47-.14s-.24-.27-.41-.24-.21.17-.21.38-.23.38-.71.38-.61-.07-.31-.24c.48-.31-1.05-.35-4.62-.1a16.27,16.27,0,0,0-2,.2c-.34.11-.48.21-.44.35.1.58.68.82,1.7.72l1.8-.14c.95,0,2-.1,3.16-.14s2.11-.06,2.65-.06a4.85,4.85,0,0,1,1,.06c.07,0,0,.14-.21.25a2.93,2.93,0,0,1-.64.27,6.42,6.42,0,0,1-.72.14,1.18,1.18,0,0,0-.44.07c-.1,0-.13.1-.1.17s-.2.28-.75.28a3.85,3.85,0,0,0-1.22.13c-.31.11-.41.25-.31.42s0,.1-.07.17a2.1,2.1,0,0,1-.4.1,4.56,4.56,0,0,0-.79.07,1,1,0,0,0-.4.11,1.81,1.81,0,0,0-.38.27,4.6,4.6,0,0,1-.81.28,8.8,8.8,0,0,1-1.43.2l-1.87.18-.24,1.89a10.29,10.29,0,0,1-.2,1.35c-.1.34-.17.52-.24.52s-.1.06-.14.2a1.54,1.54,0,0,0-.06.52,1.54,1.54,0,0,1-.11.58.75.75,0,0,1-.17.42,1.47,1.47,0,0,0-.23.72,10.15,10.15,0,0,0-.21,1.35c-.13,1.93-.44,2.75-.85,2.55-.07,0-.13,0-.17,0s-.07.1-.1.2a5.1,5.1,0,0,1-.34,1.52c-.07.24.17.66.68,1.24a14.05,14.05,0,0,0,1.9,1.86,11.56,11.56,0,0,0,2.14,1.45,8.84,8.84,0,0,0,2.25.83,26.79,26.79,0,0,0,3.64.41l.71.11a1.62,1.62,0,0,1,.54.13,2.06,2.06,0,0,0,.82-.1c.41-.14.85-.28,1.36-.48s.95-.38,1.29-.48.58-.18.61-.14,0,.1,0,.14l-.17.1a7,7,0,0,0-.72.38c-.34.2-.74.45-1.22.72s-.95.55-1.5.83-1,.48-1.32.62l-.89.38c-.23.14-.34.24-.34.31a1.5,1.5,0,0,0,.14.45c.1.24.24.51.37.79a4.43,4.43,0,0,1,.38,3.17,1.8,1.8,0,0,1-1.74,1.48,9.13,9.13,0,0,0-1.29.14l-1.94.38c-.71.14-1.36.28-1.93.38a9.13,9.13,0,0,1-1.29.14,3.34,3.34,0,0,0-.62.1,1,1,0,0,0-.4.14,3.34,3.34,0,0,1-.92.38c-.55.17-1.16.34-1.91.52a19.55,19.55,0,0,1-2.48.51,10.81,10.81,0,0,1-2.11,0,15.93,15.93,0,0,0-1.9-.1c-.71,0-1.29.06-1.77.1a18.31,18.31,0,0,1-2.45.24,12.85,12.85,0,0,1-2,0c-.55,0-.82-.06-.82-.17s.17-.17.41-.27a6.28,6.28,0,0,1,.88-.31c.34-.07.68-.21,1.09-.31s.68-.28.92-.38a2.35,2.35,0,0,1,.64-.31,1.27,1.27,0,0,1,.38-.11c.06,0,.2-.07.47-.13s.51-.25.82-.38c.92-.42,2-.87,3.26-1.38s2.31-.9,3.2-1.17c.41-.18.78-.32,1.09-.45a2,2,0,0,0,.51-.35c0-.1.06-.14.13-.17a.18.18,0,0,1,.21,0,.52.52,0,0,0,.4,0,2.33,2.33,0,0,0,.65-.21l.71-.31c.28-.1.45-.17.58-.2.31-.14.41-.28.31-.42s-.34-.27-.72-.31c-.54,0-.51-.07.07-.27l.65-.21c.24-.07.47-.1.64-.14l.62-.1a3.32,3.32,0,0,1,.54-.14c.14,0,.27,0,.41-.07s.24,0,.27-.07a.14.14,0,0,0,.13-.07c.07,0,.07-.1.07-.17s-.1-.14-.37-.21a5.51,5.51,0,0,0-.88-.17,13.38,13.38,0,0,1-1.4-.38,16.29,16.29,0,0,1-1.63-.69,15.06,15.06,0,0,1-3.54-2.65,40.76,40.76,0,0,1-3.87-4.72c-1.06-1.49-2.14-3-3.27-4.52a3.46,3.46,0,0,1-.61-1,1.17,1.17,0,0,1,.07-.75,1.87,1.87,0,0,1,.71-.87,17.89,17.89,0,0,1,2.08-1c2-.79,3.23-.34,3.64,1.31a10,10,0,0,0,.91,2.17,19.33,19.33,0,0,0,1.47,2.48c.51.76.85,1.14,1,1.14s.14-.14.14-.45a10.29,10.29,0,0,0,0-1c0-.45-.07-1.14-.07-2s-.07-1.82-.1-2.75,0-1.73-.1-2.42a6,6,0,0,0-.14-1.17c-.13-.24-.61-.27-1.43-.17-.51.07-1.29.17-2.31.24l-2.92.21c-1,0-1.6.07-1.91.07a6.44,6.44,0,0,1-2.27-.52c-.62-.31-.89-.62-.89-1a1.09,1.09,0,0,0-.1-.48.42.42,0,0,0-.17-.28,1.65,1.65,0,0,1-.17-.79,11.5,11.5,0,0,1-.07-1.62,12.18,12.18,0,0,1,.07-1.66,3.44,3.44,0,0,1,.17-1,.65.65,0,0,1,.27-.24.86.86,0,0,1,.41.14c.41.21,2.21.31,5.37.35h3c.71,0,1.22-.07,1.53-.11s.44-.14.47-.24a3,3,0,0,0-.06-1.07,5.28,5.28,0,0,0-.41-1.45.66.66,0,0,1,.07-.44,1.25,1.25,0,0,1,.4-.35.65.65,0,0,1,.48-.14A.33.33,0,0,1,254.69,254Zm-2.75,4.44a.73.73,0,0,0-.45.18s.07.1.28.14a4.94,4.94,0,0,0,.78.06c.71,0,1,.07,1,.25a.18.18,0,0,0,0,.2.46.46,0,0,0,.27.07c.24,0,.34-.17.31-.45a.45.45,0,0,0-.31-.38,3.25,3.25,0,0,0-1-.1A8.54,8.54,0,0,0,251.94,258.44Zm1.93,20.65c.24.31.55.66.89,1l.92,1a2.07,2.07,0,0,0,.51.45s0,0,0-.07,0-.07,0-.14a1.68,1.68,0,0,0-.4-.58c-.28-.31-.55-.62-.92-1s-.65-.66-.92-.9a1.53,1.53,0,0,0-.48-.34A2.81,2.81,0,0,0,253.87,279.09Zm2.11,6.66a1.79,1.79,0,0,1-.34.2,1.06,1.06,0,0,1-.27.07c-.17,0-.1-.1.1-.27l.38-.17a.83.83,0,0,1,.27-.07C256.25,285.51,256.22,285.61,256,285.75Zm0-12.59a.84.84,0,0,0,0,.31c0,.07.07.07.1,0a.27.27,0,0,0,.07-.21.39.39,0,0,0-.07-.27c0-.11-.07-.14-.1-.11A1,1,0,0,0,256,273.16Zm.47,8.76s.1.1.27.21a1.19,1.19,0,0,0,.38.17.84.84,0,0,0,.37.07c.17,0,.27,0,.27,0s-.1-.1-.27-.2a1.14,1.14,0,0,0-.37-.17,1.47,1.47,0,0,0-.38-.07C256.59,281.89,256.49,281.89,256.49,281.92Z" transform="translate(-1.93 -0.42)"/><path d="M261.76,326.63c.37.14.65.66.85,1.48a5.89,5.89,0,0,1,.2,2.45,3.09,3.09,0,0,1-.51,1.55c-.23.24-.57.24-1.08,0s-.72-.21-.79-.14a1.9,1.9,0,0,0,.34.86,3.47,3.47,0,0,1,.31,1.52c0,.76,0,2,0,3.79a9.25,9.25,0,0,1-.17,1.72,3.94,3.94,0,0,1-.24.8,2,2,0,0,0-.21.65c-.06.35-.13.62-.17.83s-.06.34-.1.52-.06.41-.1.72c-.07.66-.14,1.14-.2,1.45s-.07.34-.1.48-.07.62-.11,1.14-.1,1-.13,1.55-.1,1.07-.17,1.59a7.64,7.64,0,0,1-.14,1.13c0,.24-.07.56-.1,1s-.1.79-.14,1.17a2.82,2.82,0,0,1-.64,1.76,1.24,1.24,0,0,0-.45.65,6.35,6.35,0,0,0-.1,1.28v1.48l1.74.17c.47.07.88.11,1.19.18s.47.07.47.1a1.3,1.3,0,0,1-.44.1c-.27,0-.58.11-.95.14s-.71.1-1,.17a1.28,1.28,0,0,0-.44.11c0,.1.38.17,1.26.27s2,.21,3.33.28c.68,0,1.26,0,1.73.07a4.22,4.22,0,0,1,.79.07s0,0-.11.1a3.08,3.08,0,0,1-.44.31,1,1,0,0,0-.37.28c-.07.06-.07.1,0,.1s0,.07-.24.17-.48.21-.85.35l-1.09.41c-.37.14-.71.24-1,.35a3.78,3.78,0,0,0-.68.24c-.3.1-.61.24-.91.37a5.48,5.48,0,0,1-1.36.38,16.54,16.54,0,0,1-1.81.28,11.35,11.35,0,0,1-1.9,0,3.36,3.36,0,0,1-1.16-.41,9.67,9.67,0,0,1-.95-.65c-.37-.31-.75-.59-1.05-.9a5.81,5.81,0,0,1-.92-1.07,3.85,3.85,0,0,1-.37-1.24c-.21-1.38.1-1.93.91-1.66a10.9,10.9,0,0,0,1.74.35c.64.1,1.19.14,1.7.17a1.89,1.89,0,0,0,1-.14c.24-.24.34-.24.34,0,0,.07.07.14.14.21a.36.36,0,0,0,.27.07.3.3,0,0,0,.27-.14.49.49,0,0,0,.14-.38,1,1,0,0,0-.07-.38c-.07-.1-.1-.17-.17-.17s-.13-.07-.2-.24a2.31,2.31,0,0,1-.14-.55,4.3,4.3,0,0,1,0-.59c0-.14.07-.24.13-.24s.11,0,.11-.07,0-.1,0-.2a1,1,0,0,1-.13-.52,5.49,5.49,0,0,1-.14-.9,5.15,5.15,0,0,0-.07-.83,3.18,3.18,0,0,1,0-.41,20.2,20.2,0,0,1,0-2.41c0-1.48.1-3.31.17-5.52.1-2.55.2-4,.24-4.38a.58.58,0,0,1,0-.24v-.1l0,0v0h-.07s0,0,0,0-.06,0-.1-.07c-.24-.24-.3-.24-.13,0,0,.1.06.17,0,.24a.14.14,0,0,1-.14.1c-.1,0-.17-.1-.2-.31a2.07,2.07,0,0,1-.07-.72,20.21,20.21,0,0,0-.44-5c-.31-1.42-.75-2.24-1.26-2.38s-1-.17-1.9-.31l-2.31-.28c-1.36-.1-2-.38-2-.79a.34.34,0,0,1,.06-.24.17.17,0,0,1,.21,0c.07.07.13.07.17,0a.2.2,0,0,0,.1-.17c0-.21,0-.25.17-.18s.14.07.24,0,.2-.11.34-.17c.3-.28.37-.28.2,0s0,.34.44.31a24.44,24.44,0,0,0,2.69-.66c.68-.17,1.33-.38,1.94-.52s1-.24,1.26-.31a3.79,3.79,0,0,0,.64-.17,3,3,0,0,0,.41-.24c.24-.21-.44-.28-2-.17a15.29,15.29,0,0,1-1.84.07c-.1,0,.14-.11.75-.31.34-.11.71-.21,1.09-.31s.68-.14.92-.21l1-.17c.45-.07.89-.14,1.33-.24a9.32,9.32,0,0,1,2-.14A7.53,7.53,0,0,1,261.76,326.63Zm-6.63,19.93a19,19,0,0,1,0,2.34,4.46,4.46,0,0,1-.14,1.17c-.07.11-.1-.2-.17-1a9.34,9.34,0,0,1,0-1.45,13.66,13.66,0,0,1,.06-1.62l.14-1.76Zm.21-3.14a.29.29,0,0,1,.06.17.93.93,0,0,1-.06.24,1.12,1.12,0,0,1-.21.18.17.17,0,0,1-.17,0,.27.27,0,0,1-.1-.24.52.52,0,0,1,.1-.31.2.2,0,0,1,.17-.11A.26.26,0,0,1,255.34,343.42Zm-.28,7.9a3.18,3.18,0,0,1,0,.62,3.28,3.28,0,0,1,0,.62c-.06.24-.13,0-.13-.62,0-.49,0-.76.07-.76S255,351.25,255.06,351.32Zm.07,2.13a.86.86,0,0,1,.21.49,2.87,2.87,0,0,1,0,.72,3.7,3.7,0,0,1-.11.55c0,.14-.06.14-.06.07A5.3,5.3,0,0,1,255,354c0-.35,0-.55.1-.55S255.13,353.42,255.13,353.45Zm.55,2.93a.4.4,0,0,1,.13.18.28.28,0,0,1,0,.24c-.24.34-.38.31-.38-.18,0-.17,0-.27.17-.27A.15.15,0,0,1,255.68,356.38Zm1.83-10.62c0,.21,0,.52-.07,1s0,.93-.1,1.45c0,.83-.07,1.41-.1,1.86a10.15,10.15,0,0,0,0,1V352c.07.76.14,1.07.24,1s.21-.55.24-1.38c0-.41.07-.93.1-1.55s.07-1.21.1-1.76a8.17,8.17,0,0,0,0-1.55,3.55,3.55,0,0,0-.1-1l-.28-.65Zm0,7.66a.21.21,0,0,0-.13.17.19.19,0,0,0,0,.24c.24.35.37.31.37-.17,0-.17-.06-.28-.17-.28A.11.11,0,0,0,257.51,353.42Zm.27-9.69a4.35,4.35,0,0,1-.1.45.42.42,0,0,0,0,.31c.2.38.34.21.3-.55a1.7,1.7,0,0,0,0-.52S257.88,343.52,257.78,343.73Zm4.56,14.76c.17.06,0,.13-.31.13s-.47-.07-.34-.13a.89.89,0,0,1,.34-.07A.87.87,0,0,1,262.34,358.49Z" transform="translate(-1.93 -0.42)"/><path d="M248.77,404.44a3.65,3.65,0,0,1,1.36.41,2.52,2.52,0,0,1,.89.8.43.43,0,0,1-.1.65.59.59,0,0,0-.21.21.75.75,0,0,0,0,.24c0,.1,0,.27-.21.52a6.17,6.17,0,0,1-.61.69,1.54,1.54,0,0,1-.61.37.18.18,0,0,0-.17.11.22.22,0,0,0,0,.14.15.15,0,0,1,0,.17.3.3,0,0,1-.24.1,2.64,2.64,0,0,0-.81,1,20.69,20.69,0,0,0-1.09,2.07,15.7,15.7,0,0,0-.78,2.17,14.24,14.24,0,0,0-.1,6.59,12.68,12.68,0,0,0,2.82,5.72c.3.38.61.69.85,1a2.21,2.21,0,0,1,.34.51c0,.14.24.38.64.73s.82.69,1.3,1a8,8,0,0,0,1.19.76,2.48,2.48,0,0,0,1.49.24,8,8,0,0,0,1.94-.86,8.14,8.14,0,0,0,1.77-1.27,2.54,2.54,0,0,1,.47-.42,1.21,1.21,0,0,1,.41-.21.84.84,0,0,0,.27-.13.25.25,0,0,0,.14-.18,1,1,0,0,1,.27-.31,4.78,4.78,0,0,1,.51-.41,12.25,12.25,0,0,0,1.33-1.59c.58-.82,1.22-1.75,1.87-2.79s1.19-1.93,1.63-2.75c.51-1,.78-1.38.81-1a1.62,1.62,0,0,1-.13.59,5.8,5.8,0,0,1-.38.68,4.75,4.75,0,0,0-.4.59,1.48,1.48,0,0,0-.11.35.63.63,0,0,1,0,.27,1.76,1.76,0,0,1-.24.52l-.58.89-1.09,1.52-1.08,1.55.85-.45c.23-.13.47-.31.75-.51a4.77,4.77,0,0,0,.54-.66,2.76,2.76,0,0,1,.41-.51,3.42,3.42,0,0,1,.27-.25.33.33,0,0,0,.24-.17l.2-.41a2.63,2.63,0,0,1,.31-.69,5.36,5.36,0,0,1,.51-.93c.17-.31.3-.62.44-.9a2.08,2.08,0,0,0,.17-.58.41.41,0,0,1,.13-.31.72.72,0,0,1,.31-.25.77.77,0,0,0,.27-.24.27.27,0,0,0,0-.27.34.34,0,0,1,0-.28.55.55,0,0,1,.2-.21c.2-.13.27-.06.24.18a4.41,4.41,0,0,1-.44,1,5.15,5.15,0,0,0-.28.45c-.06.14-.1.24-.06.27a3.65,3.65,0,0,1-.24,1.38,8.12,8.12,0,0,1-.72,1.73,2.52,2.52,0,0,1-.74,1,.41.41,0,0,0-.21.17.13.13,0,0,0,0,.18c.1.07.1.17,0,.34a2.66,2.66,0,0,1-.38.48,1.47,1.47,0,0,1-.54.28c-.31.07-.31.17,0,.28s.58-.07,1-.63a2.86,2.86,0,0,0,.44-.58c.1-.17.17-.28.14-.31s0-.1.07-.14a.63.63,0,0,1,.17-.1c.1,0,.23-.17.47-.45l.72-1.07c.23-.38.44-.76.61-1.1a2.54,2.54,0,0,0,.3-.73.39.39,0,0,1,.11-.27.21.21,0,0,1,.2,0,.18.18,0,0,0,.2-.13.85.85,0,0,0,0-.45,1.29,1.29,0,0,1,0-.48c0-.11.07-.21.11-.21s.1,0,.13-.11a.49.49,0,0,0,0-.2.39.39,0,0,1,.07-.35,1.22,1.22,0,0,1,.34-.24.69.69,0,0,1,.47,0c.17,0,.17-.11-.07-.35s-.27-.38,0-.34a.23.23,0,0,0,.2,0s0-.07,0-.14a.1.1,0,0,1,0-.14.13.13,0,0,1,.13-.1c.07,0,.11,0,.14.14a3,3,0,0,1,0,.48,2.25,2.25,0,0,1-.14.48.86.86,0,0,1-.17.24c-.07,0-.1.07-.14.18a.94.94,0,0,0,0,.41,1.6,1.6,0,0,1-.13.62,3.46,3.46,0,0,1-.34.76,4.86,4.86,0,0,0-.85,2,3.26,3.26,0,0,1-.24.51,5.08,5.08,0,0,1-.44.76c-.17.28-.31.52-.41.73a.68.68,0,0,0-.17.34c0,.07,0,.14-.07.28s-.13.24-.24.38c-.34.41-.34.48,0,.27a.83.83,0,0,1,.34-.14c.07,0,.07.11.07.28v.45s0,.07,0,.1a.58.58,0,0,0-.21.07c-.06,0-.17.1-.34.24a4.3,4.3,0,0,0-.4.59,4.85,4.85,0,0,1-.55.69c-.27.2-.51.41-.75.55a5.94,5.94,0,0,0-.64.41,5.53,5.53,0,0,0-.55.59,8.09,8.09,0,0,0-.74,1,2.6,2.6,0,0,1-1.4.83,2.56,2.56,0,0,0-.74.24,1.79,1.79,0,0,0-.52.34,1.92,1.92,0,0,1-.3.28c-.07.1-.14.14-.17.14a2.9,2.9,0,0,0-.41,0c-.27,0-.61,0-1,.07a7.39,7.39,0,0,0-1,.14,2.69,2.69,0,0,0-.58.13,1.15,1.15,0,0,1-.74.11,5.54,5.54,0,0,1-1-.28,2.52,2.52,0,0,0-.65-.2c-.27-.07-.58-.18-.88-.25a9.63,9.63,0,0,1-1.43-.44c-.65-.25-1.26-.52-1.94-.83a16.26,16.26,0,0,1-5.81-4.34c-.24-.32-.48-.59-.72-.87s-.37-.41-.44-.48a4.11,4.11,0,0,1-.64-.9,18.85,18.85,0,0,1-1-2.1,9.38,9.38,0,0,1-.71-2,10.13,10.13,0,0,1-.14-2.21v-2.14c0-.51.07-.86.11-1.06s.1-.31.2-.31.07,0,.1-.07a.22.22,0,0,0,0-.14c-.17-.24-.07-.9.3-2a5.93,5.93,0,0,0,.24-.72,2.43,2.43,0,0,0,0-.45c0-.1-.1-.27-.16-.48a.36.36,0,0,1-.07-.24c0-.07.07-.11.13-.11.28.07.44,0,.55-.31a1.77,1.77,0,0,0,0-1s0-.07.1-.14l.31-.1c.33-.07.4-.21.23-.38s0-.38.27-.76a7.67,7.67,0,0,1,1.13-1.21,8.7,8.7,0,0,1,1.39-1c.58-.31,1-.51,1.33-.65a2.79,2.79,0,0,1,.85-.31A2.52,2.52,0,0,1,248.77,404.44Zm16-6.83.75.21.37.07c.17-.07.51.07,1.05.31a13.53,13.53,0,0,1,1.5.9,2.34,2.34,0,0,1,.85.79.9.9,0,0,0,.24.27.2.2,0,0,0,.24.07c.17,0,.2.07.06.31s-.06.18,0,.24,0,.07.1.07a.39.39,0,0,1,.21,0,.38.38,0,0,1,.17.14,2.41,2.41,0,0,0,.2.38c.1.13.2.31.31.48s.27.45.23.48-.17.07-.4,0a1.09,1.09,0,0,1-.48-.21,1.14,1.14,0,0,1-.31-.31c-.06-.2-.13-.13-.1.24s.07,1.14.17,2.28c0,.21,0,.41.07.55s.07.21.1.21,0,.07,0,.17a1.83,1.83,0,0,1,0,.45,1.17,1.17,0,0,0,0,.48c0,.14,0,.24.1.28s.1.14.14.27a2.66,2.66,0,0,1,0,.49c0,.13-.11.31-.14.41s-.14.17-.24.17-.2,0,0,.14a.28.28,0,0,1,0,.45.36.36,0,0,0-.17.24.26.26,0,0,0-.07.21.53.53,0,0,1,.07.2c0,.07,0,.14.06.21a.34.34,0,0,1,0,.17.62.62,0,0,1-.17.11.34.34,0,0,1-.31-.14,1.07,1.07,0,0,1-.1-.42.38.38,0,0,1,.17-.34.69.69,0,0,0,.21-.21c0-.07,0-.1,0-.14s-.1-.13-.1-.31v-.58a5.86,5.86,0,0,0,0-.73,5,5,0,0,0-.1-.62,1.22,1.22,0,0,1-.07-.48.42.42,0,0,1,.11-.31c.1-.14,0-.48-.31-1a2.5,2.5,0,0,1-.27-.58c-.07-.14,0-.21,0-.18s.07-.14-.07-.45a6.49,6.49,0,0,0-.57-1.1c-.28-.45-.55-.89-.82-1.31a9.55,9.55,0,0,0-.78-1,4.58,4.58,0,0,0-.61-.52.9.9,0,0,0-.48-.24c-.24,0-.27.07-.14.21a.27.27,0,0,1,.11.2c0,.07,0,.1-.11.1a.18.18,0,0,1-.2,0c-.1,0-.17-.06-.2-.13s-.38,0-.82.1a8.26,8.26,0,0,0-1.46.62,7.08,7.08,0,0,0-1.36.79,24.36,24.36,0,0,0-3.5,3.66,12.3,12.3,0,0,0-2.21,3.48,1.72,1.72,0,0,1-.27.65,8.4,8.4,0,0,1-.55,1c-.2.38-.37.69-.51.94s-.17.41-.17.44a3.49,3.49,0,0,1-.1.49c-.1.31-.2.65-.34,1s-.24.76-.31,1a2.09,2.09,0,0,0-.13.49.23.23,0,0,1,0,.24,1,1,0,0,1-.13.31,1.78,1.78,0,0,0-.17.41.41.41,0,0,0,0,.31,3.3,3.3,0,0,1-.07.73c-.1.31-.2.58-.31.89s-.2.42-.3.45q-.57.11,0-.72a1.13,1.13,0,0,0,.17-.59,1.2,1.2,0,0,0-.14-.59c-.1-.17-.24-.24-.37-.2s-.1.07-.1.1,0,.07.1.14a.2.2,0,0,1,.07.24.72.72,0,0,1-.14.28.9.9,0,0,0-.27.55,4.44,4.44,0,0,0,.13,1c0,.11,0,.21,0,.38a1.73,1.73,0,0,1-.14.42,1,1,0,0,0-.13.34c0,.1,0,.17.07.21s.1.24.06.58a6.25,6.25,0,0,1-.2,1.07,2.8,2.8,0,0,1-.37.76c-.14.14-.24.21-.31.21a.23.23,0,0,1-.2-.11v0a3.52,3.52,0,0,1-.28-2.38c0-.31.07-.58.11-.83v-.44c0-.07,0-.18.06-.31a2.56,2.56,0,0,1,.28-.42.75.75,0,0,1,.3-.2c.07,0,.1-.07.07-.18a.9.9,0,0,0-.14-.34,1.23,1.23,0,0,1-.17-.35c0-.1,0-.17.11-.17a.17.17,0,0,1,.17,0s.06.07,0,.14,0,.14,0,.17a.29.29,0,0,0,.21.1c.1,0,.17,0,.24-.1s.06-.24.1-.38c0-.76-.1-1-.34-.79-.07,0-.1.07-.17.07s-.07,0-.1-.07a1.54,1.54,0,0,1,.06-.21,2.53,2.53,0,0,1,.28-.31c.17-.17.27-.27.27-.34s-.1-.11-.27-.14q-.51-.1,0-.21a.73.73,0,0,1,.68.11c.13.1.17.27.06.51a.45.45,0,0,0-.1.28c0,.07,0,.1.1.14s.11,0,.21-.14l.24-.48.27-.73h-.65a1.23,1.23,0,0,0-.47,0c-.14,0-.24,0-.31,0s-.14,0-.1-.14,0-.1.1-.14.14-.07.2,0,.21-.14.34-.38a5.64,5.64,0,0,0,.38-.93,7.19,7.19,0,0,0,.17-.9c0-.17,0-.24-.07-.24s-.14.14-.31.34a2.4,2.4,0,0,0-.23.45.52.52,0,0,0,0,.35.53.53,0,0,1,0,.31,1.63,1.63,0,0,1-.14.34.7.7,0,0,1-.24.28s-.07-.07-.13-.21a1.31,1.31,0,0,1,.1-.65c.1-.35.24-.73.41-1.18s.37-.89.57-1.38.34-1,.45-1.31.23-.65.34-.93a3.1,3.1,0,0,1,.3-.58,3.08,3.08,0,0,0,.34-.59,3.35,3.35,0,0,0,.34-.72c.1-.24.17-.42.21-.55s0-.14-.11,0a8.66,8.66,0,0,0-.74,1,9.19,9.19,0,0,0-.68,1.14,1.85,1.85,0,0,0-.24.62c.07.14-.07.21-.38.21s-.34,0-.23.06.1.28,0,.63a6.12,6.12,0,0,1-.58,1.2c-.07.17-.17.42-.27.69a8.22,8.22,0,0,0-.28.93c-.06.35-.17.66-.27,1s-.24.62-.34.86a4.77,4.77,0,0,0-.17.62.55.55,0,0,0,0,.41,1,1,0,0,1,.07.28.56.56,0,0,1-.07.24,1.4,1.4,0,0,0-.1.41c0,.18,0,.38-.07.59a4.18,4.18,0,0,1-.07.65,2.88,2.88,0,0,1-.1.45.92.92,0,0,0-.07.31.32.32,0,0,0,0,.24,1.9,1.9,0,0,1,.07.52,5.08,5.08,0,0,1,0,.69c0,.24,0,.45,0,.62a.78.78,0,0,1-.1.28s-.07.07-.07.17a1.54,1.54,0,0,0,.07.38,1.25,1.25,0,0,1,.1.48v.41c-.07.28-.21.11-.41-.48a2.71,2.71,0,0,1-.1-.72.61.61,0,0,1,.1-.42c.17-.17.14-.24,0-.17s-.14-.1-.17-.24a2.72,2.72,0,0,1-.07-.62,4.43,4.43,0,0,1,0-.65.84.84,0,0,1,.17-.42c.07,0,.07-.07.1-.14a.81.81,0,0,0,0-.24.41.41,0,0,1,0-.27.7.7,0,0,1,.14-.38c.17-.28.17-.38-.07-.31s-.27,0-.1-.24a1.26,1.26,0,0,0,.06-.38,2.66,2.66,0,0,0-.06-.45,1.19,1.19,0,0,1-.11-.55,1.75,1.75,0,0,1,.11-.62c.06-.21.13-.49.2-.83s.14-.69.17-1,.14-.66.24-1a7.3,7.3,0,0,1,.34-.86c.1-.21.2-.42.27-.59s.07-.31,0-.38,0-.24.14-.51a5,5,0,0,1,.48-.9c.2-.35.34-.66.47-.93s.14-.45.1-.55,0-.24.07-.21a.31.31,0,0,0,.27-.1.58.58,0,0,0,.24-.28c.07-.1.07-.21,0-.24s0-.1.07-.24.2-.24.34-.42a2,2,0,0,0,.44-.51,3.15,3.15,0,0,0,.24-.52,1.07,1.07,0,0,1,.14-.38c0-.1.1-.17.17-.17s.13-.07.23-.17.17-.21.28-.35a12.11,12.11,0,0,1,.95-1.31,1.53,1.53,0,0,1,.58-.45,2.1,2.1,0,0,0,.37-.27,3.48,3.48,0,0,0,.37-.42,4.54,4.54,0,0,1,.55-.58,5.85,5.85,0,0,1,.75-.62,2.9,2.9,0,0,0,.54-.45c.1-.1.1-.14,0-.1-.31,0-.48,0-.48-.11s.1-.24.41-.41a4.67,4.67,0,0,1,1.32-.38A11.58,11.58,0,0,1,264.72,397.61Zm-11.25,10.17a1.7,1.7,0,0,1-.21.28.22.22,0,0,0-.07.17c.07.14.21,0,.41-.41.07-.18.14-.28.1-.28A1.2,1.2,0,0,0,253.47,407.78Zm7.27,1.86a7.58,7.58,0,0,1,1.36.69,5.92,5.92,0,0,1,1.16.83,1.61,1.61,0,0,1,.41.45.62.62,0,0,1,0,.41,5.91,5.91,0,0,1-.48.8,6.69,6.69,0,0,1-.84,1.06,13.44,13.44,0,0,1-1.06,1,6.05,6.05,0,0,0-1.05,1,9.3,9.3,0,0,0-.82,1.14,7,7,0,0,1-.54.89,1.22,1.22,0,0,1-.41.42,1.07,1.07,0,0,0-.37.17c-.21.1-.38.21-.55.31-1,.72-1.53,1-1.66.76s0-.14,0-.21a.32.32,0,0,1,.2-.21c.07-.07.14-.13.17-.17s0-.1,0-.14a.27.27,0,0,1,0-.24,1,1,0,0,1,.13-.38c.07-.17.21-.48.41-.93s.34-1,.54-1.48.31-.9.38-1.17c0-.11.07-.28.13-.45a3.28,3.28,0,0,0,.17-.59c.11-.31.14-.51,0-.55s-.24,0-.44.35c-.07.07-.07,0,0-.14a3.75,3.75,0,0,1,.24-.73,10.6,10.6,0,0,1,1-2.13,2.34,2.34,0,0,1,1-1A2.39,2.39,0,0,1,260.74,409.64Zm.65,16.59a.56.56,0,0,0-.21.27,1,1,0,0,0-.1.24c0,.07,0,.07.07.07s.14-.07.2-.14a1.64,1.64,0,0,0,.24-.27.62.62,0,0,0,.1-.24c0-.07,0-.11-.1-.07A.22.22,0,0,0,261.39,426.23Zm5.2-9.35a.22.22,0,0,1,.1.21.77.77,0,0,1-.1.38c-.07.21-.14.34-.17.34s-.1-.1-.17-.31a.73.73,0,0,1-.07-.44.24.24,0,0,1,.41-.18Zm.61-1.65c.1,0,.14.17.1.31a1.33,1.33,0,0,1-.17.55,1,1,0,0,1-.3.41c-.07.11-.14.14-.17.07a.18.18,0,0,1,0-.2.51.51,0,0,1,.2-.21.52.52,0,0,0,.17-.28.81.81,0,0,0,0-.38c0-.24,0-.34.07-.34A.15.15,0,0,1,267.2,415.23Zm2.11-5.45c.27,0,.37.14.27.45a3,3,0,0,1-.37,1c-.17.28-.34.45-.51.48s-.31.35,0,.8c0,.06,0,.13,0,.24a2.18,2.18,0,0,1-.27.24,1,1,0,0,0-.28.21.12.12,0,0,0,0,.17c.07,0,.07.1,0,.2a.56.56,0,0,1-.24.31,1.6,1.6,0,0,0-.23.32.39.39,0,0,0,0,.27.2.2,0,0,1,0,.21c0,.1,0,.17-.1.2s-.1.07-.17,0-.1,0-.14-.1a1,1,0,0,1,0-.42,3.28,3.28,0,0,1,.24-.55c.1-.21.17-.41.23-.55a.83.83,0,0,0,.07-.35s0-.13.07-.34l.34-.59a3.76,3.76,0,0,0,.27-.51q.11-.21,0-.21c-.07,0-.07,0,0-.14a1.2,1.2,0,0,0,.13-.34,2.18,2.18,0,0,0,.14-.49c.07-.27.17-.44.34-.51A.27.27,0,0,1,269.31,409.78Zm-.95,14.27a1.47,1.47,0,0,1-.21.38c-.1.11-.2.21-.27.21s-.1,0-.07-.1a.57.57,0,0,1,.14-.31,1.19,1.19,0,0,1,.2-.31c.1-.07.14-.11.17-.11S268.39,423.92,268.36,424.05Zm-.07-17.78c0,.2,0,.31-.1.34s-.11,0-.17-.14a.14.14,0,0,1,0-.17,2,2,0,0,1,.1-.21.15.15,0,0,0,.07,0C268.29,406.06,268.29,406.13,268.29,406.27Zm1.39,7a.22.22,0,0,1,.1.21,1.84,1.84,0,0,1-.06.41c-.14.35-.28.45-.34.25a1,1,0,0,1,0-.56c.07-.17.14-.31.24-.34A.13.13,0,0,1,269.68,413.26Zm2.59-2.06a.75.75,0,0,1,.3.06.29.29,0,0,1,.1.21s-.06.11-.13.14a.51.51,0,0,1-.21,0c-.1,0-.13,0-.17.07a.57.57,0,0,0,0,.24.32.32,0,0,1,0,.35.36.36,0,0,1-.24.27,1,1,0,0,0-.37.59,1,1,0,0,0,.06.72.1.1,0,0,1,0,.14l-.24.11a.62.62,0,0,0-.24.1s0,.07,0,.1.07.14,0,.21a.78.78,0,0,1-.2.31l-.24.34a.53.53,0,0,0,0,.31v.21a.62.62,0,0,1-.17.11h-.17a.11.11,0,0,1-.1,0s0-.14.07-.31.13-.41.2-.65a2.85,2.85,0,0,0,.17-.73,1,1,0,0,0,0-.52.63.63,0,0,1,0-.27.32.32,0,0,1,.14-.14c.1,0,.13-.1.2-.24a1.62,1.62,0,0,0,.07-.48,1.1,1.1,0,0,1,.1-.49c.07-.13.14-.2.24-.2a.63.63,0,0,0,.24-.14.58.58,0,0,0,.07-.21c0-.1.1-.17.3-.2Zm-1.5-8a4.75,4.75,0,0,1,.41.73,2.47,2.47,0,0,1,.3.79c.07.21.07.31,0,.34s-.17-.1-.31-.27a6.39,6.39,0,0,1-.41-.76c-.13-.31-.23-.59-.3-.79s-.07-.31,0-.35S270.63,403,270.77,403.16Zm1,4.93a.4.4,0,0,1,.13.18c0,.1.07.17,0,.24s0,.1-.11.1-.1,0-.17,0-.1-.14-.17-.21a.33.33,0,0,1,0-.24.12.12,0,0,1,.11-.11A.22.22,0,0,1,271.76,408.09Zm1.42-.13a1,1,0,0,1-.06.68.62.62,0,0,1-.21.32c-.07,0-.13,0-.27-.11s-.2-.24-.07-.34a.37.37,0,0,0,.17-.21.75.75,0,0,0,0-.24.2.2,0,0,1,0-.21.13.13,0,0,1,.13-.1A.26.26,0,0,1,273.18,408Z" transform="translate(-1.93 -0.42)"/><path d="M252.14,457.56a6.43,6.43,0,0,1-.07,1.34,6.7,6.7,0,0,1-.24,1.38,9,9,0,0,0-.3,1.24,11.6,11.6,0,0,0-.24,1.28c0,.41-.1.83-.17,1.34s-.14.9-.2,1.28c-.28,1.31-.48,2.72-.68,4.31-.07.62-.17,1.14-.24,1.55a2.22,2.22,0,0,1-.17.69s-.07.17-.1.48a8.71,8.71,0,0,0,0,1.07c0,.38,0,.76,0,1.1a3.2,3.2,0,0,0,.1.62c.11.18.21.21.24.14a2.61,2.61,0,0,0,.21-.82c.06-.32.13-.73.23-1.25l.31-1.41c.37-1.72.75-3.65,1.12-5.82s.65-3.83.75-5a14.34,14.34,0,0,1,.17-1.52,7,7,0,0,1,.2-.72c.24-.17.41,0,.55.41a6.81,6.81,0,0,1,.07,1.9c0,.45-.07,1.07-.11,1.83s-.06,1.41-.1,2.1-.07,1.31-.13,1.93a14.7,14.7,0,0,1-.21,1.48,16.4,16.4,0,0,0-.37,2,17.57,17.57,0,0,0-.1,1.76c0,.48.06.69.2.62s.2.17.1,1c-.17,1.14-.27,2-.34,2.62a3.6,3.6,0,0,0,.14,1.45,2.09,2.09,0,0,0,.58.93,35.09,35.09,0,0,0,3,2.83c1.39,1.24,2.79,2.37,4.14,3.41a9.41,9.41,0,0,0,1.3.93c.3.21.51.31.61.28s.2-.07.27-.25a3.43,3.43,0,0,0,.07-.62,6.72,6.72,0,0,0-.1-.69,12.3,12.3,0,0,1-.34-2.24c-.14-1.13-.24-2.38-.34-3.69,0-.24-.07-.75-.14-1.55s-.17-1.58-.24-2.51-.17-1.9-.2-2.83a15.64,15.64,0,0,1,0-2.1l.07-1.62,1.19-.49a8.48,8.48,0,0,1,2.42-.41,6.22,6.22,0,0,1,2.24.31c.82.41,1.05,1.28.68,2.66-.31.93-.44,3.82-.34,8.61,0,.87,0,1.59,0,2.18a7.08,7.08,0,0,1,0,1,2.9,2.9,0,0,0,0,.45,3,3,0,0,0,.11.72c0,.24.1.73.13,1.35s.14,1.34.17,2.06.14,1.31.21,1.83a2.75,2.75,0,0,0,.23.93,1.74,1.74,0,0,0,.51.28c.24.1.55.2.85.31a7.19,7.19,0,0,1,1,.41,6.42,6.42,0,0,1,.85.48,3.7,3.7,0,0,0,.78.45,2,2,0,0,0,.75.14,3.66,3.66,0,0,1,.61.07c.17,0,.27.07.31.14a2.07,2.07,0,0,0,.92.41,13.73,13.73,0,0,0,1.66.38,10.51,10.51,0,0,0,1.63.17l1.36,0-1.09.31a14.25,14.25,0,0,1-3.33.51,24.39,24.39,0,0,1-4,0,14.29,14.29,0,0,0-1.53-.06,1.68,1.68,0,0,0-.78.1.68.68,0,0,0-.14.34,1.46,1.46,0,0,0,.07.55c0,.21.07.42.1.66a3.08,3.08,0,0,1,0,.59,1.54,1.54,0,0,0,0,.38.55.55,0,0,0,.14.24c.13.07.27.38.41.93a12.73,12.73,0,0,1,.4,1.83,8.52,8.52,0,0,1,.14,1.48c0,.24-.07.51-.1.86s-.1.65-.17,1a2.58,2.58,0,0,0,0,1.14,7.66,7.66,0,0,0,.65,1.48,9.56,9.56,0,0,1,.54,1.18c.14.34.21.55.17.58s-.07.17,0,.31a1.48,1.48,0,0,0,.13.45,1.18,1.18,0,0,1,.11.45c0,.1,0,.17,0,.17a.17.17,0,0,1-.14-.1.66.66,0,0,1-.17-.28,2.41,2.41,0,0,0-.48-.69,5.79,5.79,0,0,0-.74-.62,1.32,1.32,0,0,0-.62-.24.32.32,0,0,1-.27,0,.24.24,0,0,1-.17-.07c-.1-.17,0,.14.24.86,0,.14,0,.14-.1,0a2.46,2.46,0,0,1-.44-.52,4.29,4.29,0,0,1-.48-.72,1.06,1.06,0,0,1-.2-.45c0-.14.1-.14.27.07s.37.31.37.1a2.15,2.15,0,0,0-.24-1.1,42.47,42.47,0,0,1-2.24-6.17c-.27-.83-.44-1.48-.54-1.93a5.72,5.72,0,0,1-.24-1.21c0-.34-.07-.76-.1-1.31a3.6,3.6,0,0,0-.14-1.07,1.09,1.09,0,0,0-.24-.55c-.13-.07-.2,0-.24.1a4.15,4.15,0,0,0,0,.9c0,.34.07.62.11.9a1.45,1.45,0,0,0,.13.48,2.72,2.72,0,0,1,.14.65c0,.38.07.8.1,1.28a11.46,11.46,0,0,0,.14,1.31,2,2,0,0,0,.27.69,1,1,0,0,1,.24.34,1.07,1.07,0,0,1,.1.42,1.29,1.29,0,0,0,.07.51,2,2,0,0,0,.17.56c.23.58.4,1,.51,1.24a1.19,1.19,0,0,1,.06.55,1.12,1.12,0,0,0,.11.34,1.65,1.65,0,0,0,.27.55,4.29,4.29,0,0,1,.24.52c0,.14,0,.24,0,.24s-.07.07,0,.18.13.17.27.31a1.31,1.31,0,0,1,.3.34.3.3,0,0,1,0,.28c-.24.2-.61-.31-1.16-1.52a40.2,40.2,0,0,1-1.66-4.65,50.1,50.1,0,0,1-1.33-5.52,6.3,6.3,0,0,0-.37-1.45,2.21,2.21,0,0,0-1-.89,20.59,20.59,0,0,0-2.24-1.07,18.41,18.41,0,0,1-1.94-1,19.88,19.88,0,0,1-2-1.38,12.65,12.65,0,0,0-1.23-.83,10.31,10.31,0,0,0-.95-.52c-.24-.1-.47-.24-.78-.38l-.71-.44-.41-.14-.14.65a9.45,9.45,0,0,1-.1,1.93c-.1.76-.2,1.45-.34,2.18s-.2,1.27-.24,1.75c-.07.66-.24,1.56-.44,2.69s-.41,2.14-.61,3.11-.38,1.51-.44,1.72-.14.1-.31.17a2.54,2.54,0,0,1-.51.17,3.82,3.82,0,0,1-.48.14,1.12,1.12,0,0,0-.47.21.63.63,0,0,0-.31.24,1.16,1.16,0,0,1-.85.41,4.29,4.29,0,0,1-1.39.07.22.22,0,0,1-.17-.07s-.07-.1-.1-.13a.42.42,0,0,0-.11-.14c0-.07-.1-.07-.17-.11a.11.11,0,0,0-.13,0,.19.19,0,0,0-.14,0c-.1,0-.2,0-.34.07a1.74,1.74,0,0,1-.51-.11.75.75,0,0,1-.37-.31,1.77,1.77,0,0,1-.1-.68,12.26,12.26,0,0,1,.1-1.38c.07-.63.2-1.45.34-2.45a1.31,1.31,0,0,1,.07-.31c0-.07,0-.11.06-.11H244a.14.14,0,0,0,.17,0s.1-.06.17-.13a3,3,0,0,0,.13-.52,11.25,11.25,0,0,0,.27-1.72c.07-.59.14-1.07.14-1.42a2,2,0,0,0,0-.34,4.76,4.76,0,0,1,0-1,6,6,0,0,1,.17-.82,14.57,14.57,0,0,0,.44-2.69c.17-1.17.31-2.24.48-3.21s.27-1.58.3-1.79c.14-.48-.64-1.38-2.34-2.72-.62-.49-1.23-.94-1.77-1.31a6.21,6.21,0,0,0-1.16-.76c-.81-.35-.88-.8-.24-1.28a10.62,10.62,0,0,1,3.81-1.41,4.21,4.21,0,0,1,1.53-.42,3.23,3.23,0,0,1,1,.14,1.07,1.07,0,0,0,.38.07l.54-2.72c.24-1.07.37-1.9.44-2.41a8.14,8.14,0,0,0,.07-1.21c0-.31,0-.69.07-1.17s.13-.8.24-1.28.2-.86.3-1.21.21-.69.31-1.1a8.14,8.14,0,0,0,.2-1.1c.07-.28.14-.55.21-.79a1.17,1.17,0,0,1,.27-.49c.07-.07.13.07.13.38a10.41,10.41,0,0,1-.1,1.31c-.07.55-.13,1.14-.27,1.76a1.25,1.25,0,0,0-.07.45c0,.07,0,.1.1,0a31.12,31.12,0,0,0,1.36-5c.14-.48.24-.93.38-1.28a2.74,2.74,0,0,1,.24-.69s0,0,.06,0S252.14,457.18,252.14,457.56Zm-3.88,14.75a.71.71,0,0,0,0,.32s.07.06.1,0a.3.3,0,0,0,.07-.25.37.37,0,0,0,0-.27c0-.11-.06-.14-.1-.11A.55.55,0,0,0,248.26,472.31Zm.55-2.65c0,.35.07.45.13.31a1.27,1.27,0,0,0,.07-.38.87.87,0,0,0-.07-.31.15.15,0,0,0,0-.07C248.84,469.25,248.81,469.38,248.81,469.66Zm.3-1.79a1.24,1.24,0,0,0-.13.41.75.75,0,0,0,0,.38c0,.1,0,.14.11.14a.66.66,0,0,0,.17-.21,1.45,1.45,0,0,0,.17-.41,2,2,0,0,0,0-.38c0-.1,0-.14-.1-.14S249.18,467.73,249.11,467.87Zm.24-1c0,.38,0,.49.14.31a1.07,1.07,0,0,0,.07-.34.94.94,0,0,0-.07-.31c0-.07,0-.07-.07-.07S249.35,466.56,249.35,466.83Zm.48-2.24a1.61,1.61,0,0,0-.17.45,1,1,0,0,0-.07.41c0,.18,0,.25,0,.25s.11-.11.21-.31.13-.28.2-.45a2,2,0,0,0,.07-.42c0-.17,0-.27,0-.24S250,464.39,249.83,464.59Zm13.36,19.34c.07.83.13,1.48.17,1.9a6.74,6.74,0,0,0,.13.86,2.2,2.2,0,0,0,.21.41c.13.18.2.24.27.18a2.23,2.23,0,0,0,0-.69c0-.42-.1-1-.2-1.9-.24-1.79-.41-2.65-.58-2.69S263.09,482.66,263.19,483.93Z" transform="translate(-1.93 -0.42)"/><path d="M250.86,537.33a8.2,8.2,0,0,0,1.06.28,4.92,4.92,0,0,0,.88.14,2.57,2.57,0,0,1,1.67.93l.95,1,10.17,0q5.81,0,8.15.1a6.17,6.17,0,0,1,2.45.28c.24.13.31.24.27.31a1.76,1.76,0,0,1-.61.06,3.28,3.28,0,0,1-.61,0,2.06,2.06,0,0,0-.44,0,3.26,3.26,0,0,0-.82-.06c-.44,0-1,0-1.56,0l-1.6-.1a4,4,0,0,1-.88-.17c-.27-.18-.31-.14-.17.06s-.24.35-1.36.28a10.28,10.28,0,0,0-1.36,0,5.69,5.69,0,0,0-1.06.14,1.33,1.33,0,0,1-1.25-.14.72.72,0,0,0-.28-.14.1.1,0,0,0-.1.11c0,.06-.24.13-.71.24s-.95.2-1.5.27a12,12,0,0,1-1.39.11l-.75-.07c-.44,0-.92,0-1.5-.07s-.95,0-1.25,0-.34,0-.21.07a1.76,1.76,0,0,1,.44.18,1,1,0,0,1,.28.24c.3.34,4.28.58,12,.72a2.59,2.59,0,0,1,.81.07s0,.17-.3.34-.41.42-.11.42.24.1-.13.34a1.8,1.8,0,0,1-.85.24,7.86,7.86,0,0,1-1.33.11c-1.12,0-1.66.07-1.66.34a.58.58,0,0,1-.07.21s-.07,0-.14,0a.86.86,0,0,0-.47,0,4.91,4.91,0,0,0-.92.14c-.68.13-1.36.27-2,.34s-1.53.17-2.65.24c-2.76.21-4.25.45-4.49.69a1.42,1.42,0,0,0-.1.45v.79c0,.31,0,.8,0,1.49v2.06a14.71,14.71,0,0,0,0,1.93c0,.38.13.56.27.56s.24.1,0,.31-.38.48-.21.58a3.09,3.09,0,0,0,1.4.14c.95,0,1.32-.1,1.12-.24s-.24-.28.14-.24.47-.11.17-.24c-.82-.49.37-.59,3.53-.28l3.33.31v.72a4,4,0,0,0,.07.59c.07.17.1.31.21.38a3,3,0,0,1,.3.86,8.77,8.77,0,0,1,.17,1.42,3.8,3.8,0,0,1-.07,1.17c-.2,1.1-1,1.31-2.41.65a8.92,8.92,0,0,0-1.29-.41,6.36,6.36,0,0,0-1.33-.24c-1.26-.11-2.41-.18-3.5-.18a5.22,5.22,0,0,0-1.87.18,3.82,3.82,0,0,0-.14,1.17c0,.72-.06,1.55-.06,2.48s0,1.76,0,2.52a12.26,12.26,0,0,0,.06,1.45c0,.13.31.2.79.24s1.39,0,2.68-.11l2.52-.1,1.36-.07q6.22.1,6.22.41a.16.16,0,0,1-.07.14.24.24,0,0,1-.2.07.27.27,0,0,0-.17.07.29.29,0,0,0-.1.21c0,.07.06.1.2.14a2.07,2.07,0,0,0,.48,0,2.13,2.13,0,0,1,1.12.14c.37.21.4.31.06.31-.1,0,0,.07.18.14s.57.13,1,.24L273,568l-1.73.11c-.51,0-1.09,0-1.77.07s-1.26,0-1.8,0c-1.5,0-3,.1-4.39.21s-2.61.2-3.6.34-1.43.28-1.43.42a6.75,6.75,0,0,0,1.84.1c1.22,0,2.75,0,4.55,0,4.36-.1,6.43-.06,6.22.14a.3.3,0,0,0,0,.28.54.54,0,0,0,.27.27c.44.21.34.31-.27.28a1.25,1.25,0,0,1-.51-.1.26.26,0,0,1-.21-.21c0-.24-.06-.24-.23,0s-.48.31-.95.18a1.85,1.85,0,0,0-.62,0,.76.76,0,0,0-.4.1,3.39,3.39,0,0,1-1.16.49,8.11,8.11,0,0,1-1.53.24,1.13,1.13,0,0,0-.54.1q-.21.11-.21.21c0,.21-.75.34-2.11.45-.61,0-1.22.1-1.76.14l-1.23.13a7.1,7.1,0,0,1-.88.14c-.38.07-.75.1-1.09.17-2,.28-3.33.76-3.91,1.42s-.75,1.1-.24,1.17c.21.07.27.31.17.72l-.13.66-.34-.73a3.65,3.65,0,0,1-.21-.72,2.73,2.73,0,0,1-.1-.69,1.39,1.39,0,0,0-.07-.48c0-.07-.13-.14-.34-.11a4.63,4.63,0,0,0-.85.07,8,8,0,0,0-1.15.28,5.27,5.27,0,0,0-1,.34,3.31,3.31,0,0,1-4.05-.65,6.79,6.79,0,0,1-1.36-2.21,3.21,3.21,0,0,1-.34-2c.27-.72,2.69-1.55,7.24-2.48a.9.9,0,0,0,.44-.21.44.44,0,0,0,.18-.31.39.39,0,0,1,.06-.24c0-.07.1-.07.17,0s.14,0,.17,0a.42.42,0,0,0,0-.31.79.79,0,0,0-.07-.34c0-.07-.1-.11-.14-.07s-.1-.21-.13-.59,0-1,0-1.58,0-1.21,0-1.62-.06-.66-.13-.66-.11-.14-.14-.41a8.27,8.27,0,0,1,0-.93,4,4,0,0,1,.1-1c.07-.24.14-.38.2-.38.21,0,.27,0,.21-.1a1.6,1.6,0,0,0-.38-.17,3.47,3.47,0,0,0-.75-.17,17.52,17.52,0,0,0-4,0c-1.19.1-2.14.17-2.79.21a10.32,10.32,0,0,1-1.39,0,1.12,1.12,0,0,1-.65-.24c-.24-.14-.34-.25-.3-.32a1,1,0,0,1,.47-.06c.34,0,.61-.07.78-.11a1.24,1.24,0,0,0,.45-.07,1,1,0,0,0,.27-.17,1.35,1.35,0,0,1,.37-.07,2,2,0,0,1,.41.07c.31.14.41.07.27-.14s.1-.31.68-.34a6.85,6.85,0,0,0,.78-.07,2.25,2.25,0,0,0,.65-.17c.44-.21.34-.24-.27-.14-2.65.38-3.91.45-3.74.17a1.46,1.46,0,0,1,.27-.2.89.89,0,0,1,.37-.11,1.84,1.84,0,0,0,.41,0,.69.69,0,0,0,.27-.14s.11-.1.14-.1a1.94,1.94,0,0,1,.34-.11l.65-.14c.27,0,.68-.06,1.15-.13.75-.11,1.33-.21,1.73-.28a3.79,3.79,0,0,0,.89-.17,2.46,2.46,0,0,0,.65-.21c.47-.2.71-.48.71-.83a.66.66,0,0,1,.1-.37.35.35,0,0,1,.31-.14.32.32,0,0,0,.3-.21.49.49,0,0,0,.07-.38.31.31,0,0,0-.24-.27c-.27,0-.51-1.35-.68-3.9a4.16,4.16,0,0,0-.47-2.31,3,3,0,0,0-2.08-.41,4.72,4.72,0,0,1-2.41-.42,4.21,4.21,0,0,1-1.46-1.79,4.89,4.89,0,0,1-.44-1.24A5.52,5.52,0,0,1,243,541c0-.41.07-.76.1-1a3.45,3.45,0,0,1,.14-.52s.2,0,.51,0a8.8,8.8,0,0,1,1.12.17,6.91,6.91,0,0,0,3.29,0c.68-.21.72-.62.18-1.24-.38-.42-.45-.76-.18-1a1.85,1.85,0,0,1,1.36-.38A4.15,4.15,0,0,1,250.86,537.33Zm-3,18.48c-.2.1-.13.14.17.17a.87.87,0,0,0,.31,0c.07,0,.07-.07,0-.11s-.13-.06-.2-.06A1.12,1.12,0,0,0,247.87,555.81Zm4.8,2.65a.69.69,0,0,0,0,.38c0,.18,0,.52,0,1.07s0,1.17,0,1.86c0,2.59.2,3.52.58,2.73a.92.92,0,0,0,.1-.42.5.5,0,0,0,0-.31,3.82,3.82,0,0,1-.14-1c0-.55,0-1.2,0-2,0-1.9-.11-2.73-.31-2.59A.31.31,0,0,0,252.67,558.46Zm1.49,6.52s-.07.07-.13.14a.87.87,0,0,0-.14.34c0,.11,0,.21,0,.24a.15.15,0,0,1,0,.18.16.16,0,0,1-.13.06.6.6,0,0,1-.27-.13,1.35,1.35,0,0,1-.28-.35c-.2-.41-.3-.34-.27.24a1,1,0,0,0,.1.52.51.51,0,0,0,.48.1.64.64,0,0,0,.48-.17,1.31,1.31,0,0,0,.2-.65,1.27,1.27,0,0,0,0-.52S254.2,564.94,254.16,565Zm7.92,1.31,1,.17c.23.07.47.11.64.17l.34.07s0,0,0-.07,0-.1,0-.17-.1-.14-.31-.17a2,2,0,0,0-.68,0Zm2.86-21.75c.14.1,0,.13-.34.13s-.48,0-.31-.13a.92.92,0,0,1,.31-.07A.86.86,0,0,1,264.94,544.54Zm6.63-1.35a.11.11,0,0,1,.07.17,1.71,1.71,0,0,1-.24.21.87.87,0,0,1-.31.07.57.57,0,0,1-.27-.07.35.35,0,0,1-.13-.21c0-.06.06-.13.16-.17a.74.74,0,0,1,.41-.07C271.4,543.12,271.5,543.12,271.57,543.19Zm3.81,24.72c.23,0,.34.1.34.17s-.17.24-.51.24a5.29,5.29,0,0,1-1.33-.24c-.58-.17-.37-.24.58-.24A3.54,3.54,0,0,1,275.38,567.91Z" transform="translate(-1.93 -0.42)"/><path d="M254.69,607a1.35,1.35,0,0,0,.37.14,4.81,4.81,0,0,0,.68.14,6.34,6.34,0,0,1,3.37,1.24,3.66,3.66,0,0,1,.71,2.82v1l2.28-.1c1.39-.07,2.69-.14,3.88-.25a14.65,14.65,0,0,0,2.07-.31c.07,0,.1,0,.14,0s.06.07.06.14.21.21.62,0a3.21,3.21,0,0,1,1.87,0,5.49,5.49,0,0,0,1,.1,1.23,1.23,0,0,0,.51-.07c.06-.07.13-.07.17,0a2.35,2.35,0,0,1,.1.27c0,.35-.21.52-.78.52-.24,0-.55,0-.92.07l-1.12.1h-.89c-.27,0-.41-.07-.47-.14s-.24-.27-.41-.24-.21.18-.21.38-.23.38-.71.38-.61-.07-.31-.24c.48-.31-1.05-.34-4.62-.1-1,.07-1.63.14-2,.2s-.48.21-.44.35c.1.58.68.83,1.7.72l1.8-.14c.95,0,2-.1,3.16-.13s2.11-.07,2.65-.07a3.89,3.89,0,0,1,1,.07c.07,0,0,.13-.21.24a2.93,2.93,0,0,1-.64.27,6.42,6.42,0,0,1-.72.14,1.43,1.43,0,0,0-.44.07c-.1,0-.13.1-.1.17s-.2.28-.75.28a3.53,3.53,0,0,0-1.22.14c-.31.1-.41.24-.31.41s0,.1-.07.17a3,3,0,0,1-.4.11,3.74,3.74,0,0,0-.79.07,1,1,0,0,0-.4.1,2.28,2.28,0,0,0-.38.27,3.88,3.88,0,0,1-.81.28,10,10,0,0,1-1.43.21l-1.87.17-.24,1.9a10.38,10.38,0,0,1-.2,1.34c-.1.34-.17.52-.24.52s-.1.07-.14.2a1.57,1.57,0,0,0-.06.52,1.63,1.63,0,0,1-.11.59.75.75,0,0,1-.17.41,1.52,1.52,0,0,0-.23.72,10.15,10.15,0,0,0-.21,1.35c-.13,1.93-.44,2.76-.85,2.55a.17.17,0,0,0-.17,0c-.07,0-.07.1-.1.21a5,5,0,0,1-.34,1.51c-.07.25.17.66.68,1.24a14.08,14.08,0,0,0,1.9,1.87,11.47,11.47,0,0,0,2.14,1.44,8.84,8.84,0,0,0,2.25.83,26.79,26.79,0,0,0,3.64.41l.71.11a1.38,1.38,0,0,1,.54.14,2.14,2.14,0,0,0,.82-.11c.41-.14.85-.27,1.36-.48s.95-.38,1.29-.48.58-.17.61-.14,0,.1,0,.14a.85.85,0,0,1-.17.1c-.1,0-.34.17-.72.38s-.74.45-1.22.72-.95.56-1.5.83-1,.48-1.32.62l-.89.38c-.23.14-.34.24-.34.31a1.5,1.5,0,0,0,.14.45c.1.24.24.52.37.79a4.43,4.43,0,0,1,.38,3.17,1.82,1.82,0,0,1-1.74,1.49,8.68,8.68,0,0,0-1.29.13l-1.94.38c-.71.14-1.36.28-1.93.38a7.81,7.81,0,0,1-1.29.14c-.21,0-.41,0-.62.1a1,1,0,0,0-.4.14,3.34,3.34,0,0,1-.92.38c-.55.17-1.16.35-1.91.52a19.92,19.92,0,0,1-2.48.52,11.77,11.77,0,0,1-2.11,0,15.93,15.93,0,0,0-1.9-.1c-.71,0-1.29.07-1.77.1a18.31,18.31,0,0,1-2.45.24,14.39,14.39,0,0,1-2,0c-.55,0-.82-.07-.82-.18s.17-.17.41-.27a7.89,7.89,0,0,1,.88-.31c.34-.07.68-.21,1.09-.31s.68-.28.92-.38a2.68,2.68,0,0,1,.64-.31,1.17,1.17,0,0,1,.38-.1c.06,0,.2-.07.47-.14l.82-.38c.92-.42,2-.86,3.26-1.38s2.31-.9,3.2-1.17c.41-.18.78-.31,1.09-.45a1.77,1.77,0,0,0,.51-.35.24.24,0,0,1,.13-.17.17.17,0,0,1,.21,0,.6.6,0,0,0,.4,0,2.33,2.33,0,0,0,.65-.21l.71-.31c.28-.1.45-.17.58-.2.31-.14.41-.28.31-.42s-.34-.27-.72-.31c-.54,0-.51-.06.07-.27l.65-.21c.24-.07.47-.1.64-.14l.62-.1a4.81,4.81,0,0,1,.54-.14c.14,0,.27,0,.41-.07s.24,0,.27-.07a.16.16,0,0,0,.13-.06c.07,0,.07-.11.07-.18s-.1-.14-.37-.2a5.42,5.42,0,0,0-.88-.18,13,13,0,0,1-1.4-.37c-.58-.21-1.12-.45-1.63-.69a15.4,15.4,0,0,1-3.54-2.66,40.76,40.76,0,0,1-3.87-4.72c-1.06-1.48-2.14-3-3.27-4.52a3.6,3.6,0,0,1-.61-1,1.19,1.19,0,0,1,.07-.76,1.8,1.8,0,0,1,.71-.86,17.5,17.5,0,0,1,2.08-1c2-.79,3.23-.34,3.64,1.31a10,10,0,0,0,.91,2.17,20.19,20.19,0,0,0,1.47,2.49c.51.75.85,1.13,1,1.13s.14-.13.14-.44,0-.62,0-1-.07-1.14-.07-2-.07-1.83-.1-2.76,0-1.72-.1-2.41a6,6,0,0,0-.14-1.18c-.13-.24-.61-.27-1.43-.17-.51.07-1.29.17-2.31.24l-2.92.21c-1,0-1.6.07-1.91.07a6.44,6.44,0,0,1-2.27-.52c-.62-.31-.89-.62-.89-1a1.09,1.09,0,0,0-.1-.48.42.42,0,0,0-.17-.28,1.61,1.61,0,0,1-.17-.79,11.5,11.5,0,0,1-.07-1.62,12,12,0,0,1,.07-1.65,3.3,3.3,0,0,1,.17-1,.53.53,0,0,1,.27-.24.82.82,0,0,1,.41.13c.41.21,2.21.31,5.37.35h3c.71,0,1.22-.07,1.53-.11s.44-.13.47-.24a3,3,0,0,0-.06-1.07,5.31,5.31,0,0,0-.41-1.44.68.68,0,0,1,.07-.45,1.38,1.38,0,0,1,.4-.35.6.6,0,0,1,.48-.13A.43.43,0,0,1,254.69,607Zm-2.75,4.45a.69.69,0,0,0-.45.17s.07.1.28.14a4.75,4.75,0,0,0,.78.07c.71,0,1,.07,1,.24a.18.18,0,0,0,0,.2.46.46,0,0,0,.27.07c.24,0,.34-.17.31-.44a.42.42,0,0,0-.31-.38,3.18,3.18,0,0,0-1-.11A6.41,6.41,0,0,0,251.94,611.45Zm1.93,20.65c.24.31.55.65.89,1l.92,1a2.15,2.15,0,0,0,.51.44s0,0,0-.07,0-.07,0-.13a1.67,1.67,0,0,0-.4-.59c-.28-.31-.55-.62-.92-1s-.65-.65-.92-.9a1.53,1.53,0,0,0-.48-.34A2.67,2.67,0,0,0,253.87,632.1Zm2.11,6.65a2.53,2.53,0,0,1-.34.21,1.8,1.8,0,0,1-.27.07c-.17,0-.1-.11.1-.28l.38-.17a.83.83,0,0,1,.27-.07C256.25,638.51,256.22,638.61,256,638.75Zm0-12.58a.87.87,0,0,0,0,.31c0,.07.07.07.1,0a.25.25,0,0,0,.07-.2.41.41,0,0,0-.07-.28c0-.1-.07-.14-.1-.1A.92.92,0,0,0,256,626.17Zm.47,8.75s.1.11.27.21a1.19,1.19,0,0,0,.38.17.84.84,0,0,0,.37.07c.17,0,.27,0,.27,0s-.1-.11-.27-.21a1.14,1.14,0,0,0-.37-.17,1.47,1.47,0,0,0-.38-.07C256.59,634.89,256.49,634.89,256.49,634.92Z" transform="translate(-1.93 -0.42)"/><path d="M223.56,26.13S236.34,32.34,236.2,45c0,0,1.91-7.59-.95-11.86,0,0,4.93,3.85,5.85,8.41,0,0-.68-12.83-12.38-17.24l-9.65-5.93Z" transform="translate(-1.93 -0.42)"/><path class="cls-1" d="M148.28,8.94c-9.1,3.34-18.23,6.72-26.72,11.41C99.18,32.73,82.32,53.92,71.89,77.49S57.07,127,55.58,152.8c-.61,10.61-.83,21.6-5.31,31.21-7.78,16.71-26.15,25-43.15,31.71-2,.79-4.21,1.78-4.95,3.82-.91,2.5.89,5.13,2.76,7A38.48,38.48,0,0,0,17.57,235a9.05,9.05,0,0,1,3.73,2.19c2.25,2.67.26,6.94-2.55,9s-6.37,3.06-8.77,5.58a10,10,0,0,0-1.39,11.51,9.71,9.71,0,0,0,10.53,4.5c-1.42,3.11-4.54,5-7.38,6.83S6,278.83,5.45,282.22c-1,6.75,7.29,5.62,11,7.72,5.07,2.83,3.87,8.37,1.34,12.7,0,0-19.58,41.92,18.5,43,27.7.81,56.61,3.27,82.16,15a90.53,90.53,0,0,1,50.14,61.71c4.59,19.52,5.47,37.9-4.63,56-10.95,19.65-31,32.51-43.27,51.32a77.61,77.61,0,0,0-11.38,55.42,73.86,73.86,0,0,0,30.32,47.4c23.16,15.89,51.71,15.77,78.56,16.27-32.72-7.47-71.92-30.46-80.61-65.89-4.36-17.77.56-36.49,9.73-51.86,9.58-16,25.08-27.55,33.61-44.31,26.92-52.85-10.12-115.1-57.84-139.35-24-12.21-50.18-15.09-76.7-14.78-5.5.07-8.37,1.41-13.55-.91-7.42-3.33-8.27-12.48-5.35-18.22a36.23,36.23,0,0,0,4.19-17,19.18,19.18,0,0,0-6-13.18c-1.9-1.72-4.38-2.6-6.7-1.13,2.65-1.68,5.59-2.79,8.22-4.53,3.6-2.38,10.57-6.53,8.83-11.88a51.07,51.07,0,0,1-18.67-6.56c6.2-5.56,15.83-8.76,17.49-17,1.56-7.74-5.15-14.4-11.22-19.35,11.81-3.34,23.5-8.36,32.27-17.05C68.86,193.05,73.7,174,75.68,155.79s1.7-36.91,6.81-54.51c9-31.07,33.59-54.83,59.11-74.3,4.54-3.47,10-7,15.5-5.59,2.65.7,4.87,2.49,7.12,4.07,18.86,13.2,46,12.65,64.35-1.31A55.33,55.33,0,0,0,182.26.44c-11.59.33-22.73,4.38-33.64,8.38Z" transform="translate(-1.93 -0.42)"/><ellipse class="cls-2" cx="194.43" cy="12.34" rx="2.72" ry="2.76"/></svg>