<svg id="Capa_1" data-name="Capa 1" xmlns="http://www.w3.org/2000/svg" viewBox="0 0 600 600.46"><defs><style>.cls-1{fill:#002b40;}.cls-2{fill:#f5f4fa;}.cls-3{fill:#efeef5;}.cls-4{fill:#c0bfc5;}.cls-5{fill:#999798;}.cls-6{fill:#898486;}.cls-7{fill:#cecdd4;}.cls-8{fill:#9f9da0;}.cls-9{fill:#b9b8be;}.cls-10{fill:#e7e5e6;}.cls-11{fill:#f2f1f7;}.cls-12{fill:#e2e0e1;}.cls-13{fill:#3a3631;}.cls-14{fill:#aba9ab;}.cls-15{fill:#7b706f;}.cls-16{fill:#9c9492;}.cls-17{fill:#a09a9a;}.cls-18{fill:#6b6661;}.cls-19{fill:#fff;}.cls-20{fill:#9b8e88;}.cls-21{fill:#c07e63;}.cls-22{fill:#be464e;}.cls-23{fill:#cb2a3a;}.cls-24{fill:#d19478;}.cls-25,.cls-41{fill:none;stroke-miterlimit:10;}.cls-25{stroke:#685551;stroke-width:0.25px;}.cls-26{fill:#7c4f42;}.cls-27{fill:#523223;}.cls-28{fill:#7c543f;}.cls-29{fill:#a56c58;}.cls-30{fill:#cb9c81;}.cls-31{fill:#643f36;}.cls-32{fill:#473332;}.cls-33{fill:#252425;}.cls-34{fill:#1d1d1b;}.cls-35{fill:#824a43;}.cls-36{fill:#984e52;}.cls-37{fill:#402419;}.cls-38{fill:#2c2221;}.cls-39{fill:#4f4949;}.cls-40{fill:#1e1f24;}.cls-41{stroke:#1e1f24;stroke-width:0.5px;}.cls-42{fill:#2b1e23;}.cls-43{fill:#ca2b3a;}.cls-44{fill:#5f5a5a;}.cls-45{fill:#c3c2c4;}.cls-46{fill:#5a4e4e;}.cls-47{fill:#c9c6c9;}.cls-48{fill:#797471;}.cls-49{fill:#b97c32;}.cls-50{fill:#292424;}.cls-51{fill:#efeff1;}.cls-52{fill:#43414c;}.cls-53{fill:#f7f6fb;}.cls-54{fill:#272e41;}.cls-55{fill:#131315;}.cls-56{fill:#202022;}.cls-57{fill:#c6c4c6;}.cls-58{fill:#888284;}.cls-59{fill:#a9a6ad;}.cls-60{fill:#c5c4c6;}</style></defs><title>Marín</title><rect class="cls-1" width="600" height="600" rx="39.36"/><path class="cls-2" d="M979.18,727.59l20-4.86,50.89-2.37,61.09,60.52s32.57,66.41,33.59,68.44,6.11,42,6.11,42l9.67,43.8-4.07,3.55h-85.52l-49.31-68.54-46.26-77.71Z" transform="translate(-660.88 -338.22)"/><polygon class="cls-3" points="406.98 316.64 439.05 323.5 455.85 348.07 459.99 379.6 464.51 412.6 464.51 427.88 444.65 442.66 435.74 442.66 425.82 419.71 403.93 408.54 338.27 384.51 406.98 316.64"/><path class="cls-4" d="M1067.87,654.86l18.83,22.34v46.2s-24.69-13.71-27.62-14.21-79.9,18.4-79.9,18.4l-7.53-41.3,55.94-15.18Z" transform="translate(-660.88 -338.22)"/><polygon class="cls-5" points="322.5 431.17 410.04 600.46 341.7 600.46 322.5 431.17"/><path class="cls-6" d="M911.74,747.73l43.15,14.51L929.19,732l12.68-45.74,21.24,12.19,1.67-16.58s-9.92-5.72-10.69-5.72-16.53-7.42-16.53-7.42l-21.42,8.44-28.48,5.08L879.73,695l5.5,13.9s13.12,13.71,13.5,14.85,1.62,10.09,2.34,10.86S911.74,747.73,911.74,747.73Z" transform="translate(-660.88 -338.22)"/><path class="cls-7" d="M883.13,700.05l41.39,14s-5.55,19.22-5.93,23.41-6.85,10.24-6.85,10.24l43.15,14.51,15.86,18.64,19.61,84.89,4.2,37.37,5.73,35.54H901l-25.19-11.55-32.26-45.7S825,849.21,826.35,845.9s30-60.87,30-60.87l7.33-68.86Z" transform="translate(-660.88 -338.22)"/><polygon class="cls-8" points="231.98 357.26 262.28 345.74 269.73 353.96 264.38 368.43 263.64 375.86 250.85 377.76 239 370.14 231.98 357.26"/><polygon class="cls-9" points="280.99 348.07 268.31 393.82 309.86 442.66 313.06 372.49 308.7 363.97 280.99 348.07"/><path class="cls-10" d="M944.8,673.9A58.54,58.54,0,0,0,962.69,684l19.94-5s-.84-12.19-3.21-12.27S963,664,961.47,664H947.73l-5.86,3.57Z" transform="translate(-660.88 -338.22)"/><polygon class="cls-11" points="396.67 277.04 406.98 316.64 314.47 353.96 314.47 332.89 352.66 291.22 387.89 269.04 396.67 277.04"/><path class="cls-12" d="M965.8,659.05a9.82,9.82,0,0,0-2.67,10.15s-1.66,35.42,2.67,50.65c0,0,1.65,12.31,2.42,31.73S973.56,803,973.56,803s6.3,42.46,7.64,51.22c0,0,13,75.84,16.8,84.47h4.58s-6.49-91.94-9.93-103.91c0,0-10.11-64.53-10-74.81,0,0-2.58-30.08-4.87-41.13,0,0-4.58-34.65-1.52-43.79l1.57-16.37,2.25-4.87-9.37-7.61-5.12,4.11Z" transform="translate(-660.88 -338.22)"/><path class="cls-13" d="M922.4,688.75s-9.8,14.85-15.4,13.33l-22.58-10.54-4.69-14.06,10.33-11.76,21.53,7.42Z" transform="translate(-660.88 -338.22)"/><path class="cls-14" d="M873.79,686.29,850.05,834.77l-25,9.54-17.53,1.59S792.21,831,790.3,829s-7.5-40.58-7.5-40.58l24.72-25.89,40.21-66,15.95-7.74Z" transform="translate(-660.88 -338.22)"/><path class="cls-15" d="M806.23,829s2.21,15.28,39,7v34.77L901,938.68H833.7l-43.4-72.91Z" transform="translate(-660.88 -338.22)"/><path class="cls-16" d="M817.3,653.09c-19.11,9.46-37.53,23-51.72,38.81-23,25.64-26.09,59.14-29.76,91.59-5.07,44.91.85,89.61,6,134.21.66,5.78.13,15.84,3.35,21H833.7c-9-19.75-13.8-44.25-26.47-61.94-2.4-3.36-.31-13.92-.16-18.11.38-10.77,2.88-60.48-20.71-49.93a269.61,269.61,0,0,0,30.84-30.36A228.1,228.1,0,0,0,841,746.61c7.2-11.8,11.22-25.19,18.25-37.06,4.64-7.85,9.75-15.5,14.56-23.26l-1.4-18.72-37.67-8.84-14.25-7.93Z" transform="translate(-660.88 -338.22)"/><polyline class="cls-17" points="283.92 335.68 261.52 350.53 226.59 334.92 235.18 327.5 244.34 320.51 260.38 323.5 275.69 329.84"/><path class="cls-13" d="M965.8,659.05s-.55-9.28,7.13-8.25c0,0,6.71,3.55,4.88,7.87l8.61-7.95s-5.16-12.11-8.91-11.09-16,4.82-16,4.82l1.28,8.38Z" transform="translate(-660.88 -338.22)"/><path class="cls-18" d="M818.43,643.18s-2.55,4.44-2.16,6.54c0,0-2.74,3,11.51,11l32.2,15.8,13.81,9.73.31-3.56-1.71-15.16L867,657.27l-22-25.47-13.43-2.37a33.38,33.38,0,0,1-5,2.2c-1.58.38-6.16,5-6.16,5Z" transform="translate(-660.88 -338.22)"/><path class="cls-19" d="M1032.75,579.54s14.88-5.64,16.79,0,8.4,17.06,5.73,20.48l2.29,3.81s3.43,7.62,0,11.43c0,0-22,36.17-53,47.6L976.24,675l1.57-16.37s10.69-17.52-8.23-12.19c0,0-7.72,3.17-3.78,12.57,0,0-3,7-2.67,10.15,0,0-21.64-2.92-18.33,4.7l-8.22-5.84L951,645.47l29.88-18.54,12.83-7.64,14.3-14.7,21.13-18.27Z" transform="translate(-660.88 -338.22)"/><path class="cls-20" d="M1025,581.37s17.72-5.33,17,0c0,0-33.21,23.42-50.39,43.31L996,613.94l-12-11Z" transform="translate(-660.88 -338.22)"/><path class="cls-21" d="M888.29,581.3s-4.33,17.61-14.95,32.64L862,624.08s22.33,14.53,22.46,20.62c0,0,15.65,3.56,17.82,8.64,0,0,14,1.52,34.29,14.72,0,0,11.66-11.68,22.86-16.76,0,0,6.74-9.64,14.31-10.66,0,0,11.14-15.16,17.76-16l4.87-11.33s-17.67-13.13-26.8-28.46L936.12,566.8h-32Z" transform="translate(-660.88 -338.22)"/><path class="cls-22" d="M910.18,342.15c-46.43,14.56-83.24,64.24-84.37,111.66,0,0-1.53,64.35-25.2,77.48,0,0,16.29-8.95,21.64-17.07,0,0,3.18,32.87-12.47,44.3,0,0,23.28-13.33,23.28-22.85,0,5,.29,9.94-.24,15A68.74,68.74,0,0,1,830,564.56c-2.57,8-3.53,15.2-.51,23.18a25.3,25.3,0,0,0,17,15.33s23.86,4.19,9.16,14.09c-1.23.83,7.44-1.26,10.64-5.76,3.69-5.2,5.13-14.49,2.95-20.52,0,0,5.64,15.62,15.88,16.38,0,0-4.47-22.81,7.27-22.26l80.06-3s-7,21.25,13.2,29.88c-.58-.25-2.53-5.48-2.63-6a28.45,28.45,0,0,1-.45-9.2c.42-3,1.66-6,4.47-7.52a9.18,9.18,0,0,1,11.41,2.23c3.54,4.48,3.11,11.24,1.37,16.32,0,0,14.41-9.14,12.75-21.32,0,0,7.5-1.53,16.67,6.6-1-.86-1.64-4-2.13-5.29-.77-2.07-1.47-4.15-2.1-6.26-3.55-11.88-5.43-24.43-.39-36.14,5.59-13,12.61-24,12.9-38.68a77.82,77.82,0,0,0-10.83-40.25c-.58-1,.52-5.28.58-6.44a109.86,109.86,0,0,0-.72-17.77A135.78,135.78,0,0,0,1006,385.45c-6.91-10.92-14.29-21.86-24.43-30.08-11.71-9.49-25.46-12.15-40.18-13.47C931.88,341,919.55,339.21,910.18,342.15Z" transform="translate(-660.88 -338.22)"/><path class="cls-23" d="M910.18,342.18c-18.51,5.85-35,17-48.44,31a133.29,133.29,0,0,0-30.11,49.14,123.87,123.87,0,0,0-3.76,14A104.08,104.08,0,0,0,826,450.7a255.09,255.09,0,0,1-2.53,28.94,152.35,152.35,0,0,1-6.61,28.27,68,68,0,0,1-6.15,13.16,29.56,29.56,0,0,1-10.08,10.32l-.11-.19c2-1.13,4-2.34,5.93-3.59s3.85-2.55,5.71-3.93a62.52,62.52,0,0,0,5.36-4.39,30.31,30.31,0,0,0,4.59-5.14.12.12,0,0,1,.16,0,.17.17,0,0,1,.06.1,93.43,93.43,0,0,1,.14,11.95A80.22,80.22,0,0,1,821.05,538a46.75,46.75,0,0,1-3.75,11.34,25.32,25.32,0,0,1-7.44,9.27l-.15-.23c2.4-1.41,4.76-2.92,7.06-4.51s4.53-3.26,6.68-5a47.76,47.76,0,0,0,6-5.83,19,19,0,0,0,2.35-3.43,8.71,8.71,0,0,0,1.14-3.92.15.15,0,0,1,.14-.15.15.15,0,0,1,.15.15c0,3.19.12,6.38.06,9.58a69.43,69.43,0,0,1-3,18.9,52,52,0,0,0-2.24,9.27,28.22,28.22,0,0,0,3.56,18.34,25.73,25.73,0,0,0,14.89,11.15h0a43.3,43.3,0,0,1,7.15,2,24,24,0,0,1,3.37,1.58,8.84,8.84,0,0,1,2.83,2.44,4,4,0,0,1,.7,1.78,3.79,3.79,0,0,1-.29,1.89,8.76,8.76,0,0,1-2.27,3,18.11,18.11,0,0,1-1.46,1.16l-.75.55c-.06,0-.15.13-.1.05s0-.17-.07-.16h.09a2.33,2.33,0,0,0,.43-.06,18.82,18.82,0,0,0,3.47-1.15,16.77,16.77,0,0,0,6-4,19.24,19.24,0,0,0,3.25-6.51,28.14,28.14,0,0,0,1.16-7.23,20,20,0,0,0-1-7.22l.34-.13a40.59,40.59,0,0,0,2.55,5.37,33.59,33.59,0,0,0,3.35,4.92,19.86,19.86,0,0,0,4.34,4,11.7,11.7,0,0,0,5.48,2l-.2.23a55.27,55.27,0,0,1-.77-6.65,36.48,36.48,0,0,1,.19-6.69,14.17,14.17,0,0,1,2.14-6.34,6.54,6.54,0,0,1,2.57-2.21,7.54,7.54,0,0,1,3.34-.61h0l80-3.06a.21.21,0,0,1,.22.21.13.13,0,0,1,0,.06h0a30,30,0,0,0-1.15,8.84,24.55,24.55,0,0,0,1.7,8.72,22.34,22.34,0,0,0,2.11,3.91,22.87,22.87,0,0,0,2.91,3.37,26.74,26.74,0,0,0,7.52,4.77l-.18.4a2,2,0,0,1-.6-.78c-.13-.26-.26-.52-.38-.78-.24-.52-.46-1.05-.68-1.58a25.56,25.56,0,0,1-1.14-3.26,31.85,31.85,0,0,1-.6-6.83,14.78,14.78,0,0,1,1.59-6.67,8.2,8.2,0,0,1,2.26-2.64,8.87,8.87,0,0,1,3.17-1.45,9.71,9.71,0,0,1,6.77.89,8.84,8.84,0,0,1,2.67,2.23,12.51,12.51,0,0,1,1.71,3,16.56,16.56,0,0,1,1,6.79,24.9,24.9,0,0,1-1.29,6.74l-.34-.26a37,37,0,0,0,5-4.08,32.29,32.29,0,0,0,4.22-4.9,22.94,22.94,0,0,0,2.86-5.76,16.87,16.87,0,0,0,.54-6.36v0a.22.22,0,0,1,.19-.24,14.06,14.06,0,0,1,4.67.19,22.24,22.24,0,0,1,4.44,1.4,26.45,26.45,0,0,1,4.08,2.23c.65.42,1.26.9,1.89,1.35l1.79,1.48h0a.24.24,0,1,1-.3.37l0,0a6.32,6.32,0,0,1-1.25-2.37c-.28-.83-.51-1.66-.77-2.48l-1.65-4.9a86.33,86.33,0,0,1-2.71-10,51.63,51.63,0,0,1-.62-20.64,37.9,37.9,0,0,1,1.34-5c.28-.83.62-1.62.93-2.44l1-2.37c1.41-3.15,2.91-6.26,4.35-9.39,2.9-6.23,5.58-12.64,6.78-19.42a50.21,50.21,0,0,0,.77-10.25,73.42,73.42,0,0,0-.94-10.26,78.91,78.91,0,0,0-6-19.69c-.71-1.56-1.47-3.11-2.27-4.63-.39-.77-.83-1.51-1.25-2.26l-.31-.56a1.91,1.91,0,0,1-.18-.71,7.23,7.23,0,0,1,0-1.32c.08-.87.24-1.72.39-2.57a14.83,14.83,0,0,0,.32-2.54c.07-1.72.1-3.44.08-5.16a120.92,120.92,0,0,0-2.1-20.53,135.41,135.41,0,0,0-13.71-38.82,202.14,202.14,0,0,0-10.82-17.61A116.41,116.41,0,0,0,987.63,361a67.67,67.67,0,0,0-7.73-6.83,51.5,51.5,0,0,0-8.85-5.31,72,72,0,0,0-19.78-5.72c-3.41-.54-6.83-.91-10.27-1.23s-6.86-.7-10.3-1a91.26,91.26,0,0,0-10.33-.31A39.54,39.54,0,0,0,910.18,342.18Zm0-.05a39.64,39.64,0,0,1,10.2-1.57,89.22,89.22,0,0,1,10.34.3c3.44.26,6.87.64,10.3.95s6.87.68,10.28,1.21a72.11,72.11,0,0,1,19.83,5.7A52.15,52.15,0,0,1,980,354a67.21,67.21,0,0,1,7.76,6.84A116.83,116.83,0,0,1,1000.68,377a203.66,203.66,0,0,1,10.86,17.62,135.65,135.65,0,0,1,13.8,38.88,120.43,120.43,0,0,1,2.14,20.58c0,1.73,0,3.46-.07,5.18a14.79,14.79,0,0,1-.32,2.59c-.15.85-.3,1.7-.38,2.54a6,6,0,0,0,0,1.26,1.48,1.48,0,0,0,.13.54l.32.57c.41.76.86,1.5,1.25,2.27.81,1.52,1.57,3.08,2.29,4.65a79.45,79.45,0,0,1,6,19.78,71.37,71.37,0,0,1,1,10.32,51.29,51.29,0,0,1-.76,10.35c-1.2,6.84-3.89,13.29-6.78,19.54-1.45,3.13-3,6.24-4.36,9.38l-1,2.37c-.31.8-.65,1.59-.92,2.4a38.16,38.16,0,0,0-1.33,5,51.21,51.21,0,0,0,.62,20.44,85.44,85.44,0,0,0,2.69,10l1.65,4.91c.26.83.49,1.65.77,2.46a6,6,0,0,0,1.11,2.18l-.32.35-1.76-1.46c-.63-.44-1.22-.92-1.87-1.33a27.19,27.19,0,0,0-4-2.19,21.45,21.45,0,0,0-4.34-1.37,13.87,13.87,0,0,0-4.49-.19l.18-.27a16.88,16.88,0,0,1-.56,6.56,23.1,23.1,0,0,1-2.91,5.89,33.36,33.36,0,0,1-4.29,5,36.26,36.26,0,0,1-5.1,4.13.22.22,0,0,1-.31-.06.24.24,0,0,1,0-.2h0a23.81,23.81,0,0,0,1.27-6.62,16.06,16.06,0,0,0-1-6.6,11.88,11.88,0,0,0-1.65-2.9,8.1,8.1,0,0,0-2.53-2.12,9.2,9.2,0,0,0-6.45-.85,8.27,8.27,0,0,0-3,1.37,7.67,7.67,0,0,0-2.14,2.49,14.45,14.45,0,0,0-1.54,6.48,31.74,31.74,0,0,0,.6,6.73,25.06,25.06,0,0,0,1.11,3.18c.22.52.43,1,.67,1.55.12.26.24.51.37.76a2.58,2.58,0,0,0,.39.59l0,0a.22.22,0,0,1,0,.31.23.23,0,0,1-.26.06,27.16,27.16,0,0,1-7.63-4.85,23.29,23.29,0,0,1-3-3.44,22.66,22.66,0,0,1-2.15-4,24.79,24.79,0,0,1-1.73-8.88,30.31,30.31,0,0,1,1.18-9l.21.28-80.06,3h0a6.77,6.77,0,0,0-3.15.57,6.05,6.05,0,0,0-2.42,2.07,13.9,13.9,0,0,0-2.08,6.17,36.59,36.59,0,0,0-.18,6.62,51.93,51.93,0,0,0,.76,6.59.21.21,0,0,1-.15.23h-.05a12.13,12.13,0,0,1-5.67-2,20.12,20.12,0,0,1-4.42-4.07,34.8,34.8,0,0,1-3.38-5A41.45,41.45,0,0,1,869,591a.18.18,0,0,1,.1-.24.18.18,0,0,1,.24.11h0a20.69,20.69,0,0,1,1,7.36,29,29,0,0,1-1.18,7.33,20,20,0,0,1-3.33,6.64,17.24,17.24,0,0,1-6.16,4.13,20.68,20.68,0,0,1-3.54,1.17,3.65,3.65,0,0,1-.49.06h-.14l-.11,0a.32.32,0,0,1-.09-.08.23.23,0,0,1,0-.17c.11-.22.18-.18.24-.25l.75-.54a17.42,17.42,0,0,0,1.43-1.14,8.32,8.32,0,0,0,2.18-2.84,3.56,3.56,0,0,0,.27-1.73,3.73,3.73,0,0,0-.64-1.62,8.46,8.46,0,0,0-2.73-2.34,22.22,22.22,0,0,0-3.31-1.56,43.9,43.9,0,0,0-7.09-2h0a26.05,26.05,0,0,1-15.07-11.3,28.55,28.55,0,0,1-3.6-18.55,52.42,52.42,0,0,1,2.25-9.33,69.23,69.23,0,0,0,3-18.81c0-3.18-.06-6.37-.06-9.57h.29a9.17,9.17,0,0,1-1.17,4.06,19.63,19.63,0,0,1-2.39,3.47,47,47,0,0,1-6,5.87c-2.15,1.78-4.4,3.46-6.71,5s-4.66,3.1-7.08,4.52a.14.14,0,0,1-.18,0,.13.13,0,0,1,0-.18,25,25,0,0,0,7.36-9.17A46.42,46.42,0,0,0,820.8,538a79.53,79.53,0,0,0,1.46-11.82,94.68,94.68,0,0,0-.13-11.91l.22,0a30.48,30.48,0,0,1-4.63,5.19,64.51,64.51,0,0,1-5.38,4.4c-1.86,1.38-3.78,2.68-5.73,3.93s-3.92,2.46-5.94,3.59a.12.12,0,0,1-.16,0,.12.12,0,0,1,0-.15,29.3,29.3,0,0,0,10-10.24,67.31,67.31,0,0,0,6.14-13.12,152.39,152.39,0,0,0,6.62-28.23,252.3,252.3,0,0,0,2.55-28.92,105.75,105.75,0,0,1,1.85-14.41,119.51,119.51,0,0,1,3.78-14,133.37,133.37,0,0,1,30.16-49.17C875.08,359.15,891.64,348,910.17,342.13Z" transform="translate(-660.88 -338.22)"/><path class="cls-24" d="M1002,482c.81,5.7,1.43,11.44,1.89,17.18.64,8.06.39,16.28-2.06,24.05-2.59,8.24-5.12,16.79-8.35,24.82a112.3,112.3,0,0,1-18.11,30.45c-6.93,8.26-15,16.88-25.56,20.7-41.25,14.92-82.69-28.68-87.24-67.17L858.47,497s-.4-38.81,0-42.95c0,0,2-22.85,6.51-26.39,0,0,6.72,13.79,15,15.17,0,0,17.79-49.58,45.82-60.87,0,0,33.18,15.76,14.22,61.26,0,0,11.06-5.71,17.78-11.82,0,0,.39,3.74-3.56,8.67,0,0,18.17-8.08,23.7-15.37,0,0,7.11,15.17,15.8,19.31,0,0-6.12-13.59-2.17-20.88,0,0,14.43,10.44,12.84,27C1004.42,450.11,1002,473.16,1002,482Z" transform="translate(-660.88 -338.22)"/><path class="cls-25" d="M936.53,511.43s-1.23,6.52,4.18,7.73c0,0,5.28,1,6.6-4.08L941.65,510S938,509.41,936.53,511.43Z" transform="translate(-660.88 -338.22)"/><path class="cls-26" d="M929.47,496.65s-3.12-1.47-6.79,2.74a13.64,13.64,0,0,0-3,7.62,12,12,0,0,0,8.67,10s6.06,2.11,7.75-3.93a43.51,43.51,0,0,0,2.19-4c.07-.45.34-4.37.49-4.89s.66-7.54.66-7.54-4.52-1.41-4.9-1.47S929.47,496.65,929.47,496.65Z" transform="translate(-660.88 -338.22)"/><path class="cls-27" d="M951.23,516l2.82-1.4,2.38,1L957,517s-6.81,3.66-10.22-2.47h4.48Z" transform="translate(-660.88 -338.22)"/><path class="cls-28" d="M954.05,503l-1,7.41-2.37,2.79s-7.11,6.5-10.37,1.47l-4.16-1.59s-2.35-6.83.46-11.41l5.48-1.92,5.51.5,2.19,1.13Z" transform="translate(-660.88 -338.22)"/><path class="cls-21" d="M948.13,455.31s1.26,14.32,4.14,24.26c1.93,6.63,2.05,14.39,4.7,18.88,3.22,5.46,3.4,4.91,4.64,9.68,0,0,2.24,6-4.64,9.24,0,0-8.46-3.47-4-7l-4.08-6.22-1.37-7Z" transform="translate(-660.88 -338.22)"/><path class="cls-29" d="M942.09,442.07a61.91,61.91,0,0,0,.67,9.23c.75,5,1.62,10.24,1.72,11.43s.69,8.95.69,10.34,3,15.06,3,15.36-.56,8.76-.56,8.76l-2,3.06h-4.92l-11.15-3.6c11.35-7.93,7.26-37.77,7.26-37.77V446.67Z" transform="translate(-660.88 -338.22)"/><path class="cls-30" d="M956.05,437.42l-7.18,27.17c-1.93,7.23,5.18,38.41,5.18,38.41-3.79,3.31-17.47-1.33-17.47-1.33-.6-2.51-7.11-5-7.11-5s15.55,4,16.07-6.2l-5.41-33.78-1.58-12.62,17-9.52Z" transform="translate(-660.88 -338.22)"/><path class="cls-19" d="M961.61,472.31s.1-.11.31-.3c2.27-2.1,16.85-14.29,34.06,1.78,0,0-17.89,9.52-33.14-.72C962.46,472.81,962,472.57,961.61,472.31Z" transform="translate(-660.88 -338.22)"/><path class="cls-31" d="M984.67,480.56a36.26,36.26,0,0,1-5.89-.36,38.15,38.15,0,0,1-5.77-1.29,28.28,28.28,0,0,1-5.44-2.3,23.69,23.69,0,0,1-4.73-3.53v0a27,27,0,0,0,4.84,3.33,30.9,30.9,0,0,0,5.38,2.33,37.56,37.56,0,0,0,5.73,1.35,37.05,37.05,0,0,0,5.86.47Z" transform="translate(-660.88 -338.22)"/><path class="cls-32" d="M961.92,472c2.4-2.31,4.12-5.35,7.07-7.12a18,18,0,0,1,9.71-2.27,19.15,19.15,0,0,1,5,.71,15,15,0,0,1,4.34,2.56,26.2,26.2,0,0,1,6.46,7.64,27.58,27.58,0,0,0-6.56-7.51,15,15,0,0,0-4.3-2.5,19,19,0,0,0-4.93-.66,18.13,18.13,0,0,0-9.62,2.18C966.17,466.76,964.4,469.78,961.92,472Z" transform="translate(-660.88 -338.22)"/><path class="cls-33" d="M977.91,465.32a4.09,4.09,0,0,1,2.75,1.45,5.86,5.86,0,0,1,1.14,3c.38,3.2-1.27,8.13-5.11,8.29a11.46,11.46,0,0,1-7.48-2.15c-2.26-1.93-2-5.63-.84-8.15C970.65,466.71,974.82,464.88,977.91,465.32Z" transform="translate(-660.88 -338.22)"/><path class="cls-34" d="M961.61,472.31a27.81,27.81,0,0,1,7.91-5.24,22.15,22.15,0,0,1,9.33-1.87,18.5,18.5,0,0,1,4.73.73,21.22,21.22,0,0,1,4.44,1.81,30.73,30.73,0,0,1,7.54,5.87l.21.22-.25.16a28.29,28.29,0,0,1-8.29,3.45,28.88,28.88,0,0,1-8.93.79,33.13,33.13,0,0,1-8.75-1.84c-.7-.26-1.38-.58-2.07-.87s-1.37-.58-2-.93A43.59,43.59,0,0,1,961.61,472.31Zm0,0a41.21,41.21,0,0,0,3.9,2.17,21.62,21.62,0,0,0,2,.88c.7.27,1.37.57,2.08.81a33.1,33.1,0,0,0,8.69,1.68,29.26,29.26,0,0,0,8.8-.85,27.86,27.86,0,0,0,8.12-3.42l0,.38a30.31,30.31,0,0,0-7.39-5.81,20.54,20.54,0,0,0-9-2.56,21.62,21.62,0,0,0-9.21,1.71A27.48,27.48,0,0,0,961.61,472.31Z" transform="translate(-660.88 -338.22)"/><path class="cls-32" d="M918.33,466.3c-2.27-2.49-4.3-5.19-6.55-7.68a16.6,16.6,0,0,0-1.8-1.76,11,11,0,0,0-2.11-1.33,15.78,15.78,0,0,0-4.8-1.4,20.49,20.49,0,0,0-5-.08,13.1,13.1,0,0,0-4.77,1.42,12.67,12.67,0,0,0-3.83,3.2l-3.21,3.9c1-1.32,2-2.7,3.1-4a12.75,12.75,0,0,1,3.85-3.27,12.88,12.88,0,0,1,4.83-1.49,19.12,19.12,0,0,1,5.07.08,16.48,16.48,0,0,1,4.85,1.46,11,11,0,0,1,2.14,1.37,16.9,16.9,0,0,1,1.8,1.79C914.15,461,916.11,463.77,918.33,466.3Z" transform="translate(-660.88 -338.22)"/><path class="cls-19" d="M918.58,466.65l-.25-.35c-1.88-2.46-14.13-17-33.86-4.12,0,0,16,12.47,32.76,5C917.65,467,918.13,466.84,918.58,466.65Z" transform="translate(-660.88 -338.22)"/><path class="cls-33" d="M899.86,456.83s-8.31,3.18-3.26,10.68c.46.68,1.19.81,2.35,1.58a15.29,15.29,0,0,0,5.56.45c3.81-.74,7.24-3.75,5.66-10.18C910.17,459.36,903.44,457.16,899.86,456.83Z" transform="translate(-660.88 -338.22)"/><path class="cls-35" d="M923.67,532.39c-1.74.49-4.35,1.38-6,1.93a59.77,59.77,0,0,0-11.79,5.17c-.38.22-1.59,1.28-2,1.25l24.89,1.77,7.81,2.74,9.57-1.71,23.43,1S952.85,534,944.92,532.83l-6.52,2a41.34,41.34,0,0,0-4.12-2.66C931,530.57,927,531.46,923.67,532.39Z" transform="translate(-660.88 -338.22)"/><path class="cls-34" d="M918.58,466.65a27.69,27.69,0,0,0-7-6.32,21.77,21.77,0,0,0-8.78-3.27,20.61,20.61,0,0,0-9.28,1,30.53,30.53,0,0,0-8.28,4.45l0-.38a27,27,0,0,0,7.41,4.76,29.66,29.66,0,0,0,8.52,2.36,18,18,0,0,0,2.21.18,14.83,14.83,0,0,0,2.21,0l2.23-.09L910,469l1.1-.15c.37-.06.72-.17,1.08-.25l2.17-.53C915.78,467.69,917.15,467.14,918.58,466.65Zm0,0c-1.38.5-2.76,1.11-4.19,1.56l-2.16.59c-.36.09-.71.21-1.08.28l-1.1.19-2.22.35-2.24.13a16.74,16.74,0,0,1-2.24,0,21.06,21.06,0,0,1-2.24-.15,28.6,28.6,0,0,1-8.65-2.33,27.47,27.47,0,0,1-7.58-4.82l-.21-.19.24-.18a30.69,30.69,0,0,1,8.44-4.48,21.37,21.37,0,0,1,4.68-1,18.82,18.82,0,0,1,4.8.09,22.13,22.13,0,0,1,8.86,3.45A27.79,27.79,0,0,1,918.58,466.65Z" transform="translate(-660.88 -338.22)"/><path class="cls-36" d="M903.88,540.74s10.46.84,24.89,1.77c3.13.2,4.53,1.88,8,2.08,2.45.14,6.87-1.18,9.42-1.05,7.69.42,15.72.79,23.43,1C969.58,544.58,938.68,570.15,903.88,540.74Z" transform="translate(-660.88 -338.22)"/><path class="cls-37" d="M936.12,513.08s-3-8.29-8.74-4.43C927.38,508.65,923.16,514.05,936.12,513.08Z" transform="translate(-660.88 -338.22)"/><path class="cls-37" d="M947.57,515.87s3-8.3,8.74-4.43C956.31,511.44,960.53,516.84,947.57,515.87Z" transform="translate(-660.88 -338.22)"/><path class="cls-37" d="M926.22,496.65a14.62,14.62,0,0,0-5.58,5.7,9.13,9.13,0,0,0-.88,3.88c0,.33.07.66.1,1a4,4,0,0,0,.19,1,9.63,9.63,0,0,0,.69,1.88,17.18,17.18,0,0,0,2.15,3.39A11.82,11.82,0,0,0,926,516a9.41,9.41,0,0,0,7.78.86,8.38,8.38,0,0,1-4,.54,10.82,10.82,0,0,1-3.86-1.26,11.75,11.75,0,0,1-3.21-2.49,17.43,17.43,0,0,1-2.22-3.42,10.81,10.81,0,0,1-.69-1.93,4.85,4.85,0,0,1-.17-1c0-.34-.1-.68-.1-1a9.14,9.14,0,0,1,.94-4A13.94,13.94,0,0,1,926.22,496.65Z" transform="translate(-660.88 -338.22)"/><path class="cls-37" d="M957,498.45a27.45,27.45,0,0,1,3.95,6.95,14.93,14.93,0,0,1,1,3.9,7.94,7.94,0,0,1-.56,4,6.91,6.91,0,0,1-2.67,3,15.68,15.68,0,0,1-3.69,1.6,6.2,6.2,0,0,1-4,.09,10.57,10.57,0,0,1-3.41-2.08,10.7,10.7,0,0,0,3.45,2,6.07,6.07,0,0,0,3.88-.14,15.49,15.49,0,0,0,3.62-1.61,6.7,6.7,0,0,0,2.56-2.92,7.78,7.78,0,0,0,.59-3.85,15.23,15.23,0,0,0-.9-3.87A30.83,30.83,0,0,0,957,498.45Z" transform="translate(-660.88 -338.22)"/><path class="cls-38" d="M964.53,441.78a5.79,5.79,0,0,0-3.92,4,3.7,3.7,0,0,0,.43,2.87c.83,1.15,2.33.82,3.54.62a79.43,79.43,0,0,1,15.41-.9c5,.14,11,.43,15.19,3.45l.2.15,4.38,3.37-2.52-5.4c-2.83-6.1-10.83-7-16.72-8.12a49.29,49.29,0,0,0-8.56-.94C971.29,440.84,964.53,441,964.53,441.78Z" transform="translate(-660.88 -338.22)"/><polygon class="cls-39" points="165.75 304.84 200.65 323.5 166.9 311.31 159.58 303.44 165.75 304.84"/><path class="cls-40" d="M881.47,449.08s-5.92,4.58-6.07,9.31H871l-1.78-15.47s52.29-5.26,67.55,17.05l-2.11,9.24S936.43,442.73,881.47,449.08Z" transform="translate(-660.88 -338.22)"/><path class="cls-40" d="M936.73,460s14.07-.28,16.29,3.28l2.51,6s-11.25-9.65-20-4Z" transform="translate(-660.88 -338.22)"/><path class="cls-41" d="M873.67,458.39c-.6,1.17-.21,3.75-.21,5a64.45,64.45,0,0,0,.91,11.69,34.48,34.48,0,0,0,4.45,12.6c5.25,8.24,17.1,10.25,26.15,10.05,10-.22,19.36-4.86,24.4-13.75a60.21,60.21,0,0,0,5.25-14.79s1.24-8.66-.82-10.82l-10.95-6.9-12.28-3.41-13.39-.92H879.4Z" transform="translate(-660.88 -338.22)"/><polygon class="cls-40" points="208.3 104.71 204.22 105.47 204.82 113.3 209.28 113.3 210.15 105.84 208.3 104.71"/><polygon class="cls-42" points="204.82 113.3 197.44 118.72 197.68 114.78 198.42 108.64 204.22 105.47 204.82 113.3"/><path class="cls-38" d="M896.06,428.54c1.33-.8,3.5-1.4,5-.88,4.84,1.69,9.34,2.36,14.26,3.8,4.61,1.34,9.69,2.31,14.3,3.65,5.55,1.62,4.12,10.12-.91,8.58L900,434.93a4.05,4.05,0,0,0-1.15-.17H884.47Z" transform="translate(-660.88 -338.22)"/><path class="cls-43" d="M901.54,345.35a135.62,135.62,0,0,0-42.63,42.88,129.82,129.82,0,0,0-7.33,13.34c-1,2.33-2.14,4.61-3,7-.46,1.18-.94,2.35-1.38,3.55l-1.21,3.6c-3.22,9.65-4.2,19.88-4.2,30s.84,20.31,1,30.5a144.38,144.38,0,0,1-.51,15.28,127.93,127.93,0,0,1-2.48,15.09,114.43,114.43,0,0,1-10.56,28.63,80.78,80.78,0,0,1-8.52,12.68,70.45,70.45,0,0,1-10.92,10.64l0-.06A76.31,76.31,0,0,0,828.82,535a113.72,113.72,0,0,0,10.25-28.56,125,125,0,0,0,2.46-15,140.2,140.2,0,0,0,.52-15.2c-.12-10.16-.93-20.32-.87-30.51s1.06-20.47,4.34-30.16l1.23-3.62c.44-1.19.93-2.37,1.39-3.56.89-2.39,2-4.67,3.05-7a130.7,130.7,0,0,1,7.4-13.36,135.81,135.81,0,0,1,42.92-42.75Z" transform="translate(-660.88 -338.22)"/><path class="cls-43" d="M863.52,613.91a26.79,26.79,0,0,0,4.51-8.73,10,10,0,0,0,.21-4.83,6.41,6.41,0,0,0-2.74-3.84c-.66-.43-1.42-.84-2.09-1.34a21,21,0,0,1-1.91-1.62,21.78,21.78,0,0,1-3.12-3.91,27.65,27.65,0,0,1-3.59-9.28A42.83,42.83,0,0,1,856,560.59a74,74,0,0,1,8.22-18.05l.06,0a88.2,88.2,0,0,0-7.56,18.21,51.38,51.38,0,0,0-1.75,9.67,36.84,36.84,0,0,0,.41,9.78,27,27,0,0,0,3.42,9.15,21.08,21.08,0,0,0,3,3.85,18.6,18.6,0,0,0,1.85,1.6c.65.51,1.35.89,2.06,1.37a6.7,6.7,0,0,1,2.82,4.07,10,10,0,0,1-.29,5,27,27,0,0,1-4.66,8.72Z" transform="translate(-660.88 -338.22)"/><path class="cls-43" d="M885,607.28a68.13,68.13,0,0,1-5.48-8.9,56,56,0,0,1-4-9.69,31.24,31.24,0,0,1-1.53-10.39,21.36,21.36,0,0,1,.88-5.21,18.14,18.14,0,0,1,2.26-4.74l.06,0a22.39,22.39,0,0,0-1.82,4.83,23.11,23.11,0,0,0-.63,5.1,36.14,36.14,0,0,0,1.35,10.21,56.68,56.68,0,0,0,3.73,9.69,69.2,69.2,0,0,0,5.21,9Z" transform="translate(-660.88 -338.22)"/><path class="cls-43" d="M852.68,383.53c-4.2,12.79-8.12,25.86-8.74,39.36s-1.09,27-3.41,40.35a117.94,117.94,0,0,1-5,19.64,151,151,0,0,1-8.22,18.54c-1.59,3-3.33,5.89-5.16,8.74a96,96,0,0,1-6.05,8.15,72.44,72.44,0,0,1-7.12,7.22,58.06,58.06,0,0,1-8.31,5.8l0-.07a56.81,56.81,0,0,0,8.12-6,72.71,72.71,0,0,0,7-7.28,94.77,94.77,0,0,0,5.9-8.18q2.68-4.27,5-8.75a152.33,152.33,0,0,0,8.18-18.44,117,117,0,0,0,5.15-19.49c2.38-13.27,2.88-26.8,3.63-40.26a105.41,105.41,0,0,1,3.18-20c1.64-6.56,3.7-13,5.86-19.38Z" transform="translate(-660.88 -338.22)"/><path class="cls-23" d="M926.75,366.57a104.59,104.59,0,0,1,15.59,16.37,67,67,0,0,1,10.8,19.85,42,42,0,0,1,2,11.18,33,33,0,0,1-1.72,11.25,38.56,38.56,0,0,1-2.27,5.24,41,41,0,0,1-3.16,4.73c-.61.74-1.13,1.53-1.8,2.21l-2,2.06a23.76,23.76,0,0,1-2.08,1.93l-2.13,1.86,0-.06a54.31,54.31,0,0,0,7.59-8.31,45.58,45.58,0,0,0,3-4.73,37.35,37.35,0,0,0,2.13-5.16,32.35,32.35,0,0,0,1.69-11,41,41,0,0,0-1.87-11A66.39,66.39,0,0,0,942,383.16a104.51,104.51,0,0,0-15.34-16.54Z" transform="translate(-660.88 -338.22)"/><path class="cls-23" d="M957.78,431.37a63.71,63.71,0,0,0,7.66-9.79,68.19,68.19,0,0,0,5.79-11,54,54,0,0,0,4.27-24.22,55.21,55.21,0,0,0-.75-6.15l-.68-3c-.2-1-.59-2-.87-3l-.45-1.48c-.16-.49-.37-1-.55-1.44-.38-1-.74-1.93-1.14-2.88-.92-1.85-1.72-3.76-2.81-5.52-.51-.89-1-1.81-1.53-2.69L965,357.63l-.85-1.3-.94-1.24-1.88-2.47c-1.29-1.62-2.7-3.14-4-4.73L953,343.4l0-.06a80.11,80.11,0,0,1,15.86,19.2,62.4,62.4,0,0,1,2.84,5.59c.41,1,.77,1.94,1.16,2.92.18.49.39,1,.56,1.46l.45,1.5c.28,1,.65,2,.84,3l.66,3.07a56.79,56.79,0,0,1,.69,6.23,54.68,54.68,0,0,1-4.52,24.41,70,70,0,0,1-6,11,64.52,64.52,0,0,1-7.8,9.72Z" transform="translate(-660.88 -338.22)"/><path class="cls-23" d="M942.77,342A75.85,75.85,0,0,1,964,355.41a60.87,60.87,0,0,1,15,20.14,54.26,54.26,0,0,1,4.63,24.66A76.63,76.63,0,0,1,978,424.72l-.07,0c.62-2,1.3-4,1.88-6l.8-3c.26-1,.55-2,.72-3.06.38-2.05.83-4.09,1-6.18.11-1,.28-2.07.34-3.11l.14-3.13a55.16,55.16,0,0,0-.85-12.44,52.56,52.56,0,0,0-3.58-11.95,60.39,60.39,0,0,0-14.67-20.1,75.38,75.38,0,0,0-21-13.63Z" transform="translate(-660.88 -338.22)"/><path class="cls-23" d="M978.53,353a116.4,116.4,0,0,1,8.15,22.09,97.13,97.13,0,0,1,3.43,23.31c.08,7.93-1.64,15.67-2.08,23.47a40.84,40.84,0,0,0,.68,11.63A25.18,25.18,0,0,0,993.78,444l-.06,0-1.84-2.31c-.55-.82-1-1.68-1.55-2.52s-.81-1.8-1.22-2.7-.6-1.89-.9-2.84a39.64,39.64,0,0,1-.93-11.79c.22-3.94.77-7.84,1.25-11.74a90.06,90.06,0,0,0,1-11.69,96.54,96.54,0,0,0-3.19-23.22,116.29,116.29,0,0,0-7.86-22.15Z" transform="translate(-660.88 -338.22)"/><path class="cls-23" d="M912.55,341.57a103.22,103.22,0,0,0-11.77,7,115,115,0,0,0-10.85,8.31,89.73,89.73,0,0,0-17.86,20.53,66.69,66.69,0,0,0-7.82,18.78,60.89,60.89,0,0,0-1.09,6.71,29.64,29.64,0,0,0-.3,3.39l-.12,3.4a64.53,64.53,0,0,0,.46,6.8c.16,1.12.24,2.26.46,3.38l.7,3.34a28.57,28.57,0,0,0,.82,3.31l.92,3.3-.07,0a65.28,65.28,0,0,1-3.31-13.29,68.05,68.05,0,0,1-.6-6.85l.06-3.44a28.12,28.12,0,0,1,.23-3.44,62.55,62.55,0,0,1,1.11-6.8,65,65,0,0,1,2-6.59,64.18,64.18,0,0,1,6-12.34,90.4,90.4,0,0,1,18.12-20.5,117,117,0,0,1,11-8.21,103.48,103.48,0,0,1,11.86-6.86Z" transform="translate(-660.88 -338.22)"/><path class="cls-23" d="M879.63,442.93l-.94-3.85-.47-1.93c-.14-.64-.22-1.3-.34-1.95l-.63-3.91c-.15-1.32-.23-2.64-.34-4l-.16-2v-2c0-1.32,0-2.64,0-4l.32-4,.08-1,.15-1,.32-2,.31-2c.11-.66.29-1.29.44-1.94.32-1.28.58-2.57,1-3.84l1.2-3.77c.41-1.26,1-2.47,1.42-3.7a82.44,82.44,0,0,1,7.41-13.95A112.41,112.41,0,0,1,910.53,359a142.27,142.27,0,0,1,12.61-9.49,126.07,126.07,0,0,1,13.59-8,125.07,125.07,0,0,0-13.54,8.09,141.55,141.55,0,0,0-12.54,9.56,112.22,112.22,0,0,0-21,23.4,82.38,82.38,0,0,0-7.28,13.93c-.46,1.23-1,2.43-1.39,3.68L879.84,404c-.37,1.26-.61,2.55-.93,3.82-.13.64-.32,1.27-.42,1.92l-.3,1.94-.3,1.94-.14,1-.08,1-.29,3.92c0,1.31,0,2.62,0,3.93v2l.17,2c.13,1.3.21,2.61.36,3.91l.66,3.87c.11.65.19,1.3.34,1.94l.48,1.9,1,3.81Z" transform="translate(-660.88 -338.22)"/><path class="cls-23" d="M973.74,580.43a66.15,66.15,0,0,0,9.7-12.75,131.8,131.8,0,0,0,7.39-14.26c2.22-4.88,4.19-9.86,6-14.9s3.51-10.12,5-15.28h0c1.58-4.07,2-8.49,2.18-12.84a119.12,119.12,0,0,0-.3-13.09q-.48-6.54-1.4-13c-.15-1.09-.34-2.16-.47-3.25a22.57,22.57,0,0,1-.1-3.29c.09-2.19.42-4.36.7-6.52s.46-4.35.75-6.52l.81-6.5c.24-2.17.5-4.35.58-6.52a38.51,38.51,0,0,0-.29-6.53,33,33,0,0,0-4.08-12.32,27.81,27.81,0,0,0-8.68-9.58l.19-.06a20.85,20.85,0,0,0-1.25,5.21,22.44,22.44,0,0,0,.07,5.37,28.72,28.72,0,0,0,1.2,5.25,28,28,0,0,0,2.15,4.92h0a.13.13,0,0,1,0,.19.12.12,0,0,1-.14,0,24.43,24.43,0,0,1-4.88-4,50.45,50.45,0,0,1-4.08-4.8c-1.28-1.67-2.49-3.4-3.63-5.16s-2.25-3.54-3.28-5.38h.27a19.48,19.48,0,0,1-5,5.13,56,56,0,0,1-6,3.95,112.91,112.91,0,0,1-12.8,6.36.18.18,0,0,1-.23-.08.19.19,0,0,1,.06-.21h0a9.75,9.75,0,0,0,1.83-1.62,7.61,7.61,0,0,0,1.65-6.86l.3.07a26.82,26.82,0,0,1-4,3.58c-1.42,1.09-2.92,2.08-4.43,3-3,1.91-6.17,3.64-9.37,5.26a.18.18,0,0,1-.24-.09.18.18,0,0,1,0-.16,73.51,73.51,0,0,0,5.49-16.56l.39-2.15c.13-.71.19-1.44.28-2.16.22-1.44.25-2.9.34-4.35a45.12,45.12,0,0,0-.63-8.69,37.41,37.41,0,0,0-6.87-15.85,39,39,0,0,0-13.14-11.23h.19a61.42,61.42,0,0,0-15.35,11.62,108.58,108.58,0,0,0-12.22,15,166.94,166.94,0,0,0-10,16.59,181.45,181.45,0,0,0-8.14,17.57h0a.22.22,0,0,1-.28.13,17.91,17.91,0,0,1-5-2.39A26.7,26.7,0,0,1,870.8,437a35.37,35.37,0,0,1-3.35-4.39,37.38,37.38,0,0,1-2.69-4.83l.4.07a15.3,15.3,0,0,0-3.09,5.69,47.64,47.64,0,0,0-1.65,6.37A101.54,101.54,0,0,0,858.8,453h0c-.22,3-.21,6.05-.26,9.08l0,9.11.07,18.22,0,4.55c0,1.52,0,3,.15,4.54.3,3,.66,6,1,9.05L862,525.65l1.14,9a65.74,65.74,0,0,0,1.45,9,61.85,61.85,0,0,0,7.22,16.62,105,105,0,0,0,10.78,14.65c2,2.3,4.06,4.51,6.21,6.66s4.42,4.16,6.67,6.2l0,0c-2.25-2-4.54-4-6.69-6.18s-4.23-4.36-6.23-6.65a104.09,104.09,0,0,1-10.83-14.64,62.16,62.16,0,0,1-7.3-16.65,68.22,68.22,0,0,1-1.48-9l-1.16-9-2.28-18.08c-.36-3-.73-6-1-9.06-.18-1.52-.13-3.05-.16-4.56l0-4.56-.13-18.22V462.1c0-3,0-6.07.24-9.13h0a97.38,97.38,0,0,1,1.6-13.18,49.14,49.14,0,0,1,1.68-6.44,15.47,15.47,0,0,1,3.2-5.87.24.24,0,0,1,.34,0,.18.18,0,0,1,.05.07h0a36.23,36.23,0,0,0,2.64,4.76,36.63,36.63,0,0,0,3.3,4.33,26.22,26.22,0,0,0,4.05,3.62,18.07,18.07,0,0,0,4.85,2.33l-.28.14A177.94,177.94,0,0,1,888,425.13a164.79,164.79,0,0,1,10-16.63,108.66,108.66,0,0,1,12.28-15,62,62,0,0,1,15.47-11.69h0a.19.19,0,0,1,.18,0,39.23,39.23,0,0,1,13.29,11.36,38,38,0,0,1,6.94,16,45.2,45.2,0,0,1,.62,8.77c-.09,1.46-.12,2.93-.34,4.38-.1.73-.15,1.46-.28,2.18l-.4,2.17a74.59,74.59,0,0,1-5.53,16.64l-.25-.25c3.19-1.6,6.32-3.33,9.34-5.22,1.51-.95,3-1.94,4.41-3a27.37,27.37,0,0,0,4-3.53h0a.16.16,0,0,1,.24,0,.14.14,0,0,1,.05.08,7.85,7.85,0,0,1,.21,2.55,7.56,7.56,0,0,1-.59,2.47,7.9,7.9,0,0,1-1.34,2.16,10.84,10.84,0,0,1-1.9,1.68l-.16-.3A114.74,114.74,0,0,0,967,433.59a56.38,56.38,0,0,0,5.93-3.93,19.48,19.48,0,0,0,4.93-5,.15.15,0,0,1,.21-.06l.06.06c1,1.83,2.11,3.61,3.25,5.37s2.34,3.48,3.61,5.14a51.49,51.49,0,0,0,4.06,4.78,24.33,24.33,0,0,0,4.81,4l-.19.2a27.82,27.82,0,0,1-2.17-5,28.45,28.45,0,0,1-1.21-5.3,23,23,0,0,1-.07-5.44,21.41,21.41,0,0,1,1.27-5.28.14.14,0,0,1,.17-.08l0,0a28.07,28.07,0,0,1,8.76,9.68,33.42,33.42,0,0,1,4.1,12.41,40,40,0,0,1,.28,6.56c-.09,2.2-.35,4.37-.6,6.54l-.82,6.51c-.28,2.16-.45,4.34-.75,6.51s-.62,4.33-.7,6.51A22.16,22.16,0,0,0,1002,481c.13,1.08.33,2.16.47,3.24q.91,6.5,1.39,13a122.2,122.2,0,0,1,.28,13.12,40.4,40.4,0,0,1-2.21,12.89h0c-1.47,5.16-3.17,10.24-5,15.28s-3.81,10-6,14.9a129.15,129.15,0,0,1-7.41,14.25,66.67,66.67,0,0,1-9.73,12.76Z" transform="translate(-660.88 -338.22)"/><path class="cls-23" d="M862.51,406.55A306,306,0,0,0,853,456.3a223.78,223.78,0,0,0-.07,50.56,160.54,160.54,0,0,1-.71,25.38c-.44,4.21-1.11,8.4-1.94,12.56l-.71,3.1c-.23,1-.48,2.06-.78,3.08L848,554l-1,3-.51,1.51-.57,1.47c-.36,1-.69,2-1,3a53.81,53.81,0,0,0-1.48,6.11,39.46,39.46,0,0,0-.39,12.5,21.79,21.79,0,0,0,5,11.3,24.09,24.09,0,0,0,10.42,6.73h0l0,0a15.75,15.75,0,0,1,4,4.17,7.41,7.41,0,0,1,1.25,5.57,8.94,8.94,0,0,1-3.18,4.75,24.41,24.41,0,0,1-4.89,3l0-.07a24,24,0,0,0,4.8-3.09,8.72,8.72,0,0,0,3-4.66,7.25,7.25,0,0,0-1.27-5.32,15.49,15.49,0,0,0-3.94-4l.05,0a24.55,24.55,0,0,1-10.69-6.77,22.31,22.31,0,0,1-5.2-11.55,38.38,38.38,0,0,1,.32-12.74,55.36,55.36,0,0,1,1.49-6.2c.31-1,.64-2,1-3l.58-1.48.5-1.5,1-3,.86-3c.3-1,.55-2,.78-3.06l.72-3.07c.83-4.13,1.52-8.29,2-12.49a159.07,159.07,0,0,0,.82-25.26,222.76,222.76,0,0,1,.28-50.64,306,306,0,0,1,9.75-49.73Z" transform="translate(-660.88 -338.22)"/><polygon class="cls-44" points="213.52 345.24 202.08 317.88 205.4 313.47 218.85 316.64 224.35 333.08 213.52 345.24"/><path class="cls-45" d="M1059.08,833.39s5.73-18.6,37.8-19.1c0,0,17.24-6.59,16.51-12.43,0,0-22.7,6.75-26.69,2.27C1086.7,804.13,1058.45,808.83,1059.08,833.39Z" transform="translate(-660.88 -338.22)"/><path class="cls-23" d="M1006.08,385.43c2.31,6.56,4.29,13.23,6,20a202.39,202.39,0,0,1,4.22,20.41c.53,3.44.9,6.9,1.15,10.37a80.82,80.82,0,0,1,.13,10.44A51.61,51.61,0,0,1,1016.1,457a26.09,26.09,0,0,1-4.5,9.43.26.26,0,0,1-.35,0,.25.25,0,0,1,0-.34h0a.35.35,0,0,1,.36-.11.64.64,0,0,1,.2.08,1.64,1.64,0,0,1,.25.19,5,5,0,0,1,.4.39c.26.27.49.55.72.83.46.56.9,1.14,1.33,1.72q1.29,1.74,2.52,3.52,2.46,3.56,4.81,7.19c.78,1.22,1.56,2.39,2.3,3.7.58,1.33,1.15,2.65,1.64,4a56,56,0,0,1,2.37,8.35,47,47,0,0,1,.23,17.3,41,41,0,0,1-2.48,8.34l-.9,2-1,1.94-1.87,3.88a103.37,103.37,0,0,0-6.24,16,43.88,43.88,0,0,0-1.65,17,54,54,0,0,0,5.32,16.28,56.34,56.34,0,0,0,9.62,14.23l0,.05a60.33,60.33,0,0,1-15.43-30.48,44.37,44.37,0,0,1,1.5-17.23,98.83,98.83,0,0,1,6.26-16.15l1.87-3.89.95-1.94.88-2a41.67,41.67,0,0,0,2.46-8.18,46.33,46.33,0,0,0-.15-17.05,56.28,56.28,0,0,0-2.29-8.27c-.48-1.35-1-2.67-1.62-4s-1.48-2.44-2.24-3.64c-1.56-2.42-3.14-4.82-4.77-7.19-.82-1.19-1.64-2.37-2.49-3.52-.43-.58-.86-1.15-1.31-1.7-.23-.28-.46-.55-.7-.81a4.08,4.08,0,0,0-.36-.36l-.18-.14c-.07-.06-.09,0,.07-.08l-.38-.31a25.8,25.8,0,0,0,4.45-9.24,52,52,0,0,0,1.54-10.24,83.77,83.77,0,0,0-.08-10.39c-.23-3.46-.59-6.92-1.1-10.35a203.25,203.25,0,0,0-4.1-20.42c-1.71-6.73-3.65-13.41-5.92-20Z" transform="translate(-660.88 -338.22)"/><path class="cls-40" d="M955.53,469.21s3.56-11.52,19.71-9.25c0,0,30.06,1.09,35.25,14.53v7.09h5.92s-1.48-5.46,5-5.46v-6.46s-21.92-7.83-32-9.7c0,0-23.69-5.41-33.92.64L953,463.25Z" transform="translate(-660.88 -338.22)"/><path class="cls-46" d="M817.67,636.58s-2.17,4.57,1.65,7.43c0,0,3.75,5.52,8.46,5.52,0,0,3.68-1.72-1.15-6.48,0,0-6-1.66-1.58-8,0,0,18.94,3.68,29.42,15.74l23.93,14.92L863.65,640l-36-15.93-5.23,5.27-3.75,3.49Z" transform="translate(-660.88 -338.22)"/><path class="cls-23" d="M1002.59,471.13a46,46,0,0,1,7.46,12.91,53.79,53.79,0,0,1,3.47,14.53,55.84,55.84,0,0,1-.69,14.94c-.8,4.93-2,9.78-3.11,14.63s-2.23,9.71-2.87,14.63a73.33,73.33,0,0,0-.65,7.41c-.1,2.48-.17,5-.15,7.45a76.48,76.48,0,0,0,1.25,14.81,41.29,41.29,0,0,0,5.24,13.85l-.06.05a38.38,38.38,0,0,1-3.51-6.61,47.49,47.49,0,0,1-2.14-7.19,77,77,0,0,1-1.53-14.9c0-2.5.05-5,.16-7.49a72.11,72.11,0,0,1,.65-7.48c.7-5,1.86-9.82,3-14.66s2.38-9.68,3.21-14.58a55.87,55.87,0,0,0,.8-14.83,53.81,53.81,0,0,0-3.31-14.48,45.93,45.93,0,0,0-7.3-12.94Z" transform="translate(-660.88 -338.22)"/><polygon class="cls-47" points="463.68 553.12 471.89 600.46 495.56 600.46 486.39 559.11 463.68 553.12"/><path class="cls-41" d="M955.53,469.21c0,8.14-.15,15.92,2.73,23.74a26.32,26.32,0,0,0,8,11.73c5.49,4.34,12.83,5.86,19.7,5.9,7.08.05,14.37-1.24,19.09-7,4.95-6.05,6.17-14.43,6.3-22l1.13-6.25s-2.57-2.06-2.37-3.69-7.06-7.05-7.06-7.05l-11.6-3.35-16.1-2.36-10.46.39L960,461.15l-4.45,3.44Z" transform="translate(-660.88 -338.22)"/><path class="cls-20" d="M834.72,610.18s-9.42,7.11-12,17.52c0,0-7.13,2.28-5.09,8.88,0,0,.62-4.57,9-8.12l11.63-7.62L836,610.65Z" transform="translate(-660.88 -338.22)"/><path class="cls-23" d="M998,373.36c2.25,6.16,4.14,12.44,5.8,18.78a185.91,185.91,0,0,1,3.95,19.27c.47,3.25.84,6.52,1.08,9.8a95.36,95.36,0,0,1,.13,9.86,58.56,58.56,0,0,1-1.26,9.78,37.53,37.53,0,0,1-3.27,9.28l-.07,0a42,42,0,0,0,2.83-9.35,62.1,62.1,0,0,0,1-9.72,118.26,118.26,0,0,0-1-19.53,188.77,188.77,0,0,0-3.72-19.27c-1.56-6.35-3.36-12.66-5.51-18.85Z" transform="translate(-660.88 -338.22)"/><path class="cls-23" d="M999.73,607.62c3-4.51,4.21-9.92,4.53-15.25a68.29,68.29,0,0,0-1.2-16c-.48-2.64-1.09-5.25-1.76-7.85s-1.4-5.19-2.21-7.74c-1.56-5.14-3.38-10.2-5.37-15.2l.06,0a116.55,116.55,0,0,1,6,15,111.57,111.57,0,0,1,3.84,15.72,68.73,68.73,0,0,1,1,16.14c-.41,5.36-1.76,10.79-4.84,15.26Z" transform="translate(-660.88 -338.22)"/><path class="cls-23" d="M984.06,566.82a80.92,80.92,0,0,0-3.69,10.84,66,66,0,0,0-2,11.23,38.22,38.22,0,0,0,.63,11.3,20.3,20.3,0,0,0,5.1,10l0,.06a18.36,18.36,0,0,1-5.78-9.85,33.88,33.88,0,0,1-.5-11.53A66.43,66.43,0,0,1,980,577.56a82.4,82.4,0,0,1,4-10.78Z" transform="translate(-660.88 -338.22)"/><path class="cls-48" d="M834.72,610.18s15.16,5.11,27.29,13.9c0,0,22.84,14,22.46,20.62,0,0,14.63,1.53,17.82,8.64,0,0,31.79,8.63,34.29,14.72,0,0-34.53-7.11-49.1,5.08l-29.19-23.87s-22.44-21.83-31.66-20.81A39.9,39.9,0,0,1,834.72,610.18Z" transform="translate(-660.88 -338.22)"/><path class="cls-49" d="M895.3,908.85l-43.15,11.81,0,3.81s43.58-10.67,45.49-11.81c0,0,15.91,5.33-45.49,16.37,0,0-20.27,5.87-22.9-1.41,0,0-9.49-27.17,23.34-27.16l35.12-8.75S896.58,903.9,895.3,908.85Z" transform="translate(-660.88 -338.22)"/><path class="cls-50" d="M879,663.11s-6-12.19,6.74-12.31c0,0,14.64,7.36,1.91,15.86l-4.84-9.39Z" transform="translate(-660.88 -338.22)"/><path class="cls-51" d="M1034.81,738.63l19-7.1,35.39,41.63,21.89,13.36s13.23,30.3-24.44,17.61l-27.62-31Z" transform="translate(-660.88 -338.22)"/><path class="cls-52" d="M819.87,833.39s5.12-36.1,28.31-14.4l1.87-10.1s-2.47-2.76-4.86,3c0,0-19.63-10.91-25.87,14.47,0,0-.89,5.46-2.67,0a1.48,1.48,0,0,0-2.41.26l1.43,3.73s-1.06,2.11.21,2.36S819.87,833.39,819.87,833.39Z" transform="translate(-660.88 -338.22)"/><path class="cls-53" d="M1057.56,615.26s57.27,17.13,75.21,42.65l6.87,5.33,1.34,3.61s25.77,40.56,23.1,58.08c0,0,5.72,18.65,10.31,26.27,0,0,16.41,30.19,11.83,48.23,0,0,4.2,54.59-.76,70.58,0,0-3.44,57.75-7.64,68.67h-21.38s-5.15-16.69-15.65-23.93c0,0-13.36-20.37-16.23-23.42,0,0-1.91-10.09-5.92-16.94,0,0,3.25-16.57-2.29-21.71,0,0,12.79-27.6-4.2-32.56l4.2-14.08s-3-6-6.87-6.61c0,0-11.45-.63-18.32-15.48,0,0-13-21.33-29.4-24.75,0,0-26.35-33.89,17.18-15.23,0,0,16,5.71,15.65,29.7l7.26,5.33s1.52-21.33,5-22.85c0,0,12.08-2.28,14.06,6.86,0,0-5.28-20.57-16.35-26.28,0,0-14.89-41.51-8.4-50.26,0,0,6.52-21.24-28.25-31.61Z" transform="translate(-660.88 -338.22)"/><path class="cls-54" d="M818.43,836.12s2.61,6.47,6.62,8.19c0,0,14.27-.14,16.26,1.59h2.26l-1.06,7s-3.72.39-9.25-2.46A22.75,22.75,0,0,0,823,847.73s-1.34,1.34.95,2.67c0,0,6.75,7.23,7.1,14.09,0,0,.16,17.32,2.06,10.66,0,0,2.69-18,8.51-15.46l-.35,2.81s-5.48.85-6.44,16.27l5.66-8.17-.3,7s-8.22,9.72-6.88,18.85c0,0-.89,2.86-2.26-1.9s1.3-11.61-.8-15.8c0,0,1.08-13.71-3.85-19l-8.56-13.9s-9-.76-10.51-2.86l-.12-3.44s2.42,4.78,10.06,3.44l-1.84-8.76Z" transform="translate(-660.88 -338.22)"/><path class="cls-55" d="M831.16,790.17s-2-10.66,2.8-1.27l2.8,7.62s2.29,8.1-1.79,2.91Z" transform="translate(-660.88 -338.22)"/><path class="cls-52" d="M841.56,827.09s-1.51,15.62,2.82,13.72l-.81,5.09h-2.26V842s-2.67-1.77-3.29-8.57c0,0-2.41-12.44,1.72-9.23Z" transform="translate(-660.88 -338.22)"/><path class="cls-56" d="M822.76,834.85s10.43,5.84,13.49-3.81c0,0,2.54-4.82,4.83-9.65,0,0,1.54-6.64,4.11-3.36,0,0-9.64,31.23-22.82,20.56l-12.31-7.71s-5.73-5.42,0-5.52C810.06,825.36,818.1,833.26,822.76,834.85Z" transform="translate(-660.88 -338.22)"/><path class="cls-54" d="M859.41,831.74s4.77,15.42,6.49,22.47c0,0,4,.95,5.73,3.42,0,0,27.87-.19,15.08,5.33a25.29,25.29,0,0,1-15.08-1.9s-4.78-1.14-2.68,3.43l5.79,21.13s3.57,13.52-2.16,4.57c0,0-7.58-20.33-7.64-30.08,0,0-6.68-3.43-6.68-.76a38.5,38.5,0,0,0,2.29,6.47s1.53,5.9-1.71,1.71l-4.43-11.84.52-6.81s2.57-1.91,6.2,4c0,0,1.33-2.09-1.15-9.52A19.21,19.21,0,0,1,859.41,831.74Z" transform="translate(-660.88 -338.22)"/><path class="cls-57" d="M879,663.11S867.55,712,865,732.29l-12.73,65s-12.22,61.69-12,77.17c0,0-3.31,55.85-1.53,64.23H852s.32-85.55,5.16-106.37c0,0,13.49-66.51,15.78-68.8,0,0,14.76-88.6,14.76-96.85l-4.84-9.39Z" transform="translate(-660.88 -338.22)"/><path class="cls-58" d="M953,671.11s.51,5.07,9.82,6.09v-3.46A11.31,11.31,0,0,1,953,671.11Z" transform="translate(-660.88 -338.22)"/><path class="cls-59" d="M999.16,722.73s-14.27,75.19,25.44,62.3c0,0,39.7-9.84,48.36-8.06a24.56,24.56,0,0,0-13.88-13s-16.07-13.45-8.48-22.46l-50.31-23.69Z" transform="translate(-660.88 -338.22)"/><path class="cls-60" d="M1036.3,871.74s47.86,7.43,70.25-6l-5.6,25.56s7.89-7.61,17.69-16.94c0,0-1.9,19.61-21.25,44l-11.15-6.88-20.63,16.92Z" transform="translate(-660.88 -338.22)"/><path class="cls-31" d="M918.58,466.66a63,63,0,0,1-8.34,2.38,56.55,56.55,0,0,1-8.59,1.2,34.07,34.07,0,0,1-8.67-.51,19.86,19.86,0,0,1-7.93-3.42l0,0a20.82,20.82,0,0,0,8,3.19,28.09,28.09,0,0,0,4.29.53,36.61,36.61,0,0,0,4.32,0,55.22,55.22,0,0,0,8.58-1.12,63.21,63.21,0,0,0,8.35-2.28Z" transform="translate(-660.88 -338.22)"/></svg>