<svg id="Capa_1" data-name="Capa 1" xmlns="http://www.w3.org/2000/svg" viewBox="0 0 773.32 135.87"><defs><style>.cls-1{opacity:0.5;}.cls-2{fill:#fff;}</style></defs><g class="cls-1"><path class="cls-2" d="M185.07,473.54a16.33,16.33,0,0,1-.19,3.57,19.69,19.69,0,0,1-.64,3.66,21.59,21.59,0,0,0-.82,3.29,29.2,29.2,0,0,0-.64,3.38c-.09,1.1-.28,2.2-.46,3.57s-.36,2.38-.55,3.39c-.73,3.48-1.28,7.23-1.83,11.44-.18,1.64-.45,3-.64,4.11a5.12,5.12,0,0,1-.46,1.83,3.19,3.19,0,0,0-.27,1.28,27.2,27.2,0,0,0-.09,2.84c-.09,1,0,2,0,2.93a7,7,0,0,0,.27,1.64c.28.46.55.55.64.37a6.78,6.78,0,0,0,.55-2.2c.19-.82.37-1.92.64-3.29s.55-2.56.83-3.75c1-4.57,2-9.7,3-15.46s1.73-10.16,2-13.18a38.77,38.77,0,0,1,.46-4,15.35,15.35,0,0,1,.54-1.92c.64-.46,1.1-.09,1.47,1.1a17.08,17.08,0,0,1,.18,5c-.09,1.19-.18,2.83-.27,4.85s-.19,3.75-.28,5.58a47.27,47.27,0,0,1-.36,5.12c-.19,1.74-.37,3.11-.55,3.94a44.12,44.12,0,0,0-1,5.21c-.18,1.83-.27,3.38-.27,4.67s.18,1.83.55,1.64c.45-.46.54.46.27,2.75-.46,3-.73,5.39-.91,7a9.36,9.36,0,0,0,.36,3.84,5.62,5.62,0,0,0,1.56,2.47,89.87,89.87,0,0,0,8,7.5c3.75,3.3,7.5,6.32,11.16,9.06a25.65,25.65,0,0,0,3.48,2.47c.82.55,1.37.82,1.64.73s.55-.18.73-.64a7.55,7.55,0,0,0,.19-1.64,9.9,9.9,0,0,0-.28-1.83,35.56,35.56,0,0,1-.91-6c-.37-3-.64-6.32-.92-9.79-.09-.64-.18-2-.36-4.12s-.46-4.21-.64-6.68-.46-5-.55-7.5a37.35,37.35,0,0,1-.09-5.58l.18-4.3,3.2-1.28a22.36,22.36,0,0,1,6.5-1.1,16.84,16.84,0,0,1,6,.83c2.2,1.09,2.84,3.38,1.83,7-.82,2.47-1.19,10.16-.91,22.87.09,2.29.09,4.21.09,5.77a16.7,16.7,0,0,1-.09,2.74,6.71,6.71,0,0,0,.09,1.19,7.73,7.73,0,0,0,.28,1.92c.09.64.27,1.92.36,3.57s.37,3.57.46,5.49.36,3.47.55,4.85a7.24,7.24,0,0,0,.64,2.47,4.44,4.44,0,0,0,1.37.73c.64.27,1.46.55,2.29.82a22.39,22.39,0,0,1,2.65,1.1,16.48,16.48,0,0,1,2.29,1.28,11.07,11.07,0,0,0,2.1,1.19,5.78,5.78,0,0,0,2,.37,9.16,9.16,0,0,1,1.65.18c.46.09.73.18.82.36a5.57,5.57,0,0,0,2.48,1.1,41.46,41.46,0,0,0,4.48,1,26.88,26.88,0,0,0,4.39.46l3.66.09-2.93.82a37.86,37.86,0,0,1-9,1.37,69.49,69.49,0,0,1-10.8,0,34.5,34.5,0,0,0-4.12-.18,4.42,4.42,0,0,0-2.1.28,1.69,1.69,0,0,0-.37.91,3.84,3.84,0,0,0,.19,1.46c.09.56.18,1.1.27,1.74a9.61,9.61,0,0,1,.09,1.56,3.44,3.44,0,0,0,.09,1,1.35,1.35,0,0,0,.37.65c.37.18.73,1,1.1,2.46a36.72,36.72,0,0,1,1.1,4.86,25.08,25.08,0,0,1,.36,3.93c-.09.64-.18,1.37-.27,2.29s-.28,1.73-.46,2.56a6.85,6.85,0,0,0,.09,3,21,21,0,0,0,1.74,3.93,29.09,29.09,0,0,1,1.46,3.11c.37.92.55,1.46.46,1.56s-.18.45-.09.82a3.53,3.53,0,0,0,.36,1.19,3,3,0,0,1,.28,1.19c.09.27.09.45,0,.45a.5.5,0,0,1-.37-.27,2,2,0,0,1-.45-.73,6.66,6.66,0,0,0-1.29-1.83,16.21,16.21,0,0,0-2-1.65,3.41,3.41,0,0,0-1.64-.64,1,1,0,0,1-.74,0,.69.69,0,0,1-.45-.18c-.28-.46-.1.36.64,2.28.09.37,0,.37-.28.1a7.26,7.26,0,0,1-1.19-1.37,12.39,12.39,0,0,1-1.28-1.93,3.05,3.05,0,0,1-.55-1.19c.09-.36.28-.36.73.19.65.82,1,.82,1,.27a6,6,0,0,0-.64-2.93,109.78,109.78,0,0,1-6-16.37c-.73-2.2-1.19-3.94-1.46-5.12a16.06,16.06,0,0,1-.64-3.21c-.09-.91-.18-2-.28-3.47a9.4,9.4,0,0,0-.36-2.84,2.8,2.8,0,0,0-.64-1.46c-.37-.19-.55-.1-.64.27a9.67,9.67,0,0,0,0,2.38c.09.91.18,1.65.27,2.38a3.57,3.57,0,0,0,.37,1.28,7.58,7.58,0,0,1,.36,1.74c.09,1,.19,2.1.28,3.38a34.7,34.7,0,0,0,.36,3.48,5.19,5.19,0,0,0,.74,1.83,2.46,2.46,0,0,1,.64.91,2.51,2.51,0,0,1,.27,1.1,3.65,3.65,0,0,0,.18,1.38,6.13,6.13,0,0,0,.46,1.46c.64,1.55,1.1,2.65,1.37,3.29a3.18,3.18,0,0,1,.19,1.47,3,3,0,0,0,.27.91,5.39,5.39,0,0,0,.73,1.46,7.89,7.89,0,0,1,.64,1.38c.09.36.09.64,0,.64s-.18.18,0,.45.37.46.73.82a3.81,3.81,0,0,1,.83.92.76.76,0,0,1,.09.74c-.64.54-1.65-.83-3.11-4a105.69,105.69,0,0,1-4.48-12.35A128.62,128.62,0,0,1,216,568.23a16,16,0,0,0-1-3.84,5.91,5.91,0,0,0-2.56-2.38,58.08,58.08,0,0,0-6-2.84,45.91,45.91,0,0,1-5.21-2.65,52.41,52.41,0,0,1-5.4-3.66,38.47,38.47,0,0,0-3.29-2.2,26.13,26.13,0,0,0-2.57-1.37c-.64-.27-1.28-.64-2.1-1s-1.37-.83-1.92-1.2l-1.1-.36-.36,1.74a25.39,25.39,0,0,1-.28,5.12c-.27,2-.55,3.84-.91,5.77s-.55,3.38-.64,4.66c-.19,1.74-.64,4.12-1.19,7.14s-1.1,5.67-1.65,8.23a45.4,45.4,0,0,1-1.19,4.58c-.09.18-.37.27-.82.45a7.45,7.45,0,0,1-1.38.46c-.54.18-.91.27-1.28.37a3.3,3.3,0,0,0-1.28.54,1.61,1.61,0,0,0-.82.65,3.25,3.25,0,0,1-2.29,1.1,12.64,12.64,0,0,1-3.75.17.8.8,0,0,1-.46-.17c-.09-.1-.18-.28-.27-.37a1.18,1.18,0,0,0-.27-.37c-.1-.18-.28-.18-.46-.27a.29.29,0,0,0-.37,0,.54.54,0,0,0-.36.09c-.28.09-.55.09-.92.18a4.55,4.55,0,0,1-1.37-.27,2.34,2.34,0,0,1-1-.82,4.9,4.9,0,0,1-.27-1.83,34.71,34.71,0,0,1,.27-3.66c.19-1.65.55-3.85.92-6.5a5.62,5.62,0,0,1,.18-.82c0-.19.09-.28.18-.28H163a.41.41,0,0,0,.45,0c.1,0,.28-.18.46-.37a6.73,6.73,0,0,0,.37-1.37,34.65,34.65,0,0,0,.73-4.57c.18-1.56.37-2.84.37-3.75a4.83,4.83,0,0,0,.09-.92,13,13,0,0,1,.09-2.74,17.22,17.22,0,0,1,.46-2.2,37.76,37.76,0,0,0,1.19-7.13c.45-3.11.82-6,1.28-8.51s.73-4.21.82-4.76c.37-1.28-1.74-3.66-6.31-7.23-1.65-1.28-3.3-2.47-4.76-3.47a18.07,18.07,0,0,0-3.11-2c-2.2-.91-2.38-2.1-.64-3.38s5.12-2.56,10.25-3.75a11.5,11.5,0,0,1,4.11-1.1,8.56,8.56,0,0,1,2.75.37,3.3,3.3,0,0,0,1,.18l1.47-7.23c.64-2.83,1-5,1.19-6.4a22.08,22.08,0,0,0,.18-3.2c0-.83.09-1.83.18-3.12.19-1,.37-2.1.64-3.38s.55-2.29.83-3.2.55-1.83.82-2.93a23.2,23.2,0,0,0,.55-2.93c.18-.73.36-1.46.55-2.1a3.09,3.09,0,0,1,.73-1.28c.18-.18.37.18.37,1a29.46,29.46,0,0,1-.28,3.48,46.37,46.37,0,0,1-.73,4.66,3.5,3.5,0,0,0-.18,1.2c0,.18.09.27.27.09.37-.19,1.56-4.58,3.66-13.18.37-1.28.64-2.47,1-3.38a6.88,6.88,0,0,1,.64-1.83c.09-.1.09-.1.18-.1S185.07,472.53,185.07,473.54Zm-10.43,39.15a2.08,2.08,0,0,0,.09.83c.09.09.18.18.27,0a.75.75,0,0,0,.19-.64,1,1,0,0,0-.1-.73c-.09-.28-.18-.37-.27-.28A1.33,1.33,0,0,0,174.64,512.69Zm1.46-7c0,.92.18,1.19.37.82a3.83,3.83,0,0,0,.18-1,2.82,2.82,0,0,0-.18-.83.27.27,0,0,0-.1-.17C176.19,504.55,176.1,504.92,176.1,505.65Zm.82-4.75a3.1,3.1,0,0,0-.36,1.09,1.91,1.91,0,0,0-.09,1c0,.27.09.37.27.37s.27-.28.46-.56a3.16,3.16,0,0,0,.46-1.09,4.62,4.62,0,0,0,.09-1c0-.27-.09-.36-.28-.36S177.11,500.53,176.92,500.9Zm.64-2.75c0,1,.1,1.28.37.83a2.84,2.84,0,0,0,.18-.92,2.16,2.16,0,0,0-.18-.82c-.09-.19-.09-.19-.18-.19S177.56,497.42,177.56,498.15Zm1.28-5.95a4.67,4.67,0,0,0-.45,1.19,2.65,2.65,0,0,0-.19,1.1c0,.46,0,.64.1.64s.27-.27.54-.82a12.22,12.22,0,0,0,.55-1.19,6,6,0,0,0,.19-1.1c0-.46-.09-.73-.09-.64S179.21,491.66,178.84,492.2Zm36,51.33c.18,2.19.37,3.93.46,5a17.29,17.29,0,0,0,.36,2.29,6.42,6.42,0,0,0,.55,1.09c.37.46.55.64.73.46a5.19,5.19,0,0,0,0-1.83c-.09-1.09-.27-2.74-.55-5-.64-4.76-1.09-7-1.55-7.14C214.52,538.5,214.52,540.14,214.8,543.53Z" transform="translate(-153.34 -472.07)"/><path class="cls-2" d="M302.9,499.52c.09-.09.28-.09.55,0a1.66,1.66,0,0,1,.82.28,4.72,4.72,0,0,1,1.19,1.18h.09a9,9,0,0,0,.83,1,5.91,5.91,0,0,0,.91,1.1,7.35,7.35,0,0,0,1.19,1.19c.73.64,1.47,1.37,2.2,2.1a11.05,11.05,0,0,1,1.74,2.2,20.3,20.3,0,0,0,1.28,1.83,6,6,0,0,0,1.28,1.37,4.54,4.54,0,0,1,.82,1.1,3,3,0,0,1,.46,1,1.22,1.22,0,0,0,.27.73,2.51,2.51,0,0,0,.73.55,1.87,1.87,0,0,1,.74.55,1.74,1.74,0,0,1,.27.91,2.78,2.78,0,0,0,.18.92c.19.18.28.27.46.27a.51.51,0,0,1,.46.19c.09.08.18.17.18.27s0,.64.28,1.46.55,1.74.91,2.84a28.46,28.46,0,0,1,1.28,6.95,28,28,0,0,1-.09,6.86,49.43,49.43,0,0,0-.73,5.21,21.34,21.34,0,0,0-.28,3.66,34.09,34.09,0,0,1-1.09,7.69,73.32,73.32,0,0,1-3.57,11.8A64.86,64.86,0,0,1,307.75,579c-.55.83-1.1,1.56-1.56,2.2a30.71,30.71,0,0,1-3.38,4c-1.46,1.46-3.93,3.66-7.41,6.77l-1.1.82a5.34,5.34,0,0,1-.73.36,6.69,6.69,0,0,0-1.28.56c-.64.36-1.47.91-2.38,1.46a18.28,18.28,0,0,1-7.32,2.47,18.85,18.85,0,0,1-7.59-.64,7.39,7.39,0,0,1-3.48-2c-.73-.91-.64-1.64.37-2.37a2.4,2.4,0,0,0,.82-.64c.09-.28.09-.37-.09-.37-.46.28-3.11-2.11-7.87-7-.82-.73-1.46-1.38-2-1.83a4.29,4.29,0,0,0-1-.73c-.09,0-.27.27-.46.73a7.43,7.43,0,0,0-.64,1.83,7.26,7.26,0,0,1-.73,1.73,2.17,2.17,0,0,1-.82.83.77.77,0,0,1-.82-.46,1.7,1.7,0,0,1,0-1,1.74,1.74,0,0,1,.82-.83,1.78,1.78,0,0,0,.82-.83,1.5,1.5,0,0,0,.09-.91.61.61,0,0,0-.64-.46.49.49,0,0,1-.45-.27,1.88,1.88,0,0,1-.1-.82,17.49,17.49,0,0,0-.18-3.2c-.18-.83-.46-1.29-.73-1.38a.94.94,0,0,0-.46.37,2.72,2.72,0,0,0-.18.91,4.8,4.8,0,0,1-.18,1,3.5,3.5,0,0,1-.55.82c-.37.28-.55.28-.64-.18a15.32,15.32,0,0,1-.09-2.47,10.62,10.62,0,0,0-1.29-6.13,18.31,18.31,0,0,0-1.83-2.93c-.64-.64-1.18-1.19-1.73-1.64a9,9,0,0,1-1-.83c-.37-.36-.73-.82-1.19-1.37a19.71,19.71,0,0,1-1.1-1.83l-1.09-1.65a5.21,5.21,0,0,0-.92-1,24.59,24.59,0,0,1-1.83-2c-.73-1.1-1.46-2.1-2.2-3.1a9.08,9.08,0,0,1-1.09-2c-.09-.37.55-.73,1.74-1a50.64,50.64,0,0,1,6.4-.91,14.48,14.48,0,0,0,5.21-1.46,2.41,2.41,0,0,1,1.56-.37c.46.46.82.46,1.1-.09a12.07,12.07,0,0,0,.36-3.57c.09-1.83.09-4.67,0-8.42-.18-5.67-.36-10.24-.73-13.81a98.88,98.88,0,0,0-1.83-11.44c-.82-4.11-1.74-6.86-2.65-8.05a7.19,7.19,0,0,1-.83-1.28,2.25,2.25,0,0,1-.36-1c.09-.92,1.1-1.38,3-1.47a28.88,28.88,0,0,1,6.86.91,26,26,0,0,1,7,2.75,8.08,8.08,0,0,1,.55,2c.37,1.29.73,2.84,1.1,4.67a46.61,46.61,0,0,1,1.28,7.32q.42,3.71.55,9.33c.09,3.2.18,6,.09,8.6s-.27,5.58-.55,9.06-.73,8.23-1.37,14.18c-.27,2.93-.46,5.3-.55,7.22a14,14,0,0,0,.09,3.3,4.57,4.57,0,0,1,.74,1.28l.82,2.2a19.14,19.14,0,0,0,1.1,2.56,10.18,10.18,0,0,0,1.37,2.1c.36.55.82,1.28,1.37,2.1a21.21,21.21,0,0,1,1.37,2.29c.37.73.74,1.37,1,1.93a14.57,14.57,0,0,0,1,1.55c.91,1.28,1.09,1.92.55,2.11s-.83.54-.65.91.46.46,1.1.46a6.09,6.09,0,0,0,2.47-1.29c1.1-.82,2.38-1.83,3.75-3a33.18,33.18,0,0,0,3.75-3.48,41.78,41.78,0,0,1,2.93-3.11c1.28-1.37,2.47-2.56,3.57-3.75a8.78,8.78,0,0,0,2-2.75c.09-.18.28-.45.46-.82s.55-.82.73-1.19a8.73,8.73,0,0,0,.64-.83c.19-.27.46-.73.92-1.55s.91-1.55,1.37-2.47a24.19,24.19,0,0,0,1.1-2.29,15.46,15.46,0,0,1,1.19-3c.36-.83.73-1.65,1-2.39.46-1.55.74-2.83,1-3.83s.37-1.74.55-1.74.18.09.27.18a.7.7,0,0,1,.19.46,1.52,1.52,0,0,1,0,.64c-.46.91-.19,1,.64.27a7.9,7.9,0,0,0,1.37-3,50.21,50.21,0,0,0,1.19-5.67,30.79,30.79,0,0,0,.36-5c0-1.19.1-2.29.19-3.39.09-2.47-.37-2.29-1.28.64v2a1.27,1.27,0,0,1-.1.64,16.76,16.76,0,0,0-.45,3.38l-.28,2.29a30.48,30.48,0,0,1-1.09,4.39c-.37,1-.55,1.46-.74,1.19a5.39,5.39,0,0,1-.09-1.47,12.28,12.28,0,0,1,.46-2.46A55.47,55.47,0,0,0,308.12,535a88.21,88.21,0,0,0-.37-11.35c-.18-1.83-.37-3.56-.55-5.12s-.36-2.65-.46-3.2c-.27-.91-.36-1.37-.27-1.46s.37.18.82.73a5.92,5.92,0,0,1,.64,1.1c.09.27.19.54.09.63-.18.37,0,.46.46.46s.55.46.28,1.37a1.7,1.7,0,0,0,.55,1.93c.64.36.73.73.09.91s-.55.82-.09,1.83a9.17,9.17,0,0,1,.36,2.29,22.45,22.45,0,0,1,0,3.48c-.09,2.93,0,4.2.46,3.66a5.22,5.22,0,0,0,.82-2.56,28.84,28.84,0,0,0,.46-4.22,18.66,18.66,0,0,0-.28-3.66c-.18-.63-.27-1.46-.45-2.37s-.37-1.83-.46-2.66a19.3,19.3,0,0,0-1.65-5.94,52.09,52.09,0,0,0-5-7.6c-1-1.28-1.55-2.1-1.92-2.65s-.37-.91-.18-1a1.8,1.8,0,0,1,.82-.09h.64Zm-46.47,85.36a4.92,4.92,0,0,1,.09,1.19,1.15,1.15,0,0,1-.37.82c-.36.37-.55-.09-.64-1.37s0-1.83.18-2S256.06,583.88,256.43,584.88Zm3.66-49.77c0,.55,0,1.74-.1,3.66s-.18,3.93-.27,6.32c-.18,3.1-.18,5.39-.18,6.76a6.2,6.2,0,0,0,.64,2.93c.55.92,1,1.19,1.28.82a30,30,0,0,0,.27-3.56c.09-2,.09-4.39.09-7s0-5-.09-7.13a32.58,32.58,0,0,0-.27-3.66c-.28-.55-.55-.83-.73-.83C260.27,533.37,260,533.92,260.09,535.11Zm3.11,14.46a17,17,0,0,0-.37,2.74c-.46,5.76-.18,7,.64,3.39a22.85,22.85,0,0,0,.73-5c.09-1.46-.09-2.19-.46-2.19C263.56,548.47,263.38,548.83,263.2,549.57Zm.18-3.94a5.76,5.76,0,0,0-.09,1.19c.09.37.18.64.36.73s.28-.09.37-.36a4.27,4.27,0,0,0,.18-1.28c-.09-1.19-.18-1.74-.36-1.83S263.56,544.53,263.38,545.63Zm.73,14.37a.69.69,0,0,0-.18.46,1,1,0,0,0,.18.45,1.32,1.32,0,0,0,.55.18c.18,0,.27-.09.46-.27a.7.7,0,0,0,.09-.46A.36.36,0,0,0,265,560c-.1-.19-.28-.19-.46-.19A.67.67,0,0,0,264.11,560Zm31.75,25.88a13,13,0,0,0-1.1,1.2,3.25,3.25,0,0,0-.64,1.28c-.09.45.18.36.91-.28.28-.37.64-.64.92-1s.64-.46.82-.64a1,1,0,0,0,.37-.46,1.16,1.16,0,0,0-.09-.55.36.36,0,0,0-.19-.09A5.77,5.77,0,0,0,295.86,585.88Zm10-9.42c-.28.37-.64.83-1,1.37s-1,1.38-1.46,2.11-1.1,1.28-1.56,1.83a10.3,10.3,0,0,0-1,.91,8.94,8.94,0,0,0-1.83,2.11,2.78,2.78,0,0,0-.46,1c-.09.19-.09.28,0,.37A1.66,1.66,0,0,0,299,586a2,2,0,0,1,.45-.37l.46-.46.19-.18,2.74-2.65a15.57,15.57,0,0,0,2.2-2.93,9.44,9.44,0,0,0,1.09-2.47,6.9,6.9,0,0,0,.37-1,.09.09,0,0,0-.09-.09A5.53,5.53,0,0,0,305.83,576.46Zm-5.31-77.94c.28.09.37.27.55.46s0,.36-.64.17a1.9,1.9,0,0,1-1-.54c-.09-.19.1-.28.55-.28A1.17,1.17,0,0,1,300.52,498.52Zm1.74,5.85c.28.37.55.83.92,1.37l1.18,2L303,506.29a12.13,12.13,0,0,1-1.28-1.82c-.27-.46-.27-.65,0-.74C301.8,503.73,302,504,302.26,504.37Zm.18,72.55c-.36.55-.36.73.1.64a1.88,1.88,0,0,0,.54-.36c.1-.1.28-.28.28-.46.18-.46.09-.64-.09-.64A2.11,2.11,0,0,0,302.44,576.92Zm2.75-68.62a.82.82,0,0,1,.27.56,5.39,5.39,0,0,0,.19,1c.09.46.18.92.27,1.28.27,1,.18,1.28-.18,1a7.27,7.27,0,0,1-.83-1.46c-.18-.65-.36-1.2-.45-1.74s.09-.83.27-.83A.72.72,0,0,1,305.19,508.3Z" transform="translate(-153.34 -472.07)"/><path class="cls-2" d="M340,491.1a14.39,14.39,0,0,1,3.21,1.29,6.41,6.41,0,0,1,1.74,2,4.41,4.41,0,0,0,1.09,1.37c.28.28.46.37.55.18.46-.27.73-.27.83,0a3.39,3.39,0,0,1-.1,1.29,27.9,27.9,0,0,0-.18,5.21h7.05c4.66,0,10.15.09,16.65.27s12.9.46,19.3.74,11.53.64,15.64.91,6.13.55,5.95.73a19.62,19.62,0,0,1-4.12.1c-2.47-.1-5.39-.19-8.87-.37-6.31-.36-11.53-.55-15.46-.64s-5.77.18-5.58.45,1.37.28,3.47.46,4.58.28,7.23.37,4.94.09,6.86.09a46.21,46.21,0,0,1,4.76.28c1.74.18,3.29.36,4.67.63s2,.46,1.92.74a4.09,4.09,0,0,1-1.65.18h-3.66c-1.46-.09-2.74-.09-3.84-.09a7.22,7.22,0,0,0-1.92.18.79.79,0,0,1-.64,0A1.78,1.78,0,0,1,394,507c-.64-.65-.91-.65-.91-.1s-1,.64-2.93.37c-.92-.09-2.38-.18-4.3-.18s-4-.09-6.13-.09-3.75.09-4.76.09a5.67,5.67,0,0,0-1.74.27c-.18.18,0,.37.37.64a3.22,3.22,0,0,0,1.37.64,4.65,4.65,0,0,0,1.56.19,4,4,0,0,1,1.1,0c.27.09.45.18.45.36s-.36.27-1.19.37h-3c-3.12-.19-4.12-.46-3.12-.92a1.91,1.91,0,0,0,.64-.55.57.57,0,0,0,.1-.64c-.19-.27-.74-.45-1.65-.55a25,25,0,0,0-2.84-.18,17.18,17.18,0,0,0-2.74.37c-1.37.27-.92.45,1.37.64,1.65.18,2.56.36,2.93.73s-.09.64-1.28.91c-1.83.46-1,1,2.38,1.56,1.92.27,2.74.18,2.56-.18-.18-.19-.18-.37,0-.46s.27-.19.55-.19a1.08,1.08,0,0,1,.64.19.43.43,0,0,1,0,.46c-.64.82,1.55.91,6.68.36a19.21,19.21,0,0,1,3.66-.18,2.46,2.46,0,0,1,1.73.64c.83.82,1.1.82.74-.09-.28-.46-.19-.64.18-.73a11.88,11.88,0,0,1,2.65.45,22.53,22.53,0,0,0,5.4.46,5.38,5.38,0,0,0,3.48-1.1c.27-.18.45-.36.64-.36s.27,0,.27.18a.77.77,0,0,0,.64.64,2.68,2.68,0,0,0,1.19.09,1.2,1.2,0,0,0,1-.45c.09-.19.55-.28,1.19-.37s1.55,0,2.56.09,1.64.28,2.29.37.82.36.73.45,0,.28.18.37a2.72,2.72,0,0,0,.91.18,2.08,2.08,0,0,0,.83-.09c.18-.09.18-.27.09-.46-.18-.36.37-.36,1.74.09.55.28,1.1.37,1.46.55a5.17,5.17,0,0,1,.73.19c.1,0,.1.09.1.18s-.1.28-.19.45a1.36,1.36,0,0,1-.64.37,1.88,1.88,0,0,1-1,.19c-.64,0-1.1.09-1.19.45s.18.65.82,1c.37.18,0,.27-.92.37H410a5,5,0,0,0-.82.09c-1,.09-3.11.18-6.59.27s-6.95.18-10.52.18-6-.09-7.41-.18a3.52,3.52,0,0,0-1,.09.32.32,0,0,0-.36.28c0,.18-.18.27-.46.45a2.83,2.83,0,0,1-1,.19c-.64.09-.91.18-.91.27s.55.46,1.46.92c.55.27,1.28.64,2.11,1a27.64,27.64,0,0,0,2.47,1.28c6.31,3.3,7.59,7,3.66,11.07-.64.73-1.47,1.65-2.47,2.75s-1.92,2.2-2.84,3.2-1.65,1.83-2.38,2.56a5.86,5.86,0,0,1-1.28,1.19,12.42,12.42,0,0,0-1.74,1.37c-1,.83-2.1,1.74-3.29,2.93s-2.38,2-3.39,2.84a5.32,5.32,0,0,1-1.73,1.09.7.7,0,0,0-.46.19c-.18.09-.18.18-.18.37s.18.27.54.36a4,4,0,0,0,1.47,0c.73,0,2-.09,3.84-.09s3.57.09,5.4.27a7.71,7.71,0,0,1,3.66.83,6.23,6.23,0,0,1,1.1,2.38c.36,1.37.82,2.83,1.19,4.3a16.44,16.44,0,0,1,.54,3.2,14.25,14.25,0,0,0,.46,2.56c.28,1.1.64,2.47,1.1,3.84H390a1.79,1.79,0,0,0,.36.73c.09.09.09.28.19.37a28.35,28.35,0,0,0,2.74,5.85c1.56,2.29,2.84,4.31,3.84,6,1.56,2.47,2.84,4.49,4,6a17.73,17.73,0,0,0,4,3.84,22,22,0,0,1,2.38,1.74l1.74,1.74c1,.91,1.83,1.65,2.47,2.11a8.93,8.93,0,0,0,1.65,1c.18.18.27.27.27.37,0,.27.28.63.92,1.19a17,17,0,0,0,2,1.55,4.17,4.17,0,0,0,1.55.73c.19,0,.37.19.65.46a5.92,5.92,0,0,1,.82,1.1l-4.85.18a14,14,0,0,1-2.2-.36c-.64-.1-1.37-.19-2.1-.37-.92-.19-2-.36-3.29-.64a1.75,1.75,0,0,0-.64-.46,6.33,6.33,0,0,1-.83-.92c-.18-.36-.27-.54-.09-.73.18-.36.09-.45-.36-.18a4.62,4.62,0,0,1-2.57-.92,17.32,17.32,0,0,1-3.66-2.74,7.68,7.68,0,0,0-1.09-.73,1,1,0,0,0-.83-.09.68.68,0,0,0-.36.64.81.81,0,0,0,.09.64c.18.18.36.18.64.09a1.63,1.63,0,0,1,.73.37,13.26,13.26,0,0,1,1.19,1.19,6.15,6.15,0,0,1,1.1,1.55c-.46-.27-1-.46-1.47-.73-.18-.09-.27-.19-.45-.27a40.17,40.17,0,0,1-3.57-3,42.38,42.38,0,0,1-4.12-4c-4.39-4.75-6.4-7.87-6-9.42a1.6,1.6,0,0,0,.09-.64,2.81,2.81,0,0,0-.27-.55c-.18-.09-.37-.09-.46.09a2.24,2.24,0,0,0-.27.64c0,.82-.18.91-.37.18a12.25,12.25,0,0,0-.82-1.64,28.86,28.86,0,0,0-1.56-2.66,14.32,14.32,0,0,1-1.46-3,2.65,2.65,0,0,1-.18-1.83c.27-.64.36-1,.27-1.1s-.46.1-1,.56-.92.54-.65.09.19-.73-.27-.73c-.64,0-.55-.19.09-.55a.76.76,0,0,0,.37-.92,12.78,12.78,0,0,0-1.56-1.92.31.31,0,0,0-.09-.18l-.09-.09-2.47-.09V567c-.37-.73-.82-1.74-1.46-2.84a44.67,44.67,0,0,1-2.38-5.21,47.53,47.53,0,0,1-1.83-5c-.46-1.56-.55-2.47-.37-2.84.37-.64-.09-.64-1.46,0-.46.19-.83.37-1.37.55a15,15,0,0,1-1.56.37,2.6,2.6,0,0,1-1,.18.82.82,0,0,0-.45.27,1.47,1.47,0,0,0-.74.55,6.13,6.13,0,0,1-1.19.64,8,8,0,0,1-1.46.46,3,3,0,0,0-1.46.55,3.85,3.85,0,0,0-.64,1.92c-.19.92-.28,2.29-.46,4.21-.46,7.86-1,13.63-1.46,17.2a23.73,23.73,0,0,1-2.11,7.5,4.26,4.26,0,0,0-.36,1.28,6.46,6.46,0,0,0-.19,1.37,7.08,7.08,0,0,1-.73,3.2,2.09,2.09,0,0,1-1.74,1.38.91.91,0,0,0-.91.55,7.31,7.31,0,0,0-.55,2.38,17,17,0,0,1-.37,2.37,7.67,7.67,0,0,1-.36,1.65c-.19.55-.37.82-.46.82s-.46-.18-.82-.64a4.31,4.31,0,0,1-.83-2.46,24.17,24.17,0,0,1,.19-4.95q.54-5.62,1.09-16.19c0-1.74.09-3.11.19-4.3a7.88,7.88,0,0,1,.27-2,13.37,13.37,0,0,0,.18-2c.1-1.18.19-2.56.28-4.2.18-6.32-.37-8.69-1.74-7a4.79,4.79,0,0,0-.64,2.46,63.29,63.29,0,0,1-1,9.15c-.09,1-.27,2.56-.45,4.67s-.19,4.39-.28,6.77a50.86,50.86,0,0,1-.64,8c-.18,1-.37-.36-.46-3.93,0-3.94,0-8.6.19-14.09s.27-10.52.45-14.82a56.73,56.73,0,0,1,.55-7.41,25,25,0,0,0,.09-3.57c0-2.11,0-4.58-.09-7.41s-.09-5.31-.27-7.6-.18-3.75-.28-4.3c-.09-.36-.18-1-.36-1.83s-.28-1.64-.46-2.47a12.12,12.12,0,0,0-.55-2.29.79.79,0,0,0-.91-.36,8.91,8.91,0,0,1-1.92.36c-.92.19-2,.28-3.21.46l-4.2.46-2.57-2.29c-3.38-2.92-5.49-5.94-6.31-9.24-.18-.54-.37-1.19-.55-1.73a2.81,2.81,0,0,0-.55-1.1,1.93,1.93,0,0,1,.28-1.93,3,3,0,0,1,1.19-.73,15.27,15.27,0,0,1,2.65-.18c1.28,0,3.2,0,5.76.09s4.49.19,6.13.19a23,23,0,0,0,2.75,0c0-.1-.19-.37-.64-.83s-1.1-1-1.83-1.74-1.56-1.37-2.38-2-1.46-1.37-2.11-1.92-1.18-1-1.46-1.28c-1.19-1.37-1-2.38.55-3.11a9.34,9.34,0,0,1,3.57-.92h.46A18.1,18.1,0,0,1,340,491.1Zm3.3,100a7.44,7.44,0,0,1,.18,1.56,5.42,5.42,0,0,1-.27,2.19c-.19.28-.28-.09-.37-1.09,0-.37-.09-.74-.09-1.1a7,7,0,0,1-.18-1.1,1.13,1.13,0,0,1,0-.82.29.29,0,0,1,.27-.28C343.06,590.46,343.25,590.74,343.34,591.1Zm4.12-51.41a7.2,7.2,0,0,0-.74,2.74c-.27,1.56-.45,3.29-.64,5.22s-.27,3.56-.27,4.84.36,1.83.91,1.83.92-.73,1.19-2a32.13,32.13,0,0,0,.28-4.76c0-1.83-.09-3.56-.19-5.12a7.21,7.21,0,0,0-.45-2.74l-.09-.09Zm-.55-5.13a1.48,1.48,0,0,0-.19.92,2.49,2.49,0,0,0,.19.91.46.46,0,0,0,.45.37c.19,0,.28-.09.46-.37a2,2,0,0,0,.09-.82,1.54,1.54,0,0,0-.18-.92.46.46,0,0,0-.46-.36C347.09,534.29,347,534.38,346.91,534.56Zm2.83,49c-.09.37-.18.64-.36.73a.74.74,0,0,1-.74.09c-.64-.36-.73,0-.36,1a6.35,6.35,0,0,1,.36,1.74,18.92,18.92,0,0,1,.19,2.29,9.7,9.7,0,0,0,.18,1.91c.09.55.18.83.28.83a.47.47,0,0,0,.36-.18,1.36,1.36,0,0,0,.18-.56c.1-1,.1-2.1.1-3.29v-3c0-.82-.1-1.37-.1-1.55v-.09A.09.09,0,0,0,349.74,583.51ZM348.46,581a3.24,3.24,0,0,0,.09,1.1c0,.27.09.27.19.08a2.81,2.81,0,0,0,.09-.91,3.77,3.77,0,0,0-.09-1,.7.7,0,0,1-.1-.28h-.09C348.46,580,348.46,580.4,348.46,581Zm.83-14a2.63,2.63,0,0,0-.46,1.19,1.91,1.91,0,0,0-.09,1c0,.18.18.27.36,0,.19-.1.28-.28.37-.64l.27-1.1v-.92h-.09C349.65,566.49,349.47,566.68,349.29,567Zm-.46,4.57a.9.9,0,0,0,.09.73c0,.19.09.19.18.1a.72.72,0,0,0,.19-.46,1.84,1.84,0,0,0-.1-.73c-.09-.18-.18-.28-.27-.28S348.83,571.25,348.83,571.61Zm.91-12.44a1.11,1.11,0,0,0-.45.46,1.39,1.39,0,0,0-.19.46c0,.45.09.64.28.64s.36-.37.55-.92.18-.64,0-.73S349.83,559.17,349.74,559.17Zm-.36,4.94c-.09.09-.09.28-.09.64a1.57,1.57,0,0,0,.09.73c0,.19.09.19.27.1a.72.72,0,0,0,.09-.46,2,2,0,0,0-.09-.73,1.07,1.07,0,0,0-.18-.28Zm22.69-47.48c-1.56,0-3.3.09-5.22.18s-3.75.28-5.21.37l-4.94.46.18,2.47a38.43,38.43,0,0,1,.27,5.49c.09,2.46.19,5.21.19,8s.09,5.39,0,7.59-.1,3.48-.1,3.85a2.56,2.56,0,0,0,0,1.64,1.07,1.07,0,0,0,1,.73,8.17,8.17,0,0,0,1.92-1.55c1.1-1,2.47-2.29,3.94-3.85,5.49-5.58,7.86-8.78,7.22-9.51-.09-.18-.09-.27,0-.37a1,1,0,0,1,.55-.18.76.76,0,0,0,.64-.09,1.79,1.79,0,0,0,.28-.82,10.24,10.24,0,0,0,.18-2,9.79,9.79,0,0,1,.55-1.28,19.73,19.73,0,0,1,1.28-1.73c2.65-2.93,3.75-5.49,3.2-7.6l-.46-1.92Zm-13.64-12.81c-.45.19-.36.28.37.37h.73c.18-.09.18-.18.09-.28a.69.69,0,0,0-.45-.18A2.09,2.09,0,0,0,358.43,503.82Zm7-.27c-.55.18-.37.36.36.46h.73c.19-.1.19-.19.1-.28a1,1,0,0,0-.55-.18C365.84,503.46,365.57,503.55,365.39,503.55Zm2.56.18c-.28.09-.46.18-.37.37a2,2,0,0,0,.83.27c.36,0,.91.1,1.37.1s1-.1,1.37-.1.55-.18.64-.36c-.09,0-.27-.1-.73-.19s-.92-.09-1.56-.18h-.45A3.51,3.51,0,0,0,368,503.73Zm7.23,57.46a2.44,2.44,0,0,0,.18.64,3.5,3.5,0,0,0,.55.63,4.2,4.2,0,0,0,.36.65,4.49,4.49,0,0,1,.28.73,11.47,11.47,0,0,0,.91,2.1,3.19,3.19,0,0,0,.83,1c.18.18.45.27.55.18a.49.49,0,0,0,.45-.27.57.57,0,0,0,.09-.37v-.18a.09.09,0,0,0-.09-.09v-.1c-.09,0-.09-.09-.18-.09s-.09-.18-.09-.27-.09-.18-.18-.28a2.37,2.37,0,0,0-.28-.45c-.09-.18-.18-.28-.18-.37a.31.31,0,0,0-.09-.18v-.19a.09.09,0,0,0-.1-.09.33.33,0,0,0-.09-.27c-.09-.09-.09-.27-.18-.46-.27-.36-.37-.64-.46-.73s-.09-.09-.09-.18a.09.09,0,0,1-.09-.1v-.09c-.09-.09-.09-.18-.18-.27a4.48,4.48,0,0,1-.28-.64,4.52,4.52,0,0,0-1.46-.64C375.18,560.91,375.08,561,375.18,561.19Zm5.39,6.86c.46,1.19.83,2.1,1.1,2.74a9.27,9.27,0,0,0,.92,1.92,3.08,3.08,0,0,0-.92-.27c-.18,0-.18.09-.18.27s.18.46.27.64a5.51,5.51,0,0,0,.46.73c.27.37.73,1,1.37,1.92s1.19,2.11,1.92,3.21,1.19,1.92,1.56,2.65a9.42,9.42,0,0,0,1.28,1.83,4.81,4.81,0,0,0,1.28,1.19c.28.27.46.37.46.18a1.33,1.33,0,0,0-.46-.73,10.52,10.52,0,0,1-1.46-2.11,3.55,3.55,0,0,0-.28-.54c-.09-.19-.09-.28-.18-.37a4.18,4.18,0,0,0-.55-2,3.9,3.9,0,0,0-.82-1.47c-.28-.45-.55-.63-.73-.63h-.1c-.09,0-.09-.1-.09-.19a1.79,1.79,0,0,1-.36-.55c.18,0,.27-.09.45-.18.55-.28.46-.55-.09-.91-.18-.1-.27-.19-.46-.19h-.09c-.18.09-.27.09-.45.19a10,10,0,0,1-.74-1.37c-.09-.28-.09-.56-.18-1a6.54,6.54,0,0,0-.36-1.56,1.17,1.17,0,0,0-.46-.82c-.09,0-.19-.18-.19-.27s0-.28.1-.46c.18-.37.09-.55-.28-.55a.69.69,0,0,1-.46-.19c-.09,0-.09-.18-.09-.27a3.58,3.58,0,0,0-.09-2H380A5.58,5.58,0,0,1,380.57,568.05Zm5.58,3.75a4.85,4.85,0,0,0-.18,1.28c-.09,1.19.09,1.74.64,1.46.46-.09.64,0,.46.28a.59.59,0,0,0,0,.55,2,2,0,0,0,.46.73,2.65,2.65,0,0,1,.64.73.88.88,0,0,1,.18.64q0,.69,4.67,7.41a4.22,4.22,0,0,1,.82,2.47c-.09.92.09,1,.55.36a.65.65,0,0,1,.55-.36c.18.09.36.46.64,1a13.14,13.14,0,0,0,1.1,1.74c.54.64,1,1.27,1.46,1.73s.82.83,1.1.83c.09,0-.09-.37-.55-1.19s-1-1.65-1.65-2.66a35.81,35.81,0,0,0-2.1-3.1,21.29,21.29,0,0,0-1.65-2.29,16.33,16.33,0,0,1-2.29-3.2c-.55-1.1-.73-1.83-.55-2.2.1-.09,0-.28-.18-.46s-.36-.27-.73-.36a2.64,2.64,0,0,1-.73-.46.41.41,0,0,1-.09-.55.61.61,0,0,0,.18-.46.47.47,0,0,0-.37-.18c-.18,0-.27-.09-.45-.18a.69.69,0,0,1-.19-.46,2.61,2.61,0,0,0-.18-1.37,8.09,8.09,0,0,0-.64-1.56c-.18-.46-.37-.73-.55-.73S386.25,571.43,386.15,571.8Zm3.76,13.45a.2.2,0,0,0-.19.18c0,.09.09.18.19.28s.27.27.36.36a1,1,0,0,0,.46.09.47.47,0,0,0,.18-.37.5.5,0,0,0-.18-.45.48.48,0,0,0-.37-.19C390.18,585.15,390,585.15,389.91,585.25Zm2,3.2c.09,0,.18.27.55.64a7.64,7.64,0,0,0,1.19,1.46c1,1.28,1.46,2.2,1.28,2.84s-.09.91.45.91c2,.09,1.83-1.19-.45-3.66-1.56-1.64-2.47-2.47-2.84-2.47C392,588.17,392,588.27,391.92,588.45Zm20.4,11.62a8.25,8.25,0,0,1,.73.45,2.52,2.52,0,0,1,.46.56c.18.17.27.36.46.36a.81.81,0,0,0,.45-.09.54.54,0,0,0,0-.73,2.42,2.42,0,0,0-.91-.64,2.46,2.46,0,0,0-1.19-.28C411.5,599.61,411.5,599.79,412.32,600.07Z" transform="translate(-153.34 -472.07)"/><path class="cls-2" d="M442.51,497.88a28.7,28.7,0,0,0,2.84.73,13.94,13.94,0,0,0,2.38.37c1.28,0,2.83.82,4.48,2.46l2.56,2.57,27.35.09q15.64,0,22,.27c4.12.1,6.31.37,6.59.73.64.37.82.64.73.83a4.47,4.47,0,0,1-1.65.18,10.65,10.65,0,0,1-1.64.09,6.71,6.71,0,0,0-1.19-.09,7.92,7.92,0,0,0-2.2-.18c-1.19-.09-2.56-.09-4.21-.09l-4.3-.28a9,9,0,0,1-2.38-.46c-.73-.46-.82-.36-.45.19.55.64-.64.91-3.66.73a24.83,24.83,0,0,0-3.66,0,16.93,16.93,0,0,0-2.84.36c-1.55.37-2.65.28-3.38-.36a1.91,1.91,0,0,0-.73-.37.24.24,0,0,0-.28.28c0,.18-.64.36-1.92.64a40.31,40.31,0,0,1-4,.73,33.1,33.1,0,0,1-3.75.27c-.18,0-.91-.09-2-.18s-2.47-.09-4-.18-2.56-.09-3.38-.09-.92.09-.55.18a4.34,4.34,0,0,1,1.19.46,2.45,2.45,0,0,1,.73.64c.83.91,11.53,1.55,32.3,1.92a7.76,7.76,0,0,1,2.19.18c.09.09-.09.46-.82.92-1,.73-1.1,1.1-.28,1.1s.65.27-.36.91a5.35,5.35,0,0,1-2.29.64,22.1,22.1,0,0,1-3.57.28c-3-.1-4.48.17-4.48.91a1.37,1.37,0,0,1-.18.55c-.09.09-.19.09-.37,0a2.85,2.85,0,0,0-1.28,0,13,13,0,0,0-2.47.37c-1.83.36-3.66.73-5.31.91s-4.11.46-7.13.64c-7.41.55-11.44,1.19-12.08,1.83a4.53,4.53,0,0,0-.27,1.19v2.1c0,.82-.09,2.11-.09,3.94v5.49a41.22,41.22,0,0,0,.09,5.12c.09,1,.36,1.46.73,1.46.64,0,.64.28,0,.83-.82.82-1,1.28-.55,1.55a8.3,8.3,0,0,0,3.75.36c2.56,0,3.57-.27,3-.63-.82-.46-.64-.74.37-.64s1.28-.28.45-.64c-2.19-1.29,1-1.56,9.52-.74l9,.82v1.93a9.36,9.36,0,0,0,.19,1.56c.18.45.27.82.55,1a7.7,7.7,0,0,1,.82,2.29,23.59,23.59,0,0,1,.46,3.75,10.49,10.49,0,0,1-.19,3.11c-.54,2.93-2.74,3.48-6.49,1.73a26.58,26.58,0,0,0-3.48-1.09,18,18,0,0,0-3.57-.64c-3.38-.27-6.49-.46-9.42-.46s-4.57.19-5,.46a10.17,10.17,0,0,0-.37,3.11c-.09,1.92-.18,4.11-.18,6.59s-.09,4.66,0,6.67a28.73,28.73,0,0,0,.18,3.85c.1.37.83.54,2.11.64s3.75-.1,7.23-.27l6.77-.28c1.92-.09,3.2-.18,3.65-.18q16.75.27,16.75,1.09a.45.45,0,0,1-.19.37.67.67,0,0,1-.55.18.65.65,0,0,0-.45.19.76.76,0,0,0-.28.54c0,.19.19.28.55.37a6.52,6.52,0,0,0,1.28-.09,5.08,5.08,0,0,1,1.65,0,4.59,4.59,0,0,1,1.37.37c1,.54,1.1.82.18.82-.27.09-.09.18.46.36s1.56.37,2.75.65l4.3.91-4.67.27c-1.37.09-2.93.09-4.76.19s-3.38.09-4.85.09q-6,.14-11.8.55c-3.84.27-7,.55-9.69.91s-3.85.74-3.85,1.1c0,.18,1.65.27,4.94.27s7.41,0,12.26-.09c11.71-.27,17.29-.18,16.74.37a.72.72,0,0,0,.1.73,1.36,1.36,0,0,0,.73.73c1.19.55.91.83-.73.73a3.14,3.14,0,0,1-1.38-.27.68.68,0,0,1-.55-.55c0-.64-.18-.64-.64.09s-1.28.83-2.56.46a5.05,5.05,0,0,0-1.64-.09,2,2,0,0,0-1.1.27,9.16,9.16,0,0,1-3.11,1.28,21,21,0,0,1-4.12.64,3.21,3.21,0,0,0-1.46.28c-.37.18-.55.36-.55.55-.09.55-2,.91-5.67,1.19-1.65.09-3.3.27-4.76.37s-2.65.27-3.3.36-1.37.27-2.37.37-2,.27-2.93.45c-5.49.73-9,2-10.52,3.75-1.83,1.92-2,2.93-.64,3.12.55.17.73.82.45,1.92l-.36,1.74-.92-1.93a9.79,9.79,0,0,1-.54-1.92,7.09,7.09,0,0,1-.28-1.83,4.27,4.27,0,0,0-.18-1.28c-.09-.18-.37-.36-.92-.27a12.92,12.92,0,0,0-2.28.18,20.82,20.82,0,0,0-3.12.73,13.25,13.25,0,0,0-2.74.92c-4.12,1.91-7.68,1.28-10.89-1.74a18,18,0,0,1-3.66-5.86c-1-2.29-1.28-4.11-.91-5.3q1.1-2.89,19.49-6.59a3,3,0,0,0,1.19-.55,1.26,1.26,0,0,0,.45-.82.87.87,0,0,1,.19-.65c.09-.17.27-.17.45-.09s.37.09.46-.08a1.19,1.19,0,0,0,.09-.83,2,2,0,0,0-.18-.92c-.09-.18-.28-.27-.37-.18s-.27-.55-.36-1.56-.09-2.56,0-4.2,0-3.2-.09-4.3-.19-1.74-.37-1.74-.27-.37-.37-1.1a19.47,19.47,0,0,1-.09-2.47,10.12,10.12,0,0,1,.28-2.56c.18-.64.36-1,.55-1,.54,0,.73-.1.54-.28a3.33,3.33,0,0,0-1-.46,12,12,0,0,0-2-.46,48.4,48.4,0,0,0-10.89.1c-3.2.27-5.77.45-7.5.54a22.52,22.52,0,0,1-3.75,0,2.73,2.73,0,0,1-1.74-.64c-.64-.36-.92-.63-.83-.82a2.5,2.5,0,0,1,1.28-.18c.92-.09,1.65-.19,2.11-.28a3.66,3.66,0,0,0,1.19-.18,2.94,2.94,0,0,0,.73-.46,3.31,3.31,0,0,1,1-.18,4.6,4.6,0,0,1,1.09.18c.83.37,1.1.19.74-.36s.27-.83,1.83-.92a16.53,16.53,0,0,0,2.1-.18,6.49,6.49,0,0,0,1.74-.46c1.19-.55.91-.64-.73-.36-7.14,1-10.52,1.18-10.07.45a5.77,5.77,0,0,1,.73-.54,2.35,2.35,0,0,1,1-.28,4.54,4.54,0,0,0,1.1-.09,2,2,0,0,0,.73-.36c.09-.1.28-.28.37-.28a6.84,6.84,0,0,1,.91-.28c.37-.09.92-.18,1.74-.36s1.83-.18,3.11-.37c2-.27,3.57-.54,4.67-.73a10.52,10.52,0,0,0,2.38-.46,6.2,6.2,0,0,0,1.73-.55c1.28-.54,1.92-1.28,1.92-2.19a1.89,1.89,0,0,1,.28-1,1,1,0,0,1,.82-.36.9.9,0,0,0,.83-.56,1.27,1.27,0,0,0,.18-1,.88.88,0,0,0-.64-.73c-.73-.09-1.37-3.57-1.83-10.34-.09-3.29-.55-5.3-1.28-6.13s-2.66-1.19-5.58-1.1a12.75,12.75,0,0,1-6.5-1.09,11.23,11.23,0,0,1-3.93-4.76,14.29,14.29,0,0,1-1.19-3.3,15.18,15.18,0,0,1-.18-3.65c.09-1.1.18-2,.27-2.75a9.3,9.3,0,0,1,.37-1.37c.09-.09.54-.09,1.37,0a23.35,23.35,0,0,1,3,.46c4.11.73,7,.73,8.87.09s1.92-1.65.46-3.29c-1-1.1-1.19-2-.46-2.66s1.92-1,3.66-1A11.21,11.21,0,0,1,442.51,497.88Zm-8.05,49c-.55.27-.37.36.46.45a2.05,2.05,0,0,0,.82-.09c.18-.09.18-.19.09-.28s-.36-.18-.55-.18A2.31,2.31,0,0,0,434.46,546.92Zm12.9,7a1.85,1.85,0,0,0-.09,1c0,.45,0,1.37.09,2.83s.09,3.11.09,4.94c.09,6.86.55,9.33,1.56,7.23a2.48,2.48,0,0,0,.27-1.1,1.16,1.16,0,0,0-.09-.82,12,12,0,0,1-.37-2.66c0-1.46-.09-3.2-.09-5.21,0-5-.27-7.23-.82-6.86A.78.78,0,0,0,447.36,554Zm4,17.29c-.09,0-.18.18-.36.36a2.91,2.91,0,0,0-.37.92c0,.27,0,.55.09.64a.38.38,0,0,1,0,.46.47.47,0,0,1-.36.18,1.72,1.72,0,0,1-.73-.37,3.47,3.47,0,0,1-.74-.91c-.54-1.1-.82-.92-.73.64a2.28,2.28,0,0,0,.28,1.37,1.35,1.35,0,0,0,1.28.28,1.68,1.68,0,0,0,1.28-.46,3.55,3.55,0,0,0,.55-1.74c.09-.82.09-1.28,0-1.37S451.48,571.16,451.38,571.25Zm21.32,3.48,2.56.45c.64.19,1.28.28,1.74.46s.82.18.92.18.09,0,.09-.18a.69.69,0,0,0,.09-.46c0-.18-.28-.36-.82-.45a5.45,5.45,0,0,0-1.83-.1ZM480.39,517c.36.27.09.36-.92.36s-1.28-.09-.82-.36a2.71,2.71,0,0,1,.82-.19A2.78,2.78,0,0,1,480.39,517Zm17.84-3.57c.27.09.27.27.18.46a4.64,4.64,0,0,1-.64.55,3.1,3.1,0,0,1-.82.18,2,2,0,0,1-.74-.18c-.18-.19-.36-.37-.36-.55s.18-.37.45-.46a2,2,0,0,1,1.1-.18C497.77,513.25,498,513.25,498.23,513.43ZM508.47,579c.64.1.92.28.92.46,0,.37-.46.64-1.38.64a14.54,14.54,0,0,1-3.56-.64c-1.56-.46-1-.64,1.55-.64A9.83,9.83,0,0,1,508.47,579Z" transform="translate(-153.34 -472.07)"/><path class="cls-2" d="M576,542.25c.28.09.55.18.64.36s-.09.55-.46.92a6.8,6.8,0,0,1-3.2,1.37,1.3,1.3,0,0,0-.82.09,1.45,1.45,0,0,0-.64.37,3,3,0,0,1-.83.46,6,6,0,0,1-1.37.27,11.25,11.25,0,0,0-1.37.37c-.37.18-.55.27-.55.46a2.36,2.36,0,0,1-.91.63,15.57,15.57,0,0,1-2.11,1c-1.83.82-3.38,1.56-4.76,2.29a9.54,9.54,0,0,0-2.37,1.64c0,.19-.19.28-.37.28a.76.76,0,0,1-.64.09,2,2,0,0,0-.82.28,4.05,4.05,0,0,0-.83.54,2.25,2.25,0,0,1-.91.64,4.7,4.7,0,0,1-1.1.19,4.87,4.87,0,0,0-1.46.18,9.09,9.09,0,0,0-1.74.73c-1.74.73-4.94,1.38-9.7,1.83a136,136,0,0,1-15.19.55q-2.61-.13-4.11-.27a10.56,10.56,0,0,1-2.57-.46,13.68,13.68,0,0,1-2.1-1,6.74,6.74,0,0,1-2.2-1.74,3.14,3.14,0,0,1-.45-2c-.09-.64-.09-1.19-.19-1.65a1.74,1.74,0,0,0-.36-.82,2.65,2.65,0,0,1-.37-1.37,13.17,13.17,0,0,1-.27-2.84l-.19-3.84,9.06.73c2.65.28,5.22.37,7.87.55s4.67.19,6.13.09h.82c1.37,0,2.66,0,3.84-.09h3c.73-.09,1.56-.09,2.38-.18a8.9,8.9,0,0,0,1.92-.19,5.06,5.06,0,0,1,1-.09c.18,0,.27.09.18.19s-.54.18-1.1.36a10.07,10.07,0,0,1-1.92.37c-.82.18-1.55.36-2.28.55a7.68,7.68,0,0,0-1.74.73c-.64.36-.92.64-.73.73a9.84,9.84,0,0,0,2.47,0c.82,0,1.64-.09,2.47-.09a9.66,9.66,0,0,0,1.55-.28c.28,0,.92-.08,1.74-.18s1.92-.09,3-.09,2.65-.09,4.48-.27,3.66-.37,5.31-.64,3.11-.46,4.3-.56a6.31,6.31,0,0,1,1.92,0c.09.1.37.1.73,0a6.49,6.49,0,0,0,1.19-.36,4.9,4.9,0,0,1,1.37-.46,2.11,2.11,0,0,1,.83.09,1,1,0,0,0,.54.1,1.06,1.06,0,0,0,.74-.28,5,5,0,0,1,2.19-.46A3.36,3.36,0,0,1,576,542.25Zm-20.86-.55c1.1.46.55.64-1.46.82a15.86,15.86,0,0,1-2,.09,1.88,1.88,0,0,1-1-.18c-.09-.09,0-.18.09-.27a1.84,1.84,0,0,1,.82-.1,3.4,3.4,0,0,0,1,0,2.58,2.58,0,0,0,.73-.36c.18-.18.46-.18.82-.18A3.08,3.08,0,0,1,555.13,541.7Z" transform="translate(-153.34 -472.07)"/><path class="cls-2" d="M606.64,519.92a10,10,0,0,1,3.66,1.1,6.75,6.75,0,0,1,2.37,2.11,1.12,1.12,0,0,1-.27,1.73,1.67,1.67,0,0,0-.55.55,1.86,1.86,0,0,0-.09.65c.09.27-.09.73-.55,1.37a15.8,15.8,0,0,1-1.64,1.83,4.22,4.22,0,0,1-1.65,1,.5.5,0,0,0-.46.28.54.54,0,0,0-.09.36.41.41,0,0,1-.09.46.81.81,0,0,1-.64.27c-.46.19-1.19,1-2.2,2.66a60.63,60.63,0,0,0-2.92,5.48,41.16,41.16,0,0,0-2.11,5.77,37.81,37.81,0,0,0-.28,17.48,33.67,33.67,0,0,0,7.6,15.18c.82,1,1.65,1.83,2.28,2.65a5.42,5.42,0,0,1,.92,1.37c.09.37.64,1,1.74,1.93s2.2,1.83,3.48,2.74a24,24,0,0,0,3.2,2,6.94,6.94,0,0,0,4,.63,21.75,21.75,0,0,0,5.21-2.28,22,22,0,0,0,4.76-3.38,6.32,6.32,0,0,1,1.28-1.1,3,3,0,0,1,1.09-.56,2.3,2.3,0,0,0,.74-.36.6.6,0,0,0,.36-.46,2.66,2.66,0,0,1,.73-.82,10.41,10.41,0,0,1,1.37-1.1,29.73,29.73,0,0,0,3.57-4.21c1.56-2.19,3.3-4.66,5-7.41s3.2-5.12,4.39-7.32c1.37-2.74,2.1-3.65,2.2-2.56a4.22,4.22,0,0,1-.37,1.56,18.49,18.49,0,0,1-1,1.83,13.87,13.87,0,0,0-1.1,1.55,4,4,0,0,0-.27.92,2,2,0,0,1,.09.73,4.24,4.24,0,0,1-.64,1.37c-.36.55-.92,1.37-1.56,2.38l-2.92,4-2.93,4.12,2.29-1.19a18.51,18.51,0,0,0,2-1.37,11.37,11.37,0,0,0,1.46-1.73,8.75,8.75,0,0,1,1.1-1.38c.36-.36.64-.55.73-.64a.91.91,0,0,0,.64-.46l.55-1.09a7.31,7.31,0,0,1,.83-1.83,16.11,16.11,0,0,1,1.37-2.48c.46-.82.82-1.64,1.19-2.37a5.33,5.33,0,0,0,.45-1.56,1.1,1.1,0,0,1,.37-.82,1.93,1.93,0,0,1,.82-.64,2.51,2.51,0,0,0,.73-.64.71.71,0,0,0,.1-.73.92.92,0,0,1,0-.73,1.52,1.52,0,0,1,.55-.56c.55-.36.73-.18.64.46a10.17,10.17,0,0,1-1.19,2.75c-.28.45-.55.82-.73,1.18s-.28.65-.19.74a9.21,9.21,0,0,1-.64,3.66,22.4,22.4,0,0,1-1.92,4.57,6.42,6.42,0,0,1-2,2.74,1,1,0,0,0-.55.46.31.31,0,0,0,0,.46c.28.18.28.46.09.91a6,6,0,0,1-1,1.29,4.32,4.32,0,0,1-1.46.73c-.82.18-.82.46-.09.73s1.55-.18,2.65-1.65a7.58,7.58,0,0,0,1.19-1.55c.28-.46.46-.73.37-.82s0-.28.18-.37a1.84,1.84,0,0,1,.46-.28c.27,0,.64-.45,1.28-1.18s1.19-1.74,1.92-2.84a33.43,33.43,0,0,0,1.65-2.93,6.82,6.82,0,0,0,.82-1.92,1,1,0,0,1,.28-.73c.18-.09.36-.19.54-.09a.51.51,0,0,0,.55-.37,2.62,2.62,0,0,0,0-1.19,3.06,3.06,0,0,1,0-1.28c0-.27.18-.55.28-.55s.27-.09.36-.27a1.16,1.16,0,0,0-.09-.55,1.06,1.06,0,0,1,.19-.92,3,3,0,0,1,.91-.63,2,2,0,0,1,1.28-.1c.46.1.46-.27-.19-.91s-.73-1-.08-.92a.52.52,0,0,0,.54,0c.1-.09.1-.18.1-.36a.27.27,0,0,1,0-.37c.09-.18.18-.27.36-.27s.28.09.37.36a7,7,0,0,1-.09,1.28,5.91,5.91,0,0,1-.37,1.29,2.2,2.2,0,0,1-.46.63c-.18,0-.27.19-.37.46a2.55,2.55,0,0,0,0,1.1,4,4,0,0,1-.36,1.64,8,8,0,0,1-.91,2,12.54,12.54,0,0,0-2.29,5.3,7.47,7.47,0,0,1-.64,1.38,16.65,16.65,0,0,1-1.19,2,21.51,21.51,0,0,0-1.1,1.92,2,2,0,0,0-.46.91c.1.19,0,.37-.18.74s-.36.64-.64,1c-.91,1.1-.91,1.29,0,.74a2,2,0,0,1,.92-.37c.18.09.18.28.18.73v1.19c.09.09,0,.19-.09.28a1.28,1.28,0,0,0-.55.18c-.18,0-.46.27-.91.64a11.29,11.29,0,0,0-1.1,1.55,11.42,11.42,0,0,1-1.47,1.83,22.38,22.38,0,0,1-2,1.47,13.48,13.48,0,0,0-1.74,1.1,11.87,11.87,0,0,0-1.46,1.55,22.74,22.74,0,0,0-2,2.65,6.84,6.84,0,0,1-3.74,2.2,8.6,8.6,0,0,0-2,.64,4.54,4.54,0,0,0-1.37.91,5.08,5.08,0,0,1-.83.74c-.18.27-.36.36-.45.36a6.94,6.94,0,0,0-1.1.09c-.73.1-1.65.1-2.75.19a22.57,22.57,0,0,0-2.74.36,6.24,6.24,0,0,0-1.55.37,3.24,3.24,0,0,1-2,.28,15.48,15.48,0,0,1-2.74-.74,8.55,8.55,0,0,0-1.74-.55c-.73-.18-1.55-.45-2.38-.64a31.13,31.13,0,0,1-3.84-1.19c-1.74-.64-3.38-1.37-5.21-2.19A43.53,43.53,0,0,1,595,578.75c-.64-.82-1.28-1.55-1.92-2.29s-1-1.09-1.19-1.28a10.63,10.63,0,0,1-1.74-2.38,51.08,51.08,0,0,1-2.56-5.58,23.86,23.86,0,0,1-1.92-5.39,25.38,25.38,0,0,1-.37-5.86V550.3c.09-1.38.18-2.29.27-2.84s.28-.82.56-.82c.09-.09.18-.09.27-.18a.55.55,0,0,0-.09-.37c-.46-.64-.18-2.38.82-5.22.27-.82.55-1.46.64-1.92a5.63,5.63,0,0,0,.09-1.18c-.09-.28-.27-.74-.46-1.29a1,1,0,0,1-.18-.64c.09-.18.18-.27.37-.27a1.11,1.11,0,0,0,1.46-.82,4.51,4.51,0,0,0,0-2.75c-.09-.09,0-.18.28-.37s.55-.18.82-.27c.91-.18,1.1-.55.64-1-.27-.27,0-1,.73-2a18.66,18.66,0,0,1,3-3.2,22.09,22.09,0,0,1,3.75-2.65c1.56-.83,2.75-1.38,3.57-1.74a7.67,7.67,0,0,1,2.29-.83A7.56,7.56,0,0,1,606.64,519.92Zm42.91-18.11c.73.18,1.37.37,2,.55s.91.18,1,.18c.46-.18,1.38.18,2.84.83a36.33,36.33,0,0,1,4,2.37,6.46,6.46,0,0,1,2.28,2.11,2.65,2.65,0,0,0,.64.73.57.57,0,0,0,.65.18c.45-.09.54.19.17.83-.08.27-.17.45-.08.64s.08.18.27.18a1.18,1.18,0,0,1,.55.09,1,1,0,0,1,.46.37,5.31,5.31,0,0,0,.55,1c.27.37.54.82.82,1.28.55.74.73,1.2.64,1.29s-.46.18-1.1,0a3.32,3.32,0,0,1-1.28-.55,3.61,3.61,0,0,1-.83-.83c-.17-.54-.36-.37-.27.64s.19,3,.46,6c.09.55.09,1.1.18,1.47s.19.54.28.54.09.19.09.46a5.72,5.72,0,0,1-.09,1.19,3.1,3.1,0,0,0-.09,1.28c0,.37.09.64.27.73s.27.37.37.74a6.06,6.06,0,0,1,0,1.28c-.1.36-.28.82-.37,1.09s-.37.46-.64.46c-.46-.09-.55,0,0,.37s.46.73.09,1.19a1,1,0,0,0-.45.64.65.65,0,0,0-.19.54,1.38,1.38,0,0,1,.19.56c.09.18.09.36.17.54a.92.92,0,0,1-.08.46,2.07,2.07,0,0,1-.46.27.91.91,0,0,1-.83-.36,2.48,2.48,0,0,1-.27-1.1,1,1,0,0,1,.46-.91,1.78,1.78,0,0,0,.55-.55.27.27,0,0,0-.1-.37c-.18-.09-.27-.37-.27-.82v-1.55a13.93,13.93,0,0,0,.09-1.93c-.09-.64-.18-1.28-.27-1.64a3.26,3.26,0,0,1-.19-1.29,1.15,1.15,0,0,1,.28-.82c.27-.37.09-1.28-.82-2.65a7.28,7.28,0,0,1-.74-1.55c-.18-.37-.09-.56.09-.46s.19-.37-.18-1.2a18.07,18.07,0,0,0-1.55-2.92c-.73-1.19-1.47-2.38-2.2-3.48a24.75,24.75,0,0,0-2.1-2.56,10.5,10.5,0,0,0-1.65-1.37,2.31,2.31,0,0,0-1.28-.64c-.64-.09-.73.18-.36.55a.82.82,0,0,1,.27.54c.09.19,0,.28-.27.28a.61.61,0,0,1-.56,0,.8.8,0,0,1-.54-.37c-.28-.18-1-.09-2.2.28a23,23,0,0,0-3.93,1.64,19.87,19.87,0,0,0-3.66,2.11,64,64,0,0,0-9.43,9.7c-3.29,4-5.21,7-5.94,9.24a4.67,4.67,0,0,1-.74,1.74,25.8,25.8,0,0,1-1.46,2.65c-.55,1-1,1.83-1.37,2.47s-.46,1.1-.46,1.19a10,10,0,0,1-.28,1.28c-.27.82-.54,1.74-.91,2.75s-.64,2-.82,2.74a6.18,6.18,0,0,0-.37,1.28c.1.09.1.37-.09.64a3.17,3.17,0,0,1-.37.83,5.58,5.58,0,0,0-.45,1.09,1.27,1.27,0,0,0,0,.82,8.32,8.32,0,0,1-.19,1.92c-.27.83-.54,1.56-.82,2.39s-.55,1.09-.82,1.18q-1.51.28,0-1.92a2.86,2.86,0,0,0,.45-1.55,3.07,3.07,0,0,0-.36-1.56.92.92,0,0,0-1-.55c-.18.09-.27.18-.27.28s.09.18.27.36a.53.53,0,0,1,.19.64,1.78,1.78,0,0,1-.37.73,2.48,2.48,0,0,0-.73,1.47,12.06,12.06,0,0,0,.36,2.56,2.09,2.09,0,0,1-.09,1,5.43,5.43,0,0,1-.36,1.1,2.26,2.26,0,0,0-.37.91c0,.27,0,.46.18.55s.28.64.19,1.55a17.49,17.49,0,0,1-.55,2.84,6.57,6.57,0,0,1-1,2c-.36.37-.64.55-.82.55A.65.65,0,0,1,611,565v-.09a9.17,9.17,0,0,1-.73-6.31c.09-.83.18-1.56.27-2.2v-1.19c-.09-.18,0-.46.18-.83a7.78,7.78,0,0,1,.74-1.09,2.08,2.08,0,0,1,.82-.55c.19,0,.27-.19.19-.46a2.41,2.41,0,0,0-.37-.91,2.8,2.8,0,0,1-.46-.92c0-.27.09-.46.27-.46a.42.42,0,0,1,.46,0c.1.1.18.19.1.37a.79.79,0,0,0,.08.46.82.82,0,0,0,.55.27c.28.09.46,0,.64-.27s.19-.64.28-1c.09-2-.28-2.65-.92-2.1-.18.09-.27.18-.46.18s-.17,0-.27-.18a5.21,5.21,0,0,1,.18-.55,6.81,6.81,0,0,1,.74-.83c.45-.45.73-.73.73-.91s-.28-.28-.73-.36c-.92-.19-.92-.37,0-.56a2,2,0,0,1,1.83.28c.36.28.45.73.18,1.37a1.05,1.05,0,0,0-.27.74c0,.17.09.27.27.36s.27-.09.55-.36l.64-1.29.73-1.92h-1.74a3.06,3.06,0,0,0-1.28,0c-.36,0-.64.09-.82.09-.28.19-.37,0-.28-.37,0-.17.1-.27.28-.36A.61.61,0,0,1,614,543c.27,0,.54-.37.91-1a15.3,15.3,0,0,0,1-2.47,15.11,15.11,0,0,0,.45-2.38c0-.45-.09-.64-.18-.64s-.36.37-.82.92a7.69,7.69,0,0,0-.64,1.19,1.56,1.56,0,0,0,0,.91,1.28,1.28,0,0,1,0,.83,3.87,3.87,0,0,1-.37.91,1.64,1.64,0,0,1-.64.73c-.09,0-.18-.18-.36-.54a3.71,3.71,0,0,1,.27-1.74c.28-.92.64-1.92,1.1-3.12s1-2.37,1.55-3.65.92-2.57,1.19-3.48.64-1.74.92-2.47a11.76,11.76,0,0,1,.82-1.56,7.53,7.53,0,0,0,.92-1.55,9.28,9.28,0,0,0,.91-1.92,9.64,9.64,0,0,0,.55-1.47c.09-.36,0-.36-.27-.09a22.59,22.59,0,0,0-2,2.65,30.16,30.16,0,0,0-1.83,3,5,5,0,0,0-.64,1.64c.19.36-.18.55-1,.55s-.92,0-.64.18.27.73,0,1.65a14.91,14.91,0,0,1-1.56,3.2c-.18.46-.46,1.1-.73,1.83a23.77,23.77,0,0,0-.73,2.47c-.19.92-.46,1.74-.73,2.75s-.65,1.64-.92,2.28a11.3,11.3,0,0,0-.46,1.65,1.63,1.63,0,0,0-.09,1.1,2.17,2.17,0,0,1,.18.73,1.34,1.34,0,0,1-.18.64,4.73,4.73,0,0,0-.27,1.1c-.09.46-.09,1-.19,1.55a10.33,10.33,0,0,1-.18,1.74,6.57,6.57,0,0,1-.28,1.19,3,3,0,0,0-.17.83.69.69,0,0,0,0,.63,4.66,4.66,0,0,1,.17,1.37,10.81,10.81,0,0,1,.1,1.83c0,.65-.1,1.2-.1,1.66a1.33,1.33,0,0,1-.27.73c-.09,0-.18.18-.18.45a4.7,4.7,0,0,0,.18,1,2.83,2.83,0,0,1,.27,1.28v1.1c-.17.73-.54.27-1.09-1.28a7.68,7.68,0,0,1-.28-1.92,1.6,1.6,0,0,1,.28-1.1c.46-.46.36-.64-.09-.46-.19,0-.37-.27-.46-.64a8.24,8.24,0,0,1-.19-1.65,9.71,9.71,0,0,1,.1-1.74,2,2,0,0,1,.46-1.09c.18-.09.18-.18.27-.37a1.81,1.81,0,0,0-.09-.64,1,1,0,0,1,0-.73,2,2,0,0,1,.36-1c.46-.73.46-1-.18-.82s-.73-.09-.27-.64a2.9,2.9,0,0,0,.18-1,6.29,6.29,0,0,0-.18-1.18,3.15,3.15,0,0,1-.28-1.47,4.65,4.65,0,0,1,.28-1.65,20.49,20.49,0,0,0,.55-2.2c.18-.91.36-1.83.46-2.65s.36-1.74.63-2.65a22.64,22.64,0,0,1,.92-2.29c.28-.55.55-1.09.73-1.55a2.15,2.15,0,0,0,.09-1c-.09-.18.09-.64.37-1.37a15.47,15.47,0,0,1,1.28-2.38c.55-.91.91-1.74,1.28-2.47a2.59,2.59,0,0,0,.27-1.46c-.18-.46-.09-.64.19-.55a.82.82,0,0,0,.73-.28,1.6,1.6,0,0,0,.64-.73c.18-.27.18-.55,0-.64s0-.27.18-.64a12.83,12.83,0,0,0,.92-1.1,6,6,0,0,0,1.19-1.37,9.1,9.1,0,0,0,.64-1.37,3.25,3.25,0,0,1,.36-1c.09-.27.28-.46.46-.46a4.41,4.41,0,0,0,.64-.45c.19-.28.46-.55.73-.92a35.36,35.36,0,0,1,2.56-3.47c.64-.65,1.1-1.1,1.56-1.19a6,6,0,0,0,1-.73,11.11,11.11,0,0,0,1-1.1,10.34,10.34,0,0,1,1.47-1.56,16.21,16.21,0,0,1,2-1.65,7.63,7.63,0,0,0,1.46-1.18c.28-.28.28-.37-.09-.28-.82.09-1.28,0-1.28-.28s.27-.63,1.1-1.09a12.75,12.75,0,0,1,3.57-1A31.74,31.74,0,0,1,649.55,501.81Zm-30.29,27a5.13,5.13,0,0,1-.54.73.58.58,0,0,0-.19.46c.19.36.55,0,1.1-1.1.18-.46.36-.73.27-.73A3.3,3.3,0,0,0,619.26,528.8Zm19.58,4.94a19.82,19.82,0,0,1,3.66,1.83,14.8,14.8,0,0,1,3.11,2.2,4.1,4.1,0,0,1,1.1,1.18,1.61,1.61,0,0,1-.09,1.1,17.13,17.13,0,0,1-1.28,2.11,19.09,19.09,0,0,1-2.29,2.83,35.27,35.27,0,0,1-2.84,2.66,15.79,15.79,0,0,0-2.83,2.74,24,24,0,0,0-2.2,3,19.07,19.07,0,0,1-1.46,2.38,3,3,0,0,1-1.1,1.1,2.91,2.91,0,0,0-1,.45c-.55.28-1,.55-1.46.83-2.65,1.92-4.11,2.56-4.48,2a.62.62,0,0,1,.09-.55.84.84,0,0,1,.55-.55c.18-.18.36-.37.46-.45a.27.27,0,0,0-.1-.37.77.77,0,0,1-.09-.64,2.73,2.73,0,0,1,.37-1c.18-.46.55-1.28,1.09-2.47s.92-2.56,1.47-3.93.82-2.38,1-3.12c.09-.27.18-.73.36-1.18a10.23,10.23,0,0,0,.46-1.56c.27-.82.36-1.37.09-1.46s-.64.09-1.19.91c-.18.19-.18.09-.09-.37a9.54,9.54,0,0,1,.64-1.91,27.62,27.62,0,0,1,2.74-5.68,3.32,3.32,0,0,1,5.31-2.1Zm1.74,44a1.47,1.47,0,0,0-.55.74,3.9,3.9,0,0,0-.28.64c0,.18.1.18.19.18s.37-.18.55-.37a4.76,4.76,0,0,0,.64-.73,1.66,1.66,0,0,0,.28-.64c0-.18-.1-.27-.28-.18A.66.66,0,0,0,640.58,577.74Zm14-24.79a.56.56,0,0,1,.27.55,2.13,2.13,0,0,1-.27,1c-.19.55-.37.91-.46.91s-.27-.28-.46-.82a2,2,0,0,1-.18-1.19.78.78,0,0,1,.55-.64A.69.69,0,0,1,654.58,553Zm1.64-4.39c.28.09.37.46.28.82a3.31,3.31,0,0,1-.46,1.47,2.76,2.76,0,0,1-.82,1.09c-.19.28-.37.37-.46.19a.59.59,0,0,1,0-.55,1.61,1.61,0,0,1,.55-.55,1.46,1.46,0,0,0,.46-.73,1.91,1.91,0,0,0,0-1c-.09-.64-.09-.91.18-.91C656,548.38,656.13,548.47,656.22,548.56Zm5.68-14.45c.73,0,1,.36.73,1.18a7.8,7.8,0,0,1-1,2.66c-.45.73-.91,1.19-1.37,1.28-.82.18-.82.91-.09,2.1a.58.58,0,0,1-.09.64,5.22,5.22,0,0,1-.73.64,2.67,2.67,0,0,0-.74.55c-.09.19-.09.37.09.46s.19.27.09.55a1.68,1.68,0,0,1-.63.82,4.3,4.3,0,0,0-.64.83,1,1,0,0,0-.1.73.52.52,0,0,1,0,.54.58.58,0,0,1-.27.56c-.19.09-.28.18-.46.09s-.27-.09-.36-.28,0-.54.09-1.1a9.68,9.68,0,0,1,.64-1.46c.27-.55.46-1.1.64-1.47a2.2,2.2,0,0,0,.18-.91c-.09-.09,0-.36.18-.92s.55-.91.92-1.55a10.11,10.11,0,0,0,.73-1.37c.18-.37.18-.55,0-.55s-.18-.09.09-.36a3.16,3.16,0,0,0,.37-.92,5.32,5.32,0,0,0,.36-1.28c.19-.73.46-1.19.92-1.37A.83.83,0,0,1,661.9,534.11ZM659.34,572a4,4,0,0,1-.56,1c-.27.27-.54.55-.73.55s-.27,0-.18-.28a1.45,1.45,0,0,1,.37-.82,3.3,3.3,0,0,1,.54-.83c.28-.18.37-.27.46-.27S659.43,571.61,659.34,572Zm-.19-47.21c0,.55-.09.83-.27.92s-.28,0-.46-.37a.43.43,0,0,1,0-.46l.27-.54a.36.36,0,0,0,.19-.09C659.15,524.23,659.15,524.41,659.15,524.77Zm3.75,18.58c.19.08.27.27.27.54A4.58,4.58,0,0,1,663,545c-.37.92-.74,1.19-.92.64a2.64,2.64,0,0,1-.09-1.46c.18-.46.36-.82.64-.91A.33.33,0,0,1,662.9,543.35Zm7-5.49a1.88,1.88,0,0,1,.82.18.78.78,0,0,1,.27.55c-.09.09-.18.27-.36.36a1.2,1.2,0,0,1-.55.09c-.28-.09-.37,0-.46.19a1.81,1.81,0,0,0,.09.64.79.79,0,0,1,0,.91,1,1,0,0,1-.64.74,2.67,2.67,0,0,0-1,1.55,2.64,2.64,0,0,0,.18,1.92c.09.18,0,.27-.09.37a5.15,5.15,0,0,1-.64.27,1.48,1.48,0,0,0-.65.28c-.09.09-.09.18.1.27a.62.62,0,0,1,.09.55,2.19,2.19,0,0,1-.55.82c-.27.37-.46.64-.64.92a1.25,1.25,0,0,0,0,.82v.55a2.2,2.2,0,0,1-.46.28h-.45a.33.33,0,0,1-.28-.1c0-.09.09-.36.19-.82s.36-1.1.54-1.74a7.06,7.06,0,0,0,.46-1.92,2.26,2.26,0,0,0-.09-1.37,2.09,2.09,0,0,1-.09-.74.74.74,0,0,1,.36-.36c.28,0,.37-.27.55-.64a4.47,4.47,0,0,0,.18-1.28,2.8,2.8,0,0,1,.28-1.28c.18-.37.37-.55.64-.55a1.41,1.41,0,0,0,.64-.37,1.29,1.29,0,0,0,.19-.55c.08-.27.27-.45.82-.54Zm-4-21.32a12.11,12.11,0,0,1,1.1,1.92,6.76,6.76,0,0,1,.82,2.11c.18.54.18.82.09.91s-.45-.27-.82-.73a14.41,14.41,0,0,1-1.1-2c-.36-.83-.64-1.56-.82-2.11s-.18-.82,0-.91S665.46,516,665.83,516.54Zm2.66,13.08a1,1,0,0,1,.36.46c.09.27.18.46.09.64s-.09.27-.28.27-.27,0-.45-.09-.28-.36-.46-.55a.77.77,0,0,1,0-.63.29.29,0,0,1,.28-.28A.61.61,0,0,1,668.49,529.62Zm3.83-.36a2.6,2.6,0,0,1-.18,1.83,1.48,1.48,0,0,1-.55.82c-.18.09-.36,0-.73-.28-.55-.36-.55-.64-.18-.91a.93.93,0,0,0,.46-.55,1.81,1.81,0,0,0-.09-.64.54.54,0,0,1,0-.55c.09-.18.18-.27.36-.27A.73.73,0,0,1,672.32,529.26Z" transform="translate(-153.34 -472.07)"/><path class="cls-2" d="M707.91,473.54a16.9,16.9,0,0,1-.18,3.57,19.69,19.69,0,0,1-.64,3.66,20.47,20.47,0,0,0-.82,3.29,29.42,29.42,0,0,0-.65,3.38c-.08,1.1-.27,2.2-.45,3.57s-.37,2.38-.55,3.39c-.74,3.48-1.28,7.23-1.83,11.44-.18,1.64-.46,3-.64,4.11a5.38,5.38,0,0,1-.46,1.83,3.19,3.19,0,0,0-.27,1.28,24.5,24.5,0,0,0-.1,2.84c-.09,1,0,2,0,2.93a7.33,7.33,0,0,0,.28,1.64c.28.46.55.55.64.37a7.06,7.06,0,0,0,.55-2.2c.18-.82.36-1.92.64-3.29s.55-2.56.82-3.75c1-4.57,2-9.7,3-15.46S709,486,709.28,483c.09-1.55.28-2.83.46-4a16.5,16.5,0,0,1,.55-1.92c.64-.46,1.1-.09,1.47,1.1a17.08,17.08,0,0,1,.18,5c-.09,1.19-.18,2.83-.28,4.85s-.18,3.75-.27,5.58a47.25,47.25,0,0,1-.37,5.12,37.78,37.78,0,0,1-.55,3.94,44.15,44.15,0,0,0-1,5.21,46,46,0,0,0-.28,4.67c0,1.27.18,1.83.55,1.64.46-.46.55.46.28,2.75-.46,3-.74,5.39-.92,7a9.33,9.33,0,0,0,.37,3.84,5.6,5.6,0,0,0,1.55,2.47,91.8,91.8,0,0,0,8.06,7.5c3.74,3.3,7.49,6.32,11.15,9.06a27,27,0,0,0,3.48,2.47c.82.55,1.37.82,1.65.73s.55-.18.73-.64a8.22,8.22,0,0,0,.19-1.64,11.94,11.94,0,0,0-.28-1.83,35.21,35.21,0,0,1-.92-6c-.36-3-.63-6.32-.91-9.79-.09-.64-.18-2-.37-4.12s-.45-4.21-.64-6.68-.46-5-.54-7.5a39.07,39.07,0,0,1-.1-5.58l.18-4.3,3.21-1.28a22.29,22.29,0,0,1,6.49-1.1,16.93,16.93,0,0,1,6,.83c2.2,1.09,2.84,3.38,1.83,7-.82,2.47-1.19,10.16-.91,22.87.09,2.29.09,4.21.09,5.77a16.7,16.7,0,0,1-.09,2.74,6.71,6.71,0,0,0,.09,1.19,8.16,8.16,0,0,0,.27,1.92c.1.64.27,1.92.37,3.57s.36,3.57.46,5.49.36,3.47.54,4.85a7.49,7.49,0,0,0,.64,2.47,4.67,4.67,0,0,0,1.38.73c.64.27,1.46.55,2.28.82a21.72,21.72,0,0,1,2.65,1.1,15.9,15.9,0,0,1,2.29,1.28,10.86,10.86,0,0,0,2.11,1.19,5.74,5.74,0,0,0,2,.37,9.26,9.26,0,0,1,1.65.18c.46.09.73.18.82.36a5.57,5.57,0,0,0,2.47,1.1,42,42,0,0,0,4.48,1,27,27,0,0,0,4.4.46l3.65.09-2.92.82a38,38,0,0,1-9,1.37,69.36,69.36,0,0,1-10.79,0,34.5,34.5,0,0,0-4.12-.18,4.42,4.42,0,0,0-2.1.28,1.62,1.62,0,0,0-.37.91,4,4,0,0,0,.18,1.46c.09.56.19,1.1.28,1.74a9.61,9.61,0,0,1,.09,1.56,3.44,3.44,0,0,0,.09,1,1.35,1.35,0,0,0,.36.65c.37.18.74,1,1.1,2.46a33.8,33.8,0,0,1,1.1,4.86,24.13,24.13,0,0,1,.37,3.93c-.09.64-.18,1.37-.28,2.29s-.27,1.73-.46,2.56a6.71,6.71,0,0,0,.1,3,20.86,20.86,0,0,0,1.73,3.93,29.38,29.38,0,0,1,1.47,3.11c.36.92.55,1.46.46,1.56s-.19.45-.1.82a3.57,3.57,0,0,0,.37,1.19,3,3,0,0,1,.28,1.19c.08.27.08.45,0,.45a.5.5,0,0,1-.37-.27,2,2,0,0,1-.46-.73,6.59,6.59,0,0,0-1.28-1.83,16.21,16.21,0,0,0-2-1.65,3.4,3.4,0,0,0-1.65-.64.93.93,0,0,1-.73,0,.72.72,0,0,1-.46-.18c-.27-.46-.09.36.64,2.28.09.37,0,.37-.27.1a6.91,6.91,0,0,1-1.19-1.37,11.71,11.71,0,0,1-1.28-1.93,2.9,2.9,0,0,1-.55-1.19c.09-.36.27-.36.73.19.64.82,1,.82,1,.27a6.15,6.15,0,0,0-.64-2.93,109.78,109.78,0,0,1-6-16.37c-.74-2.2-1.19-3.94-1.47-5.12a17.61,17.61,0,0,1-.64-3.21c-.09-.91-.18-2-.27-3.47a9.4,9.4,0,0,0-.36-2.84c-.19-.73-.37-1.28-.65-1.46s-.55-.1-.64.27a9.67,9.67,0,0,0,0,2.38c.09.91.19,1.65.28,2.38a3.64,3.64,0,0,0,.36,1.28,7.4,7.4,0,0,1,.37,1.74c.09,1,.18,2.1.28,3.38a34.7,34.7,0,0,0,.36,3.48,5.23,5.23,0,0,0,.73,1.83,2.25,2.25,0,0,1,.64.91,2.38,2.38,0,0,1,.27,1.1,3.47,3.47,0,0,0,.19,1.38,5.34,5.34,0,0,0,.46,1.46c.64,1.55,1.1,2.65,1.37,3.29a3.27,3.27,0,0,1,.18,1.47,2.87,2.87,0,0,0,.28.91,5.12,5.12,0,0,0,.73,1.46,7.89,7.89,0,0,1,.64,1.38c.09.36.09.64,0,.64s-.19.18,0,.45.37.46.73.82a3.75,3.75,0,0,1,.82.92.71.71,0,0,1,.09.74c-.63.54-1.64-.83-3.1-4a105.5,105.5,0,0,1-4.49-12.35,130.68,130.68,0,0,1-3.56-14.64,16.48,16.48,0,0,0-1-3.84,5.91,5.91,0,0,0-2.56-2.38,59.12,59.12,0,0,0-6-2.84,47,47,0,0,1-5.22-2.65,53.51,53.51,0,0,1-5.39-3.66,37.08,37.08,0,0,0-3.3-2.2,27.4,27.4,0,0,0-2.56-1.37c-.64-.27-1.28-.64-2.1-1s-1.38-.83-1.92-1.2l-1.1-.36-.37,1.74a25.32,25.32,0,0,1-.27,5.12c-.28,2-.55,3.84-.92,5.77s-.54,3.38-.64,4.66c-.18,1.74-.64,4.12-1.19,7.14s-1.1,5.67-1.64,8.23-1,4-1.19,4.58c-.1.18-.37.27-.83.45a7.12,7.12,0,0,1-1.37.46c-.55.18-.91.27-1.28.37a3.24,3.24,0,0,0-1.28.54,1.65,1.65,0,0,0-.83.65,3.2,3.2,0,0,1-2.28,1.1,12.64,12.64,0,0,1-3.75.17.74.74,0,0,1-.46-.17c-.09-.1-.18-.28-.27-.37a1.35,1.35,0,0,0-.28-.37c-.09-.18-.28-.18-.45-.27a.29.29,0,0,0-.37,0,.57.57,0,0,0-.37.09c-.27.09-.55.09-.92.18a4.61,4.61,0,0,1-1.37-.27,2.32,2.32,0,0,1-1-.82,4.68,4.68,0,0,1-.28-1.83,32.67,32.67,0,0,1,.28-3.66c.18-1.65.55-3.85.91-6.5a4.38,4.38,0,0,1,.19-.82c0-.19.09-.28.18-.28h.27a.43.43,0,0,0,.46,0c.09,0,.28-.18.46-.37a6.88,6.88,0,0,0,.36-1.37,34.62,34.62,0,0,0,.74-4.57c.18-1.56.36-2.84.36-3.75a4.36,4.36,0,0,0,.1-.92,12.32,12.32,0,0,1,.09-2.74,17.17,17.17,0,0,1,.45-2.2,36.15,36.15,0,0,0,1.19-7.13c.46-3.11.83-6,1.28-8.51s.73-4.21.82-4.76c.37-1.28-1.73-3.66-6.31-7.23-1.64-1.28-3.29-2.47-4.75-3.47a18.89,18.89,0,0,0-3.11-2c-2.2-.91-2.38-2.1-.64-3.38s5.12-2.56,10.24-3.75a11.54,11.54,0,0,1,4.12-1.1,8.46,8.46,0,0,1,2.74.37,3.37,3.37,0,0,0,1,.18l1.46-7.23c.64-2.83,1-5,1.19-6.4a20.93,20.93,0,0,0,.19-3.2c0-.83.09-1.83.18-3.12.18-1,.36-2.1.64-3.38s.55-2.29.82-3.2.55-1.83.83-2.93a23,23,0,0,0,.54-2.93c.19-.73.37-1.46.56-2.1a3,3,0,0,1,.73-1.28c.18-.18.36.18.36,1a29.11,29.11,0,0,1-.27,3.48c-.19,1.46-.37,3-.73,4.66a3.33,3.33,0,0,0-.19,1.2c0,.18.1.27.27.09.37-.19,1.56-4.58,3.66-13.18.37-1.28.65-2.47,1-3.38a7.15,7.15,0,0,1,.65-1.83c.08-.1.08-.1.17-.1S707.91,472.53,707.91,473.54Zm-10.43,39.15a2.08,2.08,0,0,0,.09.83c.09.09.19.18.28,0a.78.78,0,0,0,.18-.64,1,1,0,0,0-.09-.73c-.09-.28-.18-.37-.28-.28A1.33,1.33,0,0,0,697.48,512.69Zm1.47-7c0,.92.18,1.19.36.82a3.83,3.83,0,0,0,.18-1,2.82,2.82,0,0,0-.18-.83.27.27,0,0,0-.09-.17C699,504.55,699,504.92,699,505.65Zm.82-4.75a3.09,3.09,0,0,0-.37,1.09,2,2,0,0,0-.09,1c0,.27.09.37.28.37s.27-.28.46-.56a3,3,0,0,0,.45-1.09,4.62,4.62,0,0,0,.09-1c0-.27-.09-.36-.27-.36S700,500.53,699.77,500.9Zm.64-2.75c0,1,.09,1.28.37.83a2.84,2.84,0,0,0,.18-.92,2.16,2.16,0,0,0-.18-.82c-.1-.19-.1-.19-.19-.19S700.41,497.42,700.41,498.15Zm1.28-5.95a4.68,4.68,0,0,0-.46,1.19,2.79,2.79,0,0,0-.18,1.1c0,.46,0,.64.09.64s.28-.27.55-.82c.19-.37.36-.73.55-1.19a6.83,6.83,0,0,0,.18-1.1c0-.46-.09-.73-.09-.64S702.05,491.66,701.69,492.2Zm36,51.33c.18,2.19.36,3.93.45,5a16.86,16.86,0,0,0,.37,2.29,5.76,5.76,0,0,0,.55,1.09c.36.46.55.64.73.46a5.19,5.19,0,0,0,0-1.83c-.09-1.09-.27-2.74-.55-5-.64-4.76-1.1-7-1.55-7.14C737.37,538.5,737.37,540.14,737.65,543.53Z" transform="translate(-153.34 -472.07)"/><path class="cls-2" d="M798.39,473.54a16.9,16.9,0,0,1-.18,3.57,20.56,20.56,0,0,1-.64,3.66,19.46,19.46,0,0,0-.82,3.29,29.42,29.42,0,0,0-.65,3.38c-.09,1.1-.27,2.2-.45,3.57s-.37,2.38-.55,3.39c-.74,3.48-1.28,7.23-1.83,11.44-.18,1.64-.46,3-.64,4.11a5.68,5.68,0,0,1-.46,1.83,3.19,3.19,0,0,0-.27,1.28,24.5,24.5,0,0,0-.1,2.84c-.09,1,0,2,0,2.93a7.33,7.33,0,0,0,.28,1.64c.27.46.55.55.64.37a7.06,7.06,0,0,0,.55-2.2c.18-.82.36-1.92.64-3.29s.55-2.56.82-3.75c1-4.57,2-9.7,3-15.46s1.74-10.16,2-13.18c.09-1.55.28-2.83.46-4a14.54,14.54,0,0,1,.55-1.92c.64-.46,1.1-.09,1.47,1.1a16.8,16.8,0,0,1,.17,5c-.09,1.19-.17,2.83-.27,4.85s-.18,3.75-.27,5.58a47.25,47.25,0,0,1-.37,5.12,37.78,37.78,0,0,1-.55,3.94,42.2,42.2,0,0,0-1,5.21,46,46,0,0,0-.28,4.67c0,1.27.18,1.83.55,1.64.46-.46.55.46.27,2.75-.45,3-.73,5.39-.91,7a9.33,9.33,0,0,0,.37,3.84,5.6,5.6,0,0,0,1.55,2.47,92.81,92.81,0,0,0,8,7.5c3.75,3.3,7.5,6.32,11.16,9.06a27,27,0,0,0,3.48,2.47c.82.55,1.37.82,1.64.73s.56-.18.74-.64a8.29,8.29,0,0,0,.18-1.64,10.86,10.86,0,0,0-.27-1.83,34.16,34.16,0,0,1-.92-6c-.36-3-.64-6.32-.91-9.79-.09-.64-.19-2-.37-4.12s-.45-4.21-.64-6.68-.46-5-.55-7.5a40.3,40.3,0,0,1-.09-5.58l.18-4.3,3.21-1.28a22.29,22.29,0,0,1,6.49-1.1,16.93,16.93,0,0,1,6,.83c2.2,1.09,2.84,3.38,1.83,7-.82,2.47-1.19,10.16-.92,22.87.1,2.29.1,4.21.1,5.77a15,15,0,0,1-.1,2.74,6.05,6.05,0,0,0,.1,1.19,8.16,8.16,0,0,0,.27,1.92c.09.64.27,1.92.37,3.57s.36,3.57.46,5.49.36,3.47.54,4.85a7.49,7.49,0,0,0,.64,2.47,4.67,4.67,0,0,0,1.38.73c.64.27,1.46.55,2.28.82a22.39,22.39,0,0,1,2.65,1.1,16.48,16.48,0,0,1,2.29,1.28,11.07,11.07,0,0,0,2.1,1.19,5.83,5.83,0,0,0,2,.37,9,9,0,0,1,1.64.18c.46.09.74.18.83.36a5.57,5.57,0,0,0,2.47,1.1,42,42,0,0,0,4.48,1,27,27,0,0,0,4.39.46l3.66.09-2.92.82a38,38,0,0,1-9,1.37,69.49,69.49,0,0,1-10.8,0,34.26,34.26,0,0,0-4.11-.18,4.5,4.5,0,0,0-2.11.28,1.7,1.7,0,0,0-.36.91,4,4,0,0,0,.18,1.46c.09.56.18,1.1.28,1.74a9.61,9.61,0,0,1,.09,1.56,3.44,3.44,0,0,0,.09,1,1.35,1.35,0,0,0,.36.65c.37.18.73,1,1.1,2.46a33.8,33.8,0,0,1,1.1,4.86,25.08,25.08,0,0,1,.36,3.93c-.09.64-.18,1.37-.27,2.29s-.27,1.73-.46,2.56a6.71,6.71,0,0,0,.1,3,20.86,20.86,0,0,0,1.73,3.93,31.51,31.51,0,0,1,1.47,3.11c.36.92.55,1.46.45,1.56s-.18.45-.09.82a3.57,3.57,0,0,0,.37,1.19,3.16,3.16,0,0,1,.27,1.19c.09.27.09.45,0,.45a.48.48,0,0,1-.36-.27,1.9,1.9,0,0,1-.46-.73,6.59,6.59,0,0,0-1.28-1.83,16.21,16.21,0,0,0-2-1.65,3.43,3.43,0,0,0-1.65-.64.93.93,0,0,1-.73,0,.72.72,0,0,1-.46-.18c-.28-.46-.09.36.64,2.28.09.37,0,.37-.27.1a6.59,6.59,0,0,1-1.19-1.37,12.48,12.48,0,0,1-1.29-1.93,3,3,0,0,1-.54-1.19c.09-.36.27-.36.73.19.64.82,1,.82,1,.27a6.15,6.15,0,0,0-.64-2.93,109.78,109.78,0,0,1-6-16.37c-.74-2.2-1.19-3.94-1.47-5.12a17.61,17.61,0,0,1-.64-3.21c-.09-.91-.18-2-.27-3.47A9.09,9.09,0,0,0,833,567a2.65,2.65,0,0,0-.64-1.46c-.36-.19-.55-.1-.64.27a9.67,9.67,0,0,0,0,2.38c.09.91.19,1.65.28,2.38a3.64,3.64,0,0,0,.36,1.28,7.4,7.4,0,0,1,.37,1.74c.09,1,.18,2.1.27,3.38a31.82,31.82,0,0,0,.37,3.48,5.23,5.23,0,0,0,.73,1.83,2.35,2.35,0,0,1,.64.91,2.51,2.51,0,0,1,.27,1.1,3.47,3.47,0,0,0,.19,1.38,5.34,5.34,0,0,0,.46,1.46c.64,1.55,1.09,2.65,1.37,3.29a3.27,3.27,0,0,1,.18,1.47,2.87,2.87,0,0,0,.28.91,5.12,5.12,0,0,0,.73,1.46,8.7,8.7,0,0,1,.64,1.38c.09.36.09.64,0,.64s-.19.18,0,.45.37.46.73.82a3.75,3.75,0,0,1,.82.92.71.71,0,0,1,.09.74c-.64.54-1.64-.83-3.1-4a105.5,105.5,0,0,1-4.49-12.35,130.68,130.68,0,0,1-3.56-14.64,16.48,16.48,0,0,0-1-3.84,5.91,5.91,0,0,0-2.56-2.38,59.12,59.12,0,0,0-6-2.84,46.09,46.09,0,0,1-5.22-2.65,54.67,54.67,0,0,1-5.4-3.66,35.57,35.57,0,0,0-3.29-2.2,27.4,27.4,0,0,0-2.56-1.37c-.64-.27-1.28-.64-2.1-1s-1.38-.83-1.93-1.2l-1.09-.36-.37,1.74a26.07,26.07,0,0,1-.27,5.12c-.28,2-.56,3.84-.92,5.77s-.55,3.38-.64,4.66c-.18,1.74-.64,4.12-1.19,7.14s-1.1,5.67-1.64,8.23-1,4-1.19,4.58c-.1.18-.37.27-.83.45a7.36,7.36,0,0,1-1.37.46c-.55.18-.92.27-1.28.37a3.18,3.18,0,0,0-1.28.54,1.65,1.65,0,0,0-.83.65,3.22,3.22,0,0,1-2.28,1.1,12.65,12.65,0,0,1-3.75.17.74.74,0,0,1-.46-.17c-.09-.1-.18-.28-.27-.37a1.35,1.35,0,0,0-.28-.37c-.09-.18-.28-.18-.46-.27a.27.27,0,0,0-.36,0,.55.55,0,0,0-.37.09c-.27.09-.55.09-.92.18a4.61,4.61,0,0,1-1.37-.27,2.26,2.26,0,0,1-1-.82,4.68,4.68,0,0,1-.28-1.83,32.67,32.67,0,0,1,.28-3.66c.18-1.65.54-3.85.91-6.5a4.38,4.38,0,0,1,.19-.82c0-.19.09-.28.18-.28h.27a.43.43,0,0,0,.46,0c.09,0,.27-.18.46-.37a6.88,6.88,0,0,0,.36-1.37,33.07,33.07,0,0,0,.73-4.57,37.15,37.15,0,0,0,.37-3.75,4.83,4.83,0,0,0,.09-.92,13,13,0,0,1,.09-2.74,19.13,19.13,0,0,1,.46-2.2,36.94,36.94,0,0,0,1.19-7.13c.46-3.11.83-6,1.28-8.51s.73-4.21.82-4.76c.37-1.28-1.73-3.66-6.31-7.23-1.64-1.28-3.29-2.47-4.76-3.47a18.07,18.07,0,0,0-3.11-2c-2.19-.91-2.37-2.1-.63-3.38s5.12-2.56,10.24-3.75a11.54,11.54,0,0,1,4.12-1.1,8.46,8.46,0,0,1,2.74.37,3.31,3.31,0,0,0,1,.18l1.46-7.23c.64-2.83,1-5,1.19-6.4a22.08,22.08,0,0,0,.18-3.2c0-.83.09-1.83.19-3.12.18-1,.36-2.1.64-3.38s.55-2.29.82-3.2.55-1.83.83-2.93a23,23,0,0,0,.54-2.93c.19-.73.37-1.46.55-2.1s.46-1.1.74-1.28.36.18.36,1a29.11,29.11,0,0,1-.27,3.48c-.19,1.46-.37,3-.74,4.66a3.5,3.5,0,0,0-.18,1.2c0,.18.09.27.27.09.37-.19,1.56-4.58,3.66-13.18.37-1.28.65-2.47,1-3.38a7.72,7.72,0,0,1,.64-1.83c.09-.1.09-.1.18-.1S798.39,472.53,798.39,473.54ZM788,512.69a2.08,2.08,0,0,0,.09.83c.09.09.19.18.28,0a.78.78,0,0,0,.18-.64,1,1,0,0,0-.09-.73c-.09-.28-.18-.37-.28-.28A1.33,1.33,0,0,0,788,512.69Zm1.47-7c0,.92.18,1.19.36.82a3.83,3.83,0,0,0,.18-1,2.82,2.82,0,0,0-.18-.83.27.27,0,0,0-.09-.17C789.52,504.55,789.43,504.92,789.43,505.65Zm.82-4.75a3.09,3.09,0,0,0-.37,1.09,2,2,0,0,0-.09,1c0,.27.09.37.28.37s.27-.28.45-.56a3,3,0,0,0,.46-1.09,4.62,4.62,0,0,0,.09-1c0-.27-.09-.36-.27-.36S790.43,500.53,790.25,500.9Zm.64-2.75c0,1,.09,1.28.37.83a2.84,2.84,0,0,0,.18-.92,2.16,2.16,0,0,0-.18-.82c-.1-.19-.1-.19-.19-.19S790.89,497.42,790.89,498.15Zm1.28-5.95a4.68,4.68,0,0,0-.46,1.19,2.79,2.79,0,0,0-.18,1.1c0,.46,0,.64.09.64s.28-.27.55-.82c.18-.37.36-.73.55-1.19a6.83,6.83,0,0,0,.18-1.1c0-.46-.09-.73-.09-.64S792.53,491.66,792.17,492.2Zm36,51.33c.19,2.19.37,3.93.46,5a16.86,16.86,0,0,0,.37,2.29,6.48,6.48,0,0,0,.54,1.09c.37.46.56.64.74.46a5.19,5.19,0,0,0,0-1.83c-.09-1.09-.28-2.74-.55-5-.64-4.76-1.1-7-1.56-7.14C827.85,538.5,827.85,540.14,828.12,543.53Z" transform="translate(-153.34 -472.07)"/><path class="cls-2" d="M886,492.93a7.59,7.59,0,0,0,3,2.84,13,13,0,0,0,5,1.65,4.13,4.13,0,0,1,2.11.91,6.1,6.1,0,0,1,1.19,1.65,3,3,0,0,0,.64,1.1c.27.27.46.46.64.46.36,0,.64.27.73.91a9.76,9.76,0,0,1-.18,2.19,4.84,4.84,0,0,1-.92,1.83,19.26,19.26,0,0,0-2,3.39,11.8,11.8,0,0,0-1.19,4.76,46.66,46.66,0,0,0,1.83,9.33c1.1,4.3,2.47,8.78,3.93,13.26A80.43,80.43,0,0,0,905,547.37c.28.64.64,1.37.92,2.2a11.86,11.86,0,0,1,.54,2.28c.19.64.37,1.38.65,2.29a11.46,11.46,0,0,0,.91,2.2c.27.73.55,1.28.73,1.92a3.54,3.54,0,0,1,.37,1.28,1.74,1.74,0,0,0,.27.82,2.3,2.3,0,0,0,.73.83,4.22,4.22,0,0,1,.83,1.18,6.25,6.25,0,0,1,.64,1.65c.18.55.36,1.28.73,2.2a21,21,0,0,0,1.1,2.56c.36.82.82,2,1.46,3.39s1.19,2.83,1.74,4.29,1.28,2.84,2.11,4.58,1.55,3.11,2.28,4.3c1.74,2.74,3,4.85,3.84,6.4a26.06,26.06,0,0,1,1.65,3.48,2.87,2.87,0,0,1,.09,1.74,15.5,15.5,0,0,1-1.37,2.83c-.73,1.1-1.37,2-2.1,2.93a4.45,4.45,0,0,1-1.47,1.37,14.33,14.33,0,0,0-4.75,1c-.46.18-1,0-1.65-.73a24.33,24.33,0,0,1-2.75-3.66c-1.82-2.75-3.65-6-5.67-9.88a100.18,100.18,0,0,1-4.48-9.43L901,578c-.64-1.46-1.19-2.93-1.83-4.39s-1.19-3.12-1.93-5-1.18-3.56-1.64-5-1-3.12-1.65-5.22-1.37-3.93-2-5.67-1.19-3.39-1.65-4.94a19.77,19.77,0,0,1-.91-3.39c-.09-.64-.28-1.46-.46-2.38s-.55-1.83-.82-2.56l-.92-2.83-1.83,3.93c-.82,1.83-1.46,3.29-1.82,4.3a14.5,14.5,0,0,0-.92,2.56,18.83,18.83,0,0,0-.37,2.38,21.72,21.72,0,0,1-.91,3.75c-.55,1.83-1.19,3.66-1.92,5.58S878,563,877.25,565s-1.28,3.65-1.74,4.75a31.56,31.56,0,0,1-1.28,3.21,7.83,7.83,0,0,1-1.1,2.19,8.06,8.06,0,0,0-.73,1.47c-.27.55-.46,1-.64,1.37-.18.73-.18.09,0-1.74a31.58,31.58,0,0,1,.73-3.2,18.13,18.13,0,0,1,1-2.93,10.63,10.63,0,0,0,.92-6.31c-.28-2.2-.1-3.66.54-4.39a5.29,5.29,0,0,0,.64-1.28,14.12,14.12,0,0,0,.37-1.37,7.12,7.12,0,0,1,.09-1.38,2.27,2.27,0,0,1,.36-.91c.1-.28.28-.74.56-1.47s.45-1.55.64-2.29a5.37,5.37,0,0,0,.18-1.37,5.13,5.13,0,0,1,.28-1c.17-.55.45-1.29.73-2a14.49,14.49,0,0,0,.54-2.1c0-.55,0-.83-.18-.83s-.36.19-.64.65a11.72,11.72,0,0,0-.55,1.37,7,7,0,0,1-.46,1.55,3.7,3.7,0,0,1-.36,1.1,2.16,2.16,0,0,0-.37,1,3,3,0,0,0-.27,1.28,17.61,17.61,0,0,1-.55,1.92c-.28.73-.55,1.56-.92,2.38a13.19,13.19,0,0,0-.82,2.11,5.57,5.57,0,0,0-.46,1.27c-.09.56-.27,1.38-.55,2.56s-.63,2.29-1,3.48a18.92,18.92,0,0,1-.92,2.57,33.85,33.85,0,0,0-1.73,4.84c-.64,2-1.2,4-1.65,5.77a10.5,10.5,0,0,0-.55,3.2.61.61,0,0,1,.09.55.29.29,0,0,1-.27.27,15.84,15.84,0,0,0-1.19,2.11c-.55,1.28-1.1,2.65-1.65,4.12s-.91,2.83-1.19,3.83a4.53,4.53,0,0,1-.55,1.56,5.16,5.16,0,0,1-.73,1.28,6.58,6.58,0,0,0-1,1.38c-.37.63-.83,1.37-1.2,2-.73,1.47-1,1.83-.82,1.2a16.74,16.74,0,0,0,.28-2.2c0-1,.09-2.1.09-3.29a25,25,0,0,1,.18-3.48,1,1,0,0,1,1-.82c.73,0,.91-.19.46-.37a.74.74,0,0,1-.56-.92,9,9,0,0,1,.83-2.74v-.18a7.44,7.44,0,0,0,.36-1,7.77,7.77,0,0,0,.37-1.19c.18-.54.37-1.28.73-2.37,0-.1.1-.28.1-.37.36-1.37,1.18-4,2.46-7.87s2.47-7.5,3.66-11.16,1.93-5.85,2.29-6.68c.09-.27.18-.64.37-1.1s.18-.73.27-1c.55-2.75,1-5,1.46-6.78s.83-2.46,1.1-2.46.28-.19.37-.37a1,1,0,0,0,.18-.73c0-.27.28-1.56.82-3.84S877,533,877.8,530c1.92-7,2.74-11,2.38-12a23.33,23.33,0,0,1-.55-4c-.09-2-.18-4.21-.28-6.5a35.77,35.77,0,0,1,.28-5.12c0-.28.09-.37.18-.28s.27.19.37.37.36.55.55.82.27.46.36.74.28.36.46.46.19.08.27-.1v-.27a.09.09,0,0,0,.09-.09v-.1l-.09-.09-.08-.09V503a3.94,3.94,0,0,1,.08-.92,56.2,56.2,0,0,1,.28-6,11.73,11.73,0,0,1,.46-3.3,1.87,1.87,0,0,1,1.83-1.19A1.71,1.71,0,0,1,886,492.93ZM874,565.76c.18.18.18.27.18.55a.7.7,0,0,1-.09.46c0,.18-.09.18-.19.18s-.18,0-.36-.18a2.05,2.05,0,0,1-.37-.46c-.18-.28-.18-.37-.09-.55s.18-.18.37-.18A1.37,1.37,0,0,1,874,565.76Zm14.18-.55a23,23,0,0,1,5,3.84c1.46,1.46,2.28,2.56,2.38,3.39a2.63,2.63,0,0,1-.55,1.19,9.41,9.41,0,0,1-1.19,1.64,9.25,9.25,0,0,0-1.28,1.56,2.65,2.65,0,0,0-.55.91.65.65,0,0,1-.19.46,1.25,1.25,0,0,1-.54.19c-.37,0-.83.27-1.46.91a13,13,0,0,0-1.93,2A3.33,3.33,0,0,0,887,583c0,.46-.64,1.37-1.74,2.83s-2.65,3.21-4.48,5.22a15.47,15.47,0,0,0-2,2.29,18.61,18.61,0,0,0-1.47,2.19c-1.55,2.93-1.83,2.75-.73-.55.18-.73.46-1.74.64-2.83s.37-2.2.46-3.11a25.39,25.39,0,0,1,.37-3.48,28.85,28.85,0,0,1,.73-3.66,21.52,21.52,0,0,0,.64-2.74,4.62,4.62,0,0,0,.09-1.47,6.12,6.12,0,0,1,.27-2.19c.27-1.29.73-2.75,1.19-4.3s1-3.11,1.47-4.39a15.52,15.52,0,0,1,1.18-2.48c.37-.27.65-.54,1-.54C885.21,563.66,886.4,564.2,888.14,565.21ZM878.62,551a3.37,3.37,0,0,0-.18,1,3.3,3.3,0,0,0,.18,1,.67.67,0,0,0,.55.37.47.47,0,0,0,.46-.37,1.85,1.85,0,0,0,.28-1,1.89,1.89,0,0,0-.28-1c-.09-.28-.28-.46-.46-.46S878.81,550.75,878.62,551Zm12.54-27a2,2,0,0,0-.92.55.8.8,0,0,0-.36.64,25.25,25.25,0,0,0,.73,3.29c.55,1.83,1.18,4,1.92,6.41s1.55,4.84,2.29,7.13c.36,1.1.82,2.57,1.37,4.3s1.09,3.39,1.55,4.95,1,2.92,1.47,4.29a16.46,16.46,0,0,0,1.37,2.84c.27.55.64,1.19,1.1,2.1s.73,1.83,1,2.66a8.28,8.28,0,0,0,.92,2.19c.36.55.73.92.91.92.74,0,.55-1.1-.45-3.29-.37-.92-.73-1.83-1-2.75a7.11,7.11,0,0,1-.37-1.92,8.81,8.81,0,0,0-.64-2.56c-.36-1.28-.91-2.75-1.46-4.21s-1.1-2.84-1.47-3.93a11.47,11.47,0,0,1-.54-1.93,9.12,9.12,0,0,0-.55-2.56c-.46-1.28-.91-2.65-1.47-4a11,11,0,0,0-1.37-2.84,3.18,3.18,0,0,1-.64-1.37,7.06,7.06,0,0,1-.27-1.92,7.4,7.4,0,0,0-.28-2,3.51,3.51,0,0,0-.54-1.64,11.54,11.54,0,0,1-.56-1.65,6.93,6.93,0,0,1-.27-1.83c-.09-1.19-.37-1.83-.83-1.92A1.78,1.78,0,0,0,891.16,524Zm-.92,16.19c.37,3.57.92,5.4,1.74,5.4.18,0,.27-.27.27-.73a7.52,7.52,0,0,0-.27-1.64c-.19-.65-.36-1.38-.55-2.11s-.55-1.46-.73-1.92a5.83,5.83,0,0,0-.55-1.1C890.06,538,890.06,538.68,890.24,540.23Zm3.94,10.71v.73a1,1,0,0,0,.18.73.61.61,0,0,0,.46.37.33.33,0,0,0,.36-.37c.1-.18,0-.46-.09-.73a4.49,4.49,0,0,0-.37-.73.63.63,0,0,0-.27-.37C894.36,550.57,894.27,550.66,894.18,550.94Z" transform="translate(-153.34 -472.07)"/></g></svg>