<svg id="Capa_1" data-name="Capa 1" xmlns="http://www.w3.org/2000/svg" viewBox="0 0 993.6 810.71"><defs><style>.cls-1{fill:none;stroke:#000;stroke-miterlimit:10;}.cls-2{fill:#999;}.cls-3{fill:#1d1d1b;}.cls-4{fill:#fff;}</style></defs><title>nurefondo</title><path class="cls-1" d="M102.54,833.5a402.06,402.06,0,0,1-65.19-4.43c-34.14-5.32-15.07-16.41-15.07-16.41S48.44,794,84.8,791.82,115,775.41,115,775.41s-21.29-15.52-47.89-11.09-16.41-8.42-16.41-8.42,23.5-4.44,1.33-11.09-1.33-16.41-1.33-16.41A465.73,465.73,0,0,1,118.51,716c35.47-3.55,10.64-19.51,10.64-19.51S75.93,688.94,45.78,685s-14.19-10.2-14.19-10.2S46.22,661.44,91,665.88s213.93-9.1,213.93-9.1l389.16-14s215.52-6.65,266.52-2.22,15.52,15.08,15.52,15.08S758,653.46,848.43,671.2c0,0,160.08-.44,125.94,30.6,0,0-9.32,4,22.17,11.53s-4,19.06-4,19.06-78.49,3.32-88.25,14.52,3.1,17.41,3.1,17.41,74.06,1.33,85.15,12.86-7.54,12-7.54,12-69.18-3.11-41.69,18.62-16,22.62-16.4,24-405.32,3.15-431,31.95" transform="translate(-16.47 -251.84)"/><path class="cls-2" d="M345.14,746.91h343.2L574.82,634.39,518,596.26l-.21-41.47s70.36-4.65,46-86.25L454.2,357.68,385.91,518.21l50.55,72.72L333.58,722.2S315,740.59,318.5,746.91Z" transform="translate(-16.47 -251.84)"/><path class="cls-3" d="M235.13,787.83s-65.63-16,7.1-78.05c0,0,60.31-19.51,77.16-88.69s16-136.58,16-136.58-6.2-148.12,75.39-206.65,159.64,0,159.64,0,47.89,23.94,61.2,136.58S691,620.2,691,620.2s24,84.26,102.88,106.43S871,776.3,871,776.3s13.31,31-52.33,40.79-75.38,23.06-75.38,23.06-10,13.31,11.31,17.3c0,0-18,4-34.15-17.52S758,801.13,758,801.13s89.58-7.76,9.31-54.77-64.52-17.51-64.52-17.51,17.07,24.17-20.84,42.79-59,17.07-59,17.07-51.22,14.86,42.57,11.53,49,41,49,41-8.42,7.32-28.38,2.22c0,0,42.35-14.19,6.88-25.94s-136.36,8-136.36,8-88.47,15.74-59-21.51S631.8,771.64,631.8,771.64s64.52-17.07,16.63-42.35-60.31,2.22-60.31,2.22-58.09,24.39-80.71-16c0,0-8-15.07,41.24-27.49,0,0,17.74-2.22,24.84-26.16l1.33-27.5s-20.4-2.66-56.77-20.1l-.29-59.5s62.82-20.17,46-86.25c0,0-87.8-54.1-102.44-89.58,0,0-14.19,60.76-50.55,102.44,0,0-15.08,44.79,48.34,79.38L458.63,614s-25.72,6.66-46.56,16.41c0,0-6.25,38.33,44.79,58.54s36.95,39.76,36.95,39.76,1.78,9.76-61.78,10.64-56.17,18-56.17,18-4.44,8.27,38.72,8.27c0,0,40.21,7.39,8.58,29.57,0,0-25.13,5.61-28.09,5.61s-13.15-7.68-13.15-7.68,34.58-7.1,6-14.86c0,0-39-4-45.67-19.95s32.37-25.5,32.37-25.5,21.28-6.88,53-10.42c0,0,20.4-3.33-4.43-13.75s-30.6-15.52-30.6-15.52-11.09,24.61-67,46.78l-35.48.89s10.64-12.86-3.55-9.76c0,0-66.51,30.6-10.2,43,0,0,12.42,5.32,46.12,4.43a162.24,162.24,0,0,1,60.31,10.2s30.6,16.41,16.41,39S342,863.68,342,863.68H154.43s-6.21-12,35-13.33,90,5.77,90,5.77,55.43,4.43,72.72-13.75S326,806,326,806,271.5,792.7,235.13,787.83Z" transform="translate(-16.47 -251.84)"/><path class="cls-1" d="M253.76,717.76s-171.62,20-35.92,43.9" transform="translate(-16.47 -251.84)"/><path class="cls-1" d="M523.38,803.79s-60.31,4-84.26,0" transform="translate(-16.47 -251.84)"/><path class="cls-1" d="M767.27,721.75s149.32-1.82,54.55-20-105.54,4-105.54,4" transform="translate(-16.47 -251.84)"/><path class="cls-4" d="M179.4,936.13a15.54,15.54,0,0,1-.17,3.36,19.15,19.15,0,0,1-.6,3.44,19.65,19.65,0,0,0-.78,3.1,28.82,28.82,0,0,0-.6,3.18c-.09,1-.26,2.06-.43,3.36s-.34,2.23-.52,3.18c-.68,3.27-1.2,6.8-1.72,10.76-.17,1.55-.43,2.84-.6,3.87a4.91,4.91,0,0,1-.43,1.72,3,3,0,0,0-.26,1.21c-.08.77-.08,1.63-.08,2.66s0,1.9,0,2.76a6.71,6.71,0,0,0,.25,1.55c.26.43.52.51.61.34a6.59,6.59,0,0,0,.51-2.06c.17-.78.35-1.81.61-3.1s.51-2.41.77-3.53c.95-4.3,1.89-9.12,2.84-14.54s1.63-9.56,1.89-12.4c.09-1.46.26-2.67.43-3.78a14,14,0,0,1,.52-1.81c.6-.43,1-.09,1.38,1a16.16,16.16,0,0,1,.17,4.73c-.09,1.12-.17,2.66-.26,4.56s-.17,3.53-.26,5.25a44.45,44.45,0,0,1-.34,4.82c-.17,1.63-.35,2.92-.52,3.7a41.3,41.3,0,0,0-.95,4.9c-.17,1.72-.25,3.18-.25,4.39s.17,1.72.51,1.55c.43-.43.52.43.26,2.58-.43,2.84-.69,5.08-.86,6.54a8.81,8.81,0,0,0,.34,3.61,5.26,5.26,0,0,0,1.47,2.33,86.57,86.57,0,0,0,7.57,7.06c3.53,3.09,7.06,5.94,10.5,8.51a25.16,25.16,0,0,0,3.27,2.33c.77.52,1.29.77,1.55.69s.52-.17.69-.61a8,8,0,0,0,.17-1.54,10.73,10.73,0,0,0-.26-1.72,33.47,33.47,0,0,1-.86-5.6c-.34-2.84-.6-5.94-.86-9.2-.09-.61-.17-1.9-.34-3.88s-.43-4-.61-6.28-.43-4.73-.51-7.06a38.74,38.74,0,0,1-.09-5.25l.17-4,3-1.21a21.21,21.21,0,0,1,6.11-1,15.67,15.67,0,0,1,5.67.78c2.07,1,2.67,3.18,1.73,6.62-.78,2.33-1.12,9.55-.86,21.51.08,2.16.08,4,.08,5.43a16.69,16.69,0,0,1-.08,2.58,6.66,6.66,0,0,0,.08,1.12,7.64,7.64,0,0,0,.26,1.8c.09.61.26,1.81.34,3.36s.35,3.36.43,5.17.35,3.26.52,4.56a6.76,6.76,0,0,0,.6,2.32,4.31,4.31,0,0,0,1.29.69c.61.26,1.38.51,2.16.77a21.32,21.32,0,0,1,2.49,1,14.55,14.55,0,0,1,2.15,1.21,10.66,10.66,0,0,0,2,1.12,5.49,5.49,0,0,0,1.89.34,9,9,0,0,1,1.55.17c.43.09.69.18.78.35a5.29,5.29,0,0,0,2.32,1,40.75,40.75,0,0,0,4.22,1,25.66,25.66,0,0,0,4.13.43l3.44.08-2.75.78a36.37,36.37,0,0,1-8.44,1.29,66.1,66.1,0,0,1-10.15,0,32.17,32.17,0,0,0-3.87-.17,4.2,4.2,0,0,0-2,.26,1.65,1.65,0,0,0-.35.85,3.62,3.62,0,0,0,.18,1.38c.08.52.17,1,.25,1.64a8.4,8.4,0,0,1,.09,1.46,3.13,3.13,0,0,0,.09,1,1.16,1.16,0,0,0,.34.6c.34.17.69,1,1,2.32a32.77,32.77,0,0,1,1,4.57,24.09,24.09,0,0,1,.34,3.7c-.09.6-.17,1.28-.26,2.15s-.26,1.63-.43,2.41a6.35,6.35,0,0,0,.09,2.84,19.64,19.64,0,0,0,1.63,3.7,27.89,27.89,0,0,1,1.38,2.92c.34.87.52,1.38.43,1.47s-.17.43-.09.77a3.32,3.32,0,0,0,.35,1.12,3,3,0,0,1,.26,1.12c.08.26.08.43,0,.43a.48.48,0,0,1-.35-.26,1.93,1.93,0,0,1-.43-.69,6.28,6.28,0,0,0-1.2-1.72,15.22,15.22,0,0,0-1.9-1.55,3.22,3.22,0,0,0-1.55-.6.89.89,0,0,1-.68,0,.66.66,0,0,1-.43-.17c-.26-.43-.09.34.6,2.15.08.34,0,.34-.26.08a6.5,6.5,0,0,1-1.12-1.28,10.89,10.89,0,0,1-1.2-1.81,2.79,2.79,0,0,1-.52-1.12c.09-.35.26-.35.69.17.6.77,1,.77,1,.26a5.74,5.74,0,0,0-.61-2.76,103.69,103.69,0,0,1-5.68-15.4,49.2,49.2,0,0,1-1.37-4.82,15.43,15.43,0,0,1-.61-3c-.08-.86-.17-1.89-.25-3.27a8.64,8.64,0,0,0-.35-2.67c-.17-.69-.34-1.21-.6-1.37s-.52-.09-.6.25a8.56,8.56,0,0,0,0,2.24c.08.86.17,1.55.25,2.24a3.29,3.29,0,0,0,.35,1.2,7,7,0,0,1,.34,1.64c.09.94.18,2,.26,3.18a30.41,30.41,0,0,0,.35,3.27,4.86,4.86,0,0,0,.68,1.72,2.29,2.29,0,0,1,.61.86,2.34,2.34,0,0,1,.25,1,3.23,3.23,0,0,0,.18,1.29,4.7,4.7,0,0,0,.43,1.37c.6,1.47,1,2.5,1.29,3.1a3,3,0,0,1,.17,1.38,2.9,2.9,0,0,0,.26.86,4.77,4.77,0,0,0,.69,1.37,9.12,9.12,0,0,1,.6,1.3c.08.34.08.6,0,.6s-.17.17,0,.43.34.43.69.77a3.54,3.54,0,0,1,.77.87.7.7,0,0,1,.09.68c-.6.52-1.55-.77-2.93-3.78a101.35,101.35,0,0,1-4.21-11.62,121.84,121.84,0,0,1-3.36-13.77,15,15,0,0,0-1-3.62,5.56,5.56,0,0,0-2.41-2.23,54.83,54.83,0,0,0-5.68-2.67,43,43,0,0,1-4.9-2.5,47.73,47.73,0,0,1-5.08-3.44,31.41,31.41,0,0,0-3.1-2.06,22.53,22.53,0,0,0-2.41-1.3c-.6-.25-1.2-.6-2-.94s-1.29-.78-1.8-1.12l-1-.35-.34,1.64a23.75,23.75,0,0,1-.26,4.82c-.26,1.89-.52,3.61-.86,5.42s-.52,3.19-.6,4.39c-.17,1.63-.6,3.88-1.12,6.71s-1,5.34-1.55,7.75a42.83,42.83,0,0,1-1.12,4.3c-.08.17-.34.26-.77.43a7.23,7.23,0,0,1-1.29.43c-.52.17-.86.26-1.21.35a2.86,2.86,0,0,0-1.2.51,1.49,1.49,0,0,0-.78.61,3,3,0,0,1-2.15,1,11.83,11.83,0,0,1-3.53.17.7.7,0,0,1-.43-.17c-.08-.09-.17-.26-.26-.35a1.11,1.11,0,0,0-.25-.34c-.09-.18-.26-.18-.43-.26a.29.29,0,0,0-.35,0,.54.54,0,0,0-.34.08c-.26.09-.52.09-.86.18a4.25,4.25,0,0,1-1.29-.26,2.13,2.13,0,0,1-1-.77,4.57,4.57,0,0,1-.26-1.72,33.15,33.15,0,0,1,.26-3.45c.17-1.55.52-3.61.86-6.11a7.52,7.52,0,0,1,.17-.77c0-.18.09-.26.17-.26h.26a.42.42,0,0,0,.43,0c.09,0,.26-.17.43-.34a6.42,6.42,0,0,0,.35-1.3,33.91,33.91,0,0,0,.69-4.3c.17-1.46.34-2.67.34-3.53a4.2,4.2,0,0,0,.09-.86,12.23,12.23,0,0,1,.08-2.58,18.39,18.39,0,0,1,.43-2.06,34.5,34.5,0,0,0,1.12-6.72c.43-2.92.78-5.59,1.21-8s.68-4,.77-4.47c.34-1.21-1.63-3.44-5.94-6.8-1.55-1.21-3.1-2.33-4.47-3.27a16.77,16.77,0,0,0-2.93-1.9c-2.06-.86-2.24-2-.6-3.18s4.82-2.41,9.64-3.53a10.7,10.7,0,0,1,3.87-1,8.35,8.35,0,0,1,2.58.34,3,3,0,0,0,.95.17l1.38-6.8c.6-2.66.94-4.73,1.11-6a19.47,19.47,0,0,0,.18-3c0-.77.08-1.72.17-2.93.17-.94.34-2,.6-3.18s.52-2.15.77-3,.52-1.72.78-2.76a21.55,21.55,0,0,0,.52-2.75c.17-.69.34-1.38.51-2a3,3,0,0,1,.69-1.21c.17-.16.34.18.34.95a27.08,27.08,0,0,1-.25,3.27c-.18,1.38-.35,2.85-.69,4.39a3.22,3.22,0,0,0-.17,1.12c0,.17.08.26.25.09.35-.18,1.47-4.31,3.45-12.39.34-1.21.6-2.33.94-3.19a6.79,6.79,0,0,1,.61-1.72c.08-.09.08-.09.17-.09S179.4,935.18,179.4,936.13ZM169.59,973a1.84,1.84,0,0,0,.09.78c.08.09.17.17.26,0a.73.73,0,0,0,.17-.6,1,1,0,0,0-.09-.69c-.08-.26-.17-.35-.26-.26A1.26,1.26,0,0,0,169.59,973Zm1.38-6.62c0,.86.17,1.11.34.77a3.52,3.52,0,0,0,.17-1,2.43,2.43,0,0,0-.17-.77.28.28,0,0,0-.08-.17C171.05,965.3,171,965.65,171,966.34Zm.77-4.48a2.9,2.9,0,0,0-.34,1,1.91,1.91,0,0,0-.09,1c0,.26.09.35.26.35s.26-.26.43-.52a2.79,2.79,0,0,0,.43-1,3.94,3.94,0,0,0,.09-.94c0-.26-.09-.34-.26-.34S171.91,961.52,171.74,961.86Zm.61-2.58c0,.94.08,1.2.34.78a2.49,2.49,0,0,0,.17-.87,2,2,0,0,0-.17-.77c-.09-.17-.09-.17-.17-.17S172.35,958.59,172.35,959.28Zm1.2-5.6a4.66,4.66,0,0,0-.43,1.12,2.64,2.64,0,0,0-.17,1c0,.43,0,.6.08.6s.26-.26.52-.77c.17-.35.34-.69.52-1.12a7.19,7.19,0,0,0,.17-1c0-.44-.09-.69-.09-.61S173.89,953.17,173.55,953.68ZM207.37,1002c.17,2.07.34,3.7.43,4.74a18.06,18.06,0,0,0,.34,2.15,6.5,6.5,0,0,0,.52,1c.35.43.52.6.69.43a4.59,4.59,0,0,0,0-1.72c-.09-1-.26-2.58-.52-4.73-.6-4.48-1-6.63-1.46-6.72C207.11,997.23,207.11,998.78,207.37,1002Z" transform="translate(-16.47 -251.84)"/><path class="cls-4" d="M290.24,960.57c.09-.09.26-.09.52,0a1.63,1.63,0,0,1,.77.26,4.39,4.39,0,0,1,1.12,1.12h.09a9.7,9.7,0,0,0,.77.94,6,6,0,0,0,.86,1,6.89,6.89,0,0,0,1.12,1.11c.69.61,1.38,1.3,2.07,2a9.84,9.84,0,0,1,1.63,2.06c.35.6.78,1.12,1.21,1.72a5.92,5.92,0,0,0,1.2,1.29,4.15,4.15,0,0,1,.78,1,3.28,3.28,0,0,1,.43.94,1.1,1.1,0,0,0,.26.69c.17.26.43.34.68.52a1.81,1.81,0,0,1,.69.51,1.68,1.68,0,0,1,.26.86,2.62,2.62,0,0,0,.17.86c.17.18.26.26.43.26a.48.48,0,0,1,.43.18c.09.08.17.16.17.25s0,.6.26,1.38.52,1.63.86,2.67a33.32,33.32,0,0,1,1.12,13c-.34,1.64-.51,3.27-.69,4.9a21.14,21.14,0,0,0-.25,3.45,32.72,32.72,0,0,1-1,7.23,68,68,0,0,1-3.35,11.1,61.13,61.13,0,0,1-8,13.42c-.51.78-1,1.47-1.46,2.07a28.77,28.77,0,0,1-3.18,3.79c-1.38,1.37-3.7,3.44-7,6.36l-1,.78a3.93,3.93,0,0,1-.69.34,6.93,6.93,0,0,0-1.2.52c-.6.35-1.38.86-2.24,1.38a17.14,17.14,0,0,1-6.88,2.32,17.58,17.58,0,0,1-7.14-.6,6.88,6.88,0,0,1-3.27-1.9c-.69-.85-.61-1.54.34-2.23.43-.26.69-.43.77-.61s.09-.34-.08-.34c-.43.26-2.93-2-7.4-6.62-.78-.69-1.38-1.3-1.9-1.73a4,4,0,0,0-.94-.68c-.09,0-.26.25-.43.68a6.9,6.9,0,0,0-.61,1.73,7.47,7.47,0,0,1-.68,1.63,2.08,2.08,0,0,1-.78.77c-.43,0-.69-.17-.77-.43a1.34,1.34,0,0,1,.77-1.72,1.71,1.71,0,0,0,.78-.77,1.51,1.51,0,0,0,.08-.86.57.57,0,0,0-.6-.43.49.49,0,0,1-.43-.26,1.87,1.87,0,0,1-.09-.78,16.4,16.4,0,0,0-.17-3c-.17-.77-.43-1.21-.69-1.29a.86.86,0,0,0-.43.34,2.74,2.74,0,0,0-.17.87,4.83,4.83,0,0,1-.17.94,3.28,3.28,0,0,1-.52.78c-.34.25-.51.25-.6-.18a13.42,13.42,0,0,1-.09-2.32,9.88,9.88,0,0,0-1.2-5.76,17.56,17.56,0,0,0-1.72-2.76c-.6-.6-1.12-1.12-1.64-1.55a8.62,8.62,0,0,1-.94-.77c-.35-.34-.69-.78-1.12-1.29a18.75,18.75,0,0,1-1-1.72l-1-1.55a4.42,4.42,0,0,0-.86-1,24.21,24.21,0,0,1-1.72-1.89c-.69-1-1.38-2-2.07-2.93a9.21,9.21,0,0,1-1-1.89c-.08-.35.52-.69,1.64-1a46.14,46.14,0,0,1,6-.86,13.41,13.41,0,0,0,4.91-1.38,2.3,2.3,0,0,1,1.46-.34c.43.43.77.43,1-.08a11.26,11.26,0,0,0,.35-3.36c.08-1.72.08-4.39,0-7.92-.18-5.34-.35-9.64-.69-13a96.88,96.88,0,0,0-1.72-10.75c-.78-3.87-1.64-6.46-2.5-7.57a7.17,7.17,0,0,1-.77-1.21,2.13,2.13,0,0,1-.35-.94c.09-.87,1-1.3,2.84-1.38a26.82,26.82,0,0,1,6.46.86,24.05,24.05,0,0,1,6.62,2.58,8.06,8.06,0,0,1,.52,1.89c.34,1.21.69,2.67,1,4.39a44.84,44.84,0,0,1,1.21,6.89c.25,2.32.43,5.24.51,8.77.09,3,.18,5.68.09,8.09s-.26,5.25-.52,8.52-.69,7.75-1.29,13.34c-.26,2.76-.43,5-.51,6.8a13.19,13.19,0,0,0,.08,3.1,4.47,4.47,0,0,1,.69,1.2l.77,2.07a19.06,19.06,0,0,0,1,2.41,10,10,0,0,0,1.29,2c.34.51.77,1.2,1.29,2a19.44,19.44,0,0,1,1.29,2.16c.34.69.69,1.29,1,1.81a14.31,14.31,0,0,0,.94,1.46c.86,1.2,1,1.8.52,2s-.78.51-.6.86.43.43,1,.43a5.73,5.73,0,0,0,2.32-1.21c1-.77,2.24-1.72,3.53-2.83a32.88,32.88,0,0,0,3.53-3.28,37.11,37.11,0,0,1,2.75-2.92c1.21-1.29,2.33-2.41,3.36-3.53a8.48,8.48,0,0,0,1.89-2.58c.09-.17.26-.43.43-.78s.52-.77.69-1.12a8.18,8.18,0,0,0,.6-.77c.18-.26.43-.69.86-1.46s.87-1.46,1.3-2.33a23.72,23.72,0,0,0,1-2.15,14.87,14.87,0,0,1,1.12-2.84c.34-.77.69-1.55.94-2.24.43-1.46.69-2.66,1-3.61s.34-1.64.52-1.64.17.09.25.18a.61.61,0,0,1,.18.43,1.5,1.5,0,0,1,0,.6c-.43.86-.18.94.6.26a7.32,7.32,0,0,0,1.29-2.84,48.49,48.49,0,0,0,1.12-5.34,28.33,28.33,0,0,0,.34-4.73c0-1.12.09-2.15.18-3.18.08-2.33-.35-2.16-1.21.6v1.89a1.21,1.21,0,0,1-.09.6,16.18,16.18,0,0,0-.43,3.19l-.25,2.15a28.56,28.56,0,0,1-1,4.13c-.34,1-.51,1.38-.69,1.12a5.37,5.37,0,0,1-.08-1.38,11.57,11.57,0,0,1,.43-2.32A51.34,51.34,0,0,0,295.15,994a83.28,83.28,0,0,0-.35-10.67c-.17-1.72-.34-3.36-.51-4.82s-.35-2.5-.43-3c-.26-.86-.35-1.29-.26-1.38s.34.17.77.69a7,7,0,0,1,.61,1c.08.26.17.52.08.6-.17.35,0,.44.43.44s.52.43.26,1.28a1.59,1.59,0,0,0,.52,1.81c.6.35.69.69.08.86s-.51.78-.08,1.73a8.62,8.62,0,0,1,.34,2.14,20,20,0,0,1,0,3.28c-.09,2.75,0,3.95.43,3.44a4.84,4.84,0,0,0,.78-2.41,29.82,29.82,0,0,0,.43-4,18.22,18.22,0,0,0-.26-3.44c-.17-.6-.26-1.38-.43-2.24s-.35-1.72-.43-2.49a18.65,18.65,0,0,0-1.55-5.6,50.19,50.19,0,0,0-4.73-7.14c-1-1.21-1.47-2-1.81-2.5s-.35-.86-.17-.94.43-.09.77-.09h.6Zm-43.71,80.29a4.92,4.92,0,0,1,.08,1.12,1.07,1.07,0,0,1-.34.77c-.35.35-.52-.08-.6-1.29s0-1.72.17-1.89S246.18,1039.92,246.53,1040.86ZM250,994.05c0,.51,0,1.63-.09,3.44s-.17,3.7-.26,5.94c-.17,2.92-.17,5.07-.17,6.36a6,6,0,0,0,.6,2.76c.52.86.95,1.12,1.21.77a27.67,27.67,0,0,0,.26-3.35c.08-1.9.08-4.13.08-6.63s0-4.73-.08-6.71a30.15,30.15,0,0,0-.26-3.44c-.26-.52-.52-.78-.69-.78C250.14,992.41,249.88,992.93,250,994.05Zm2.92,13.59a18.07,18.07,0,0,0-.34,2.59c-.43,5.42-.17,6.54.6,3.18a21.62,21.62,0,0,0,.69-4.73c.09-1.38-.09-2.07-.43-2.07C253.24,1006.61,253.07,1007,252.89,1007.64Zm.18-3.7a5.1,5.1,0,0,0-.09,1.12c.09.35.17.6.34.69s.26-.09.35-.34a4.24,4.24,0,0,0,.17-1.21c-.09-1.12-.17-1.64-.34-1.72S253.24,1002.91,253.07,1003.94Zm.68,13.51a.71.71,0,0,0-.17.44c0,.16.09.25.17.42a1.25,1.25,0,0,0,.52.18c.17,0,.26-.09.43-.26a.63.63,0,0,0,.09-.43.35.35,0,0,0-.17-.35c-.09-.17-.26-.17-.43-.17A.71.71,0,0,0,253.75,1017.45Zm29.87,24.36a11.44,11.44,0,0,0-1,1.12,3.27,3.27,0,0,0-.6,1.2c-.08.43.17.35.86-.26.26-.34.6-.6.86-.94s.6-.44.78-.6a.84.84,0,0,0,.34-.44,1.14,1.14,0,0,0-.08-.51.31.31,0,0,0-.18-.09A5.65,5.65,0,0,0,283.62,1041.81Zm9.38-8.87c-.26.35-.61.78-.95,1.29s-.95,1.3-1.38,2-1,1.21-1.46,1.73a9.12,9.12,0,0,0-.95.86,8.61,8.61,0,0,0-1.72,2,2.73,2.73,0,0,0-.43,1c-.08.17-.08.26,0,.35a1.36,1.36,0,0,0,.43-.18,2.38,2.38,0,0,1,.43-.34c.17-.17.35-.34.43-.43l.17-.17,2.59-2.5a14.07,14.07,0,0,0,2.06-2.75,8.68,8.68,0,0,0,1-2.32,7.85,7.85,0,0,0,.35-1,.09.09,0,0,0-.09-.09A5.87,5.87,0,0,0,293,1032.94Zm-5-73.32c.25.09.34.26.51.44s0,.34-.6.16a1.75,1.75,0,0,1-.95-.51c-.08-.17.09-.26.52-.26A1.38,1.38,0,0,1,288,959.62Zm1.63,5.51c.26.35.52.78.86,1.29l1.12,1.9-1.29-1.38a11.26,11.26,0,0,1-1.21-1.72c-.25-.43-.25-.6,0-.69C289.21,964.53,289.38,964.79,289.64,965.13Zm.17,68.25c-.34.51-.34.68.09.6a1.94,1.94,0,0,0,.51-.35c.09-.09.26-.25.26-.43.18-.43.09-.6-.08-.6A2.06,2.06,0,0,0,289.81,1033.38Zm2.58-64.55a.72.72,0,0,1,.26.52,6.46,6.46,0,0,0,.17.95c.09.43.18.86.26,1.2.26,1,.17,1.2-.17,1a6.34,6.34,0,0,1-.77-1.38,12.52,12.52,0,0,1-.43-1.64c0-.51.08-.77.25-.77A.66.66,0,0,1,292.39,968.83Z" transform="translate(-16.47 -251.84)"/><path class="cls-4" d="M325.18,952.65a13.18,13.18,0,0,1,3,1.21,6,6,0,0,1,1.64,1.89,4.26,4.26,0,0,0,1,1.29c.26.26.43.35.52.17.43-.25.69-.25.77,0a3.24,3.24,0,0,1-.08,1.21,25.56,25.56,0,0,0-.18,4.9h6.63c4.39,0,9.55.09,15.66.26s12.14.43,18.16.69,10.84.61,14.72.86,5.76.52,5.59.69a19.35,19.35,0,0,1-3.87.09c-2.33-.09-5.08-.18-8.35-.35-5.94-.34-10.84-.52-14.54-.6s-5.43.17-5.25.43a12.87,12.87,0,0,0,3.27.43c2,.09,4.3.26,6.8.34s4.64.09,6.45.09c1.29,0,2.75.09,4.47.26s3.1.34,4.39.6,1.9.43,1.81.69a3.74,3.74,0,0,1-1.55.17h-3.44c-1.38-.08-2.58-.08-3.61-.08a6.62,6.62,0,0,0-1.81.17.77.77,0,0,1-.6,0,1.67,1.67,0,0,1-.87-.43c-.6-.6-.86-.6-.86-.09s-.94.6-2.75.35a40.16,40.16,0,0,0-4-.18c-1.81-.08-3.79-.08-5.77-.08s-3.53.08-4.47.08a5.46,5.46,0,0,0-1.64.26c-.17.17,0,.35.34.6a3,3,0,0,0,1.3.6,4.29,4.29,0,0,0,1.46.18,3.89,3.89,0,0,1,1,0c.26.08.43.17.43.34s-.34.26-1.12.35H357c-2.92-.18-3.87-.43-2.92-.87a1.86,1.86,0,0,0,.6-.51.56.56,0,0,0,.09-.6c-.18-.26-.69-.43-1.55-.52a22.49,22.49,0,0,0-2.67-.17,16.77,16.77,0,0,0-2.58.34c-1.29.26-.86.43,1.29.61,1.55.17,2.41.34,2.75.69s-.08.6-1.2.85c-1.72.44-.95.95,2.23,1.47,1.81.25,2.59.17,2.41-.17-.17-.18-.17-.35,0-.43s.26-.18.52-.18a1,1,0,0,1,.6.18.38.38,0,0,1,0,.43c-.6.77,1.47.86,6.28.34a17.69,17.69,0,0,1,3.45-.17,2.31,2.31,0,0,1,1.63.6c.78.77,1,.77.69-.09-.26-.42-.17-.6.17-.68a11,11,0,0,1,2.5.42,21.38,21.38,0,0,0,5.08.44,5.13,5.13,0,0,0,3.27-1c.25-.17.43-.34.6-.34s.26,0,.26.17a.72.72,0,0,0,.6.61,2.65,2.65,0,0,0,1.12.08,1.09,1.09,0,0,0,.94-.43c.09-.17.52-.26,1.12-.34s1.47,0,2.41.08,1.55.26,2.15.35.78.34.69.42,0,.26.17.35a2.48,2.48,0,0,0,.86.17,2.06,2.06,0,0,0,.78-.08c.17-.09.17-.26.09-.44-.18-.34.34-.34,1.63.09.52.26,1,.35,1.38.52a5.27,5.27,0,0,1,.69.17c.08,0,.08.09.08.17s-.08.26-.17.43a1.33,1.33,0,0,1-.6.35,1.9,1.9,0,0,1-.95.17c-.6,0-1,.09-1.12.43s.17.6.78,1c.34.17,0,.25-.86.34H391a4.54,4.54,0,0,0-.77.09c-.95.08-2.93.17-6.2.26s-6.54.16-9.89.16-5.68-.08-7-.16a3.47,3.47,0,0,0-.95.08c-.26,0-.34.17-.34.26s-.18.26-.43.43a2.84,2.84,0,0,1-.95.17c-.6.09-.86.17-.86.26s.52.43,1.38.86c.51.26,1.2.6,2,.95s1.54.86,2.32,1.2c5.94,3.1,7.14,6.54,3.44,10.41-.6.69-1.38,1.56-2.32,2.59s-1.81,2.06-2.67,3-1.55,1.72-2.24,2.41a5.54,5.54,0,0,1-1.2,1.12,10.33,10.33,0,0,0-1.64,1.29,40.05,40.05,0,0,0-3.1,2.75c-1.2,1-2.23,1.89-3.18,2.67a5,5,0,0,1-1.63,1,.66.66,0,0,0-.44.18c-.17.08-.17.16-.17.34s.17.26.52.34a3.55,3.55,0,0,0,1.38,0c.68,0,1.89-.08,3.61-.08s3.36.08,5.08.25a7.24,7.24,0,0,1,3.44.78,5.74,5.74,0,0,1,1,2.24c.35,1.29.78,2.67,1.12,4a14.93,14.93,0,0,1,.52,3,12.79,12.79,0,0,0,.43,2.41c.26,1,.6,2.32,1,3.62h-.17a1.62,1.62,0,0,0,.34.68c.09.09.09.27.17.35a26.86,26.86,0,0,0,2.59,5.51q2.19,3.22,3.61,5.68c1.46,2.32,2.67,4.22,3.79,5.68a16.69,16.69,0,0,0,3.78,3.61,21.77,21.77,0,0,1,2.24,1.63l1.64,1.64a28.67,28.67,0,0,0,2.32,2,8.77,8.77,0,0,0,1.55,1c.17.17.26.25.26.34,0,.26.26.6.86,1.12a16.09,16.09,0,0,0,1.89,1.46,4.06,4.06,0,0,0,1.46.69c.18,0,.35.17.61.43a5.86,5.86,0,0,1,.77,1l-4.56.18a13.9,13.9,0,0,1-2.07-.35,17.73,17.73,0,0,1-2-.34c-.87-.18-1.9-.34-3.1-.6a1.41,1.41,0,0,0-.61-.43,6.57,6.57,0,0,1-.77-.87c-.17-.34-.26-.51-.09-.69.18-.34.09-.42-.34-.16a4.46,4.46,0,0,1-2.41-.87,16.2,16.2,0,0,1-3.44-2.58,6.52,6.52,0,0,0-1-.68.85.85,0,0,0-.78-.09.64.64,0,0,0-.34.6.76.76,0,0,0,.08.6.53.53,0,0,0,.61.09,1.49,1.49,0,0,1,.68.34,13.06,13.06,0,0,1,1.12,1.12,6,6,0,0,1,1,1.47c-.44-.26-.95-.44-1.38-.69-.17-.09-.26-.18-.43-.26a37.6,37.6,0,0,1-3.36-2.84,39.58,39.58,0,0,1-3.87-3.79c-4.13-4.47-6-7.4-5.68-8.86a1.42,1.42,0,0,0,.09-.61,4,4,0,0,0-.26-.51c-.17-.09-.35-.09-.43.08a1.89,1.89,0,0,0-.26.61c0,.77-.17.86-.35.17a10.74,10.74,0,0,0-.77-1.55,27.52,27.52,0,0,0-1.46-2.5,13.26,13.26,0,0,1-1.38-2.84,2.51,2.51,0,0,1-.17-1.72c.26-.6.34-.94.26-1s-.43.09-.95.52-.86.51-.6.08.17-.69-.26-.69c-.6,0-.52-.17.09-.51a.7.7,0,0,0,.34-.86,11.54,11.54,0,0,0-1.46-1.81.27.27,0,0,0-.09-.17l-.09-.09-2.32-.08v.34c-.34-.69-.77-1.63-1.38-2.67a43.35,43.35,0,0,1-2.23-4.9,46.24,46.24,0,0,1-1.72-4.74,4.79,4.79,0,0,1-.35-2.67c.35-.6-.09-.6-1.38,0-.43.18-.77.35-1.29.52a12.69,12.69,0,0,1-1.46.35,2.43,2.43,0,0,1-1,.17.86.86,0,0,0-.43.26,1.41,1.41,0,0,0-.69.51,5.12,5.12,0,0,1-1.11.6,8.17,8.17,0,0,1-1.38.44,2.85,2.85,0,0,0-1.38.51,3.72,3.72,0,0,0-.6,1.81c-.17.86-.26,2.15-.43,4-.43,7.4-.95,12.82-1.38,16.18a21.84,21.84,0,0,1-2,7,4.27,4.27,0,0,0-.34,1.21,6.34,6.34,0,0,0-.17,1.29,6.74,6.74,0,0,1-.69,3,2,2,0,0,1-1.64,1.29.87.87,0,0,0-.86.52,7,7,0,0,0-.51,2.24,18.27,18.27,0,0,1-.35,2.23,7.12,7.12,0,0,1-.34,1.55c-.17.52-.35.78-.43.78s-.43-.17-.78-.61a4.1,4.1,0,0,1-.77-2.32,22.42,22.42,0,0,1,.17-4.65q.52-5.28,1-15.23c0-1.63.09-2.92.18-4a7.46,7.46,0,0,1,.25-1.89,11.86,11.86,0,0,0,.18-1.9c.08-1.12.17-2.41.25-4,.18-5.94-.34-8.17-1.63-6.54a6.08,6.08,0,0,0-.43,1,6.25,6.25,0,0,0-.17,1.29,60,60,0,0,1-.95,8.6c-.09,1-.26,2.41-.43,4.39s-.17,4.13-.26,6.37a48.3,48.3,0,0,1-.6,7.57c-.17,1-.34-.34-.43-3.7,0-3.7,0-8.09.17-13.25s.26-9.9.43-13.94a51.46,51.46,0,0,1,.52-7,24.82,24.82,0,0,0,.08-3.36c0-2,0-4.3-.08-7s-.09-5-.26-7.14-.17-3.53-.26-4c-.08-.34-.17-.94-.34-1.72s-.26-1.55-.43-2.32a12.36,12.36,0,0,0-.52-2.16.76.76,0,0,0-.86-.34,7.64,7.64,0,0,1-1.81.34c-.86.18-1.89.26-3,.44l-4,.43-2.41-2.15c-3.18-2.76-5.16-5.6-5.94-8.7-.17-.51-.34-1.11-.51-1.63a2.73,2.73,0,0,0-.52-1,1.8,1.8,0,0,1,.26-1.81,2.72,2.72,0,0,1,1.12-.69,13.86,13.86,0,0,1,2.49-.17c1.21,0,3,0,5.43.08s4.21.18,5.76.18a22.69,22.69,0,0,0,2.58,0c0-.09-.17-.35-.6-.78s-1-.94-1.72-1.63-1.46-1.29-2.24-1.9-1.37-1.29-2-1.8-1.12-1-1.37-1.21c-1.12-1.29-.95-2.23.51-2.92a8.81,8.81,0,0,1,3.36-.87h.43A16.36,16.36,0,0,1,325.18,952.65Zm3.1,94.06a6.68,6.68,0,0,1,.17,1.47,4.88,4.88,0,0,1-.26,2.06c-.17.26-.25-.08-.34-1,0-.34-.09-.69-.09-1a7.19,7.19,0,0,1-.17-1,1.26,1.26,0,0,1,0-.78.28.28,0,0,1,.26-.26C328,1046.11,328.19,1046.37,328.28,1046.71Zm3.87-48.36a6.93,6.93,0,0,0-.69,2.58c-.25,1.47-.43,3.1-.6,4.91s-.26,3.35-.26,4.56.35,1.72.86,1.72.86-.69,1.12-1.89a31.74,31.74,0,0,0,.26-4.48c0-1.72-.09-3.35-.17-4.82a6.89,6.89,0,0,0-.43-2.58l-.09-.08Zm-.51-4.82a1.37,1.37,0,0,0-.18.86,2.43,2.43,0,0,0,.18.86.43.43,0,0,0,.43.35c.17,0,.25-.09.43-.35a2,2,0,0,0,.08-.77,1.45,1.45,0,0,0-.17-.87.45.45,0,0,0-.43-.34C331.81,993.27,331.72,993.36,331.64,993.53Zm2.66,46c-.08.35-.17.6-.34.69a.7.7,0,0,1-.69.09c-.6-.35-.69,0-.34.94a6.25,6.25,0,0,1,.34,1.64,18.59,18.59,0,0,1,.17,2.15,8.81,8.81,0,0,0,.18,1.81c.08.51.17.77.25.77a.47.47,0,0,0,.35-.17,1.32,1.32,0,0,0,.17-.52c.09-1,.09-2,.09-3.1V1041c0-.77-.09-1.29-.09-1.46v-.09A.09.09,0,0,0,334.3,1039.57Zm-1.2-2.32a3.18,3.18,0,0,0,.08,1c0,.26.09.26.18.08a2.76,2.76,0,0,0,.08-.85,3.78,3.78,0,0,0-.08-1,.64.64,0,0,1-.09-.26h-.09C333.1,1036.3,333.1,1036.64,333.1,1037.25Zm.77-13.17a2.73,2.73,0,0,0-.43,1.12,1.88,1.88,0,0,0-.08,1c0,.17.17.25.34,0,.17-.09.26-.26.35-.61l.25-1v-.86h-.08C334.22,1023.56,334.05,1023.74,333.87,1024.08Zm-.43,4.3a.86.86,0,0,0,.09.69c0,.18.09.18.17.09a.65.65,0,0,0,.17-.43,2,2,0,0,0-.08-.69c-.09-.17-.17-.26-.26-.26S333.44,1028,333.44,1028.38Zm.86-11.7a1.11,1.11,0,0,0-.43.43,1.55,1.55,0,0,0-.17.43c0,.43.09.6.26.6s.34-.34.52-.86.17-.6,0-.69S334.39,1016.68,334.3,1016.68Zm-.34,4.65c-.09.08-.09.25-.09.6a1.43,1.43,0,0,0,.09.69c0,.17.09.17.26.09a.71.71,0,0,0,.08-.44,2.07,2.07,0,0,0-.08-.69,1.12,1.12,0,0,0-.17-.25Zm21.34-44.67c-1.46,0-3.1.09-4.9.18s-3.53.25-4.91.34l-4.65.43.18,2.32a36.42,36.42,0,0,1,.25,5.17c.09,2.32.18,4.9.18,7.57s.08,5.08,0,7.14-.09,3.27-.09,3.62a2.39,2.39,0,0,0,0,1.54,1,1,0,0,0,.95.69,7.65,7.65,0,0,0,1.8-1.46c1-1,2.33-2.15,3.7-3.61,5.17-5.25,7.41-8.26,6.8-9-.08-.17-.08-.26,0-.35a.92.92,0,0,1,.52-.17.74.74,0,0,0,.6-.08,1.66,1.66,0,0,0,.26-.78,9.13,9.13,0,0,0,.17-1.89,10.48,10.48,0,0,1,.52-1.21,18.85,18.85,0,0,1,1.2-1.63c2.5-2.75,3.53-5.16,3-7.15l-.44-1.8Zm-12.82-12c-.43.17-.35.26.34.34h.69c.17-.08.17-.17.09-.26a.7.7,0,0,0-.43-.17A1.82,1.82,0,0,0,342.48,964.62Zm6.54-.26c-.52.17-.34.34.34.43h.69c.17-.09.17-.17.09-.26a.89.89,0,0,0-.52-.17C349.45,964.27,349.19,964.36,349,964.36Zm2.41.17c-.26.09-.43.17-.35.35a2.18,2.18,0,0,0,.78.25c.34,0,.86.09,1.29.09s1-.09,1.29-.09.52-.17.6-.34c-.08,0-.25-.09-.69-.17s-.86-.09-1.46-.18h-.43A3.09,3.09,0,0,0,351.43,964.53Zm6.8,54a2.11,2.11,0,0,0,.17.61,3.51,3.51,0,0,0,.52.6,3,3,0,0,0,.34.6,5.67,5.67,0,0,1,.26.69,10,10,0,0,0,.86,2,3.11,3.11,0,0,0,.77.94c.18.18.43.26.52.18a.49.49,0,0,0,.43-.26.51.51,0,0,0,.09-.35v-.17a.08.08,0,0,0-.09-.08v-.09c-.09,0-.09-.09-.17-.09s-.09-.17-.09-.26-.08-.16-.17-.25a1.79,1.79,0,0,0-.26-.43c-.08-.17-.17-.26-.17-.35a.31.31,0,0,0-.09-.17v-.17s0-.09-.08-.09a.32.32,0,0,0-.09-.26c-.08-.08-.08-.25-.17-.43-.26-.34-.35-.6-.43-.68s-.09-.09-.09-.18a.08.08,0,0,1-.08-.08v-.09c-.09-.08-.09-.17-.18-.26a4,4,0,0,1-.25-.6,4.37,4.37,0,0,0-1.38-.6C358.23,1018.31,358.14,1018.4,358.23,1018.57Zm5.07,6.46c.43,1.12.78,2,1,2.58a8.37,8.37,0,0,0,.86,1.8,3.12,3.12,0,0,0-.86-.25c-.17,0-.17.09-.17.25s.17.44.25.61a6.49,6.49,0,0,0,.43.69c.26.34.69,1,1.29,1.8s1.12,2,1.81,3,1.12,1.8,1.46,2.49a8.74,8.74,0,0,0,1.21,1.72,4.57,4.57,0,0,0,1.2,1.12c.26.26.43.35.43.17a1.24,1.24,0,0,0-.43-.68,10.48,10.48,0,0,1-1.37-2,2.72,2.72,0,0,0-.26-.51c-.09-.17-.09-.26-.17-.34a4,4,0,0,0-.52-1.9,3.72,3.72,0,0,0-.77-1.38c-.26-.43-.52-.6-.69-.6H368c-.08,0-.08-.09-.08-.17a1.64,1.64,0,0,1-.35-.52.86.86,0,0,0,.43-.17c.52-.26.43-.51-.08-.86-.18-.09-.26-.17-.43-.17h-.09c-.17.08-.26.08-.43.17a8.36,8.36,0,0,1-.69-1.29,7.68,7.68,0,0,1-.17-.95,5.9,5.9,0,0,0-.35-1.46,1,1,0,0,0-.43-.77c-.08,0-.17-.18-.17-.26s0-.26.09-.43c.17-.35.08-.52-.26-.52a.65.65,0,0,1-.43-.17c-.09,0-.09-.17-.09-.26a3.35,3.35,0,0,0-.08-1.89h-1.55A5.32,5.32,0,0,1,363.3,1025Zm5.25,3.53a4.73,4.73,0,0,0-.17,1.2c-.08,1.12.09,1.64.6,1.38.43-.09.61,0,.43.26a.57.57,0,0,0,0,.51,1.93,1.93,0,0,0,.43.69,2.25,2.25,0,0,1,.61.69.82.82,0,0,1,.17.6q0,.64,4.39,7a5.25,5.25,0,0,1,.6,1.21,5.46,5.46,0,0,1,.17,1.11c-.08.87.09,1,.52.35a.62.62,0,0,1,.52-.35c.17.09.34.44.6,1a13,13,0,0,0,1,1.64c.52.6.95,1.2,1.38,1.63s.77.78,1,.78c.09,0-.09-.35-.52-1.12s-.94-1.55-1.55-2.5-1.29-2-2-2.92a22.21,22.21,0,0,0-1.55-2.16,14.64,14.64,0,0,1-2.15-3c-.52-1-.69-1.72-.52-2.06.08-.09,0-.26-.17-.43s-.35-.26-.69-.35a2.11,2.11,0,0,1-.69-.43.41.41,0,0,1-.09-.51.56.56,0,0,0,.18-.43.46.46,0,0,0-.35-.18.86.86,0,0,1-.43-.17.68.68,0,0,1-.17-.43,2.42,2.42,0,0,0-.17-1.29,7.71,7.71,0,0,0-.61-1.46c-.17-.43-.34-.69-.51-.69S368.64,1028.21,368.55,1028.56Zm3.53,12.65a.18.18,0,0,0-.17.17c0,.08.09.17.17.26l.35.34a.89.89,0,0,0,.43.09.49.49,0,0,0,.17-.35.48.48,0,0,0-.17-.43.49.49,0,0,0-.35-.17A.63.63,0,0,0,372.08,1041.21Zm1.9,3c.08,0,.17.26.51.6a7.21,7.21,0,0,0,1.12,1.38c.95,1.2,1.38,2.06,1.21,2.67s-.09.85.43.85c1.89.09,1.72-1.11-.43-3.44-1.47-1.54-2.33-2.32-2.67-2.32C374.06,1044,374.06,1044.05,374,1044.22Zm19.19,10.93a6.41,6.41,0,0,1,.68.43,2.07,2.07,0,0,1,.44.52c.17.16.25.34.43.34a.76.76,0,0,0,.43-.09.53.53,0,0,0,0-.69,2.54,2.54,0,0,0-.86-.6,2.43,2.43,0,0,0-1.12-.26C392.39,1054.72,392.39,1054.89,393.17,1055.15Z" transform="translate(-16.47 -251.84)"/><path class="cls-4" d="M421.56,959a24.24,24.24,0,0,0,2.67.69,13.31,13.31,0,0,0,2.24.35c1.2,0,2.67.77,4.22,2.32l2.41,2.41,25.73.09q14.71,0,20.65.25c3.87.09,5.94.35,6.2.69.6.34.77.6.69.78a4.51,4.51,0,0,1-1.55.16,9.49,9.49,0,0,1-1.55.09,5.93,5.93,0,0,0-1.12-.09,7.78,7.78,0,0,0-2.07-.16c-1.12-.09-2.41-.09-4-.09s-2.84-.17-4-.26a8.92,8.92,0,0,1-2.24-.43c-.69-.43-.77-.34-.43.17.52.61-.6.86-3.44.69a24.68,24.68,0,0,0-3.44,0,14.25,14.25,0,0,0-2.67.35c-1.46.34-2.5.26-3.18-.35a1.73,1.73,0,0,0-.69-.34.23.23,0,0,0-.26.26c0,.16-.6.34-1.81.6s-2.41.51-3.78.69a31.2,31.2,0,0,1-3.53.25c-.17,0-.86-.08-1.9-.17s-2.32-.08-3.78-.17-2.41-.09-3.19-.09-.86.09-.51.18a4,4,0,0,1,1.12.43,2.37,2.37,0,0,1,.68.6c.78.86,10.85,1.46,30.38,1.81a7.13,7.13,0,0,1,2.07.17c.08.08-.09.43-.78.86-.94.69-1,1-.25,1s.6.26-.35.86a4.87,4.87,0,0,1-2.15.6,19.59,19.59,0,0,1-3.36.26c-2.84-.08-4.21.17-4.21.86a1.2,1.2,0,0,1-.18.52c-.08.08-.17.08-.34,0a2.51,2.51,0,0,0-1.2,0,12.84,12.84,0,0,0-2.33.34c-1.72.35-3.44.69-5,.86s-3.87.43-6.71.61c-7,.51-10.76,1.11-11.36,1.72a4.1,4.1,0,0,0-.26,1.11v2c0,.77-.09,2-.09,3.7v5.16a38.42,38.42,0,0,0,.09,4.82c.09.94.34,1.38.69,1.38.6,0,.6.25,0,.77-.78.77-.95,1.2-.52,1.46a7.92,7.92,0,0,0,3.53.34c2.41,0,3.36-.25,2.84-.6-.77-.43-.6-.68.35-.6s1.2-.26.43-.6c-2.07-1.21.94-1.46,8.95-.69l8.43.77v1.81a8.18,8.18,0,0,0,.17,1.47c.17.43.26.77.52.94a7.27,7.27,0,0,1,.77,2.16,20.92,20.92,0,0,1,.43,3.52,10,10,0,0,1-.17,2.93c-.52,2.75-2.58,3.27-6.11,1.63a25.85,25.85,0,0,0-3.27-1,17.18,17.18,0,0,0-3.36-.6c-3.18-.26-6.11-.43-8.86-.43s-4.3.17-4.73.43a9,9,0,0,0-.35,2.92c-.08,1.81-.17,3.87-.17,6.2s-.09,4.39,0,6.28a27.85,27.85,0,0,0,.17,3.62c.09.34.78.51,2,.6s3.53-.09,6.8-.26c2.41-.09,4.48-.17,6.37-.26s3-.17,3.44-.17q15.75.25,15.75,1a.47.47,0,0,1-.17.35.66.66,0,0,1-.52.17.65.65,0,0,0-.43.17.76.76,0,0,0-.26.52c0,.17.17.26.52.34a6.52,6.52,0,0,0,1.2-.08,5.61,5.61,0,0,1,2.84.34c1,.51,1,.77.18.77-.26.09-.09.18.43.35s1.46.34,2.58.6l4,.86-4.39.26c-1.29.08-2.75.08-4.47.17s-3.19.09-4.56.09c-3.79.08-7.49.26-11.1.51s-6.63.52-9.13.87-3.61.69-3.61,1c0,.17,1.55.26,4.65.26s7,0,11.53-.09c11-.26,16.26-.17,15.75.34a.68.68,0,0,0,.08.69,1.36,1.36,0,0,0,.69.69c1.12.52.86.78-.69.69a2.93,2.93,0,0,1-1.29-.26.62.62,0,0,1-.51-.51c0-.61-.18-.61-.61.08s-1.2.78-2.41.43a4.75,4.75,0,0,0-1.55-.09,1.85,1.85,0,0,0-1,.26,8.87,8.87,0,0,1-2.92,1.21,21,21,0,0,1-3.88.6,3,3,0,0,0-1.37.26c-.35.17-.52.34-.52.52-.09.51-1.89.86-5.34,1.12-1.54.08-3.09.25-4.47.34s-2.5.26-3.1.34-1.29.26-2.24.35-1.89.25-2.75.43c-5.16.69-8.43,1.89-9.9,3.52-1.72,1.81-1.89,2.76-.6,2.93.52.17.69.78.43,1.81l-.34,1.64-.86-1.81a8.86,8.86,0,0,1-.52-1.81,7,7,0,0,1-.26-1.72,3.79,3.79,0,0,0-.17-1.2c-.09-.18-.34-.35-.86-.26a12.14,12.14,0,0,0-2.15.17,19.27,19.27,0,0,0-2.93.69,12.14,12.14,0,0,0-2.58.86,8.48,8.48,0,0,1-10.24-1.64,16.59,16.59,0,0,1-3.44-5.51c-.95-2.15-1.21-3.87-.86-5q1-2.7,18.33-6.19a2.74,2.74,0,0,0,1.12-.52,1.22,1.22,0,0,0,.43-.77.83.83,0,0,1,.17-.61c.08-.17.26-.17.43-.08s.34.08.43-.09a1.08,1.08,0,0,0,.08-.77,1.77,1.77,0,0,0-.17-.86c-.08-.18-.26-.26-.34-.18s-.26-.51-.35-1.46-.08-2.41,0-4,0-3-.08-4-.17-1.64-.35-1.64-.25-.34-.34-1a17.24,17.24,0,0,1-.09-2.32,9.87,9.87,0,0,1,.26-2.41c.17-.6.35-1,.52-1,.51,0,.69-.09.51-.26a3.34,3.34,0,0,0-.94-.43,10.93,10.93,0,0,0-1.9-.43,45.52,45.52,0,0,0-10.24.09c-3,.26-5.42.43-7,.51a22.17,22.17,0,0,1-3.53,0,2.57,2.57,0,0,1-1.64-.6c-.6-.34-.86-.6-.77-.78a2.44,2.44,0,0,1,1.2-.16c.86-.09,1.55-.18,2-.26a3.24,3.24,0,0,0,1.12-.18,2.61,2.61,0,0,0,.69-.43,3.29,3.29,0,0,1,1-.17,4.62,4.62,0,0,1,1,.17c.77.35,1,.18.69-.34s.26-.77,1.72-.86a16.53,16.53,0,0,0,2-.17,6.55,6.55,0,0,0,1.63-.43c1.12-.52.86-.61-.68-.35-6.72,1-9.9,1.12-9.47.43a4.58,4.58,0,0,1,.69-.51,2.13,2.13,0,0,1,.94-.26,4.07,4.07,0,0,0,1-.09,1.79,1.79,0,0,0,.69-.34c.08-.09.25-.26.34-.26a6.67,6.67,0,0,1,.86-.26l1.64-.34c.68-.09,1.72-.17,2.92-.35,1.89-.25,3.36-.51,4.39-.69a9.54,9.54,0,0,0,2.24-.43,6,6,0,0,0,1.63-.51c1.21-.52,1.81-1.21,1.81-2.07a1.72,1.72,0,0,1,.26-.94.93.93,0,0,1,.77-.35.83.83,0,0,0,.78-.52,1.21,1.21,0,0,0,.17-.94.84.84,0,0,0-.6-.69c-.69-.09-1.29-3.35-1.72-9.73-.09-3.09-.52-5-1.21-5.76s-2.5-1.12-5.25-1a12,12,0,0,1-6.11-1,10.56,10.56,0,0,1-3.7-4.48,13.34,13.34,0,0,1-1.12-3.1,14.52,14.52,0,0,1-.17-3.44c.09-1,.17-1.89.26-2.58a11.91,11.91,0,0,1,.34-1.29q.14-.14,1.29,0a21.47,21.47,0,0,1,2.84.43c3.88.69,6.63.69,8.35.09s1.81-1.56.43-3.1c-.95-1-1.12-1.9-.43-2.5s1.81-.94,3.44-.94A10.53,10.53,0,0,1,421.56,959ZM414,1005.15c-.51.26-.34.34.43.43a1.87,1.87,0,0,0,.78-.09c.17-.08.17-.17.08-.26s-.34-.17-.51-.17A2.32,2.32,0,0,0,414,1005.15Zm12.14,6.62a1.66,1.66,0,0,0-.09,1c0,.43,0,1.29.09,2.67s.08,2.92.08,4.65c.09,6.45.52,8.77,1.46,6.8a2.22,2.22,0,0,0,.26-1,1.08,1.08,0,0,0-.08-.77,11.22,11.22,0,0,1-.35-2.5c0-1.38-.08-3-.08-4.9,0-4.74-.26-6.8-.78-6.46A.74.74,0,0,0,426.13,1011.77Zm3.78,16.27c-.08,0-.17.17-.34.34a2.73,2.73,0,0,0-.35.87c0,.25,0,.51.09.6a.37.37,0,0,1,0,.43.47.47,0,0,1-.34.17,1.59,1.59,0,0,1-.69-.35,3.18,3.18,0,0,1-.69-.85c-.52-1-.78-.87-.69.6a2.23,2.23,0,0,0,.26,1.29,1.29,1.29,0,0,0,1.2.26,1.59,1.59,0,0,0,1.21-.43,3.3,3.3,0,0,0,.51-1.64q.14-1.15,0-1.29C430,1028,430,1028,429.91,1028Zm20,3.27,2.41.43c.61.17,1.21.26,1.64.43s.77.17.86.17.08,0,.08-.17a.63.63,0,0,0,.09-.43c0-.17-.26-.34-.77-.43a5.38,5.38,0,0,0-1.72-.09Zm7.23-54.3c.35.26.09.34-.86.34s-1.2-.08-.77-.34a2.37,2.37,0,0,1,.77-.17A2.43,2.43,0,0,1,457.19,977ZM474,973.65a.27.27,0,0,1,.18.43,4.12,4.12,0,0,1-.61.52,2.67,2.67,0,0,1-.77.17,1.71,1.71,0,0,1-.69-.17c-.17-.17-.34-.35-.34-.52s.17-.34.43-.43a1.86,1.86,0,0,1,1-.17C473.54,973.48,473.8,973.48,474,973.65Zm9.64,61.7c.6.09.86.26.86.44,0,.34-.43.6-1.29.6a14,14,0,0,1-3.35-.6c-1.47-.44-.95-.61,1.46-.61A9.21,9.21,0,0,1,483.61,1035.35Z" transform="translate(-16.47 -251.84)"/><path class="cls-4" d="M547.12,1000.76c.26.08.52.17.61.34s-.09.52-.44.86a4,4,0,0,1-1.46.86,4.19,4.19,0,0,1-1.55.43,1.21,1.21,0,0,0-.77.09,1.28,1.28,0,0,0-.6.35,3.18,3.18,0,0,1-.78.43,6,6,0,0,1-1.29.25,12.52,12.52,0,0,0-1.29.35c-.35.17-.52.25-.52.43s-.34.34-.86.6a14.83,14.83,0,0,1-2,1c-1.72.77-3.18,1.46-4.47,2.15a8.85,8.85,0,0,0-2.24,1.55c0,.17-.17.26-.34.26a.74.74,0,0,1-.61.08,2,2,0,0,0-.77.26,5,5,0,0,0-.78.51,2.11,2.11,0,0,1-.86.61,4.52,4.52,0,0,1-1,.17,4.66,4.66,0,0,0-1.38.17,9.17,9.17,0,0,0-1.63.69c-1.64.69-4.65,1.29-9.12,1.72a127.37,127.37,0,0,1-14.29.52c-1.63-.09-2.92-.17-3.87-.26a9.37,9.37,0,0,1-2.41-.43,15.1,15.1,0,0,1-2-.94,6.64,6.64,0,0,1-2.07-1.64,3,3,0,0,1-.43-1.89c-.08-.61-.08-1.13-.17-1.55a1.67,1.67,0,0,0-.34-.78,2.63,2.63,0,0,1-.35-1.29,12.37,12.37,0,0,1-.25-2.67l-.18-3.61,8.52.69c2.5.26,4.91.34,7.4.51s4.39.18,5.77.09h.77c1.3,0,2.5,0,3.62-.09h2.84c.69-.08,1.46-.08,2.24-.17a8.82,8.82,0,0,0,1.8-.17,4.47,4.47,0,0,1,.95-.09c.17,0,.26.09.17.18s-.51.17-1,.34a9.42,9.42,0,0,1-1.81.34l-2.15.52a7.54,7.54,0,0,0-1.63.69c-.61.34-.86.6-.69.69a9.78,9.78,0,0,0,2.32,0c.78,0,1.55-.09,2.32-.09a8.39,8.39,0,0,0,1.47-.26c.26,0,.86-.08,1.63-.17s1.81-.09,2.84-.09,2.5-.08,4.22-.25,3.44-.35,5-.6,2.93-.44,4-.52a5,5,0,0,1,1.81,0c.09.08.35.08.69,0a7.74,7.74,0,0,0,1.12-.35,4.87,4.87,0,0,1,1.29-.43,1.89,1.89,0,0,1,.78.09,1,1,0,0,0,.51.09,1,1,0,0,0,.69-.26,4.6,4.6,0,0,1,2.06-.43A3.29,3.29,0,0,1,547.12,1000.76Zm-19.62-.52c1,.44.52.6-1.38.78a15.58,15.58,0,0,1-1.89.08,1.67,1.67,0,0,1-.94-.17c-.09-.09,0-.17.08-.25a1.81,1.81,0,0,1,.77-.09,3.35,3.35,0,0,0,1,0,2.41,2.41,0,0,0,.69-.35c.17-.17.43-.17.77-.17A3,3,0,0,1,527.5,1000.24Z" transform="translate(-16.47 -251.84)"/><path class="cls-4" d="M576,979.76a9.61,9.61,0,0,1,3.44,1,6.46,6.46,0,0,1,2.24,2,1.06,1.06,0,0,1-.26,1.63,1.44,1.44,0,0,0-.51.51,1.63,1.63,0,0,0-.09.61c.09.26-.09.69-.52,1.29a14,14,0,0,1-1.54,1.72,3.79,3.79,0,0,1-1.56.94.49.49,0,0,0-.43.26.56.56,0,0,0-.08.35.38.38,0,0,1-.09.43.78.78,0,0,1-.6.26,6.61,6.61,0,0,0-2.06,2.49,57.53,57.53,0,0,0-2.76,5.16,38.64,38.64,0,0,0-2,5.43,35.53,35.53,0,0,0-.26,16.44,31.61,31.61,0,0,0,7.15,14.28c.77,1,1.55,1.72,2.15,2.5a4.94,4.94,0,0,1,.86,1.28c.08.35.6,1,1.63,1.81s2.07,1.72,3.27,2.58a21.94,21.94,0,0,0,3,1.9,6.48,6.48,0,0,0,3.78.6,26.42,26.42,0,0,0,9.38-5.33,5.94,5.94,0,0,1,1.21-1,2.8,2.8,0,0,1,1-.52,2.21,2.21,0,0,0,.69-.34.56.56,0,0,0,.34-.43,2.41,2.41,0,0,1,.69-.77,8.43,8.43,0,0,1,1.29-1,29.68,29.68,0,0,0,3.36-4c1.46-2.06,3.1-4.38,4.73-7s3-4.81,4.13-6.88c1.29-2.58,2-3.44,2.07-2.41a3.81,3.81,0,0,1-.35,1.46,17.09,17.09,0,0,1-.94,1.72,12.4,12.4,0,0,0-1,1.47,3.79,3.79,0,0,0-.26.86,1.82,1.82,0,0,1,.09.69,4.17,4.17,0,0,1-.6,1.29c-.34.51-.86,1.29-1.46,2.23s-1.64,2.24-2.76,3.79l-2.75,3.87,2.15-1.12a17.78,17.78,0,0,0,1.89-1.29,10.79,10.79,0,0,0,1.38-1.63,8.08,8.08,0,0,1,1-1.29c.35-.35.61-.52.69-.61a.84.84,0,0,0,.6-.42l.52-1a6.63,6.63,0,0,1,.78-1.72,15,15,0,0,1,1.29-2.32c.43-.78.77-1.55,1.12-2.24a5.18,5.18,0,0,0,.42-1.46,1.06,1.06,0,0,1,.35-.78,1.92,1.92,0,0,1,.77-.6,2.22,2.22,0,0,0,.69-.6.65.65,0,0,0,.09-.69.91.91,0,0,1,0-.69,1.54,1.54,0,0,1,.51-.52c.52-.34.69-.16.61.44a9.83,9.83,0,0,1-1.12,2.58c-.26.43-.52.77-.69,1.11s-.26.61-.17.69a8.74,8.74,0,0,1-.61,3.45,20.86,20.86,0,0,1-1.8,4.3,6.13,6.13,0,0,1-1.9,2.58.89.89,0,0,0-.51.43.28.28,0,0,0,0,.43c.26.17.26.43.08.86a5.52,5.52,0,0,1-.94,1.21,4.32,4.32,0,0,1-1.38.69c-.78.17-.78.43-.09.69s1.47-.18,2.5-1.56a7.13,7.13,0,0,0,1.12-1.46c.26-.43.43-.69.34-.77s0-.26.17-.34a1.59,1.59,0,0,1,.44-.26c.25,0,.6-.43,1.2-1.12s1.12-1.64,1.81-2.67,1.12-1.89,1.55-2.75a6.46,6.46,0,0,0,.77-1.81.94.94,0,0,1,.26-.69.57.57,0,0,1,.51-.09.47.47,0,0,0,.52-.34,2.33,2.33,0,0,0,0-1.12,3,3,0,0,1,0-1.2c0-.26.17-.52.26-.52s.26-.09.34-.26a1.14,1.14,0,0,0-.08-.51,1,1,0,0,1,.17-.87,3.15,3.15,0,0,1,.86-.6,1.94,1.94,0,0,1,1.21-.08c.43.08.43-.26-.18-.86s-.69-1-.08-.87a.52.52,0,0,0,.51,0c.09-.08.09-.17.09-.34a.25.25,0,0,1,0-.34c.09-.18.17-.26.35-.26s.25.08.34.34a6.3,6.3,0,0,1-.09,1.21,5.12,5.12,0,0,1-.34,1.2,2,2,0,0,1-.43.6c-.17,0-.26.18-.35.44a2.24,2.24,0,0,0,0,1,3.82,3.82,0,0,1-.34,1.54,7.59,7.59,0,0,1-.86,1.9,11.87,11.87,0,0,0-2.15,5,7.73,7.73,0,0,1-.6,1.29,15.3,15.3,0,0,1-1.12,1.9,18.89,18.89,0,0,0-1,1.8,1.85,1.85,0,0,0-.43.86c.09.18,0,.35-.17.69s-.34.6-.6,1c-.86,1-.86,1.2,0,.69a1.89,1.89,0,0,1,.86-.35c.17.09.17.26.17.69v1.12c.09.09,0,.17-.08.26a1.14,1.14,0,0,0-.52.17c-.17,0-.43.26-.86.6a10.38,10.38,0,0,0-1,1.47,11.65,11.65,0,0,1-1.38,1.72,20,20,0,0,1-1.9,1.37,13.6,13.6,0,0,0-1.63,1,11.8,11.8,0,0,0-1.38,1.46,20.47,20.47,0,0,0-1.89,2.49,6.4,6.4,0,0,1-3.53,2.07,7.67,7.67,0,0,0-1.89.6,4.08,4.08,0,0,0-1.29.86,5.37,5.37,0,0,1-.78.69c-.17.26-.34.34-.43.34a6.15,6.15,0,0,0-1,.09c-.69.09-1.55.09-2.58.17a21.81,21.81,0,0,0-2.58.35,5.84,5.84,0,0,0-1.46.34,3.05,3.05,0,0,1-1.9.26,13.7,13.7,0,0,1-2.58-.69,7.75,7.75,0,0,0-1.64-.52c-.68-.16-1.46-.42-2.23-.6a27.82,27.82,0,0,1-3.62-1.12c-1.63-.6-3.18-1.29-4.9-2.06A41,41,0,0,1,565,1035.1c-.6-.78-1.2-1.47-1.8-2.16s-1-1-1.12-1.2a9.77,9.77,0,0,1-1.64-2.24,50.14,50.14,0,0,1-2.41-5.25,22.85,22.85,0,0,1-1.81-5.07,24.41,24.41,0,0,1-.34-5.51v-5.34c.09-1.29.17-2.15.26-2.67s.26-.77.52-.77c.08-.08.16-.08.25-.17a.51.51,0,0,0-.09-.35q-.63-.9.78-4.9c.26-.78.52-1.38.6-1.81a5.05,5.05,0,0,0,.09-1.12c-.09-.26-.26-.68-.43-1.2a.94.94,0,0,1-.17-.6c.08-.18.17-.26.34-.26a1.05,1.05,0,0,0,1.38-.78,4.27,4.27,0,0,0,0-2.58c-.09-.08,0-.17.26-.34a5.73,5.73,0,0,1,.77-.26c.86-.17,1-.52.6-.95-.25-.25,0-.94.69-1.89a18,18,0,0,1,2.84-3,20.93,20.93,0,0,1,3.53-2.49c1.46-.77,2.58-1.29,3.36-1.64a7.52,7.52,0,0,1,2.15-.77A7.2,7.2,0,0,1,576,979.76Zm40.36-17c.69.17,1.29.35,1.89.52s.86.17.95.17c.43-.17,1.29.17,2.67.78a34.49,34.49,0,0,1,3.79,2.23,6.11,6.11,0,0,1,2.14,2,2.39,2.39,0,0,0,.61.69.52.52,0,0,0,.6.17c.43-.09.52.17.17.78-.08.26-.17.43-.08.6s.08.17.26.17a1,1,0,0,1,.51.09.82.82,0,0,1,.43.34,5.66,5.66,0,0,0,.52,1,13.93,13.93,0,0,1,.77,1.2c.52.69.69,1.12.61,1.21s-.43.17-1,0a3,3,0,0,1-1.2-.52,3.17,3.17,0,0,1-.78-.77c-.17-.52-.34-.35-.25.6s.17,2.84.43,5.68c.08.52.08,1,.17,1.38s.17.51.26.51.08.17.08.43a5.67,5.67,0,0,1-.08,1.12,2.93,2.93,0,0,0-.09,1.21c0,.34.09.6.26.68s.25.35.34.69a5.43,5.43,0,0,1,0,1.21c-.09.34-.25.77-.34,1s-.35.43-.6.43c-.43-.09-.52,0,0,.35s.43.69.08,1.11a1,1,0,0,0-.43.61.62.62,0,0,0-.17.51,1.18,1.18,0,0,1,.17.52c.09.17.09.35.17.51a.86.86,0,0,1-.08.44,2,2,0,0,1-.43.25.83.83,0,0,1-.78-.34,2.34,2.34,0,0,1-.25-1,.93.93,0,0,1,.42-.85,1.59,1.59,0,0,0,.52-.52c.09-.17,0-.26-.09-.35s-.25-.34-.25-.77v-1.46a13.71,13.71,0,0,0,.08-1.81c-.08-.6-.17-1.2-.26-1.55a3.16,3.16,0,0,1-.17-1.2,1.08,1.08,0,0,1,.26-.78c.26-.34.09-1.2-.77-2.49a6.59,6.59,0,0,1-.69-1.46c-.17-.35-.09-.52.08-.44s.18-.34-.17-1.12a17.14,17.14,0,0,0-1.46-2.75c-.69-1.12-1.38-2.23-2.07-3.27a22.75,22.75,0,0,0-2-2.41,10.43,10.43,0,0,0-1.56-1.29,2.14,2.14,0,0,0-1.2-.6c-.6-.09-.69.17-.34.52a.71.71,0,0,1,.25.51c.09.18,0,.26-.25.26a.59.59,0,0,1-.52,0,.74.74,0,0,1-.51-.34c-.26-.18-.95-.09-2.07.26a20.75,20.75,0,0,0-3.7,1.54,17.64,17.64,0,0,0-3.44,2,60.57,60.57,0,0,0-8.87,9.12c-3.1,3.79-4.9,6.63-5.59,8.7a4.43,4.43,0,0,1-.69,1.63,23.8,23.8,0,0,1-1.38,2.5c-.51.94-.95,1.72-1.29,2.32s-.43,1-.43,1.12a9.15,9.15,0,0,1-.26,1.2c-.26.78-.51,1.64-.86,2.59s-.6,1.89-.77,2.57a5.6,5.6,0,0,0-.35,1.21.54.54,0,0,1-.08.6,3,3,0,0,1-.35.78,5.64,5.64,0,0,0-.43,1,1.29,1.29,0,0,0,0,.78,8.24,8.24,0,0,1-.17,1.8c-.26.78-.52,1.47-.78,2.24s-.51,1-.77,1.12c-.95.17-.95-.43,0-1.81a2.65,2.65,0,0,0,.43-1.46,2.85,2.85,0,0,0-.34-1.47.87.87,0,0,0-1-.51c-.17.09-.25.17-.25.26s.08.17.25.34a.49.49,0,0,1,.17.6,1.67,1.67,0,0,1-.34.69,2.37,2.37,0,0,0-.69,1.38,11.15,11.15,0,0,0,.35,2.41,2,2,0,0,1-.09,1,5.4,5.4,0,0,1-.34,1,2.1,2.1,0,0,0-.35.86c0,.26,0,.43.17.52s.26.6.18,1.46a16.49,16.49,0,0,1-.52,2.67,6.39,6.39,0,0,1-1,1.89c-.34.34-.6.52-.77.52a.62.62,0,0,1-.52-.26v-.09a8.65,8.65,0,0,1-.69-5.93c.09-.78.17-1.47.26-2.07V1013c-.09-.17,0-.43.17-.78a7.72,7.72,0,0,1,.69-1,2,2,0,0,1,.77-.51c.18,0,.26-.18.18-.43a2.49,2.49,0,0,0-.34-.87,2.69,2.69,0,0,1-.44-.86c0-.25.09-.43.26-.43a.41.41,0,0,1,.43,0,.27.27,0,0,1,.09.35.69.69,0,0,0,.08.43.77.77,0,0,0,.52.25c.26.09.43,0,.6-.25a9.65,9.65,0,0,0,.26-1c.09-1.89-.26-2.49-.86-2a.86.86,0,0,1-.43.17c-.09,0-.17,0-.26-.17a4.06,4.06,0,0,1,.17-.51,6,6,0,0,1,.69-.78c.43-.43.69-.69.69-.86s-.26-.26-.69-.34c-.86-.18-.86-.35,0-.52a1.86,1.86,0,0,1,1.72.26c.35.26.43.69.18,1.29a.94.94,0,0,0-.26.69c0,.17.08.26.26.34s.25-.08.51-.34l.61-1.21.68-1.8H584.3a2.74,2.74,0,0,0-1.21,0c-.34,0-.6.08-.77.08-.26.18-.35,0-.26-.34,0-.17.09-.26.26-.35a.58.58,0,0,1,.52-.08c.25,0,.51-.35.85-1a14.19,14.19,0,0,0,.95-2.32,13.48,13.48,0,0,0,.43-2.24c0-.43-.08-.6-.17-.6a9.63,9.63,0,0,0-.77.86,5.81,5.81,0,0,0-.6,1.12,1.4,1.4,0,0,0,0,.86,1.23,1.23,0,0,1,0,.77,3.89,3.89,0,0,1-.35.86,1.71,1.71,0,0,1-.6.69c-.09,0-.18-.17-.35-.51a3.53,3.53,0,0,1,.26-1.64c.26-.86.6-1.81,1-2.93s.94-2.23,1.46-3.44.86-2.41,1.11-3.27.61-1.64.87-2.32a9.54,9.54,0,0,1,.77-1.47,7.21,7.21,0,0,0,.86-1.46,8.51,8.51,0,0,0,.86-1.81,10.49,10.49,0,0,0,.52-1.37c.09-.35,0-.35-.26-.09a22,22,0,0,0-1.9,2.5,29.94,29.94,0,0,0-1.72,2.84,4.57,4.57,0,0,0-.6,1.54c.17.35-.17.52-.94.52s-.87,0-.61.17.26.69,0,1.56a14,14,0,0,1-1.46,3c-.17.43-.43,1-.69,1.72a20.32,20.32,0,0,0-.68,2.32c-.18.86-.44,1.64-.69,2.58s-.61,1.55-.87,2.15a11.6,11.6,0,0,0-.43,1.55,1.5,1.5,0,0,0-.08,1,2.12,2.12,0,0,1,.17.68,1.25,1.25,0,0,1-.17.6,4,4,0,0,0-.26,1c-.08.43-.08,1-.17,1.46a10.07,10.07,0,0,1-.17,1.63,9,9,0,0,1-.26,1.13,2.32,2.32,0,0,0-.17.77.69.69,0,0,0,0,.6,4.42,4.42,0,0,1,.17,1.29,11.82,11.82,0,0,1,.08,1.72c0,.61-.08,1.12-.08,1.56a1.33,1.33,0,0,1-.26.68c-.09,0-.17.17-.17.43a4.16,4.16,0,0,0,.17,1,2.75,2.75,0,0,1,.26,1.2v1c-.17.69-.52.26-1-1.2a7.14,7.14,0,0,1-.25-1.81,1.51,1.51,0,0,1,.25-1c.44-.43.35-.6-.08-.43-.17,0-.35-.26-.43-.6a7.42,7.42,0,0,1-.18-1.55,9.55,9.55,0,0,1,.09-1.64,2,2,0,0,1,.43-1c.17-.08.17-.17.26-.34a1.58,1.58,0,0,0-.09-.6,1,1,0,0,1,0-.69,1.83,1.83,0,0,1,.35-.95c.43-.69.43-1-.17-.77s-.69-.09-.26-.6a2.84,2.84,0,0,0,.17-1,6.37,6.37,0,0,0-.17-1.12,3.05,3.05,0,0,1-.26-1.38,4.54,4.54,0,0,1,.26-1.55,19.18,19.18,0,0,0,.52-2.07c.17-.85.34-1.72.43-2.49s.34-1.64.6-2.49a20.87,20.87,0,0,1,.86-2.16c.26-.51.52-1,.69-1.46a2,2,0,0,0,.08-.95c-.08-.17.09-.6.35-1.28a14.9,14.9,0,0,1,1.2-2.25c.52-.85.86-1.63,1.21-2.32a2.44,2.44,0,0,0,.26-1.37c-.18-.44-.09-.6.17-.52a.79.79,0,0,0,.69-.26,1.58,1.58,0,0,0,.6-.69c.17-.26.17-.51,0-.6s0-.26.17-.6.51-.6.86-1a5.51,5.51,0,0,0,1.12-1.3,7,7,0,0,0,.6-1.29,3.46,3.46,0,0,1,.34-.94c.09-.26.26-.44.44-.44a3.78,3.78,0,0,0,.6-.42c.17-.26.43-.52.69-.86a31.64,31.64,0,0,1,2.4-3.27c.61-.61,1-1,1.47-1.12a5.51,5.51,0,0,0,.94-.69,9.89,9.89,0,0,0,.95-1,10.15,10.15,0,0,1,1.38-1.47,15.16,15.16,0,0,1,1.89-1.55,7.39,7.39,0,0,0,1.38-1.11c.26-.26.26-.35-.09-.26-.77.08-1.2,0-1.2-.26s.26-.6,1-1a12.23,12.23,0,0,1,3.36-.94A29.83,29.83,0,0,1,616.31,962.72Zm-28.49,25.39a4,4,0,0,1-.51.69.55.55,0,0,0-.17.43c.17.34.52,0,1-1,.17-.43.34-.68.26-.68A3.08,3.08,0,0,0,587.82,988.11Zm18.42,4.65a18.15,18.15,0,0,1,3.45,1.72,14.83,14.83,0,0,1,2.92,2.06,3.87,3.87,0,0,1,1,1.12,1.46,1.46,0,0,1-.08,1,16.27,16.27,0,0,1-1.21,2,18.05,18.05,0,0,1-2.15,2.66,34.7,34.7,0,0,1-2.67,2.5,14.62,14.62,0,0,0-2.66,2.58,21.49,21.49,0,0,0-2.07,2.84,18.8,18.8,0,0,1-1.37,2.24,2.89,2.89,0,0,1-1,1,2.65,2.65,0,0,0-.95.43c-.51.26-.94.52-1.37.77-2.5,1.81-3.87,2.41-4.22,1.9a.55.55,0,0,1,.09-.52.78.78,0,0,1,.51-.52l.43-.42c.09-.18,0-.26-.08-.35a.67.67,0,0,1-.09-.6,2.55,2.55,0,0,1,.34-1c.18-.43.52-1.2,1-2.32s.86-2.41,1.37-3.7.78-2.24.95-2.93c.09-.26.17-.69.35-1.12a8.91,8.91,0,0,0,.42-1.46c.26-.78.35-1.29.09-1.38s-.6.09-1.12.86c-.17.18-.17.09-.08-.34a8.48,8.48,0,0,1,.6-1.81,25.23,25.23,0,0,1,2.58-5.33,5.92,5.92,0,0,1,2.5-2.59A6.05,6.05,0,0,1,606.24,992.76Zm1.64,41.39a1.34,1.34,0,0,0-.52.69,3.73,3.73,0,0,0-.26.6c0,.17.09.17.18.17s.34-.17.51-.34a4.19,4.19,0,0,0,.6-.69,1.43,1.43,0,0,0,.26-.6c0-.18-.08-.26-.26-.18A.62.62,0,0,0,607.88,1034.15Zm13.17-23.32a.53.53,0,0,1,.25.52,2.07,2.07,0,0,1-.25.94c-.18.52-.35.86-.44.86s-.25-.26-.43-.77a1.86,1.86,0,0,1-.17-1.12.74.74,0,0,1,.52-.6A.66.66,0,0,1,621.05,1010.83Zm1.54-4.13c.26.08.35.43.26.77a3.16,3.16,0,0,1-.43,1.38,2.78,2.78,0,0,1-.77,1c-.18.26-.35.35-.44.17a.57.57,0,0,1,0-.51,1.52,1.52,0,0,1,.52-.52,1.3,1.3,0,0,0,.43-.69,1.7,1.7,0,0,0,0-1c-.08-.6-.08-.85.17-.85A.41.41,0,0,1,622.59,1006.7Zm5.34-13.6c.69,0,1,.35.69,1.12a7.3,7.3,0,0,1-1,2.49c-.43.69-.86,1.12-1.29,1.21-.77.17-.77.86-.09,2a.53.53,0,0,1-.08.6,4.64,4.64,0,0,1-.69.6,2.62,2.62,0,0,0-.69.52c-.09.17-.09.34.09.43s.17.26.08.51a1.58,1.58,0,0,1-.6.78,4.53,4.53,0,0,0-.6.78,1,1,0,0,0-.09.69.52.52,0,0,1,0,.51.55.55,0,0,1-.25.52c-.18.08-.26.17-.44.08s-.25-.08-.34-.26,0-.51.09-1a9.62,9.62,0,0,1,.6-1.38c.25-.51.43-1,.6-1.37a2.09,2.09,0,0,0,.17-.86c-.08-.09,0-.34.17-.87s.52-.85.87-1.46a10.75,10.75,0,0,0,.69-1.29q.24-.51,0-.51c-.18.08-.18-.09.08-.35a2.89,2.89,0,0,0,.34-.86,4.68,4.68,0,0,0,.35-1.2c.17-.69.43-1.12.86-1.29A.73.73,0,0,1,627.93,993.1Zm-2.41,35.63a3.48,3.48,0,0,1-.52.94c-.26.26-.51.52-.69.52s-.25,0-.17-.26a1.39,1.39,0,0,1,.35-.77,3.09,3.09,0,0,1,.51-.78c.26-.17.34-.25.43-.25S625.61,1028.38,625.52,1028.73Zm-.18-44.41c0,.52-.08.78-.25.86s-.26,0-.43-.34a.38.38,0,0,1,0-.43l.26-.52a.32.32,0,0,0,.17-.08C625.34,983.81,625.34,984,625.34,984.32Zm3.54,17.47a.53.53,0,0,1,.25.52,4.11,4.11,0,0,1-.17,1c-.34.86-.69,1.12-.86.6a2.54,2.54,0,0,1-.09-1.38c.18-.42.35-.77.61-.85A.35.35,0,0,1,628.88,1001.79Zm6.54-5.16a1.66,1.66,0,0,1,.77.17.74.74,0,0,1,.26.52c-.09.08-.17.26-.35.34a1,1,0,0,1-.51.09c-.26-.09-.35,0-.43.17a1.77,1.77,0,0,0,.08.6.75.75,0,0,1,0,.86,1,1,0,0,1-.6.69,2.59,2.59,0,0,0-.95,1.46,2.56,2.56,0,0,0,.18,1.81.27.27,0,0,1-.09.35,4,4,0,0,1-.6.25,1.48,1.48,0,0,0-.61.26c-.08.09-.08.17.09.26a.57.57,0,0,1,.09.51,2.09,2.09,0,0,1-.52.78c-.26.34-.43.6-.6.86a1.1,1.1,0,0,0,0,.77v.52a2,2,0,0,1-.43.26h-.43a.31.31,0,0,1-.26-.09c0-.08.09-.34.17-.77s.35-1,.52-1.64a6.93,6.93,0,0,0,.43-1.8,2.05,2.05,0,0,0-.09-1.3,2,2,0,0,1-.08-.68.68.68,0,0,1,.34-.35c.26,0,.35-.25.52-.6a4.32,4.32,0,0,0,.17-1.2,2.68,2.68,0,0,1,.26-1.21c.17-.34.34-.51.6-.51a1.42,1.42,0,0,0,.6-.35,1.16,1.16,0,0,0,.18-.52c.08-.25.25-.43.77-.51Zm-3.79-20a11.5,11.5,0,0,1,1,1.8,6.8,6.8,0,0,1,.78,2c.17.51.17.77.08.85s-.43-.25-.77-.69a11.9,11.9,0,0,1-1-1.89,19.7,19.7,0,0,1-.78-2c-.09-.51-.17-.77,0-.86S631.28,976.06,631.63,976.58Zm2.5,12.3a1,1,0,0,1,.34.44c.08.25.17.42.08.6s-.08.25-.26.25-.25,0-.42-.08-.26-.35-.43-.52a.7.7,0,0,1,0-.6.27.27,0,0,1,.25-.26A.58.58,0,0,1,634.13,988.88Zm3.61-.34a2.51,2.51,0,0,1-.17,1.72,1.58,1.58,0,0,1-.52.78c-.17.08-.35,0-.69-.26-.51-.35-.51-.61-.17-.86a.88.88,0,0,0,.43-.52,1.8,1.8,0,0,0-.08-.6.53.53,0,0,1,0-.52c.08-.17.16-.26.34-.26A.7.7,0,0,1,637.74,988.54Z" transform="translate(-16.47 -251.84)"/><path class="cls-4" d="M671.21,936.13a15.54,15.54,0,0,1-.17,3.36,19.15,19.15,0,0,1-.6,3.44,18.68,18.68,0,0,0-.77,3.1,29.06,29.06,0,0,0-.61,3.18c-.08,1-.26,2.06-.43,3.36s-.34,2.23-.52,3.18c-.69,3.27-1.2,6.8-1.72,10.76-.17,1.55-.43,2.84-.6,3.87a4.91,4.91,0,0,1-.43,1.72,3.18,3.18,0,0,0-.26,1.21c-.08.77-.08,1.63-.08,2.66s0,1.9,0,2.76a6,6,0,0,0,.26,1.55c.26.43.51.51.6.34a6.59,6.59,0,0,0,.51-2.06c.18-.78.35-1.81.61-3.1s.51-2.41.77-3.53c1-4.3,1.9-9.12,2.84-14.54s1.63-9.56,1.89-12.4c.09-1.46.26-2.67.43-3.78a14,14,0,0,1,.52-1.81c.6-.43,1-.09,1.38,1a15.82,15.82,0,0,1,.17,4.73c-.09,1.12-.17,2.66-.26,4.56s-.17,3.53-.25,5.25a44.43,44.43,0,0,1-.35,4.82c-.18,1.63-.34,2.92-.52,3.7a39.41,39.41,0,0,0-.94,4.9,42.8,42.8,0,0,0-.26,4.39c0,1.2.17,1.72.51,1.55.43-.43.52.43.26,2.58-.43,2.84-.69,5.08-.86,6.54a8.61,8.61,0,0,0,.35,3.61,5.15,5.15,0,0,0,1.46,2.33,86.57,86.57,0,0,0,7.57,7.06c3.53,3.09,7.06,5.94,10.5,8.51a25.16,25.16,0,0,0,3.27,2.33c.78.52,1.29.77,1.55.69s.52-.17.69-.61a8,8,0,0,0,.17-1.54,10.73,10.73,0,0,0-.26-1.72,33.47,33.47,0,0,1-.86-5.6c-.34-2.84-.6-5.94-.86-9.2-.08-.61-.17-1.9-.34-3.88s-.43-4-.61-6.28-.43-4.73-.51-7.06a35.68,35.68,0,0,1-.09-5.25l.17-4,3-1.21a21.21,21.21,0,0,1,6.11-1,15.76,15.76,0,0,1,5.68.78c2.06,1,2.67,3.18,1.72,6.62-.78,2.33-1.12,9.55-.86,21.51.08,2.16.08,4,.08,5.43a16.69,16.69,0,0,1-.08,2.58,6.66,6.66,0,0,0,.08,1.12,7.64,7.64,0,0,0,.26,1.8c.09.61.26,1.81.35,3.36s.34,3.36.43,5.17.34,3.26.51,4.56a7,7,0,0,0,.6,2.32,4.27,4.27,0,0,0,1.3.69c.6.26,1.37.51,2.15.77a21.32,21.32,0,0,1,2.49,1,14.55,14.55,0,0,1,2.15,1.21,10.66,10.66,0,0,0,2,1.12,5.5,5.5,0,0,0,1.9.34,9,9,0,0,1,1.54.17c.44.09.69.18.78.35a5.29,5.29,0,0,0,2.32,1,40.75,40.75,0,0,0,4.22,1,25.77,25.77,0,0,0,4.13.43l3.44.08-2.75.78a36.37,36.37,0,0,1-8.43,1.29,66.23,66.23,0,0,1-10.16,0,32.17,32.17,0,0,0-3.87-.17,4.2,4.2,0,0,0-2,.26,1.65,1.65,0,0,0-.35.85,3.62,3.62,0,0,0,.18,1.38c.08.52.17,1,.26,1.64a9.44,9.44,0,0,1,.08,1.46,3.13,3.13,0,0,0,.09,1,1.24,1.24,0,0,0,.34.6c.34.17.69,1,1,2.32a31.44,31.44,0,0,1,1,4.57,23.1,23.1,0,0,1,.35,3.7c-.09.6-.17,1.28-.26,2.15s-.25,1.63-.43,2.41a6.35,6.35,0,0,0,.09,2.84,19,19,0,0,0,1.63,3.7,27.89,27.89,0,0,1,1.38,2.92c.34.87.52,1.38.43,1.47s-.17.43-.09.77a3.32,3.32,0,0,0,.35,1.12,3,3,0,0,1,.26,1.12c.08.26.08.43,0,.43a.48.48,0,0,1-.35-.26,1.93,1.93,0,0,1-.43-.69,6.28,6.28,0,0,0-1.2-1.72,15.16,15.16,0,0,0-1.89-1.55,3.24,3.24,0,0,0-1.56-.6.89.89,0,0,1-.68,0,.68.68,0,0,1-.43-.17c-.26-.43-.09.34.6,2.15.09.34,0,.34-.26.08a6.5,6.5,0,0,1-1.12-1.28,10.89,10.89,0,0,1-1.2-1.81,2.79,2.79,0,0,1-.52-1.12c.09-.35.26-.35.69.17.6.77,1,.77,1,.26a5.82,5.82,0,0,0-.6-2.76,102.57,102.57,0,0,1-5.69-15.4c-.69-2.06-1.11-3.7-1.37-4.82a15.43,15.43,0,0,1-.61-3c-.08-.86-.17-1.89-.25-3.27a8.64,8.64,0,0,0-.35-2.67c-.17-.69-.34-1.21-.6-1.37s-.52-.09-.6.25a8.56,8.56,0,0,0,0,2.24c.08.86.17,1.55.26,2.24a3.36,3.36,0,0,0,.34,1.2,7,7,0,0,1,.34,1.64c.09.94.18,2,.26,3.18a30.41,30.41,0,0,0,.35,3.27,4.64,4.64,0,0,0,.69,1.72,2.27,2.27,0,0,1,.6.86,2.34,2.34,0,0,1,.25,1,3.23,3.23,0,0,0,.18,1.29,5,5,0,0,0,.43,1.37c.6,1.47,1,2.5,1.29,3.1a3,3,0,0,1,.17,1.38,2.9,2.9,0,0,0,.26.86,4.77,4.77,0,0,0,.69,1.37,8.12,8.12,0,0,1,.6,1.3c.09.34.09.6,0,.6s-.17.17,0,.43.35.43.69.77a3.54,3.54,0,0,1,.77.87.65.65,0,0,1,.09.68c-.6.52-1.55-.77-2.92-3.78a99.29,99.29,0,0,1-4.22-11.62,121.84,121.84,0,0,1-3.36-13.77,15,15,0,0,0-.95-3.62,5.5,5.5,0,0,0-2.41-2.23,52.85,52.85,0,0,0-5.68-2.67,43,43,0,0,1-4.9-2.5,48.76,48.76,0,0,1-5.08-3.44,31.41,31.41,0,0,0-3.1-2.06,23.54,23.54,0,0,0-2.41-1.3c-.6-.25-1.2-.6-2-.94s-1.3-.78-1.81-1.12l-1-.35-.34,1.64a23.75,23.75,0,0,1-.26,4.82c-.26,1.89-.52,3.61-.86,5.42s-.51,3.19-.6,4.39c-.17,1.63-.6,3.88-1.12,6.71s-1,5.34-1.55,7.75a40,40,0,0,1-1.12,4.3c-.08.17-.34.26-.77.43a7.23,7.23,0,0,1-1.29.43c-.52.17-.86.26-1.21.35a2.86,2.86,0,0,0-1.2.51,1.49,1.49,0,0,0-.78.61,3,3,0,0,1-2.15,1,11.76,11.76,0,0,1-3.52.17.71.71,0,0,1-.44-.17c-.08-.09-.17-.26-.25-.35a1.29,1.29,0,0,0-.26-.34c-.09-.18-.26-.18-.43-.26a.29.29,0,0,0-.35,0,.54.54,0,0,0-.34.08c-.26.09-.52.09-.86.18a4.25,4.25,0,0,1-1.29-.26,2.08,2.08,0,0,1-1-.77,4.57,4.57,0,0,1-.26-1.72,33.15,33.15,0,0,1,.26-3.45c.17-1.55.51-3.61.86-6.11a5.26,5.26,0,0,1,.18-.77c0-.18.08-.26.16-.26h.26a.42.42,0,0,0,.43,0c.09,0,.26-.17.43-.34a6.42,6.42,0,0,0,.35-1.3,33.91,33.91,0,0,0,.69-4.3c.17-1.46.34-2.67.34-3.53a4.2,4.2,0,0,0,.09-.86,12.23,12.23,0,0,1,.08-2.58,18.39,18.39,0,0,1,.43-2.06,34.5,34.5,0,0,0,1.12-6.72c.43-2.92.78-5.59,1.21-8s.69-4,.77-4.47c.34-1.21-1.63-3.44-5.94-6.8-1.55-1.21-3.09-2.33-4.47-3.27a16.77,16.77,0,0,0-2.93-1.9c-2.06-.86-2.23-2-.6-3.18s4.82-2.41,9.64-3.53a10.7,10.7,0,0,1,3.87-1,8.35,8.35,0,0,1,2.58.34,3,3,0,0,0,1,.17l1.37-6.8c.61-2.66,1-4.73,1.13-6a20.6,20.6,0,0,0,.17-3c0-.77.08-1.72.17-2.93.17-.94.34-2,.6-3.18s.52-2.15.78-3,.51-1.72.77-2.76a21.55,21.55,0,0,0,.52-2.75c.17-.69.34-1.38.52-2a2.92,2.92,0,0,1,.68-1.21c.17-.16.35.18.35.95a27.42,27.42,0,0,1-.26,3.27c-.17,1.38-.35,2.85-.69,4.39a3.22,3.22,0,0,0-.17,1.12c0,.17.09.26.25.09.35-.18,1.47-4.31,3.45-12.39.34-1.21.6-2.33.94-3.19a6.79,6.79,0,0,1,.61-1.72c.08-.09.08-.09.17-.09S671.21,935.18,671.21,936.13ZM661.4,973a1.84,1.84,0,0,0,.09.78c.08.09.17.17.26,0a.73.73,0,0,0,.17-.6.93.93,0,0,0-.09-.69c-.08-.26-.17-.35-.26-.26A1.26,1.26,0,0,0,661.4,973Zm1.38-6.62c0,.86.17,1.11.35.77a3.94,3.94,0,0,0,.16-1,2.71,2.71,0,0,0-.16-.77.27.27,0,0,0-.09-.17C662.87,965.3,662.78,965.65,662.78,966.34Zm.77-4.48a2.9,2.9,0,0,0-.34,1,1.89,1.89,0,0,0-.08,1c0,.26.08.35.25.35s.26-.26.43-.52a2.79,2.79,0,0,0,.43-1,3.94,3.94,0,0,0,.09-.94c0-.26-.09-.34-.26-.34S663.73,961.52,663.55,961.86Zm.61-2.58c0,.94.08,1.2.34.78a2.49,2.49,0,0,0,.17-.87,2,2,0,0,0-.17-.77c-.09-.17-.09-.17-.17-.17S664.16,958.59,664.16,959.28Zm1.2-5.6a4.66,4.66,0,0,0-.43,1.12,2.64,2.64,0,0,0-.17,1c0,.43,0,.6.09.6s.25-.26.51-.77c.18-.35.34-.69.52-1.12a7.19,7.19,0,0,0,.17-1c0-.44-.09-.69-.09-.61S665.7,953.17,665.36,953.68ZM699.18,1002c.17,2.07.35,3.7.43,4.74a15.74,15.74,0,0,0,.35,2.15,5.79,5.79,0,0,0,.51,1c.34.43.52.6.69.43a4.59,4.59,0,0,0,0-1.72c-.09-1-.26-2.58-.51-4.73-.61-4.48-1-6.63-1.47-6.72C698.93,997.23,698.93,998.78,699.18,1002Z" transform="translate(-16.47 -251.84)"/><path class="cls-4" d="M756.32,936.13a15.54,15.54,0,0,1-.17,3.36,19.15,19.15,0,0,1-.6,3.44,19.65,19.65,0,0,0-.78,3.1,26.66,26.66,0,0,0-.6,3.18c-.08,1-.26,2.06-.43,3.36s-.34,2.23-.52,3.18c-.69,3.27-1.2,6.8-1.72,10.76-.17,1.55-.43,2.84-.6,3.87a4.91,4.91,0,0,1-.43,1.72,3,3,0,0,0-.26,1.21,23.81,23.81,0,0,0-.09,2.66c-.08.95,0,1.9,0,2.76a7.08,7.08,0,0,0,.26,1.55c.26.43.52.51.61.34a6.59,6.59,0,0,0,.51-2.06c.18-.78.34-1.81.6-3.1s.52-2.41.78-3.53c1-4.3,1.89-9.12,2.84-14.54s1.63-9.56,1.89-12.4c.09-1.46.26-2.67.43-3.78a14,14,0,0,1,.52-1.81c.6-.43,1-.09,1.38,1a16.16,16.16,0,0,1,.17,4.73c-.09,1.12-.17,2.66-.26,4.56s-.17,3.53-.26,5.25a44.45,44.45,0,0,1-.34,4.82c-.18,1.63-.35,2.92-.52,3.7a41.3,41.3,0,0,0-1,4.9c-.17,1.72-.25,3.18-.25,4.39s.17,1.72.51,1.55c.43-.43.52.43.26,2.58-.43,2.84-.69,5.08-.86,6.54a8.81,8.81,0,0,0,.34,3.61,5.26,5.26,0,0,0,1.47,2.33,85.09,85.09,0,0,0,7.57,7.06c3.53,3.09,7,5.94,10.5,8.51a23.86,23.86,0,0,0,3.27,2.33c.77.52,1.29.77,1.55.69s.52-.17.68-.61a7.24,7.24,0,0,0,.18-1.54,10.73,10.73,0,0,0-.26-1.72,33.47,33.47,0,0,1-.86-5.6c-.34-2.84-.6-5.94-.86-9.2-.08-.61-.17-1.9-.34-3.88s-.43-4-.61-6.28-.43-4.73-.51-7.06a35.68,35.68,0,0,1-.09-5.25l.17-4,3-1.21a21.2,21.2,0,0,1,6.1-1,15.7,15.7,0,0,1,5.68.78c2.07,1,2.67,3.18,1.73,6.62-.78,2.33-1.12,9.55-.87,21.51.09,2.16.09,4,.09,5.43a14.85,14.85,0,0,1-.09,2.58,5.93,5.93,0,0,0,.09,1.12,7.64,7.64,0,0,0,.26,1.8c.09.61.26,1.81.34,3.36s.35,3.36.44,5.17.34,3.26.51,4.56a6.76,6.76,0,0,0,.6,2.32,4.18,4.18,0,0,0,1.29.69c.61.26,1.38.51,2.15.77a20.74,20.74,0,0,1,2.5,1,14.55,14.55,0,0,1,2.15,1.21,10.66,10.66,0,0,0,2,1.12,5.5,5.5,0,0,0,1.9.34,9,9,0,0,1,1.54.17c.43.09.69.18.78.35a5.29,5.29,0,0,0,2.32,1,40.75,40.75,0,0,0,4.22,1,25.66,25.66,0,0,0,4.13.43l3.44.08-2.75.78a36.37,36.37,0,0,1-8.44,1.29,66.1,66.1,0,0,1-10.15,0,32.41,32.41,0,0,0-3.88-.17,4.15,4.15,0,0,0-2,.26,1.57,1.57,0,0,0-.35.85,3.82,3.82,0,0,0,.17,1.38c.09.52.18,1,.26,1.64a8.4,8.4,0,0,1,.09,1.46,3.51,3.51,0,0,0,.08,1,1.23,1.23,0,0,0,.35.6c.34.17.69,1,1,2.32a31.44,31.44,0,0,1,1,4.57,23.1,23.1,0,0,1,.35,3.7c-.09.6-.17,1.28-.26,2.15s-.26,1.63-.43,2.41a6.35,6.35,0,0,0,.09,2.84,19,19,0,0,0,1.63,3.7,30.08,30.08,0,0,1,1.38,2.92c.34.87.52,1.38.43,1.47s-.17.43-.09.77a3.32,3.32,0,0,0,.35,1.12,3,3,0,0,1,.26,1.12c.08.26.08.43,0,.43a.48.48,0,0,1-.35-.26,1.93,1.93,0,0,1-.43-.69,6.13,6.13,0,0,0-1.21-1.72,15.16,15.16,0,0,0-1.89-1.55,3.18,3.18,0,0,0-1.55-.6.92.92,0,0,1-.69,0,.7.7,0,0,1-.43-.17c-.26-.43-.08.34.61,2.15.08.34,0,.34-.26.08a6.18,6.18,0,0,1-1.12-1.28,11.65,11.65,0,0,1-1.21-1.81,2.87,2.87,0,0,1-.51-1.12c.09-.35.26-.35.69.17.6.77.94.77.94.26a5.58,5.58,0,0,0-.6-2.76,103.69,103.69,0,0,1-5.68-15.4c-.69-2.06-1.12-3.7-1.38-4.82a16.1,16.1,0,0,1-.6-3c-.09-.86-.17-1.89-.25-3.27a8.64,8.64,0,0,0-.35-2.67c-.17-.69-.34-1.21-.6-1.37s-.52-.09-.61.25a9.62,9.62,0,0,0,0,2.24c.09.86.18,1.55.26,2.24a3.29,3.29,0,0,0,.35,1.2,7,7,0,0,1,.34,1.64c.09.94.17,2,.26,3.18a30.41,30.41,0,0,0,.35,3.27,4.47,4.47,0,0,0,.69,1.72,2.39,2.39,0,0,1,.6.86,2.34,2.34,0,0,1,.25,1,3.23,3.23,0,0,0,.18,1.29,4.7,4.7,0,0,0,.43,1.37c.6,1.47,1,2.5,1.29,3.1a3,3,0,0,1,.17,1.38,2.9,2.9,0,0,0,.26.86,4.77,4.77,0,0,0,.69,1.37,8.12,8.12,0,0,1,.6,1.3c.08.34.08.6,0,.6s-.18.17,0,.43.34.43.69.77a3.54,3.54,0,0,1,.77.87.7.7,0,0,1,.09.68c-.61.52-1.55-.77-2.93-3.78a103.09,103.09,0,0,1-4.22-11.62,123.94,123.94,0,0,1-3.35-13.77,15,15,0,0,0-.95-3.62,5.56,5.56,0,0,0-2.41-2.23,53.82,53.82,0,0,0-5.68-2.67,42.15,42.15,0,0,1-4.9-2.5,47.73,47.73,0,0,1-5.08-3.44,32.63,32.63,0,0,0-3.1-2.06,23.54,23.54,0,0,0-2.41-1.3c-.6-.25-1.2-.6-2-.94s-1.29-.78-1.8-1.12l-1-.35-.34,1.64a23.75,23.75,0,0,1-.26,4.82c-.26,1.89-.52,3.61-.86,5.42s-.51,3.19-.6,4.39c-.17,1.63-.6,3.88-1.12,6.71s-1,5.34-1.55,7.75a42.83,42.83,0,0,1-1.12,4.3c-.09.17-.34.26-.78.43a6.88,6.88,0,0,1-1.28.43c-.52.17-.86.26-1.21.35a2.86,2.86,0,0,0-1.2.51,1.45,1.45,0,0,0-.78.61,3,3,0,0,1-2.15,1,11.84,11.84,0,0,1-3.53.17.7.7,0,0,1-.43-.17c-.09-.09-.17-.26-.25-.35a1.29,1.29,0,0,0-.26-.34c-.09-.18-.26-.18-.43-.26a.29.29,0,0,0-.35,0,.52.52,0,0,0-.34.08c-.26.09-.52.09-.87.18a4.25,4.25,0,0,1-1.28-.26,2.08,2.08,0,0,1-1-.77,4.37,4.37,0,0,1-.26-1.72,30.56,30.56,0,0,1,.26-3.45c.17-1.55.51-3.61.86-6.11a7.52,7.52,0,0,1,.17-.77c0-.18.09-.26.17-.26h.26a.42.42,0,0,0,.43,0c.09,0,.26-.17.43-.34a6.42,6.42,0,0,0,.35-1.3,32.24,32.24,0,0,0,.68-4.3,34.41,34.41,0,0,0,.35-3.53,4.2,4.2,0,0,0,.09-.86,12.23,12.23,0,0,1,.08-2.58,18.39,18.39,0,0,1,.43-2.06,34.5,34.5,0,0,0,1.12-6.72c.43-2.92.78-5.59,1.2-8s.69-4,.78-4.47c.34-1.21-1.64-3.44-5.94-6.8-1.55-1.21-3.1-2.33-4.47-3.27a16.77,16.77,0,0,0-2.93-1.9c-2.06-.86-2.24-2-.6-3.18s4.82-2.41,9.64-3.53a10.7,10.7,0,0,1,3.87-1,8.4,8.4,0,0,1,2.58.34,3,3,0,0,0,1,.17l1.37-6.8c.61-2.66,1-4.73,1.12-6a19.47,19.47,0,0,0,.18-3c0-.77.08-1.72.17-2.93.17-.94.34-2,.6-3.18s.52-2.15.77-3,.52-1.72.78-2.76a19.76,19.76,0,0,0,.51-2.75c.18-.69.35-1.38.52-2a3,3,0,0,1,.69-1.21c.17-.16.35.18.35.95a27.42,27.42,0,0,1-.26,3.27c-.18,1.38-.35,2.85-.69,4.39a3.22,3.22,0,0,0-.17,1.12c0,.17.08.26.25.09.35-.18,1.47-4.31,3.44-12.39.35-1.21.61-2.33,1-3.19a6.79,6.79,0,0,1,.61-1.72c.08-.09.08-.09.16-.09S756.32,935.18,756.32,936.13ZM746.51,973a1.84,1.84,0,0,0,.09.78c.08.09.17.17.26,0a.73.73,0,0,0,.17-.6,1,1,0,0,0-.09-.69c-.08-.26-.17-.35-.26-.26A1.26,1.26,0,0,0,746.51,973Zm1.38-6.62c0,.86.17,1.11.34.77a3.52,3.52,0,0,0,.17-1,2.43,2.43,0,0,0-.17-.77.28.28,0,0,0-.08-.17C748,965.3,747.89,965.65,747.89,966.34Zm.77-4.48a2.9,2.9,0,0,0-.34,1,1.91,1.91,0,0,0-.09,1c0,.26.09.35.26.35s.26-.26.43-.52a2.79,2.79,0,0,0,.43-1,4.42,4.42,0,0,0,.08-.94c0-.26-.08-.34-.25-.34S748.83,961.52,748.66,961.86Zm.61-2.58c0,.94.08,1.2.34.78a2.74,2.74,0,0,0,.17-.87,2.18,2.18,0,0,0-.17-.77c-.09-.17-.09-.17-.18-.17S749.27,958.59,749.27,959.28Zm1.2-5.6a4.28,4.28,0,0,0-.43,1.12,2.64,2.64,0,0,0-.17,1c0,.43,0,.6.08.6s.26-.26.52-.77c.17-.35.34-.69.52-1.12a7.19,7.19,0,0,0,.17-1c0-.44-.09-.69-.09-.61S750.81,953.17,750.47,953.68ZM784.29,1002c.17,2.07.34,3.7.43,4.74a15.74,15.74,0,0,0,.35,2.15,5.19,5.19,0,0,0,.51,1c.34.43.52.6.69.43a5.15,5.15,0,0,0,0-1.72c-.09-1-.26-2.58-.52-4.73-.6-4.48-1-6.63-1.46-6.72C784,997.23,784,998.78,784.29,1002Z" transform="translate(-16.47 -251.84)"/><path class="cls-4" d="M838.76,954.37A7.1,7.1,0,0,0,841.6,957a12.26,12.26,0,0,0,4.73,1.55,3.83,3.83,0,0,1,2,.86,5.59,5.59,0,0,1,1.12,1.55,3,3,0,0,0,.6,1c.26.26.43.44.61.44.34,0,.6.25.69.85a8.69,8.69,0,0,1-.18,2.07,4.48,4.48,0,0,1-.86,1.72,18.48,18.48,0,0,0-1.89,3.19,11,11,0,0,0-1.12,4.47,44.25,44.25,0,0,0,1.72,8.78c1,4,2.33,8.26,3.7,12.47a76.74,76.74,0,0,0,3.87,9.56c.26.6.61,1.29.87,2.06a11.26,11.26,0,0,1,.51,2.15c.18.61.34,1.3.6,2.16a11.93,11.93,0,0,0,.86,2.06c.26.69.52,1.21.69,1.81a3.26,3.26,0,0,1,.35,1.2,1.75,1.75,0,0,0,.25.78,2.18,2.18,0,0,0,.69.77,4.32,4.32,0,0,1,.78,1.12,5.83,5.83,0,0,1,.6,1.55c.18.52.34,1.21.69,2.07a20.07,20.07,0,0,0,1,2.41c.34.77.78,1.89,1.38,3.18s1.12,2.67,1.63,4,1.21,2.67,2,4.31,1.46,2.92,2.14,4c1.64,2.58,2.84,4.56,3.62,6a24.29,24.29,0,0,1,1.55,3.28,2.66,2.66,0,0,1,.08,1.63,14.41,14.41,0,0,1-1.29,2.67c-.68,1-1.29,1.89-2,2.75a4.06,4.06,0,0,1-1.38,1.29,13.56,13.56,0,0,0-4.48,1c-.43.17-.94,0-1.55-.69a23.06,23.06,0,0,1-2.58-3.44,106.7,106.7,0,0,1-5.34-9.29,94.84,94.84,0,0,1-4.21-8.87c-.26-.69-.69-1.8-1.21-3.18s-1.12-2.75-1.72-4.13-1.12-2.93-1.81-4.65-1.11-3.36-1.54-4.73-.95-2.93-1.55-4.91-1.29-3.7-1.89-5.33-1.12-3.19-1.56-4.65a17.69,17.69,0,0,1-.85-3.19c-.09-.6-.26-1.37-.43-2.23s-.52-1.72-.78-2.41l-.86-2.67-1.72,3.7c-.78,1.72-1.38,3.1-1.72,4a13.76,13.76,0,0,0-.86,2.41,18.76,18.76,0,0,0-.35,2.24,19,19,0,0,1-.86,3.53c-.52,1.72-1.12,3.44-1.8,5.25s-1.38,3.62-2.07,5.51-1.2,3.44-1.63,4.47-.78,2.07-1.21,3a7.86,7.86,0,0,1-1,2.07,6.59,6.59,0,0,0-.69,1.38c-.26.51-.43.94-.6,1.29-.18.69-.18.08,0-1.64a29.12,29.12,0,0,1,.68-3,18.06,18.06,0,0,1,1-2.76,9.91,9.91,0,0,0,.86-5.93c-.26-2.07-.08-3.44.52-4.13a5.06,5.06,0,0,0,.6-1.21c.17-.51.26-.94.35-1.29a7,7,0,0,1,.08-1.29,2.23,2.23,0,0,1,.34-.86c.09-.26.26-.69.52-1.38s.43-1.46.6-2.15a4.82,4.82,0,0,0,.18-1.29,4.54,4.54,0,0,1,.26-.94c.16-.52.42-1.21.68-1.9a13.71,13.71,0,0,0,.52-2c0-.51,0-.77-.17-.77s-.35.17-.61.6a9.63,9.63,0,0,0-.51,1.29,7.36,7.36,0,0,1-.43,1.46,3.54,3.54,0,0,1-.35,1,2,2,0,0,0-.34,1,2.75,2.75,0,0,0-.26,1.2,16.77,16.77,0,0,1-.51,1.81c-.27.68-.52,1.46-.87,2.23a12,12,0,0,0-.77,2,5,5,0,0,0-.43,1.21c-.08.52-.26,1.29-.52,2.4s-.6,2.16-.94,3.28a17.84,17.84,0,0,1-.87,2.41,32.62,32.62,0,0,0-1.63,4.56c-.6,1.89-1.12,3.78-1.55,5.42a9.69,9.69,0,0,0-.51,3c.08.17.17.35.08.52a.28.28,0,0,1-.26.26,16.4,16.4,0,0,0-1.11,2c-.52,1.21-1,2.5-1.56,3.88s-.85,2.66-1.11,3.61a4.24,4.24,0,0,1-.52,1.46,5,5,0,0,1-.69,1.21,6.53,6.53,0,0,0-.94,1.29c-.35.6-.78,1.29-1.12,1.89-.69,1.38-1,1.72-.78,1.12a14,14,0,0,0,.26-2.06c0-1,.08-2,.08-3.1a22.11,22.11,0,0,1,.18-3.27,1,1,0,0,1,.95-.77c.68,0,.86-.18.43-.35a.69.69,0,0,1-.52-.86,8.51,8.51,0,0,1,.77-2.58v-.18a5.92,5.92,0,0,0,.35-.94,9.16,9.16,0,0,0,.34-1.12c.17-.51.35-1.2.69-2.24,0-.08.09-.26.09-.34.34-1.29,1.12-3.79,2.32-7.4s2.32-7.06,3.44-10.5,1.81-5.51,2.16-6.28a10,10,0,0,1,.34-1c.08-.34.17-.68.26-.94.51-2.59.94-4.74,1.37-6.37s.78-2.32,1-2.32.25-.18.34-.35a.94.94,0,0,0,.17-.69c0-.25.26-1.46.77-3.61s1.21-4.56,2-7.4c1.8-6.54,2.58-10.33,2.23-11.27a23.06,23.06,0,0,1-.51-3.79c-.09-1.9-.17-4-.26-6.11a33.66,33.66,0,0,1,.26-4.82c0-.26.08-.35.17-.26s.26.17.34.34l.52.78c.08.26.26.43.34.69s.26.34.43.43.18.08.26-.09v-.25a.09.09,0,0,0,.09-.09v-.09l-.09-.08-.08-.09v-.69a3.44,3.44,0,0,1,.08-.86,55.59,55.59,0,0,1,.26-5.68,11.61,11.61,0,0,1,.43-3.1,1.77,1.77,0,0,1,1.72-1.12A1.62,1.62,0,0,1,838.76,954.37Zm-11.36,68.5a.57.57,0,0,1,.17.52c0,.17,0,.35-.08.43s-.09.17-.18.17-.16,0-.34-.17a1.79,1.79,0,0,1-.34-.43c-.17-.26-.17-.34-.09-.52s.17-.16.35-.16A1.26,1.26,0,0,1,827.4,1022.87Zm13.34-.51a21.4,21.4,0,0,1,4.73,3.61c1.38,1.38,2.15,2.41,2.24,3.19a2.4,2.4,0,0,1-.52,1.12,8.72,8.72,0,0,1-1.11,1.54,8.7,8.7,0,0,0-1.21,1.47,2.49,2.49,0,0,0-.51.86.65.65,0,0,1-.18.43,1.14,1.14,0,0,1-.51.17c-.35,0-.78.26-1.38.86a12.43,12.43,0,0,0-1.81,1.9,3.18,3.18,0,0,0-.77,1.54c0,.43-.6,1.3-1.64,2.67s-2.49,3-4.22,4.91a16,16,0,0,0-1.89,2.15,17.35,17.35,0,0,0-1.37,2.06c-1.47,2.76-1.72,2.59-.69-.51.17-.69.43-1.64.6-2.67s.34-2.07.43-2.92a23.89,23.89,0,0,1,.35-3.28A27.55,27.55,0,0,1,832,1038a18.51,18.51,0,0,0,.61-2.58,4.23,4.23,0,0,0,.08-1.38,5.8,5.8,0,0,1,.26-2.06c.26-1.21.69-2.59,1.12-4s.94-2.92,1.38-4.13a14.16,14.16,0,0,1,1.11-2.32c.35-.26.61-.52,1-.52C838,1020.9,839.11,1021.41,840.74,1022.36Zm-9-13.34a3,3,0,0,0-.17,1,2.92,2.92,0,0,0,.17.94.62.62,0,0,0,.52.35.45.45,0,0,0,.43-.35,1.72,1.72,0,0,0,.26-.94,1.76,1.76,0,0,0-.26-1c-.09-.26-.26-.43-.43-.43S832,1008.76,831.79,1009Zm11.79-25.39a1.84,1.84,0,0,0-.86.52.73.73,0,0,0-.34.6,25.52,25.52,0,0,0,.68,3.1c.52,1.72,1.12,3.79,1.81,6s1.46,4.56,2.15,6.72c.35,1,.78,2.41,1.29,4s1,3.19,1.47,4.65.94,2.75,1.37,4a15.93,15.93,0,0,0,1.29,2.67c.26.52.61,1.12,1,2s.68,1.72.94,2.49a7.86,7.86,0,0,0,.86,2.07c.35.52.69.86.86.86.69,0,.52-1-.42-3.09-.35-.87-.69-1.73-1-2.59a6.84,6.84,0,0,1-.35-1.8,8.35,8.35,0,0,0-.6-2.41c-.34-1.21-.86-2.59-1.38-4s-1-2.67-1.37-3.7a10.36,10.36,0,0,1-.52-1.81,8,8,0,0,0-.52-2.41c-.43-1.21-.85-2.5-1.37-3.79a11.14,11.14,0,0,0-1.29-2.66,2.86,2.86,0,0,1-.6-1.3,6.22,6.22,0,0,1-.26-1.8,7.37,7.37,0,0,0-.26-1.9,3.23,3.23,0,0,0-.52-1.54,12.81,12.81,0,0,1-.52-1.56,6.87,6.87,0,0,1-.25-1.72c-.09-1.11-.35-1.72-.78-1.8A1.8,1.8,0,0,0,843.58,983.63Zm-.86,15.24c.34,3.35.86,5.07,1.64,5.07.17,0,.25-.25.25-.69a7.05,7.05,0,0,0-.25-1.54c-.18-.61-.35-1.3-.52-2s-.52-1.38-.69-1.81a5.55,5.55,0,0,0-.51-1C842.55,996.8,842.55,997.4,842.72,998.87Zm3.7,10.07v.68a.94.94,0,0,0,.17.69c.09.17.26.35.43.35a.32.32,0,0,0,.35-.35,1,1,0,0,0-.09-.69,4.24,4.24,0,0,0-.35-.68.6.6,0,0,0-.25-.35C846.59,1008.59,846.51,1008.68,846.42,1008.94Z" transform="translate(-16.47 -251.84)"/></svg>