<svg id="Capa_1" data-name="Capa 1" xmlns="http://www.w3.org/2000/svg" viewBox="0 0 1017.15 626.9"><defs><style>.cls-1{fill:none;stroke:#000;stroke-miterlimit:10;stroke-width:0.25px;}.cls-2{fill:#fff9f9;}.cls-3{fill:#1d1d1b;}</style></defs><path class="cls-1" d="M273.68,708.48s-175.81,20.45-36.79,45" transform="translate(-30.97 -231.16)"/><path class="cls-1" d="M549.9,796.62s-61.78,4.09-86.31,0" transform="translate(-30.97 -231.16)"/><path class="cls-1" d="M799.77,712.57s153-1.87,55.88-20.44-108.12,4.09-108.12,4.09" transform="translate(-30.97 -231.16)"/><path class="cls-1" d="M118.77,827.06A412.05,412.05,0,0,1,52,822.52c-35-5.46-15.44-16.81-15.44-16.81s26.8-19.08,64.05-21.36,30.9-16.81,30.9-16.81-21.81-15.9-49.07-11.35-16.81-8.63-16.81-8.63S89.69,743,67,736.2s-1.36-16.81-1.36-16.81a477.42,477.42,0,0,1,69.51-12.72c36.35-3.64,10.9-20,10.9-20S91.51,679,60.61,674.87s-14.53-10.45-14.53-10.45,15-13.63,60.87-9.09S326.12,646,326.12,646l398.69-14.3s220.8-6.82,273-2.28,15.9,15.45,15.9,15.45-223.52-2.27-130.84,15.9c0,0,164-.45,129,31.35,0,0-9.54,4.09,22.71,11.81s-4.09,19.54-4.09,19.54-80.41,3.39-90.4,14.87,3.18,17.84,3.18,17.84,75.87,1.36,87.22,13.17-7.72,12.27-7.72,12.27-70.87-3.18-42.7,19.08-16.36,23.17-16.81,24.53S548.09,828.47,521.74,858" transform="translate(-30.97 -231.16)"/><path class="cls-2" d="M367.31,738.35h351.6L602.6,623.07,544.36,584l-.21-42.49s72.08-4.76,47.1-88.36L479,339.59l-70,164.46,51.79,74.5L355.46,713S336.38,731.87,340,738.35Z" transform="translate(-30.97 -231.16)"/><path class="cls-3" d="M254.6,780.27s-67.23-16.36,7.27-80c0,0,61.79-20,79.05-90.86s16.36-139.93,16.36-139.93-6.36-151.74,77.23-211.71,163.55,0,163.55,0,49.07,24.53,62.7,139.93,60.87,210.8,60.87,210.8,24.54,86.32,105.4,109,79.05,50.88,79.05,50.88,13.63,31.81-53.61,41.8-77.23,23.62-77.23,23.62S765,847.5,786.83,851.59c0,0-18.4,4.09-35-17.94s38.39-39.76,38.39-39.76,91.77-7.95,9.54-56.1-66.1-17.95-66.1-17.95,17.49,24.76-21.35,43.84-60.42,17.49-60.42,17.49S599.42,796.39,695.51,793s50.2,42,50.2,42-8.63,7.5-29.07,2.27c0,0,43.38-14.54,7-26.58S584,818.88,584,818.88s-90.64,16.13-60.43-22S661,763.68,661,763.68s66.11-17.49,17-43.38-61.79,2.27-61.79,2.27-59.51,25-82.68-16.36c0,0-8.18-15.44,42.25-28.16,0,0,18.17-2.28,25.44-26.81l1.36-28.17s-20.89-2.72-58.15-20.59l-.3-61s64.36-20.66,47.1-88.36c0,0-90-55.42-104.95-91.77,0,0-14.54,62.24-51.79,105,0,0-15.45,45.88,49.52,81.32l-.45,54.52S457.23,609,435.87,619c0,0-6.4,39.27,45.89,60s37.86,40.74,37.86,40.74,1.81,10-63.3,10.9-57.55,18.48-57.55,18.48-4.54,8.48,39.68,8.48c0,0,41.19,7.57,8.78,30.29,0,0-25.74,5.75-28.77,5.75S405,785.72,405,785.72s35.44-7.27,6.13-15.22c0,0-40-4.09-46.79-20.45s33.16-26.12,33.16-26.12,21.81-7,54.29-10.68c0,0,20.9-3.4-4.54-14.08s-31.35-15.9-31.35-15.9-11.35,25.21-68.6,47.93l-36.34.91s10.9-13.18-3.64-10c0,0-68.14,31.35-10.45,44.07,0,0,12.73,5.45,47.25,4.55a166.18,166.18,0,0,1,61.79,10.44s31.35,16.81,16.81,40S364.09,858,364.09,858H171.92s-6.36-12.29,35.89-13.66S300,850.23,300,850.23s56.79,4.54,74.51-14.08-26.8-37.26-26.8-37.26S291.86,785.26,254.6,780.27Z" transform="translate(-30.97 -231.16)"/></svg>