<svg xmlns="http://www.w3.org/2000/svg" viewBox="0 0 446.42 431.09"><defs><style>.cls-1{fill:#002b40;}.cls-12,.cls-2{fill:#c29586;}.cls-10,.cls-3,.cls-4,.cls-7{fill:none;}.cls-10,.cls-11,.cls-12,.cls-13,.cls-14,.cls-3{stroke:#000;}.cls-10,.cls-11,.cls-12,.cls-13,.cls-14,.cls-3,.cls-7{stroke-miterlimit:10;}.cls-11,.cls-12,.cls-13,.cls-14,.cls-3{stroke-width:0.25px;}.cls-5{fill:#f9f9f9;}.cls-6{fill:#c57479;}.cls-7{stroke:#999;}.cls-10,.cls-7{stroke-width:0.5px;}.cls-8{fill:#fff;}.cls-9{fill:#282735;}.cls-13{fill:#728192;}.cls-14{fill:#c0d2e5;}.cls-15{fill:#d5a4a0;}.cls-16{fill:#314954;}.cls-17{fill:#04080b;}.cls-18{fill:#151e23;}.cls-19{fill:#140607;}.cls-20{fill:#794535;}</style></defs><title>quintero</title><g id="Capa_1" data-name="Capa 1"><rect class="cls-1" width="446.42" height="431.09" rx="39.36"/></g><g id="cuello-2" data-name="cuello"><path class="cls-2" d="M249.24,104.27S221.8,129,232.77,176.71c0,0,7.32,45.94,42.09,49.48,0,0,32.93,0,45.74-42.41,0,0,12.81-56.54-11-76C309.62,107.8,280.35,72.47,249.24,104.27Z" transform="translate(-33.59 -46.08)"/><path d="M288.43,137.15s2-4.77-.46-7.19l2.13,2.2,2.21-3.31v2.72s14-9.84,26.7-1l1.44,3.75S306.76,127.9,288.43,137.15Z" transform="translate(-33.59 -46.08)"/><path class="cls-3" d="M296,180.48" transform="translate(-33.59 -46.08)"/><path class="cls-4" d="M258.68,187.31s11.11-7.56,21.13-4.74c0,0,9.07-2.87,18.74,5.46,0,0-3.91,16.86-28.27,10.92C270.28,199,260.41,195.79,258.68,187.31Z" transform="translate(-33.59 -46.08)"/><path d="M275.63,146.19a19.63,19.63,0,0,1-.71,5.44,30,30,0,0,1-1.9,5.17,34.69,34.69,0,0,1-2.78,4.75c-.5.78-1.1,1.48-1.66,2.21s-1.21,1.38-1.81,2.07h0a5.13,5.13,0,0,0-1.13,3.33,3.49,3.49,0,0,0,2.05,2.75,12.34,12.34,0,0,0,3.46,1.09,31.86,31.86,0,0,0,3.65.42,29.79,29.79,0,0,1-3.66-.32,11.74,11.74,0,0,1-3.52-1.06,3.65,3.65,0,0,1-2.16-2.86,5.28,5.28,0,0,1,1.15-3.49h0c.6-.7,1.21-1.38,1.79-2.08s1.15-1.43,1.65-2.19a36.48,36.48,0,0,0,2.81-4.7,30.45,30.45,0,0,0,1.94-5.12A21,21,0,0,0,275.63,146.19Z" transform="translate(-33.59 -46.08)"/><path d="M269.68,170.65a2.94,2.94,0,0,1,2-1,4.8,4.8,0,0,1,2.27.46,9.52,9.52,0,0,1,2,1.22,21.27,21.27,0,0,1,1.74,1.54h0a3.34,3.34,0,0,0,2.63,1.75,2.64,2.64,0,0,0,1.5-.56,8.11,8.11,0,0,0,.62-.55l.55-.65h0a10.39,10.39,0,0,1,1.76-1.43,7.52,7.52,0,0,1,2.05-1,4.51,4.51,0,0,1,2.25-.07,4.6,4.6,0,0,1,1.95,1.09,4.56,4.56,0,0,0-2-1,4.77,4.77,0,0,0-2.19.12,7.46,7.46,0,0,0-2,1,10.66,10.66,0,0,0-1.71,1.42h0l-.55.66c-.21.2-.42.41-.65.59a2.88,2.88,0,0,1-1.63.63,2.66,2.66,0,0,1-1.65-.59,5,5,0,0,1-1.16-1.3l0,0a20.54,20.54,0,0,0-1.69-1.55,10,10,0,0,0-1.93-1.23,4.82,4.82,0,0,0-2.2-.5A2.88,2.88,0,0,0,269.68,170.65Z" transform="translate(-33.59 -46.08)"/><path d="M287.17,145.73a37.63,37.63,0,0,0,.11,4.75,35.11,35.11,0,0,0,.69,4.69,26.2,26.2,0,0,0,1.44,4.5,18.08,18.08,0,0,0,2.48,4h0a10.5,10.5,0,0,1,1.61,2.09,7,7,0,0,1,.93,2.47,4.12,4.12,0,0,1-.44,2.58,5.58,5.58,0,0,1-1.81,1.9h0a16.07,16.07,0,0,1-2.48.52,17.55,17.55,0,0,1-2.51.18,18.85,18.85,0,0,0,4.95-.82h0a5.43,5.43,0,0,0,1.74-1.86,3.89,3.89,0,0,0,.4-2.48,6.73,6.73,0,0,0-.93-2.39,10.86,10.86,0,0,0-1.59-2h0a17.2,17.2,0,0,1-2.5-4.07,26.91,26.91,0,0,1-1.41-4.55A34.69,34.69,0,0,1,287.17,145.73Z" transform="translate(-33.59 -46.08)"/><polygon class="cls-5" points="225.08 141.24 240.01 137.75 259.12 138.52 264.96 141.95 254.61 150.06 241.07 151.17 231.7 147.73 225.95 142.54 225.08 141.24"/><path class="cls-6" d="M258.68,187.31s4.81-.53,11.59-.81c8.24-.34,19.38-.3,28.28,1.53,0,0-8.1-7.87-18.74-5.46C279.81,182.57,272.3,179,258.68,187.31Z" transform="translate(-33.59 -46.08)"/><path class="cls-6" d="M258.68,187.31s19.54,13.64,39.87.72c0,0-4.19,17.13-28.27,10.92C270.28,199,260.43,196,258.68,187.31Z" transform="translate(-33.59 -46.08)"/><line class="cls-7" x1="233.28" y1="145.21" x2="233.73" y2="140.57"/><line class="cls-7" x1="238.64" y1="146.72" x2="239.57" y2="140.33"/><line class="cls-7" x1="244.7" y1="147.48" x2="245.02" y2="140.26"/><line class="cls-7" x1="249.88" y1="147.32" x2="249.88" y2="140.35"/><line class="cls-7" x1="255.66" y1="146.19" x2="254.92" y2="140.62"/><path class="cls-2" d="M232,152s-9.33-11.24-13.69-.77c0,0-1.06,9.58,1.19,10.6,0,0,2.31,7.72,4.36,18.68,0,0,10.85,9.57,10.61-2.13C234.51,178.35,230.9,162,232,152Z" transform="translate(-33.59 -46.08)"/><path d="M229.33,155.23c-.81-1-1.69-2-2.57-2.93a21.55,21.55,0,0,0-2.88-2.61,4.59,4.59,0,0,0-1.7-.84,1.13,1.13,0,0,0-.85.11,1.38,1.38,0,0,0-.52.72,9.56,9.56,0,0,0-.11,3.81h0l1,4c.32,1.34.6,2.7.9,4-.34-1.33-.71-2.66-1-4l-1-4h0a9.47,9.47,0,0,1,.08-3.93,1.65,1.65,0,0,1,.62-.83,1.43,1.43,0,0,1,1-.13,4.9,4.9,0,0,1,1.76.9,21.44,21.44,0,0,1,2.87,2.68A37.78,37.78,0,0,1,229.33,155.23Z" transform="translate(-33.59 -46.08)"/><path d="M226.46,152.93a40,40,0,0,0-1.46,5.9,32.41,32.41,0,0,0-.54,6,22.32,22.32,0,0,0,.85,6,14.63,14.63,0,0,0,2.91,5.26l-.16,0a21.42,21.42,0,0,1,1.11-2.49,7.31,7.31,0,0,1,1.61-2.21,1.22,1.22,0,0,1,1.32-.27,2.23,2.23,0,0,1,.87,1,10.71,10.71,0,0,1,.79,2.6,11.57,11.57,0,0,0-.85-2.57,2.29,2.29,0,0,0-.86-1,1.12,1.12,0,0,0-1.19.28,7.34,7.34,0,0,0-1.55,2.17,20.15,20.15,0,0,0-1.07,2.48l-.06.15-.1-.12a14.69,14.69,0,0,1-3-5.3,21.44,21.44,0,0,1-.81-6.06,32.52,32.52,0,0,1,.59-6.07A36.25,36.25,0,0,1,226.46,152.93Z" transform="translate(-33.59 -46.08)"/><path class="cls-2" d="M322.12,154.27s4.66-11.09,9.62-4.43c0,0,2.32,7.62-2,17.07,0,0,.09,9.49-2.57,13.3,0,0,0,6.09-8.51,5.21C318.68,185.42,323.6,163.91,322.12,154.27Z" transform="translate(-33.59 -46.08)"/><path d="M326.22,154.7a15,15,0,0,1,1.6-3.2,3.27,3.27,0,0,1,.6-.69,1,1,0,0,1,.44-.23.53.53,0,0,1,.5.12,3,3,0,0,1,.62,1.73,28.6,28.6,0,0,1,.1,3.58c0,1.19-.05,2.38-.1,3.57-.05-1.19-.08-2.38-.1-3.57a29.93,29.93,0,0,0-.15-3.55,2.88,2.88,0,0,0-.51-1.58c-.18-.19-.45-.07-.66.1a3.55,3.55,0,0,0-.59.63A19.52,19.52,0,0,0,326.22,154.7Z" transform="translate(-33.59 -46.08)"/><path d="M323,172a4,4,0,0,0,2.22-1.53,8.85,8.85,0,0,0,1.36-2.37,20.42,20.42,0,0,0,1.2-5.36,42.19,42.19,0,0,0,.26-5.51c0-1.84-.14-3.68-.22-5.53l.26,2.76c.1.92.08,1.85.13,2.77s0,1.85,0,2.77-.1,1.85-.17,2.77a21,21,0,0,1-1.3,5.4,9.1,9.1,0,0,1-1.42,2.38A4,4,0,0,1,323,172Z" transform="translate(-33.59 -46.08)"/><path d="M326,177a6.9,6.9,0,0,0-.77-1.86,9.54,9.54,0,0,0-1.18-1.63,15.83,15.83,0,0,0-3.09-2.61l.9.49c.28.19.58.37.85.57a11.09,11.09,0,0,1,1.53,1.38A6.87,6.87,0,0,1,326,177Z" transform="translate(-33.59 -46.08)"/><path class="cls-2" d="M414.15,217.94" transform="translate(-33.59 -46.08)"/><path d="M241.58,130.92s19.87-13.93,31.63,3.89c.45-1.64-24.51-6.32-31.63,1.25Z" transform="translate(-33.59 -46.08)"/><path class="cls-8" d="M293.07,146.55s7.31-8.84,20.12,0C313.19,146.55,307.7,148.32,293.07,146.55Z" transform="translate(-33.59 -46.08)"/><path d="M293,146.54a.46.46,0,0,1,.12-.2l.12-.13a2.77,2.77,0,0,1,.25-.24c.17-.17.34-.32.52-.47.35-.3.74-.56,1.12-.83a12.77,12.77,0,0,1,2.47-1.26,13.33,13.33,0,0,1,5.45-.85,17.49,17.49,0,0,1,5.37,1.28c.85.34,1.66.8,2.49,1.19l2.35,1.47.11.07-.13,0a27.42,27.42,0,0,1-5,.67c-1.69.09-3.37.11-5.06.06s-3.37-.15-5.05-.27-3.36-.32-5-.52Zm-.29,0,.39.05c1.67.19,3.34.35,5,.49s3.36.21,5,.24,3.37,0,5.05-.09a25.87,25.87,0,0,0,5-.7v.11l-2.34-1.45c-.83-.39-1.64-.83-2.49-1.17a17.48,17.48,0,0,0-5.32-1.24,13.25,13.25,0,0,0-5.36.87,12.89,12.89,0,0,0-2.42,1.25c-.37.27-.75.53-1.09.83a5.47,5.47,0,0,0-.51.45l-.24.24-.12.12c0,.08,0,0-.09,0Z" transform="translate(-33.59 -46.08)"/><path d="M305.94,145.86c0,1.79-2.19,1.61-4.05,1.61s-2.66.18-2.66-1.61a3.36,3.36,0,0,1,6.71,0Z" transform="translate(-33.59 -46.08)"/><path class="cls-8" d="M247.65,145.41s7.32-8.84,20.13,0C267.78,145.41,262.29,147.17,247.65,145.41Z" transform="translate(-33.59 -46.08)"/><path d="M247.55,145.39a.92.92,0,0,1,.12-.2l.12-.12.25-.25a5.82,5.82,0,0,1,.53-.46c.35-.31.73-.56,1.11-.84a14.36,14.36,0,0,1,2.47-1.26,13.34,13.34,0,0,1,5.45-.84,17.62,17.62,0,0,1,5.37,1.27c.86.35,1.66.8,2.5,1.2l2.34,1.47.12.07-.14,0a26.48,26.48,0,0,1-5,.68c-1.68.09-3.37.11-5.06.06s-3.36-.15-5-.28-3.36-.32-5-.51Zm-.29,0,.39,0c1.68.19,3.35.35,5,.48s3.36.22,5.05.25,3.36,0,5-.09a26.9,26.9,0,0,0,5-.7l0,.1L265.4,144c-.83-.39-1.63-.84-2.48-1.17a17.54,17.54,0,0,0-5.33-1.24,13.25,13.25,0,0,0-5.36.87,12.33,12.33,0,0,0-2.42,1.25,12.52,12.52,0,0,0-1.09.83c-.18.14-.34.29-.51.45l-.24.24-.11.12c-.06.07,0,0-.09,0Z" transform="translate(-33.59 -46.08)"/><path d="M260.53,144.72c0,1.79-2.2,1.6-4,1.6s-2.67.19-2.67-1.6a3.36,3.36,0,0,1,6.72,0Z" transform="translate(-33.59 -46.08)"/><path d="M246.16,143.83a13.44,13.44,0,0,1,5.09-4.28,12.94,12.94,0,0,1,6.54-1.24,18,18,0,0,1,6.45,1.84c1,.54,1.94,1.12,2.89,1.71s1.79,1.35,2.67,2v0c-.93-.63-1.84-1.26-2.75-1.91s-1.93-1.11-2.91-1.63l-1.53-.65-.77-.33-.8-.22c-.54-.15-1.06-.32-1.61-.44l-1.64-.22a12.69,12.69,0,0,0-6.48,1.15,13.49,13.49,0,0,0-5.12,4.18Z" transform="translate(-33.59 -46.08)"/><path d="M314.51,145.31a13.14,13.14,0,0,0-4.93-4.16,12,12,0,0,0-6.29-1.17l-1.61.22c-.52.12-1,.3-1.56.44l-.78.23-.74.33-1.49.65c-.95.52-1.89,1.06-2.81,1.63s-1.76,1.28-2.65,1.9h0c.85-.69,1.71-1.36,2.58-2s1.85-1.16,2.79-1.71a17.27,17.27,0,0,1,6.27-1.85,12.18,12.18,0,0,1,6.37,1.26,13.22,13.22,0,0,1,4.89,4.26Z" transform="translate(-33.59 -46.08)"/><path class="cls-9" d="M222.35,147s1.36-15.23.75-21.84c0,0-10.44-25.12,10.14-36.13,0,0,.35-26.82,30.62-17.38,0,0,2.16-24.63,27.78-9.94,0,0,24.7,7.63,26.07,17.18,0,0,23.28,22.62,17.5,41l-5.42,21.16-2,7.57L324,152.5c.08-1.48.1-3.08,0-4.78a51.38,51.38,0,0,0-.44-5.29l3.59-2.12,1.75.81s.56-1.22-.94-3.4l-5.17-1.06s-2.07-17.53-13.25-27.22c0,0-29.3-36-60.38-3.53a72.22,72.22,0,0,0-18.76,45.73,31.14,31.14,0,0,0-3.43-2.37A30.07,30.07,0,0,0,222.35,147Z" transform="translate(-33.59 -46.08)"/><path class="cls-10" d="M289,138.34s13.85-10.66,32.56-1.19c0,0,8.82,16.68-10.5,26.52,0,0-19.62,6.68-24-16.71C287,147,287.07,139.55,289,138.34Z" transform="translate(-33.59 -46.08)"/><path d="M275.27,136.49s11.11-1.29,13.69,1.85l-1,2.78s-4-3.78-12.2-1.3Z" transform="translate(-33.59 -46.08)"/><path class="cls-11" d="M241.05,132l-4.92.36-2.89,1.71v1.67l2.48-.69s1.94-.63,3.2,2.65Z" transform="translate(-33.59 -46.08)"/><path class="cls-11" d="M321.52,137.15s5.89.21,6.82,1.19c0,0,1,2.27.55,2.78l-1.75-.81-3.91,2.31Z" transform="translate(-33.59 -46.08)"/><path class="cls-10" d="M241.05,132s22.51-7.57,34.22,4.47c0,0,5.61,22.77-17,25.27,0,0-21.36,2.05-19.23-22.62C239.07,139.14,239.22,134.29,241.05,132Z" transform="translate(-33.59 -46.08)"/><path class="cls-12" d="M314.52,196.54a82.78,82.78,0,0,0-11.93,45.62s-3.86,12.94-32.32,14.09c0,0-25.79-1-41.21-19.26a43.57,43.57,0,0,1-8.61-14.37s11.44-.48,16.2-3.45l-.29-30.93s7.28,30.44,38.41,36C274.77,224.29,294,227.26,314.52,196.54Z" transform="translate(-33.59 -46.08)"/><path class="cls-3" d="M220.45,222.62" transform="translate(-33.59 -46.08)"/><path class="cls-12" d="M104.54,406.12s-10.81,37.73,20.27,37.6c0,0,97.88,29.12,142.45,21.07l34.52-.76,23.81-14.95s-34.12,10.86-116.26-28.74l-38.49-16.09S125,393.05,104.54,406.12Z" transform="translate(-33.59 -46.08)"/><path class="cls-12" d="M374.78,407.36s-10.06,54.6-31.09,42.72c0,0-44.38,15.91-155-37.39,0,0,2.35-4.63,0-6.1l-1.09-2.68,2.18-3.26,2.58-2.49s5.36.64,7.34-3.83l4-4.79,14.88,2.3s16.6.32,29.76,4.6,65-.32,75.69-3.64C324,392.8,349.12,387.62,374.78,407.36Z" transform="translate(-33.59 -46.08)"/><path class="cls-13" d="M385.16,422.11C376.53,388.68,324,392.8,324,392.8c-36.89,9-75.69,3.64-75.69,3.64-9.52-3.55-44.64-6.9-44.64-6.9-2.18-16-19.64-12.41-19.64-12.41-18.45,8.85-11.91,17.39-11.91,17.39l.6,11.5c-74.6-15.62-73.21,10.63-73.21,10.63l17.26-104c.79-30.37,19.64-56.37,19.64-56.37,14.38-34.63,36.31-28.7,36.31-28.7a210.58,210.58,0,0,0,47.78-4.93c13.26,33,49.82,33.63,49.82,33.63,28.66-1.48,32.32-14.09,32.32-14.09-.53-7.42,1.62-19.22,1.62-19.22,12.6,10.14,55.65,14.38,55.65,14.38,20.14,1,31.84,34.2,31.84,34.2l-11.6,125Z" transform="translate(-33.59 -46.08)"/><path class="cls-14" d="M213.32,224.08s7.06,34,45.36,39.68c0,0,60.35,7.41,50.7-37.7l-5.17-3.12s-2.85,12.57-1.62,19.22c0,0-2.42,12.28-32.32,14.09,0,0-37.26-2.06-49.82-33.63Z" transform="translate(-33.59 -46.08)"/><path class="cls-3" d="M323.22,387.34" transform="translate(-33.59 -46.08)"/><path class="cls-2" d="M324.89,384.61l8.19-13.37s1.58-10.68,9.67-12.79c0,0,8,.44,3.57,8.63l-6.84,7a7.5,7.5,0,0,0-3.2,7.76s-9,0-10.64,5.46L324,388.92Z" transform="translate(-33.59 -46.08)"/><path class="cls-15" d="M337.91,364.35s.33,3,5.36,3l2.31-3s-.35-5.9-5.06-3.74Z" transform="translate(-33.59 -46.08)"/><path class="cls-2" d="M312.28,395.19l2.87-9.07s2.33-10.95,5.5-13.15c0,0,6.62-14.13,9.45-14.52,0,0,6.82-1.43,4.39,5.3l-1.41,7.49-8.19,13.37-.89,4.31-2.31,2.37v2Z" transform="translate(-33.59 -46.08)"/><path class="cls-15" d="M326,362.94s.88,4.4,8.45.81c0,0,3-6.47-4.39-5.3A8.81,8.81,0,0,0,326,362.94Z" transform="translate(-33.59 -46.08)"/><path class="cls-2" d="M374.78,407.36l.57-1.25s-8-7.77-22.34-10.8Z" transform="translate(-33.59 -46.08)"/><path class="cls-16" d="M172.07,394.52s11,3.26,18.26-1.34c0,0,11-6.15,9.35-12.27,0,0-4.13-6.29-15.7-3.78C184,377.13,165.79,384,172.07,394.52Z" transform="translate(-33.59 -46.08)"/><path class="cls-17" d="M175.2,406.07s-2.4,2.25-3.13-11.55c0,0,10.92,2.36,18.26-1.34l2,5-2.58,2.49-2.18,3.26,1.09,2.68s2.15.58,0,6.1C188.64,412.69,187.64,410.28,175.2,406.07Z" transform="translate(-33.59 -46.08)"/><path class="cls-17" d="M203.62,389.54s.26-3.63-3.94-8.63c0,0,1.16,5.72-9.35,12.27l.77,1.94c.27.41,5.65-8.06,8.55-.79Z" transform="translate(-33.59 -46.08)"/><path class="cls-18" d="M191.1,395.12l1.21,3s5.52.67,7.34-3.83C199.65,394.33,197.82,387.1,191.1,395.12Z" transform="translate(-33.59 -46.08)"/><path class="cls-3" d="M102.26,399.78s18.08-18.24,64.9-6.6c0,0,3.77.86,5.51,12.84,0,0-70.83-16.38-73.21,10.63Z" transform="translate(-33.59 -46.08)"/><path class="cls-3" d="M167.16,393.18S180.74,297.32,177.83,270" transform="translate(-33.59 -46.08)"/><line class="cls-3" x1="296.51" y1="312.37" x2="314.08" y2="228.51"/><path class="cls-3" d="M380.1,396.53s-50.69-25.1-56.1-7.61l-2.3,4.41s49.07-6.47,61.52,23.32Z" transform="translate(-33.59 -46.08)"/><path class="cls-19" d="M385.16,422.11s-7.73,3.59-14.78,2.22l5-18.22A21.53,21.53,0,0,1,385.16,422.11Z" transform="translate(-33.59 -46.08)"/><path class="cls-19" d="M99.46,416.65l3.26,6.86.89-15.37S99.9,412.63,99.46,416.65Z" transform="translate(-33.59 -46.08)"/><path class="cls-2" d="M152.32,452.71" transform="translate(-33.59 -46.08)"/><ellipse class="cls-20" cx="246.38" cy="165.39" rx="0.63" ry="0.61"/></g></svg>